G04 MADE WITH FRITZING*
G04 WWW.FRITZING.ORG*
G04 DOUBLE SIDED*
G04 HOLES PLATED*
G04 CONTOUR ON CENTER OF CONTOUR VECTOR*
%ASAXBY*%
%FSLAX23Y23*%
%MOIN*%
%OFA0B0*%
%SFA1.0B1.0*%
%ADD10C,0.085000*%
%ADD11C,0.088000*%
%ADD12C,0.097244*%
%ADD13R,0.001000X0.001000*%
%LNMASK1*%
G90*
G70*
G54D10*
X1010Y574D03*
X1010Y174D03*
X810Y574D03*
X810Y174D03*
G54D11*
X1910Y74D03*
X1810Y74D03*
X1710Y74D03*
X1610Y74D03*
G54D12*
X114Y490D03*
X430Y490D03*
X277Y343D03*
X1373Y490D03*
X1689Y490D03*
X1535Y343D03*
G54D13*
X72Y532D02*
X155Y532D01*
X388Y532D02*
X471Y532D01*
X1330Y532D02*
X1414Y532D01*
X1646Y532D02*
X1730Y532D01*
X67Y531D02*
X160Y531D01*
X383Y531D02*
X476Y531D01*
X1325Y531D02*
X1419Y531D01*
X1641Y531D02*
X1735Y531D01*
X63Y530D02*
X164Y530D01*
X379Y530D02*
X480Y530D01*
X1322Y530D02*
X1422Y530D01*
X1638Y530D02*
X1738Y530D01*
X61Y529D02*
X166Y529D01*
X377Y529D02*
X482Y529D01*
X1319Y529D02*
X1425Y529D01*
X1635Y529D02*
X1741Y529D01*
X59Y528D02*
X169Y528D01*
X375Y528D02*
X484Y528D01*
X1317Y528D02*
X1427Y528D01*
X1633Y528D02*
X1743Y528D01*
X57Y527D02*
X171Y527D01*
X373Y527D02*
X486Y527D01*
X1315Y527D02*
X1429Y527D01*
X1631Y527D02*
X1745Y527D01*
X55Y526D02*
X172Y526D01*
X371Y526D02*
X488Y526D01*
X1314Y526D02*
X1431Y526D01*
X1629Y526D02*
X1747Y526D01*
X53Y525D02*
X174Y525D01*
X369Y525D02*
X490Y525D01*
X1312Y525D02*
X1432Y525D01*
X1628Y525D02*
X1748Y525D01*
X52Y524D02*
X175Y524D01*
X368Y524D02*
X491Y524D01*
X1311Y524D02*
X1434Y524D01*
X1626Y524D02*
X1750Y524D01*
X51Y523D02*
X177Y523D01*
X367Y523D02*
X492Y523D01*
X1309Y523D02*
X1435Y523D01*
X1625Y523D02*
X1751Y523D01*
X49Y522D02*
X178Y522D01*
X365Y522D02*
X494Y522D01*
X1308Y522D02*
X1436Y522D01*
X1624Y522D02*
X1752Y522D01*
X48Y521D02*
X179Y521D01*
X364Y521D02*
X495Y521D01*
X1307Y521D02*
X1437Y521D01*
X1623Y521D02*
X1753Y521D01*
X47Y520D02*
X180Y520D01*
X363Y520D02*
X496Y520D01*
X1306Y520D02*
X1438Y520D01*
X1622Y520D02*
X1754Y520D01*
X46Y519D02*
X181Y519D01*
X362Y519D02*
X497Y519D01*
X1305Y519D02*
X1439Y519D01*
X1621Y519D02*
X1755Y519D01*
X45Y518D02*
X182Y518D01*
X361Y518D02*
X498Y518D01*
X1304Y518D02*
X1440Y518D01*
X1620Y518D02*
X1756Y518D01*
X45Y517D02*
X183Y517D01*
X360Y517D02*
X498Y517D01*
X1303Y517D02*
X1441Y517D01*
X1619Y517D02*
X1757Y517D01*
X44Y516D02*
X183Y516D01*
X360Y516D02*
X499Y516D01*
X1302Y516D02*
X1442Y516D01*
X1618Y516D02*
X1758Y516D01*
X43Y515D02*
X184Y515D01*
X359Y515D02*
X500Y515D01*
X1302Y515D02*
X1443Y515D01*
X1618Y515D02*
X1758Y515D01*
X42Y514D02*
X185Y514D01*
X358Y514D02*
X501Y514D01*
X1301Y514D02*
X1443Y514D01*
X1617Y514D02*
X1759Y514D01*
X42Y513D02*
X185Y513D01*
X358Y513D02*
X501Y513D01*
X1300Y513D02*
X1444Y513D01*
X1616Y513D02*
X1760Y513D01*
X41Y512D02*
X186Y512D01*
X357Y512D02*
X502Y512D01*
X1300Y512D02*
X1445Y512D01*
X1616Y512D02*
X1760Y512D01*
X41Y511D02*
X187Y511D01*
X356Y511D02*
X502Y511D01*
X1299Y511D02*
X1445Y511D01*
X1615Y511D02*
X1761Y511D01*
X40Y510D02*
X187Y510D01*
X356Y510D02*
X503Y510D01*
X1299Y510D02*
X1446Y510D01*
X1614Y510D02*
X1762Y510D01*
X40Y509D02*
X188Y509D01*
X355Y509D02*
X503Y509D01*
X1298Y509D02*
X1446Y509D01*
X1614Y509D02*
X1762Y509D01*
X39Y508D02*
X188Y508D01*
X355Y508D02*
X504Y508D01*
X1298Y508D02*
X1447Y508D01*
X1613Y508D02*
X1762Y508D01*
X39Y507D02*
X109Y507D01*
X118Y507D02*
X189Y507D01*
X354Y507D02*
X425Y507D01*
X434Y507D02*
X504Y507D01*
X1297Y507D02*
X1368Y507D01*
X1377Y507D02*
X1447Y507D01*
X1613Y507D02*
X1684Y507D01*
X1692Y507D02*
X1763Y507D01*
X38Y506D02*
X106Y506D01*
X121Y506D02*
X189Y506D01*
X354Y506D02*
X422Y506D01*
X437Y506D02*
X505Y506D01*
X1297Y506D02*
X1365Y506D01*
X1380Y506D02*
X1447Y506D01*
X1613Y506D02*
X1681Y506D01*
X1695Y506D02*
X1763Y506D01*
X38Y505D02*
X104Y505D01*
X123Y505D02*
X189Y505D01*
X354Y505D02*
X420Y505D01*
X439Y505D02*
X505Y505D01*
X1296Y505D02*
X1363Y505D01*
X1381Y505D02*
X1448Y505D01*
X1612Y505D02*
X1679Y505D01*
X1697Y505D02*
X1764Y505D01*
X37Y504D02*
X103Y504D01*
X124Y504D02*
X190Y504D01*
X353Y504D02*
X419Y504D01*
X440Y504D02*
X506Y504D01*
X1296Y504D02*
X1361Y504D01*
X1383Y504D02*
X1448Y504D01*
X1612Y504D02*
X1677Y504D01*
X1699Y504D02*
X1764Y504D01*
X37Y503D02*
X102Y503D01*
X125Y503D02*
X190Y503D01*
X353Y503D02*
X418Y503D01*
X441Y503D02*
X506Y503D01*
X1296Y503D02*
X1360Y503D01*
X1384Y503D02*
X1449Y503D01*
X1612Y503D02*
X1676Y503D01*
X1700Y503D02*
X1764Y503D01*
X37Y502D02*
X101Y502D01*
X126Y502D02*
X190Y502D01*
X353Y502D02*
X417Y502D01*
X442Y502D02*
X506Y502D01*
X1295Y502D02*
X1359Y502D01*
X1385Y502D02*
X1449Y502D01*
X1611Y502D02*
X1675Y502D01*
X1701Y502D02*
X1765Y502D01*
X37Y501D02*
X100Y501D01*
X127Y501D02*
X191Y501D01*
X352Y501D02*
X416Y501D01*
X443Y501D02*
X506Y501D01*
X1295Y501D02*
X1358Y501D01*
X1386Y501D02*
X1449Y501D01*
X1611Y501D02*
X1674Y501D01*
X1702Y501D02*
X1765Y501D01*
X36Y500D02*
X99Y500D01*
X128Y500D02*
X191Y500D01*
X352Y500D02*
X415Y500D01*
X444Y500D02*
X507Y500D01*
X1295Y500D02*
X1358Y500D01*
X1387Y500D02*
X1449Y500D01*
X1611Y500D02*
X1673Y500D01*
X1703Y500D02*
X1765Y500D01*
X36Y499D02*
X98Y499D01*
X129Y499D02*
X191Y499D01*
X352Y499D02*
X414Y499D01*
X445Y499D02*
X507Y499D01*
X1295Y499D02*
X1357Y499D01*
X1387Y499D02*
X1450Y499D01*
X1610Y499D02*
X1673Y499D01*
X1703Y499D02*
X1766Y499D01*
X36Y498D02*
X98Y498D01*
X129Y498D02*
X191Y498D01*
X352Y498D02*
X414Y498D01*
X445Y498D02*
X507Y498D01*
X1294Y498D02*
X1356Y498D01*
X1388Y498D02*
X1450Y498D01*
X1610Y498D02*
X1672Y498D01*
X1704Y498D02*
X1766Y498D01*
X36Y497D02*
X97Y497D01*
X130Y497D02*
X191Y497D01*
X352Y497D02*
X413Y497D01*
X446Y497D02*
X507Y497D01*
X1294Y497D02*
X1356Y497D01*
X1388Y497D02*
X1450Y497D01*
X1610Y497D02*
X1672Y497D01*
X1704Y497D02*
X1766Y497D01*
X36Y496D02*
X97Y496D01*
X130Y496D02*
X192Y496D01*
X351Y496D02*
X413Y496D01*
X446Y496D02*
X508Y496D01*
X1294Y496D02*
X1356Y496D01*
X1389Y496D02*
X1450Y496D01*
X1610Y496D02*
X1671Y496D01*
X1705Y496D02*
X1766Y496D01*
X35Y495D02*
X97Y495D01*
X130Y495D02*
X192Y495D01*
X351Y495D02*
X413Y495D01*
X446Y495D02*
X508Y495D01*
X1294Y495D02*
X1355Y495D01*
X1389Y495D02*
X1450Y495D01*
X1610Y495D02*
X1671Y495D01*
X1705Y495D02*
X1766Y495D01*
X35Y494D02*
X96Y494D01*
X131Y494D02*
X192Y494D01*
X351Y494D02*
X412Y494D01*
X447Y494D02*
X508Y494D01*
X1294Y494D02*
X1355Y494D01*
X1389Y494D02*
X1450Y494D01*
X1610Y494D02*
X1671Y494D01*
X1705Y494D02*
X1766Y494D01*
X35Y493D02*
X96Y493D01*
X131Y493D02*
X192Y493D01*
X351Y493D02*
X412Y493D01*
X447Y493D02*
X508Y493D01*
X1294Y493D02*
X1355Y493D01*
X1389Y493D02*
X1450Y493D01*
X1610Y493D02*
X1671Y493D01*
X1705Y493D02*
X1766Y493D01*
X35Y492D02*
X96Y492D01*
X131Y492D02*
X192Y492D01*
X351Y492D02*
X412Y492D01*
X447Y492D02*
X508Y492D01*
X1294Y492D02*
X1355Y492D01*
X1389Y492D02*
X1451Y492D01*
X1610Y492D02*
X1671Y492D01*
X1705Y492D02*
X1766Y492D01*
X35Y491D02*
X96Y491D01*
X131Y491D02*
X192Y491D01*
X351Y491D02*
X412Y491D01*
X447Y491D02*
X508Y491D01*
X1294Y491D02*
X1355Y491D01*
X1390Y491D02*
X1451Y491D01*
X1610Y491D02*
X1671Y491D01*
X1705Y491D02*
X1766Y491D01*
X35Y490D02*
X96Y490D01*
X131Y490D02*
X192Y490D01*
X351Y490D02*
X412Y490D01*
X447Y490D02*
X508Y490D01*
X1294Y490D02*
X1355Y490D01*
X1390Y490D02*
X1451Y490D01*
X1610Y490D02*
X1671Y490D01*
X1705Y490D02*
X1766Y490D01*
X35Y489D02*
X96Y489D01*
X131Y489D02*
X192Y489D01*
X351Y489D02*
X412Y489D01*
X447Y489D02*
X508Y489D01*
X1294Y489D02*
X1355Y489D01*
X1389Y489D02*
X1451Y489D01*
X1610Y489D02*
X1671Y489D01*
X1705Y489D02*
X1766Y489D01*
X35Y488D02*
X96Y488D01*
X131Y488D02*
X192Y488D01*
X351Y488D02*
X412Y488D01*
X447Y488D02*
X508Y488D01*
X1294Y488D02*
X1355Y488D01*
X1389Y488D02*
X1450Y488D01*
X1610Y488D02*
X1671Y488D01*
X1705Y488D02*
X1766Y488D01*
X35Y487D02*
X96Y487D01*
X131Y487D02*
X192Y487D01*
X351Y487D02*
X412Y487D01*
X447Y487D02*
X508Y487D01*
X1294Y487D02*
X1355Y487D01*
X1389Y487D02*
X1450Y487D01*
X1610Y487D02*
X1671Y487D01*
X1705Y487D02*
X1766Y487D01*
X35Y486D02*
X97Y486D01*
X130Y486D02*
X192Y486D01*
X351Y486D02*
X413Y486D01*
X446Y486D02*
X508Y486D01*
X1294Y486D02*
X1355Y486D01*
X1389Y486D02*
X1450Y486D01*
X1610Y486D02*
X1671Y486D01*
X1705Y486D02*
X1766Y486D01*
X36Y485D02*
X97Y485D01*
X130Y485D02*
X192Y485D01*
X351Y485D02*
X413Y485D01*
X446Y485D02*
X508Y485D01*
X1294Y485D02*
X1356Y485D01*
X1389Y485D02*
X1450Y485D01*
X1610Y485D02*
X1671Y485D01*
X1705Y485D02*
X1766Y485D01*
X36Y484D02*
X97Y484D01*
X130Y484D02*
X192Y484D01*
X352Y484D02*
X413Y484D01*
X446Y484D02*
X507Y484D01*
X1294Y484D02*
X1356Y484D01*
X1388Y484D02*
X1450Y484D01*
X1610Y484D02*
X1672Y484D01*
X1704Y484D02*
X1766Y484D01*
X36Y483D02*
X98Y483D01*
X129Y483D02*
X191Y483D01*
X352Y483D02*
X414Y483D01*
X445Y483D02*
X507Y483D01*
X1294Y483D02*
X1356Y483D01*
X1388Y483D02*
X1450Y483D01*
X1610Y483D02*
X1672Y483D01*
X1704Y483D02*
X1766Y483D01*
X36Y482D02*
X98Y482D01*
X129Y482D02*
X191Y482D01*
X352Y482D02*
X414Y482D01*
X445Y482D02*
X507Y482D01*
X1295Y482D02*
X1357Y482D01*
X1387Y482D02*
X1450Y482D01*
X1610Y482D02*
X1673Y482D01*
X1703Y482D02*
X1766Y482D01*
X36Y481D02*
X99Y481D01*
X128Y481D02*
X191Y481D01*
X352Y481D02*
X415Y481D01*
X444Y481D02*
X507Y481D01*
X1295Y481D02*
X1357Y481D01*
X1387Y481D02*
X1449Y481D01*
X1611Y481D02*
X1673Y481D01*
X1703Y481D02*
X1765Y481D01*
X37Y480D02*
X100Y480D01*
X127Y480D02*
X191Y480D01*
X352Y480D02*
X416Y480D01*
X443Y480D02*
X507Y480D01*
X1295Y480D02*
X1358Y480D01*
X1386Y480D02*
X1449Y480D01*
X1611Y480D02*
X1674Y480D01*
X1702Y480D02*
X1765Y480D01*
X37Y479D02*
X101Y479D01*
X127Y479D02*
X190Y479D01*
X353Y479D02*
X416Y479D01*
X442Y479D02*
X506Y479D01*
X1295Y479D02*
X1359Y479D01*
X1385Y479D02*
X1449Y479D01*
X1611Y479D02*
X1675Y479D01*
X1701Y479D02*
X1765Y479D01*
X37Y478D02*
X102Y478D01*
X126Y478D02*
X190Y478D01*
X353Y478D02*
X417Y478D01*
X441Y478D02*
X506Y478D01*
X1296Y478D02*
X1360Y478D01*
X1384Y478D02*
X1449Y478D01*
X1611Y478D02*
X1676Y478D01*
X1700Y478D02*
X1765Y478D01*
X37Y477D02*
X103Y477D01*
X124Y477D02*
X190Y477D01*
X353Y477D02*
X419Y477D01*
X440Y477D02*
X506Y477D01*
X1296Y477D02*
X1361Y477D01*
X1383Y477D02*
X1448Y477D01*
X1612Y477D02*
X1677Y477D01*
X1699Y477D02*
X1764Y477D01*
X38Y476D02*
X104Y476D01*
X123Y476D02*
X189Y476D01*
X354Y476D02*
X420Y476D01*
X439Y476D02*
X505Y476D01*
X1296Y476D02*
X1363Y476D01*
X1382Y476D02*
X1448Y476D01*
X1612Y476D02*
X1679Y476D01*
X1697Y476D02*
X1764Y476D01*
X38Y475D02*
X106Y475D01*
X121Y475D02*
X189Y475D01*
X354Y475D02*
X422Y475D01*
X437Y475D02*
X505Y475D01*
X1297Y475D02*
X1364Y475D01*
X1380Y475D02*
X1448Y475D01*
X1613Y475D02*
X1680Y475D01*
X1696Y475D02*
X1763Y475D01*
X39Y474D02*
X109Y474D01*
X118Y474D02*
X189Y474D01*
X354Y474D02*
X425Y474D01*
X434Y474D02*
X504Y474D01*
X1297Y474D02*
X1367Y474D01*
X1377Y474D02*
X1447Y474D01*
X1613Y474D02*
X1683Y474D01*
X1693Y474D02*
X1763Y474D01*
X39Y473D02*
X188Y473D01*
X355Y473D02*
X504Y473D01*
X1298Y473D02*
X1447Y473D01*
X1613Y473D02*
X1763Y473D01*
X40Y472D02*
X188Y472D01*
X355Y472D02*
X504Y472D01*
X1298Y472D02*
X1446Y472D01*
X1614Y472D02*
X1762Y472D01*
X40Y471D02*
X187Y471D01*
X356Y471D02*
X503Y471D01*
X1299Y471D02*
X1446Y471D01*
X1614Y471D02*
X1762Y471D01*
X41Y470D02*
X187Y470D01*
X356Y470D02*
X503Y470D01*
X1299Y470D02*
X1445Y470D01*
X1615Y470D02*
X1761Y470D01*
X41Y469D02*
X186Y469D01*
X357Y469D02*
X502Y469D01*
X1300Y469D02*
X1445Y469D01*
X1616Y469D02*
X1760Y469D01*
X42Y468D02*
X185Y468D01*
X358Y468D02*
X501Y468D01*
X1300Y468D02*
X1444Y468D01*
X1616Y468D02*
X1760Y468D01*
X42Y467D02*
X185Y467D01*
X358Y467D02*
X501Y467D01*
X1301Y467D02*
X1443Y467D01*
X1617Y467D02*
X1759Y467D01*
X43Y466D02*
X184Y466D01*
X359Y466D02*
X500Y466D01*
X1302Y466D02*
X1443Y466D01*
X1617Y466D02*
X1759Y466D01*
X44Y465D02*
X183Y465D01*
X360Y465D02*
X499Y465D01*
X1302Y465D02*
X1442Y465D01*
X1618Y465D02*
X1758Y465D01*
X45Y464D02*
X183Y464D01*
X360Y464D02*
X499Y464D01*
X1303Y464D02*
X1441Y464D01*
X1619Y464D02*
X1757Y464D01*
X45Y463D02*
X182Y463D01*
X361Y463D02*
X498Y463D01*
X1304Y463D02*
X1440Y463D01*
X1620Y463D02*
X1756Y463D01*
X46Y462D02*
X181Y462D01*
X362Y462D02*
X497Y462D01*
X1305Y462D02*
X1439Y462D01*
X1621Y462D02*
X1755Y462D01*
X47Y461D02*
X180Y461D01*
X363Y461D02*
X496Y461D01*
X1306Y461D02*
X1439Y461D01*
X1622Y461D02*
X1754Y461D01*
X48Y460D02*
X179Y460D01*
X364Y460D02*
X495Y460D01*
X1307Y460D02*
X1437Y460D01*
X1623Y460D02*
X1753Y460D01*
X49Y459D02*
X178Y459D01*
X365Y459D02*
X494Y459D01*
X1308Y459D02*
X1436Y459D01*
X1624Y459D02*
X1752Y459D01*
X51Y458D02*
X177Y458D01*
X366Y458D02*
X493Y458D01*
X1309Y458D02*
X1435Y458D01*
X1625Y458D02*
X1751Y458D01*
X52Y457D02*
X175Y457D01*
X368Y457D02*
X491Y457D01*
X1310Y457D02*
X1434Y457D01*
X1626Y457D02*
X1750Y457D01*
X53Y456D02*
X174Y456D01*
X369Y456D02*
X490Y456D01*
X1312Y456D02*
X1432Y456D01*
X1628Y456D02*
X1748Y456D01*
X55Y455D02*
X172Y455D01*
X371Y455D02*
X488Y455D01*
X1313Y455D02*
X1431Y455D01*
X1629Y455D02*
X1747Y455D01*
X56Y454D02*
X171Y454D01*
X372Y454D02*
X487Y454D01*
X1315Y454D02*
X1429Y454D01*
X1631Y454D02*
X1745Y454D01*
X58Y453D02*
X169Y453D01*
X374Y453D02*
X485Y453D01*
X1317Y453D02*
X1427Y453D01*
X1633Y453D02*
X1743Y453D01*
X61Y452D02*
X167Y452D01*
X376Y452D02*
X483Y452D01*
X1319Y452D02*
X1425Y452D01*
X1635Y452D02*
X1741Y452D01*
X63Y451D02*
X164Y451D01*
X379Y451D02*
X480Y451D01*
X1322Y451D02*
X1423Y451D01*
X1638Y451D02*
X1738Y451D01*
X66Y450D02*
X161Y450D01*
X382Y450D02*
X477Y450D01*
X1325Y450D02*
X1419Y450D01*
X1641Y450D02*
X1735Y450D01*
X71Y449D02*
X156Y449D01*
X387Y449D02*
X472Y449D01*
X1330Y449D02*
X1415Y449D01*
X1645Y449D02*
X1730Y449D01*
X238Y386D02*
X314Y386D01*
X1497Y386D02*
X1572Y386D01*
X230Y385D02*
X322Y385D01*
X1489Y385D02*
X1580Y385D01*
X227Y384D02*
X325Y384D01*
X1485Y384D02*
X1584Y384D01*
X224Y383D02*
X328Y383D01*
X1483Y383D02*
X1586Y383D01*
X222Y382D02*
X330Y382D01*
X1480Y382D02*
X1589Y382D01*
X220Y381D02*
X332Y381D01*
X1478Y381D02*
X1591Y381D01*
X218Y380D02*
X334Y380D01*
X1476Y380D02*
X1593Y380D01*
X216Y379D02*
X336Y379D01*
X1475Y379D02*
X1594Y379D01*
X215Y378D02*
X337Y378D01*
X1473Y378D02*
X1596Y378D01*
X214Y377D02*
X338Y377D01*
X1472Y377D02*
X1597Y377D01*
X212Y376D02*
X340Y376D01*
X1471Y376D02*
X1598Y376D01*
X211Y375D02*
X341Y375D01*
X1470Y375D02*
X1599Y375D01*
X210Y374D02*
X342Y374D01*
X1469Y374D02*
X1600Y374D01*
X209Y373D02*
X343Y373D01*
X1468Y373D02*
X1601Y373D01*
X208Y372D02*
X344Y372D01*
X1467Y372D02*
X1602Y372D01*
X207Y371D02*
X345Y371D01*
X1466Y371D02*
X1603Y371D01*
X207Y370D02*
X345Y370D01*
X1465Y370D02*
X1604Y370D01*
X206Y369D02*
X346Y369D01*
X1464Y369D02*
X1605Y369D01*
X205Y368D02*
X347Y368D01*
X1464Y368D02*
X1605Y368D01*
X204Y367D02*
X348Y367D01*
X1463Y367D02*
X1606Y367D01*
X204Y366D02*
X348Y366D01*
X1462Y366D02*
X1607Y366D01*
X203Y365D02*
X349Y365D01*
X1462Y365D02*
X1607Y365D01*
X203Y364D02*
X349Y364D01*
X1461Y364D02*
X1608Y364D01*
X202Y363D02*
X350Y363D01*
X1461Y363D02*
X1608Y363D01*
X202Y362D02*
X350Y362D01*
X1460Y362D02*
X1609Y362D01*
X201Y361D02*
X275Y361D01*
X277Y361D02*
X351Y361D01*
X1460Y361D02*
X1533Y361D01*
X1536Y361D02*
X1609Y361D01*
X201Y360D02*
X269Y360D01*
X283Y360D02*
X351Y360D01*
X1459Y360D02*
X1528Y360D01*
X1541Y360D02*
X1610Y360D01*
X200Y359D02*
X267Y359D01*
X285Y359D02*
X352Y359D01*
X1459Y359D02*
X1526Y359D01*
X1543Y359D02*
X1610Y359D01*
X200Y358D02*
X266Y358D01*
X286Y358D02*
X352Y358D01*
X1459Y358D02*
X1524Y358D01*
X1545Y358D02*
X1610Y358D01*
X200Y357D02*
X265Y357D01*
X287Y357D02*
X352Y357D01*
X1458Y357D02*
X1523Y357D01*
X1546Y357D02*
X1611Y357D01*
X199Y356D02*
X263Y356D01*
X289Y356D02*
X353Y356D01*
X1458Y356D02*
X1522Y356D01*
X1547Y356D02*
X1611Y356D01*
X199Y355D02*
X263Y355D01*
X289Y355D02*
X353Y355D01*
X1458Y355D02*
X1521Y355D01*
X1548Y355D02*
X1611Y355D01*
X199Y354D02*
X262Y354D01*
X290Y354D02*
X353Y354D01*
X1457Y354D02*
X1520Y354D01*
X1549Y354D02*
X1612Y354D01*
X199Y353D02*
X261Y353D01*
X291Y353D02*
X353Y353D01*
X1457Y353D02*
X1520Y353D01*
X1550Y353D02*
X1612Y353D01*
X198Y352D02*
X260Y352D01*
X292Y352D02*
X354Y352D01*
X1457Y352D02*
X1519Y352D01*
X1550Y352D02*
X1612Y352D01*
X198Y351D02*
X260Y351D01*
X292Y351D02*
X354Y351D01*
X1457Y351D02*
X1518Y351D01*
X1551Y351D02*
X1612Y351D01*
X198Y350D02*
X260Y350D01*
X292Y350D02*
X354Y350D01*
X1457Y350D02*
X1518Y350D01*
X1551Y350D02*
X1613Y350D01*
X198Y349D02*
X259Y349D01*
X293Y349D02*
X354Y349D01*
X1456Y349D02*
X1518Y349D01*
X1551Y349D02*
X1613Y349D01*
X198Y348D02*
X259Y348D01*
X293Y348D02*
X354Y348D01*
X1456Y348D02*
X1517Y348D01*
X1552Y348D02*
X1613Y348D01*
X198Y347D02*
X259Y347D01*
X293Y347D02*
X354Y347D01*
X1456Y347D02*
X1517Y347D01*
X1552Y347D02*
X1613Y347D01*
X198Y346D02*
X259Y346D01*
X293Y346D02*
X354Y346D01*
X1456Y346D02*
X1517Y346D01*
X1552Y346D02*
X1613Y346D01*
X198Y345D02*
X259Y345D01*
X293Y345D02*
X354Y345D01*
X1456Y345D02*
X1517Y345D01*
X1552Y345D02*
X1613Y345D01*
X197Y344D02*
X259Y344D01*
X293Y344D02*
X354Y344D01*
X1456Y344D02*
X1517Y344D01*
X1552Y344D02*
X1613Y344D01*
X198Y343D02*
X259Y343D01*
X293Y343D02*
X354Y343D01*
X1456Y343D02*
X1517Y343D01*
X1552Y343D02*
X1613Y343D01*
X198Y342D02*
X259Y342D01*
X293Y342D02*
X354Y342D01*
X1456Y342D02*
X1517Y342D01*
X1552Y342D02*
X1613Y342D01*
X198Y341D02*
X259Y341D01*
X293Y341D02*
X354Y341D01*
X1456Y341D02*
X1517Y341D01*
X1552Y341D02*
X1613Y341D01*
X198Y340D02*
X259Y340D01*
X293Y340D02*
X354Y340D01*
X1456Y340D02*
X1517Y340D01*
X1552Y340D02*
X1613Y340D01*
X198Y339D02*
X259Y339D01*
X293Y339D02*
X354Y339D01*
X1456Y339D02*
X1518Y339D01*
X1551Y339D02*
X1613Y339D01*
X198Y338D02*
X260Y338D01*
X292Y338D02*
X354Y338D01*
X1457Y338D02*
X1518Y338D01*
X1551Y338D02*
X1612Y338D01*
X198Y337D02*
X260Y337D01*
X292Y337D02*
X354Y337D01*
X1457Y337D02*
X1519Y337D01*
X1551Y337D02*
X1612Y337D01*
X198Y336D02*
X261Y336D01*
X291Y336D02*
X354Y336D01*
X1457Y336D02*
X1519Y336D01*
X1550Y336D02*
X1612Y336D01*
X199Y335D02*
X261Y335D01*
X291Y335D02*
X353Y335D01*
X1457Y335D02*
X1520Y335D01*
X1549Y335D02*
X1612Y335D01*
X199Y334D02*
X262Y334D01*
X290Y334D02*
X353Y334D01*
X1457Y334D02*
X1520Y334D01*
X1549Y334D02*
X1612Y334D01*
X199Y333D02*
X263Y333D01*
X289Y333D02*
X353Y333D01*
X1458Y333D02*
X1521Y333D01*
X1548Y333D02*
X1611Y333D01*
X199Y332D02*
X264Y332D01*
X288Y332D02*
X353Y332D01*
X1458Y332D02*
X1522Y332D01*
X1547Y332D02*
X1611Y332D01*
X200Y331D02*
X265Y331D01*
X287Y331D02*
X352Y331D01*
X1458Y331D02*
X1523Y331D01*
X1546Y331D02*
X1611Y331D01*
X200Y330D02*
X266Y330D01*
X286Y330D02*
X352Y330D01*
X1459Y330D02*
X1525Y330D01*
X1545Y330D02*
X1610Y330D01*
X200Y329D02*
X268Y329D01*
X284Y329D02*
X352Y329D01*
X1459Y329D02*
X1526Y329D01*
X1543Y329D02*
X1610Y329D01*
X201Y328D02*
X270Y328D01*
X282Y328D02*
X351Y328D01*
X1459Y328D02*
X1529Y328D01*
X1540Y328D02*
X1610Y328D01*
X201Y327D02*
X351Y327D01*
X1460Y327D02*
X1609Y327D01*
X202Y326D02*
X350Y326D01*
X1460Y326D02*
X1609Y326D01*
X202Y325D02*
X350Y325D01*
X1461Y325D02*
X1608Y325D01*
X203Y324D02*
X349Y324D01*
X1461Y324D02*
X1608Y324D01*
X203Y323D02*
X349Y323D01*
X1462Y323D02*
X1607Y323D01*
X204Y322D02*
X348Y322D01*
X1462Y322D02*
X1607Y322D01*
X205Y321D02*
X347Y321D01*
X1463Y321D02*
X1606Y321D01*
X205Y320D02*
X347Y320D01*
X1464Y320D02*
X1605Y320D01*
X206Y319D02*
X346Y319D01*
X1464Y319D02*
X1605Y319D01*
X207Y318D02*
X345Y318D01*
X1465Y318D02*
X1604Y318D01*
X207Y317D02*
X344Y317D01*
X1466Y317D02*
X1603Y317D01*
X208Y316D02*
X344Y316D01*
X1467Y316D02*
X1602Y316D01*
X209Y315D02*
X343Y315D01*
X1468Y315D02*
X1601Y315D01*
X210Y314D02*
X342Y314D01*
X1469Y314D02*
X1600Y314D01*
X211Y313D02*
X341Y313D01*
X1470Y313D02*
X1599Y313D01*
X212Y312D02*
X339Y312D01*
X1471Y312D02*
X1598Y312D01*
X214Y311D02*
X338Y311D01*
X1472Y311D02*
X1597Y311D01*
X215Y310D02*
X337Y310D01*
X1474Y310D02*
X1595Y310D01*
X217Y309D02*
X335Y309D01*
X1475Y309D02*
X1594Y309D01*
X218Y308D02*
X334Y308D01*
X1477Y308D02*
X1592Y308D01*
X220Y307D02*
X332Y307D01*
X1479Y307D02*
X1590Y307D01*
X222Y306D02*
X330Y306D01*
X1481Y306D02*
X1588Y306D01*
X225Y305D02*
X327Y305D01*
X1483Y305D02*
X1586Y305D01*
X227Y304D02*
X324Y304D01*
X1486Y304D02*
X1583Y304D01*
X231Y303D02*
X321Y303D01*
X1490Y303D02*
X1579Y303D01*
D02*
G04 End of Mask1*
M02*