G04 MADE WITH FRITZING*
G04 WWW.FRITZING.ORG*
G04 DOUBLE SIDED*
G04 HOLES PLATED*
G04 CONTOUR ON CENTER OF CONTOUR VECTOR*
%ASAXBY*%
%FSLAX23Y23*%
%MOIN*%
%OFA0B0*%
%SFA1.0B1.0*%
%ADD10C,0.078000*%
%ADD11C,0.075000*%
%ADD12C,0.087244*%
%ADD13C,0.024000*%
%ADD14R,0.001000X0.001000*%
%LNCOPPER1*%
G90*
G70*
G54D10*
X1820Y3439D03*
X1720Y3439D03*
X1620Y3439D03*
X1520Y3439D03*
X1420Y3439D03*
X1320Y3439D03*
X1220Y3439D03*
X1120Y3439D03*
X920Y3439D03*
X820Y3439D03*
X720Y3439D03*
X620Y3439D03*
X520Y3439D03*
X420Y3439D03*
X320Y3439D03*
X220Y3439D03*
X920Y3739D03*
X820Y3739D03*
X720Y3739D03*
X620Y3739D03*
X520Y3739D03*
X420Y3739D03*
X320Y3739D03*
X220Y3739D03*
X1820Y3739D03*
X1720Y3739D03*
X1620Y3739D03*
X1520Y3739D03*
X1420Y3739D03*
X1320Y3739D03*
X1220Y3739D03*
X1120Y3739D03*
X1420Y2739D03*
X1320Y2739D03*
X1220Y2739D03*
X1120Y2739D03*
X920Y2739D03*
X820Y2739D03*
X720Y2739D03*
X620Y2739D03*
X520Y2739D03*
X420Y2739D03*
X320Y2739D03*
X220Y2739D03*
X920Y3039D03*
X820Y3039D03*
X720Y3039D03*
X620Y3039D03*
X520Y3039D03*
X420Y3039D03*
X320Y3039D03*
X220Y3039D03*
X1420Y3039D03*
X1320Y3039D03*
X1220Y3039D03*
X1120Y3039D03*
G54D11*
X1123Y2340D03*
X1123Y1940D03*
X923Y2340D03*
X923Y1940D03*
G54D10*
X2023Y1840D03*
X1923Y1840D03*
X1823Y1840D03*
X1723Y1840D03*
G54D12*
X1801Y2256D03*
X542Y2256D03*
X1648Y2109D03*
X389Y2109D03*
X1485Y2256D03*
X227Y2256D03*
G54D11*
X1120Y1439D03*
X1120Y1039D03*
X920Y1439D03*
X920Y1039D03*
G54D10*
X2020Y939D03*
X1920Y939D03*
X1820Y939D03*
X1720Y939D03*
G54D12*
X1798Y1355D03*
X540Y1355D03*
X1645Y1209D03*
X386Y1209D03*
X1482Y1355D03*
X224Y1355D03*
G54D13*
X1919Y1439D02*
X1620Y1440D01*
D02*
X1922Y2339D02*
X1623Y2340D01*
D02*
X220Y3469D02*
X220Y3709D01*
D02*
X2019Y1339D02*
X1919Y1439D01*
D02*
X2022Y2239D02*
X1922Y2339D01*
D02*
X320Y3469D02*
X320Y3709D01*
D02*
X1620Y1440D02*
X1512Y1373D01*
D02*
X1623Y2340D02*
X1515Y2274D01*
D02*
X420Y3469D02*
X420Y3709D01*
D02*
X2023Y1870D02*
X2022Y2239D01*
D02*
X2020Y969D02*
X2019Y1339D01*
D02*
X520Y3469D02*
X520Y3709D01*
D02*
X1919Y1239D02*
X1920Y969D01*
D02*
X1922Y2139D02*
X1922Y1870D01*
D02*
X620Y3469D02*
X620Y3709D01*
D02*
X1826Y2232D02*
X1922Y2139D01*
D02*
X1823Y1331D02*
X1919Y1239D01*
D02*
X720Y3469D02*
X720Y3709D01*
D02*
X1821Y1138D02*
X1820Y969D01*
D02*
X1823Y2039D02*
X1823Y1870D01*
D02*
X220Y2769D02*
X220Y3009D01*
D02*
X820Y3469D02*
X820Y3709D01*
D02*
X920Y3469D02*
X920Y3709D01*
D02*
X320Y2769D02*
X320Y3009D01*
D02*
X1680Y2096D02*
X1823Y2039D01*
D02*
X1677Y1196D02*
X1821Y1138D01*
D02*
X1120Y1239D02*
X720Y1239D01*
D02*
X1122Y2139D02*
X723Y2139D01*
D02*
X420Y2769D02*
X420Y3009D01*
D02*
X1120Y3469D02*
X1120Y3709D01*
D02*
X720Y1239D02*
X569Y1337D01*
D02*
X723Y2139D02*
X572Y2237D01*
D02*
X1220Y3469D02*
X1220Y3709D01*
D02*
X520Y2769D02*
X520Y3009D01*
D02*
X1420Y1239D02*
X1120Y1239D01*
D02*
X1423Y2139D02*
X1122Y2139D01*
D02*
X620Y2769D02*
X620Y3009D01*
D02*
X1320Y3469D02*
X1320Y3709D01*
D02*
X1765Y1345D02*
X1420Y1239D01*
D02*
X1768Y2246D02*
X1423Y2139D01*
D02*
X720Y2769D02*
X720Y3009D01*
D02*
X1420Y3469D02*
X1420Y3709D01*
D02*
X1091Y1439D02*
X948Y1439D01*
D02*
X1094Y2340D02*
X951Y2340D01*
D02*
X1520Y3469D02*
X1520Y3709D01*
D02*
X820Y2769D02*
X820Y3009D01*
D02*
X1022Y1841D02*
X1692Y1840D01*
D02*
X1020Y940D02*
X1690Y939D01*
D02*
X920Y2769D02*
X920Y3009D01*
D02*
X1620Y3469D02*
X1620Y3709D01*
D02*
X940Y1019D02*
X1020Y940D01*
D02*
X943Y1920D02*
X1022Y1841D01*
D02*
X1720Y3469D02*
X1720Y3709D01*
D02*
X1420Y1439D02*
X1148Y1439D01*
D02*
X1423Y2340D02*
X1151Y2340D01*
D02*
X1120Y2769D02*
X1120Y3009D01*
D02*
X1820Y3469D02*
X1820Y3709D01*
D02*
X1462Y1383D02*
X1420Y1439D01*
D02*
X1464Y2284D02*
X1423Y2340D01*
D02*
X1320Y2769D02*
X1320Y3009D01*
D02*
X1220Y2769D02*
X1220Y3009D01*
D02*
X1520Y1039D02*
X1148Y1039D01*
D02*
X1420Y2769D02*
X1420Y3009D01*
D02*
X1523Y1940D02*
X1151Y1940D01*
D02*
X1624Y1181D02*
X1520Y1039D01*
D02*
X1627Y2081D02*
X1523Y1940D01*
D02*
X419Y1440D02*
X891Y1439D01*
D02*
X422Y2341D02*
X894Y2340D01*
D02*
X256Y1369D02*
X419Y1440D01*
D02*
X258Y2270D02*
X422Y2341D01*
D02*
X520Y1939D02*
X894Y1940D01*
D02*
X517Y1039D02*
X891Y1039D01*
D02*
X410Y2082D02*
X520Y1939D01*
D02*
X407Y1181D02*
X517Y1039D01*
G54D14*
X185Y2293D02*
X267Y2293D01*
X501Y2293D02*
X583Y2293D01*
X1444Y2293D02*
X1525Y2293D01*
X1760Y2293D02*
X1841Y2293D01*
X180Y2292D02*
X272Y2292D01*
X496Y2292D02*
X588Y2292D01*
X1439Y2292D02*
X1530Y2292D01*
X1755Y2292D02*
X1846Y2292D01*
X177Y2291D02*
X275Y2291D01*
X493Y2291D02*
X591Y2291D01*
X1435Y2291D02*
X1534Y2291D01*
X1751Y2291D02*
X1850Y2291D01*
X174Y2290D02*
X278Y2290D01*
X490Y2290D02*
X594Y2290D01*
X1433Y2290D02*
X1536Y2290D01*
X1749Y2290D02*
X1852Y2290D01*
X172Y2289D02*
X280Y2289D01*
X488Y2289D02*
X596Y2289D01*
X1431Y2289D02*
X1538Y2289D01*
X1747Y2289D02*
X1854Y2289D01*
X171Y2288D02*
X281Y2288D01*
X486Y2288D02*
X597Y2288D01*
X1429Y2288D02*
X1540Y2288D01*
X1745Y2288D02*
X1856Y2288D01*
X169Y2287D02*
X283Y2287D01*
X485Y2287D02*
X599Y2287D01*
X1427Y2287D02*
X1542Y2287D01*
X1743Y2287D02*
X1857Y2287D01*
X168Y2286D02*
X284Y2286D01*
X483Y2286D02*
X600Y2286D01*
X1426Y2286D02*
X1543Y2286D01*
X1742Y2286D02*
X1859Y2286D01*
X166Y2285D02*
X286Y2285D01*
X482Y2285D02*
X602Y2285D01*
X1425Y2285D02*
X1544Y2285D01*
X1741Y2285D02*
X1860Y2285D01*
X165Y2284D02*
X287Y2284D01*
X481Y2284D02*
X603Y2284D01*
X1424Y2284D02*
X1545Y2284D01*
X1739Y2284D02*
X1861Y2284D01*
X164Y2283D02*
X288Y2283D01*
X480Y2283D02*
X604Y2283D01*
X1423Y2283D02*
X1547Y2283D01*
X1738Y2283D02*
X1862Y2283D01*
X163Y2282D02*
X289Y2282D01*
X479Y2282D02*
X605Y2282D01*
X1422Y2282D02*
X1548Y2282D01*
X1737Y2282D02*
X1863Y2282D01*
X162Y2281D02*
X290Y2281D01*
X478Y2281D02*
X606Y2281D01*
X1421Y2281D02*
X1548Y2281D01*
X1736Y2281D02*
X1864Y2281D01*
X161Y2280D02*
X291Y2280D01*
X477Y2280D02*
X607Y2280D01*
X1420Y2280D02*
X1549Y2280D01*
X1736Y2280D02*
X1865Y2280D01*
X160Y2279D02*
X292Y2279D01*
X476Y2279D02*
X608Y2279D01*
X1419Y2279D02*
X1550Y2279D01*
X1735Y2279D02*
X1866Y2279D01*
X160Y2278D02*
X222Y2278D01*
X230Y2278D02*
X292Y2278D01*
X476Y2278D02*
X538Y2278D01*
X546Y2278D02*
X608Y2278D01*
X1418Y2278D02*
X1481Y2278D01*
X1488Y2278D02*
X1551Y2278D01*
X1734Y2278D02*
X1797Y2278D01*
X1804Y2278D02*
X1867Y2278D01*
X159Y2277D02*
X218Y2277D01*
X234Y2277D02*
X293Y2277D01*
X475Y2277D02*
X534Y2277D01*
X549Y2277D02*
X609Y2277D01*
X1417Y2277D02*
X1477Y2277D01*
X1492Y2277D02*
X1552Y2277D01*
X1733Y2277D02*
X1793Y2277D01*
X1808Y2277D02*
X1868Y2277D01*
X158Y2276D02*
X216Y2276D01*
X236Y2276D02*
X294Y2276D01*
X474Y2276D02*
X532Y2276D01*
X552Y2276D02*
X610Y2276D01*
X1417Y2276D02*
X1475Y2276D01*
X1495Y2276D02*
X1552Y2276D01*
X1733Y2276D02*
X1790Y2276D01*
X1810Y2276D02*
X1868Y2276D01*
X158Y2275D02*
X214Y2275D01*
X238Y2275D02*
X294Y2275D01*
X474Y2275D02*
X530Y2275D01*
X554Y2275D02*
X610Y2275D01*
X1416Y2275D02*
X1473Y2275D01*
X1496Y2275D02*
X1553Y2275D01*
X1732Y2275D02*
X1789Y2275D01*
X1812Y2275D02*
X1869Y2275D01*
X157Y2274D02*
X213Y2274D01*
X239Y2274D02*
X295Y2274D01*
X473Y2274D02*
X528Y2274D01*
X555Y2274D02*
X611Y2274D01*
X1416Y2274D02*
X1471Y2274D01*
X1498Y2274D02*
X1554Y2274D01*
X1731Y2274D02*
X1787Y2274D01*
X1814Y2274D02*
X1869Y2274D01*
X157Y2273D02*
X211Y2273D01*
X241Y2273D02*
X296Y2273D01*
X472Y2273D02*
X527Y2273D01*
X557Y2273D02*
X611Y2273D01*
X1415Y2273D02*
X1470Y2273D01*
X1499Y2273D02*
X1554Y2273D01*
X1731Y2273D02*
X1786Y2273D01*
X1815Y2273D02*
X1870Y2273D01*
X156Y2272D02*
X210Y2272D01*
X242Y2272D02*
X296Y2272D01*
X472Y2272D02*
X526Y2272D01*
X558Y2272D02*
X612Y2272D01*
X1415Y2272D02*
X1469Y2272D01*
X1500Y2272D02*
X1554Y2272D01*
X1730Y2272D02*
X1785Y2272D01*
X1816Y2272D02*
X1870Y2272D01*
X156Y2271D02*
X209Y2271D01*
X243Y2271D02*
X296Y2271D01*
X471Y2271D02*
X525Y2271D01*
X559Y2271D02*
X612Y2271D01*
X1414Y2271D02*
X1468Y2271D01*
X1501Y2271D02*
X1555Y2271D01*
X1730Y2271D02*
X1784Y2271D01*
X1817Y2271D02*
X1871Y2271D01*
X155Y2270D02*
X208Y2270D01*
X244Y2270D02*
X297Y2270D01*
X471Y2270D02*
X524Y2270D01*
X559Y2270D02*
X613Y2270D01*
X1414Y2270D02*
X1467Y2270D01*
X1502Y2270D02*
X1555Y2270D01*
X1730Y2270D02*
X1783Y2270D01*
X1818Y2270D02*
X1871Y2270D01*
X155Y2269D02*
X208Y2269D01*
X244Y2269D02*
X297Y2269D01*
X471Y2269D02*
X524Y2269D01*
X560Y2269D02*
X613Y2269D01*
X1413Y2269D02*
X1466Y2269D01*
X1503Y2269D02*
X1556Y2269D01*
X1729Y2269D02*
X1782Y2269D01*
X1819Y2269D02*
X1872Y2269D01*
X154Y2268D02*
X207Y2268D01*
X245Y2268D02*
X298Y2268D01*
X470Y2268D02*
X523Y2268D01*
X561Y2268D02*
X613Y2268D01*
X1413Y2268D02*
X1466Y2268D01*
X1504Y2268D02*
X1556Y2268D01*
X1729Y2268D02*
X1781Y2268D01*
X1819Y2268D02*
X1872Y2268D01*
X154Y2267D02*
X206Y2267D01*
X246Y2267D02*
X298Y2267D01*
X470Y2267D02*
X522Y2267D01*
X561Y2267D02*
X614Y2267D01*
X1413Y2267D02*
X1465Y2267D01*
X1504Y2267D02*
X1556Y2267D01*
X1729Y2267D02*
X1781Y2267D01*
X1820Y2267D02*
X1872Y2267D01*
X154Y2266D02*
X206Y2266D01*
X246Y2266D02*
X298Y2266D01*
X470Y2266D02*
X522Y2266D01*
X562Y2266D02*
X614Y2266D01*
X1412Y2266D02*
X1464Y2266D01*
X1505Y2266D02*
X1557Y2266D01*
X1728Y2266D02*
X1780Y2266D01*
X1821Y2266D02*
X1873Y2266D01*
X154Y2265D02*
X205Y2265D01*
X247Y2265D02*
X298Y2265D01*
X469Y2265D02*
X521Y2265D01*
X563Y2265D02*
X614Y2265D01*
X1412Y2265D02*
X1464Y2265D01*
X1505Y2265D02*
X1557Y2265D01*
X1728Y2265D02*
X1780Y2265D01*
X1821Y2265D02*
X1873Y2265D01*
X153Y2264D02*
X205Y2264D01*
X247Y2264D02*
X299Y2264D01*
X469Y2264D02*
X521Y2264D01*
X563Y2264D02*
X615Y2264D01*
X1412Y2264D02*
X1464Y2264D01*
X1506Y2264D02*
X1557Y2264D01*
X1728Y2264D02*
X1779Y2264D01*
X1821Y2264D02*
X1873Y2264D01*
X153Y2263D02*
X205Y2263D01*
X247Y2263D02*
X299Y2263D01*
X469Y2263D02*
X521Y2263D01*
X563Y2263D02*
X615Y2263D01*
X1412Y2263D02*
X1463Y2263D01*
X1506Y2263D02*
X1557Y2263D01*
X1728Y2263D02*
X1779Y2263D01*
X1822Y2263D02*
X1873Y2263D01*
X153Y2262D02*
X204Y2262D01*
X248Y2262D02*
X299Y2262D01*
X469Y2262D02*
X520Y2262D01*
X564Y2262D02*
X615Y2262D01*
X1412Y2262D02*
X1463Y2262D01*
X1506Y2262D02*
X1558Y2262D01*
X1727Y2262D02*
X1779Y2262D01*
X1822Y2262D02*
X1873Y2262D01*
X153Y2261D02*
X204Y2261D01*
X248Y2261D02*
X299Y2261D01*
X469Y2261D02*
X520Y2261D01*
X564Y2261D02*
X615Y2261D01*
X1411Y2261D02*
X1463Y2261D01*
X1507Y2261D02*
X1558Y2261D01*
X1727Y2261D02*
X1778Y2261D01*
X1822Y2261D02*
X1874Y2261D01*
X153Y2260D02*
X204Y2260D01*
X248Y2260D02*
X299Y2260D01*
X469Y2260D02*
X520Y2260D01*
X564Y2260D02*
X615Y2260D01*
X1411Y2260D02*
X1462Y2260D01*
X1507Y2260D02*
X1558Y2260D01*
X1727Y2260D02*
X1778Y2260D01*
X1823Y2260D02*
X1874Y2260D01*
X153Y2259D02*
X204Y2259D01*
X248Y2259D02*
X299Y2259D01*
X469Y2259D02*
X520Y2259D01*
X564Y2259D02*
X615Y2259D01*
X1411Y2259D02*
X1462Y2259D01*
X1507Y2259D02*
X1558Y2259D01*
X1727Y2259D02*
X1778Y2259D01*
X1823Y2259D02*
X1874Y2259D01*
X153Y2258D02*
X204Y2258D01*
X248Y2258D02*
X299Y2258D01*
X468Y2258D02*
X519Y2258D01*
X564Y2258D02*
X615Y2258D01*
X1411Y2258D02*
X1462Y2258D01*
X1507Y2258D02*
X1558Y2258D01*
X1727Y2258D02*
X1778Y2258D01*
X1823Y2258D02*
X1874Y2258D01*
X153Y2257D02*
X204Y2257D01*
X249Y2257D02*
X299Y2257D01*
X468Y2257D02*
X519Y2257D01*
X564Y2257D02*
X615Y2257D01*
X1411Y2257D02*
X1462Y2257D01*
X1507Y2257D02*
X1558Y2257D01*
X1727Y2257D02*
X1778Y2257D01*
X1823Y2257D02*
X1874Y2257D01*
X153Y2256D02*
X204Y2256D01*
X249Y2256D02*
X300Y2256D01*
X468Y2256D02*
X519Y2256D01*
X564Y2256D02*
X615Y2256D01*
X1411Y2256D02*
X1462Y2256D01*
X1507Y2256D02*
X1558Y2256D01*
X1727Y2256D02*
X1778Y2256D01*
X1823Y2256D02*
X1874Y2256D01*
X153Y2255D02*
X204Y2255D01*
X248Y2255D02*
X299Y2255D01*
X468Y2255D02*
X519Y2255D01*
X564Y2255D02*
X615Y2255D01*
X1411Y2255D02*
X1462Y2255D01*
X1507Y2255D02*
X1558Y2255D01*
X1727Y2255D02*
X1778Y2255D01*
X1823Y2255D02*
X1874Y2255D01*
X153Y2254D02*
X204Y2254D01*
X248Y2254D02*
X299Y2254D01*
X469Y2254D02*
X520Y2254D01*
X564Y2254D02*
X615Y2254D01*
X1411Y2254D02*
X1462Y2254D01*
X1507Y2254D02*
X1558Y2254D01*
X1727Y2254D02*
X1778Y2254D01*
X1823Y2254D02*
X1874Y2254D01*
X153Y2253D02*
X204Y2253D01*
X248Y2253D02*
X299Y2253D01*
X469Y2253D02*
X520Y2253D01*
X564Y2253D02*
X615Y2253D01*
X1411Y2253D02*
X1462Y2253D01*
X1507Y2253D02*
X1558Y2253D01*
X1727Y2253D02*
X1778Y2253D01*
X1823Y2253D02*
X1874Y2253D01*
X153Y2252D02*
X204Y2252D01*
X248Y2252D02*
X299Y2252D01*
X469Y2252D02*
X520Y2252D01*
X564Y2252D02*
X615Y2252D01*
X1411Y2252D02*
X1462Y2252D01*
X1507Y2252D02*
X1558Y2252D01*
X1727Y2252D02*
X1778Y2252D01*
X1822Y2252D02*
X1874Y2252D01*
X153Y2251D02*
X204Y2251D01*
X248Y2251D02*
X299Y2251D01*
X469Y2251D02*
X520Y2251D01*
X564Y2251D02*
X615Y2251D01*
X1411Y2251D02*
X1463Y2251D01*
X1506Y2251D02*
X1558Y2251D01*
X1727Y2251D02*
X1779Y2251D01*
X1822Y2251D02*
X1873Y2251D01*
X153Y2250D02*
X205Y2250D01*
X248Y2250D02*
X299Y2250D01*
X469Y2250D02*
X520Y2250D01*
X563Y2250D02*
X615Y2250D01*
X1412Y2250D02*
X1463Y2250D01*
X1506Y2250D02*
X1557Y2250D01*
X1727Y2250D02*
X1779Y2250D01*
X1822Y2250D02*
X1873Y2250D01*
X153Y2249D02*
X205Y2249D01*
X247Y2249D02*
X299Y2249D01*
X469Y2249D02*
X521Y2249D01*
X563Y2249D02*
X615Y2249D01*
X1412Y2249D02*
X1463Y2249D01*
X1506Y2249D02*
X1557Y2249D01*
X1728Y2249D02*
X1779Y2249D01*
X1822Y2249D02*
X1873Y2249D01*
X154Y2248D02*
X205Y2248D01*
X247Y2248D02*
X299Y2248D01*
X469Y2248D02*
X521Y2248D01*
X563Y2248D02*
X614Y2248D01*
X1412Y2248D02*
X1464Y2248D01*
X1505Y2248D02*
X1557Y2248D01*
X1728Y2248D02*
X1780Y2248D01*
X1821Y2248D02*
X1873Y2248D01*
X154Y2247D02*
X206Y2247D01*
X246Y2247D02*
X298Y2247D01*
X470Y2247D02*
X522Y2247D01*
X562Y2247D02*
X614Y2247D01*
X1412Y2247D02*
X1464Y2247D01*
X1505Y2247D02*
X1557Y2247D01*
X1728Y2247D02*
X1780Y2247D01*
X1821Y2247D02*
X1873Y2247D01*
X154Y2246D02*
X206Y2246D01*
X246Y2246D02*
X298Y2246D01*
X470Y2246D02*
X522Y2246D01*
X562Y2246D02*
X614Y2246D01*
X1413Y2246D02*
X1465Y2246D01*
X1504Y2246D02*
X1557Y2246D01*
X1728Y2246D02*
X1781Y2246D01*
X1820Y2246D02*
X1872Y2246D01*
X154Y2245D02*
X207Y2245D01*
X245Y2245D02*
X298Y2245D01*
X470Y2245D02*
X523Y2245D01*
X561Y2245D02*
X614Y2245D01*
X1413Y2245D02*
X1465Y2245D01*
X1504Y2245D02*
X1556Y2245D01*
X1729Y2245D02*
X1781Y2245D01*
X1820Y2245D02*
X1872Y2245D01*
X155Y2244D02*
X207Y2244D01*
X245Y2244D02*
X297Y2244D01*
X471Y2244D02*
X523Y2244D01*
X561Y2244D02*
X613Y2244D01*
X1413Y2244D02*
X1466Y2244D01*
X1503Y2244D02*
X1556Y2244D01*
X1729Y2244D02*
X1782Y2244D01*
X1819Y2244D02*
X1872Y2244D01*
X155Y2243D02*
X208Y2243D01*
X244Y2243D02*
X297Y2243D01*
X471Y2243D02*
X524Y2243D01*
X560Y2243D02*
X613Y2243D01*
X1414Y2243D02*
X1467Y2243D01*
X1503Y2243D02*
X1556Y2243D01*
X1729Y2243D02*
X1782Y2243D01*
X1818Y2243D02*
X1871Y2243D01*
X155Y2242D02*
X209Y2242D01*
X243Y2242D02*
X297Y2242D01*
X471Y2242D02*
X525Y2242D01*
X559Y2242D02*
X613Y2242D01*
X1414Y2242D02*
X1467Y2242D01*
X1502Y2242D02*
X1555Y2242D01*
X1730Y2242D02*
X1783Y2242D01*
X1818Y2242D02*
X1871Y2242D01*
X156Y2241D02*
X210Y2241D01*
X242Y2241D02*
X296Y2241D01*
X472Y2241D02*
X526Y2241D01*
X558Y2241D02*
X612Y2241D01*
X1414Y2241D02*
X1468Y2241D01*
X1501Y2241D02*
X1555Y2241D01*
X1730Y2241D02*
X1784Y2241D01*
X1817Y2241D02*
X1871Y2241D01*
X156Y2240D02*
X211Y2240D01*
X241Y2240D02*
X296Y2240D01*
X472Y2240D02*
X527Y2240D01*
X557Y2240D02*
X612Y2240D01*
X1415Y2240D02*
X1469Y2240D01*
X1500Y2240D02*
X1554Y2240D01*
X1731Y2240D02*
X1785Y2240D01*
X1816Y2240D02*
X1870Y2240D01*
X157Y2239D02*
X212Y2239D01*
X240Y2239D02*
X295Y2239D01*
X473Y2239D02*
X528Y2239D01*
X556Y2239D02*
X611Y2239D01*
X1415Y2239D02*
X1471Y2239D01*
X1499Y2239D02*
X1554Y2239D01*
X1731Y2239D02*
X1786Y2239D01*
X1814Y2239D02*
X1870Y2239D01*
X157Y2238D02*
X213Y2238D01*
X239Y2238D02*
X295Y2238D01*
X473Y2238D02*
X529Y2238D01*
X555Y2238D02*
X611Y2238D01*
X1416Y2238D02*
X1472Y2238D01*
X1497Y2238D02*
X1553Y2238D01*
X1732Y2238D02*
X1788Y2238D01*
X1813Y2238D02*
X1869Y2238D01*
X158Y2237D02*
X215Y2237D01*
X237Y2237D02*
X294Y2237D01*
X474Y2237D02*
X531Y2237D01*
X553Y2237D02*
X610Y2237D01*
X1417Y2237D02*
X1474Y2237D01*
X1495Y2237D02*
X1553Y2237D01*
X1732Y2237D02*
X1789Y2237D01*
X1811Y2237D02*
X1868Y2237D01*
X159Y2236D02*
X217Y2236D01*
X235Y2236D02*
X293Y2236D01*
X474Y2236D02*
X533Y2236D01*
X551Y2236D02*
X609Y2236D01*
X1417Y2236D02*
X1476Y2236D01*
X1494Y2236D02*
X1552Y2236D01*
X1733Y2236D02*
X1791Y2236D01*
X1809Y2236D02*
X1868Y2236D01*
X159Y2235D02*
X220Y2235D01*
X232Y2235D02*
X293Y2235D01*
X475Y2235D02*
X536Y2235D01*
X548Y2235D02*
X609Y2235D01*
X1418Y2235D02*
X1479Y2235D01*
X1490Y2235D02*
X1551Y2235D01*
X1734Y2235D02*
X1795Y2235D01*
X1806Y2235D02*
X1867Y2235D01*
X160Y2234D02*
X292Y2234D01*
X476Y2234D02*
X608Y2234D01*
X1419Y2234D02*
X1551Y2234D01*
X1734Y2234D02*
X1866Y2234D01*
X161Y2233D02*
X291Y2233D01*
X477Y2233D02*
X607Y2233D01*
X1419Y2233D02*
X1550Y2233D01*
X1735Y2233D02*
X1866Y2233D01*
X162Y2232D02*
X290Y2232D01*
X478Y2232D02*
X606Y2232D01*
X1420Y2232D02*
X1549Y2232D01*
X1736Y2232D02*
X1865Y2232D01*
X163Y2231D02*
X290Y2231D01*
X478Y2231D02*
X605Y2231D01*
X1421Y2231D02*
X1548Y2231D01*
X1737Y2231D02*
X1864Y2231D01*
X164Y2230D02*
X289Y2230D01*
X479Y2230D02*
X604Y2230D01*
X1422Y2230D02*
X1547Y2230D01*
X1738Y2230D02*
X1863Y2230D01*
X165Y2229D02*
X288Y2229D01*
X480Y2229D02*
X603Y2229D01*
X1423Y2229D02*
X1546Y2229D01*
X1739Y2229D02*
X1862Y2229D01*
X166Y2228D02*
X286Y2228D01*
X482Y2228D02*
X602Y2228D01*
X1424Y2228D02*
X1545Y2228D01*
X1740Y2228D02*
X1861Y2228D01*
X167Y2227D02*
X285Y2227D01*
X483Y2227D02*
X601Y2227D01*
X1425Y2227D02*
X1544Y2227D01*
X1741Y2227D02*
X1859Y2227D01*
X168Y2226D02*
X284Y2226D01*
X484Y2226D02*
X600Y2226D01*
X1427Y2226D02*
X1542Y2226D01*
X1743Y2226D02*
X1858Y2226D01*
X170Y2225D02*
X282Y2225D01*
X486Y2225D02*
X598Y2225D01*
X1428Y2225D02*
X1541Y2225D01*
X1744Y2225D02*
X1857Y2225D01*
X171Y2224D02*
X281Y2224D01*
X487Y2224D02*
X596Y2224D01*
X1430Y2224D02*
X1539Y2224D01*
X1746Y2224D02*
X1855Y2224D01*
X173Y2223D02*
X279Y2223D01*
X489Y2223D02*
X595Y2223D01*
X1432Y2223D02*
X1537Y2223D01*
X1748Y2223D02*
X1853Y2223D01*
X176Y2222D02*
X277Y2222D01*
X491Y2222D02*
X592Y2222D01*
X1434Y2222D02*
X1535Y2222D01*
X1750Y2222D02*
X1851Y2222D01*
X178Y2221D02*
X274Y2221D01*
X494Y2221D02*
X590Y2221D01*
X1437Y2221D02*
X1532Y2221D01*
X1753Y2221D02*
X1848Y2221D01*
X182Y2220D02*
X270Y2220D01*
X498Y2220D02*
X586Y2220D01*
X1441Y2220D02*
X1528Y2220D01*
X1757Y2220D02*
X1844Y2220D01*
X345Y2146D02*
X432Y2146D01*
X1603Y2146D02*
X1691Y2146D01*
X341Y2145D02*
X436Y2145D01*
X1599Y2145D02*
X1695Y2145D01*
X338Y2144D02*
X439Y2144D01*
X1596Y2144D02*
X1697Y2144D01*
X336Y2143D02*
X441Y2143D01*
X1594Y2143D02*
X1700Y2143D01*
X334Y2142D02*
X443Y2142D01*
X1592Y2142D02*
X1702Y2142D01*
X332Y2141D02*
X445Y2141D01*
X1591Y2141D02*
X1703Y2141D01*
X331Y2140D02*
X446Y2140D01*
X1589Y2140D02*
X1705Y2140D01*
X329Y2139D02*
X448Y2139D01*
X1588Y2139D02*
X1706Y2139D01*
X328Y2138D02*
X449Y2138D01*
X1587Y2138D02*
X1707Y2138D01*
X327Y2137D02*
X450Y2137D01*
X1585Y2137D02*
X1708Y2137D01*
X326Y2136D02*
X451Y2136D01*
X1584Y2136D02*
X1709Y2136D01*
X325Y2135D02*
X452Y2135D01*
X1583Y2135D02*
X1710Y2135D01*
X324Y2134D02*
X453Y2134D01*
X1583Y2134D02*
X1711Y2134D01*
X323Y2133D02*
X454Y2133D01*
X1582Y2133D02*
X1712Y2133D01*
X322Y2132D02*
X454Y2132D01*
X1581Y2132D02*
X1713Y2132D01*
X322Y2131D02*
X383Y2131D01*
X394Y2131D02*
X455Y2131D01*
X1580Y2131D02*
X1641Y2131D01*
X1653Y2131D02*
X1714Y2131D01*
X321Y2130D02*
X379Y2130D01*
X397Y2130D02*
X456Y2130D01*
X1579Y2130D02*
X1638Y2130D01*
X1656Y2130D02*
X1714Y2130D01*
X320Y2129D02*
X377Y2129D01*
X399Y2129D02*
X456Y2129D01*
X1579Y2129D02*
X1636Y2129D01*
X1658Y2129D02*
X1715Y2129D01*
X320Y2128D02*
X376Y2128D01*
X401Y2128D02*
X457Y2128D01*
X1578Y2128D02*
X1634Y2128D01*
X1660Y2128D02*
X1716Y2128D01*
X319Y2127D02*
X374Y2127D01*
X402Y2127D02*
X458Y2127D01*
X1578Y2127D02*
X1633Y2127D01*
X1661Y2127D02*
X1716Y2127D01*
X319Y2126D02*
X373Y2126D01*
X404Y2126D02*
X458Y2126D01*
X1577Y2126D02*
X1632Y2126D01*
X1662Y2126D02*
X1717Y2126D01*
X318Y2125D02*
X372Y2125D01*
X405Y2125D02*
X459Y2125D01*
X1577Y2125D02*
X1631Y2125D01*
X1663Y2125D02*
X1717Y2125D01*
X318Y2124D02*
X371Y2124D01*
X406Y2124D02*
X459Y2124D01*
X1576Y2124D02*
X1630Y2124D01*
X1664Y2124D02*
X1718Y2124D01*
X317Y2123D02*
X370Y2123D01*
X406Y2123D02*
X459Y2123D01*
X1576Y2123D02*
X1629Y2123D01*
X1665Y2123D02*
X1718Y2123D01*
X317Y2122D02*
X370Y2122D01*
X407Y2122D02*
X460Y2122D01*
X1576Y2122D02*
X1628Y2122D01*
X1666Y2122D02*
X1718Y2122D01*
X317Y2121D02*
X369Y2121D01*
X408Y2121D02*
X460Y2121D01*
X1575Y2121D02*
X1628Y2121D01*
X1666Y2121D02*
X1719Y2121D01*
X316Y2120D02*
X369Y2120D01*
X408Y2120D02*
X460Y2120D01*
X1575Y2120D02*
X1627Y2120D01*
X1667Y2120D02*
X1719Y2120D01*
X316Y2119D02*
X368Y2119D01*
X409Y2119D02*
X461Y2119D01*
X1575Y2119D02*
X1627Y2119D01*
X1667Y2119D02*
X1719Y2119D01*
X316Y2118D02*
X368Y2118D01*
X409Y2118D02*
X461Y2118D01*
X1574Y2118D02*
X1626Y2118D01*
X1668Y2118D02*
X1719Y2118D01*
X316Y2117D02*
X367Y2117D01*
X410Y2117D02*
X461Y2117D01*
X1574Y2117D02*
X1626Y2117D01*
X1668Y2117D02*
X1720Y2117D01*
X316Y2116D02*
X367Y2116D01*
X410Y2116D02*
X461Y2116D01*
X1574Y2116D02*
X1625Y2116D01*
X1668Y2116D02*
X1720Y2116D01*
X315Y2115D02*
X367Y2115D01*
X410Y2115D02*
X462Y2115D01*
X1574Y2115D02*
X1625Y2115D01*
X1669Y2115D02*
X1720Y2115D01*
X315Y2114D02*
X366Y2114D01*
X411Y2114D02*
X462Y2114D01*
X1574Y2114D02*
X1625Y2114D01*
X1669Y2114D02*
X1720Y2114D01*
X315Y2113D02*
X366Y2113D01*
X411Y2113D02*
X462Y2113D01*
X1574Y2113D02*
X1625Y2113D01*
X1669Y2113D02*
X1720Y2113D01*
X315Y2112D02*
X366Y2112D01*
X411Y2112D02*
X462Y2112D01*
X1574Y2112D02*
X1625Y2112D01*
X1669Y2112D02*
X1720Y2112D01*
X315Y2111D02*
X366Y2111D01*
X411Y2111D02*
X462Y2111D01*
X1574Y2111D02*
X1624Y2111D01*
X1669Y2111D02*
X1720Y2111D01*
X315Y2110D02*
X366Y2110D01*
X411Y2110D02*
X462Y2110D01*
X1573Y2110D02*
X1624Y2110D01*
X1669Y2110D02*
X1720Y2110D01*
X315Y2109D02*
X366Y2109D01*
X411Y2109D02*
X462Y2109D01*
X1573Y2109D02*
X1624Y2109D01*
X1669Y2109D02*
X1720Y2109D01*
X315Y2108D02*
X366Y2108D01*
X411Y2108D02*
X462Y2108D01*
X1574Y2108D02*
X1625Y2108D01*
X1669Y2108D02*
X1720Y2108D01*
X315Y2107D02*
X366Y2107D01*
X411Y2107D02*
X462Y2107D01*
X1574Y2107D02*
X1625Y2107D01*
X1669Y2107D02*
X1720Y2107D01*
X315Y2106D02*
X366Y2106D01*
X411Y2106D02*
X462Y2106D01*
X1574Y2106D02*
X1625Y2106D01*
X1669Y2106D02*
X1720Y2106D01*
X315Y2105D02*
X366Y2105D01*
X410Y2105D02*
X462Y2105D01*
X1574Y2105D02*
X1625Y2105D01*
X1669Y2105D02*
X1720Y2105D01*
X315Y2104D02*
X367Y2104D01*
X410Y2104D02*
X461Y2104D01*
X1574Y2104D02*
X1625Y2104D01*
X1669Y2104D02*
X1720Y2104D01*
X316Y2103D02*
X367Y2103D01*
X410Y2103D02*
X461Y2103D01*
X1574Y2103D02*
X1626Y2103D01*
X1668Y2103D02*
X1720Y2103D01*
X316Y2102D02*
X367Y2102D01*
X409Y2102D02*
X461Y2102D01*
X1574Y2102D02*
X1626Y2102D01*
X1668Y2102D02*
X1720Y2102D01*
X316Y2101D02*
X368Y2101D01*
X409Y2101D02*
X461Y2101D01*
X1575Y2101D02*
X1626Y2101D01*
X1668Y2101D02*
X1719Y2101D01*
X316Y2100D02*
X368Y2100D01*
X409Y2100D02*
X461Y2100D01*
X1575Y2100D02*
X1627Y2100D01*
X1667Y2100D02*
X1719Y2100D01*
X317Y2099D02*
X369Y2099D01*
X408Y2099D02*
X460Y2099D01*
X1575Y2099D02*
X1627Y2099D01*
X1667Y2099D02*
X1719Y2099D01*
X317Y2098D02*
X369Y2098D01*
X407Y2098D02*
X460Y2098D01*
X1575Y2098D02*
X1628Y2098D01*
X1666Y2098D02*
X1718Y2098D01*
X317Y2097D02*
X370Y2097D01*
X407Y2097D02*
X460Y2097D01*
X1576Y2097D02*
X1629Y2097D01*
X1665Y2097D02*
X1718Y2097D01*
X318Y2096D02*
X371Y2096D01*
X406Y2096D02*
X459Y2096D01*
X1576Y2096D02*
X1629Y2096D01*
X1664Y2096D02*
X1718Y2096D01*
X318Y2095D02*
X372Y2095D01*
X405Y2095D02*
X459Y2095D01*
X1577Y2095D02*
X1630Y2095D01*
X1664Y2095D02*
X1717Y2095D01*
X318Y2094D02*
X373Y2094D01*
X404Y2094D02*
X458Y2094D01*
X1577Y2094D02*
X1631Y2094D01*
X1663Y2094D02*
X1717Y2094D01*
X319Y2093D02*
X374Y2093D01*
X403Y2093D02*
X458Y2093D01*
X1577Y2093D02*
X1632Y2093D01*
X1662Y2093D02*
X1716Y2093D01*
X319Y2092D02*
X375Y2092D01*
X402Y2092D02*
X457Y2092D01*
X1578Y2092D02*
X1634Y2092D01*
X1660Y2092D02*
X1716Y2092D01*
X320Y2091D02*
X377Y2091D01*
X400Y2091D02*
X457Y2091D01*
X1579Y2091D02*
X1635Y2091D01*
X1659Y2091D02*
X1715Y2091D01*
X321Y2090D02*
X378Y2090D01*
X398Y2090D02*
X456Y2090D01*
X1579Y2090D02*
X1637Y2090D01*
X1657Y2090D02*
X1715Y2090D01*
X321Y2089D02*
X381Y2089D01*
X396Y2089D02*
X456Y2089D01*
X1580Y2089D02*
X1639Y2089D01*
X1654Y2089D02*
X1714Y2089D01*
X322Y2088D02*
X385Y2088D01*
X392Y2088D02*
X455Y2088D01*
X1581Y2088D02*
X1643Y2088D01*
X1651Y2088D02*
X1713Y2088D01*
X323Y2087D02*
X454Y2087D01*
X1581Y2087D02*
X1713Y2087D01*
X324Y2086D02*
X453Y2086D01*
X1582Y2086D02*
X1712Y2086D01*
X324Y2085D02*
X452Y2085D01*
X1583Y2085D02*
X1711Y2085D01*
X325Y2084D02*
X451Y2084D01*
X1584Y2084D02*
X1710Y2084D01*
X326Y2083D02*
X450Y2083D01*
X1585Y2083D02*
X1709Y2083D01*
X327Y2082D02*
X449Y2082D01*
X1586Y2082D02*
X1708Y2082D01*
X329Y2081D02*
X448Y2081D01*
X1587Y2081D02*
X1707Y2081D01*
X330Y2080D02*
X447Y2080D01*
X1588Y2080D02*
X1705Y2080D01*
X331Y2079D02*
X445Y2079D01*
X1590Y2079D02*
X1704Y2079D01*
X333Y2078D02*
X444Y2078D01*
X1591Y2078D02*
X1702Y2078D01*
X335Y2077D02*
X442Y2077D01*
X1593Y2077D02*
X1701Y2077D01*
X337Y2076D02*
X440Y2076D01*
X1595Y2076D02*
X1699Y2076D01*
X339Y2075D02*
X438Y2075D01*
X1598Y2075D02*
X1696Y2075D01*
X343Y2074D02*
X434Y2074D01*
X1601Y2074D02*
X1693Y2074D01*
X348Y2073D02*
X429Y2073D01*
X1606Y2073D02*
X1688Y2073D01*
X179Y1392D02*
X268Y1392D01*
X495Y1392D02*
X584Y1392D01*
X1437Y1392D02*
X1526Y1392D01*
X1753Y1392D02*
X1842Y1392D01*
X175Y1391D02*
X271Y1391D01*
X491Y1391D02*
X587Y1391D01*
X1434Y1391D02*
X1530Y1391D01*
X1750Y1391D02*
X1846Y1391D01*
X173Y1390D02*
X274Y1390D01*
X488Y1390D02*
X590Y1390D01*
X1431Y1390D02*
X1533Y1390D01*
X1747Y1390D02*
X1848Y1390D01*
X170Y1389D02*
X276Y1389D01*
X486Y1389D02*
X592Y1389D01*
X1429Y1389D02*
X1535Y1389D01*
X1745Y1389D02*
X1851Y1389D01*
X169Y1388D02*
X278Y1388D01*
X484Y1388D02*
X594Y1388D01*
X1427Y1388D02*
X1537Y1388D01*
X1743Y1388D02*
X1853Y1388D01*
X167Y1387D02*
X280Y1387D01*
X483Y1387D02*
X596Y1387D01*
X1425Y1387D02*
X1538Y1387D01*
X1741Y1387D02*
X1854Y1387D01*
X165Y1386D02*
X281Y1386D01*
X481Y1386D02*
X597Y1386D01*
X1424Y1386D02*
X1540Y1386D01*
X1740Y1386D02*
X1856Y1386D01*
X164Y1385D02*
X283Y1385D01*
X480Y1385D02*
X598Y1385D01*
X1423Y1385D02*
X1541Y1385D01*
X1738Y1385D02*
X1857Y1385D01*
X163Y1384D02*
X284Y1384D01*
X479Y1384D02*
X600Y1384D01*
X1421Y1384D02*
X1542Y1384D01*
X1737Y1384D02*
X1858Y1384D01*
X162Y1383D02*
X285Y1383D01*
X478Y1383D02*
X601Y1383D01*
X1420Y1383D02*
X1543Y1383D01*
X1736Y1383D02*
X1859Y1383D01*
X161Y1382D02*
X286Y1382D01*
X477Y1382D02*
X602Y1382D01*
X1419Y1382D02*
X1545Y1382D01*
X1735Y1382D02*
X1860Y1382D01*
X160Y1381D02*
X287Y1381D01*
X476Y1381D02*
X603Y1381D01*
X1418Y1381D02*
X1545Y1381D01*
X1734Y1381D02*
X1861Y1381D01*
X159Y1380D02*
X288Y1380D01*
X475Y1380D02*
X604Y1380D01*
X1417Y1380D02*
X1546Y1380D01*
X1733Y1380D02*
X1862Y1380D01*
X158Y1379D02*
X289Y1379D01*
X474Y1379D02*
X605Y1379D01*
X1417Y1379D02*
X1547Y1379D01*
X1732Y1379D02*
X1863Y1379D01*
X157Y1378D02*
X289Y1378D01*
X473Y1378D02*
X605Y1378D01*
X1416Y1378D02*
X1548Y1378D01*
X1732Y1378D02*
X1864Y1378D01*
X157Y1377D02*
X217Y1377D01*
X230Y1377D02*
X290Y1377D01*
X472Y1377D02*
X533Y1377D01*
X545Y1377D02*
X606Y1377D01*
X1415Y1377D02*
X1476Y1377D01*
X1488Y1377D02*
X1549Y1377D01*
X1731Y1377D02*
X1791Y1377D01*
X1804Y1377D02*
X1865Y1377D01*
X156Y1376D02*
X214Y1376D01*
X233Y1376D02*
X291Y1376D01*
X472Y1376D02*
X530Y1376D01*
X549Y1376D02*
X607Y1376D01*
X1414Y1376D02*
X1473Y1376D01*
X1491Y1376D02*
X1549Y1376D01*
X1730Y1376D02*
X1788Y1376D01*
X1807Y1376D02*
X1865Y1376D01*
X155Y1375D02*
X212Y1375D01*
X235Y1375D02*
X291Y1375D01*
X471Y1375D02*
X528Y1375D01*
X550Y1375D02*
X607Y1375D01*
X1414Y1375D02*
X1471Y1375D01*
X1493Y1375D02*
X1550Y1375D01*
X1730Y1375D02*
X1787Y1375D01*
X1809Y1375D02*
X1866Y1375D01*
X155Y1374D02*
X210Y1374D01*
X236Y1374D02*
X292Y1374D01*
X470Y1374D02*
X526Y1374D01*
X552Y1374D02*
X608Y1374D01*
X1413Y1374D02*
X1469Y1374D01*
X1495Y1374D02*
X1551Y1374D01*
X1729Y1374D02*
X1785Y1374D01*
X1811Y1374D02*
X1866Y1374D01*
X154Y1373D02*
X209Y1373D01*
X237Y1373D02*
X293Y1373D01*
X470Y1373D02*
X525Y1373D01*
X553Y1373D02*
X608Y1373D01*
X1413Y1373D02*
X1468Y1373D01*
X1496Y1373D02*
X1551Y1373D01*
X1728Y1373D02*
X1784Y1373D01*
X1812Y1373D02*
X1867Y1373D01*
X154Y1372D02*
X208Y1372D01*
X239Y1372D02*
X293Y1372D01*
X469Y1372D02*
X524Y1372D01*
X555Y1372D02*
X609Y1372D01*
X1412Y1372D02*
X1466Y1372D01*
X1497Y1372D02*
X1552Y1372D01*
X1728Y1372D02*
X1782Y1372D01*
X1813Y1372D02*
X1867Y1372D01*
X153Y1371D02*
X207Y1371D01*
X240Y1371D02*
X294Y1371D01*
X469Y1371D02*
X523Y1371D01*
X556Y1371D02*
X609Y1371D01*
X1412Y1371D02*
X1465Y1371D01*
X1498Y1371D02*
X1552Y1371D01*
X1727Y1371D02*
X1781Y1371D01*
X1814Y1371D02*
X1868Y1371D01*
X153Y1370D02*
X206Y1370D01*
X241Y1370D02*
X294Y1370D01*
X469Y1370D02*
X522Y1370D01*
X556Y1370D02*
X610Y1370D01*
X1411Y1370D02*
X1465Y1370D01*
X1499Y1370D02*
X1553Y1370D01*
X1727Y1370D02*
X1780Y1370D01*
X1815Y1370D02*
X1868Y1370D01*
X152Y1369D02*
X205Y1369D01*
X241Y1369D02*
X294Y1369D01*
X468Y1369D02*
X521Y1369D01*
X557Y1369D02*
X610Y1369D01*
X1411Y1369D02*
X1464Y1369D01*
X1500Y1369D02*
X1553Y1369D01*
X1727Y1369D02*
X1780Y1369D01*
X1816Y1369D02*
X1869Y1369D01*
X152Y1368D02*
X205Y1368D01*
X242Y1368D02*
X295Y1368D01*
X468Y1368D02*
X520Y1368D01*
X558Y1368D02*
X611Y1368D01*
X1410Y1368D02*
X1463Y1368D01*
X1501Y1368D02*
X1553Y1368D01*
X1726Y1368D02*
X1779Y1368D01*
X1817Y1368D02*
X1869Y1368D01*
X152Y1367D02*
X204Y1367D01*
X243Y1367D02*
X295Y1367D01*
X467Y1367D02*
X520Y1367D01*
X559Y1367D02*
X611Y1367D01*
X1410Y1367D02*
X1462Y1367D01*
X1501Y1367D02*
X1554Y1367D01*
X1726Y1367D02*
X1778Y1367D01*
X1817Y1367D02*
X1869Y1367D01*
X151Y1366D02*
X203Y1366D01*
X243Y1366D02*
X295Y1366D01*
X467Y1366D02*
X519Y1366D01*
X559Y1366D02*
X611Y1366D01*
X1410Y1366D02*
X1462Y1366D01*
X1502Y1366D02*
X1554Y1366D01*
X1726Y1366D02*
X1778Y1366D01*
X1818Y1366D02*
X1870Y1366D01*
X151Y1365D02*
X203Y1365D01*
X244Y1365D02*
X296Y1365D01*
X467Y1365D02*
X519Y1365D01*
X560Y1365D02*
X612Y1365D01*
X1410Y1365D02*
X1461Y1365D01*
X1502Y1365D02*
X1554Y1365D01*
X1725Y1365D02*
X1777Y1365D01*
X1818Y1365D02*
X1870Y1365D01*
X151Y1364D02*
X202Y1364D01*
X244Y1364D02*
X296Y1364D01*
X467Y1364D02*
X518Y1364D01*
X560Y1364D02*
X612Y1364D01*
X1409Y1364D02*
X1461Y1364D01*
X1503Y1364D02*
X1554Y1364D01*
X1725Y1364D02*
X1777Y1364D01*
X1819Y1364D02*
X1870Y1364D01*
X151Y1363D02*
X202Y1363D01*
X245Y1363D02*
X296Y1363D01*
X466Y1363D02*
X518Y1363D01*
X560Y1363D02*
X612Y1363D01*
X1409Y1363D02*
X1461Y1363D01*
X1503Y1363D02*
X1555Y1363D01*
X1725Y1363D02*
X1776Y1363D01*
X1819Y1363D02*
X1871Y1363D01*
X150Y1362D02*
X202Y1362D01*
X245Y1362D02*
X296Y1362D01*
X466Y1362D02*
X518Y1362D01*
X561Y1362D02*
X612Y1362D01*
X1409Y1362D02*
X1460Y1362D01*
X1503Y1362D02*
X1555Y1362D01*
X1725Y1362D02*
X1776Y1362D01*
X1819Y1362D02*
X1871Y1362D01*
X150Y1361D02*
X202Y1361D01*
X245Y1361D02*
X296Y1361D01*
X466Y1361D02*
X517Y1361D01*
X561Y1361D02*
X612Y1361D01*
X1409Y1361D02*
X1460Y1361D01*
X1504Y1361D02*
X1555Y1361D01*
X1725Y1361D02*
X1776Y1361D01*
X1820Y1361D02*
X1871Y1361D01*
X150Y1360D02*
X201Y1360D01*
X245Y1360D02*
X297Y1360D01*
X466Y1360D02*
X517Y1360D01*
X561Y1360D02*
X612Y1360D01*
X1409Y1360D02*
X1460Y1360D01*
X1504Y1360D02*
X1555Y1360D01*
X1724Y1360D02*
X1776Y1360D01*
X1820Y1360D02*
X1871Y1360D01*
X150Y1359D02*
X201Y1359D01*
X246Y1359D02*
X297Y1359D01*
X466Y1359D02*
X517Y1359D01*
X561Y1359D02*
X613Y1359D01*
X1409Y1359D02*
X1460Y1359D01*
X1504Y1359D02*
X1555Y1359D01*
X1724Y1359D02*
X1775Y1359D01*
X1820Y1359D02*
X1871Y1359D01*
X150Y1358D02*
X201Y1358D01*
X246Y1358D02*
X297Y1358D01*
X466Y1358D02*
X517Y1358D01*
X562Y1358D02*
X613Y1358D01*
X1408Y1358D02*
X1459Y1358D01*
X1504Y1358D02*
X1555Y1358D01*
X1724Y1358D02*
X1775Y1358D01*
X1820Y1358D02*
X1871Y1358D01*
X150Y1357D02*
X201Y1357D01*
X246Y1357D02*
X297Y1357D01*
X466Y1357D02*
X517Y1357D01*
X562Y1357D02*
X613Y1357D01*
X1408Y1357D02*
X1459Y1357D01*
X1504Y1357D02*
X1555Y1357D01*
X1724Y1357D02*
X1775Y1357D01*
X1820Y1357D02*
X1871Y1357D01*
X150Y1356D02*
X201Y1356D01*
X246Y1356D02*
X297Y1356D01*
X466Y1356D02*
X517Y1356D01*
X562Y1356D02*
X613Y1356D01*
X1408Y1356D02*
X1459Y1356D01*
X1504Y1356D02*
X1555Y1356D01*
X1724Y1356D02*
X1775Y1356D01*
X1820Y1356D02*
X1871Y1356D01*
X150Y1355D02*
X201Y1355D01*
X246Y1355D02*
X297Y1355D01*
X466Y1355D02*
X517Y1355D01*
X562Y1355D02*
X613Y1355D01*
X1408Y1355D02*
X1459Y1355D01*
X1504Y1355D02*
X1555Y1355D01*
X1724Y1355D02*
X1775Y1355D01*
X1820Y1355D02*
X1871Y1355D01*
X150Y1354D02*
X201Y1354D01*
X246Y1354D02*
X297Y1354D01*
X466Y1354D02*
X517Y1354D01*
X562Y1354D02*
X613Y1354D01*
X1408Y1354D02*
X1459Y1354D01*
X1504Y1354D02*
X1555Y1354D01*
X1724Y1354D02*
X1775Y1354D01*
X1820Y1354D02*
X1871Y1354D01*
X150Y1353D02*
X201Y1353D01*
X246Y1353D02*
X297Y1353D01*
X466Y1353D02*
X517Y1353D01*
X561Y1353D02*
X613Y1353D01*
X1408Y1353D02*
X1460Y1353D01*
X1504Y1353D02*
X1555Y1353D01*
X1724Y1353D02*
X1775Y1353D01*
X1820Y1353D02*
X1871Y1353D01*
X150Y1352D02*
X201Y1352D01*
X245Y1352D02*
X297Y1352D01*
X466Y1352D02*
X517Y1352D01*
X561Y1352D02*
X612Y1352D01*
X1409Y1352D02*
X1460Y1352D01*
X1504Y1352D02*
X1555Y1352D01*
X1724Y1352D02*
X1776Y1352D01*
X1820Y1352D02*
X1871Y1352D01*
X150Y1351D02*
X201Y1351D01*
X245Y1351D02*
X296Y1351D01*
X466Y1351D02*
X517Y1351D01*
X561Y1351D02*
X612Y1351D01*
X1409Y1351D02*
X1460Y1351D01*
X1504Y1351D02*
X1555Y1351D01*
X1725Y1351D02*
X1776Y1351D01*
X1820Y1351D02*
X1871Y1351D01*
X150Y1350D02*
X202Y1350D01*
X245Y1350D02*
X296Y1350D01*
X466Y1350D02*
X518Y1350D01*
X561Y1350D02*
X612Y1350D01*
X1409Y1350D02*
X1460Y1350D01*
X1503Y1350D02*
X1555Y1350D01*
X1725Y1350D02*
X1776Y1350D01*
X1819Y1350D02*
X1871Y1350D01*
X151Y1349D02*
X202Y1349D01*
X245Y1349D02*
X296Y1349D01*
X466Y1349D02*
X518Y1349D01*
X560Y1349D02*
X612Y1349D01*
X1409Y1349D02*
X1461Y1349D01*
X1503Y1349D02*
X1555Y1349D01*
X1725Y1349D02*
X1776Y1349D01*
X1819Y1349D02*
X1871Y1349D01*
X151Y1348D02*
X202Y1348D01*
X244Y1348D02*
X296Y1348D01*
X467Y1348D02*
X518Y1348D01*
X560Y1348D02*
X612Y1348D01*
X1409Y1348D02*
X1461Y1348D01*
X1503Y1348D02*
X1554Y1348D01*
X1725Y1348D02*
X1777Y1348D01*
X1819Y1348D02*
X1870Y1348D01*
X151Y1347D02*
X203Y1347D01*
X244Y1347D02*
X296Y1347D01*
X467Y1347D02*
X519Y1347D01*
X560Y1347D02*
X612Y1347D01*
X1409Y1347D02*
X1461Y1347D01*
X1502Y1347D02*
X1554Y1347D01*
X1725Y1347D02*
X1777Y1347D01*
X1818Y1347D02*
X1870Y1347D01*
X151Y1346D02*
X203Y1346D01*
X243Y1346D02*
X295Y1346D01*
X467Y1346D02*
X519Y1346D01*
X559Y1346D02*
X611Y1346D01*
X1410Y1346D02*
X1462Y1346D01*
X1502Y1346D02*
X1554Y1346D01*
X1726Y1346D02*
X1778Y1346D01*
X1818Y1346D02*
X1870Y1346D01*
X151Y1345D02*
X204Y1345D01*
X243Y1345D02*
X295Y1345D01*
X467Y1345D02*
X520Y1345D01*
X559Y1345D02*
X611Y1345D01*
X1410Y1345D02*
X1462Y1345D01*
X1501Y1345D02*
X1554Y1345D01*
X1726Y1345D02*
X1778Y1345D01*
X1817Y1345D02*
X1870Y1345D01*
X152Y1344D02*
X204Y1344D01*
X242Y1344D02*
X295Y1344D01*
X468Y1344D02*
X520Y1344D01*
X558Y1344D02*
X611Y1344D01*
X1410Y1344D02*
X1463Y1344D01*
X1501Y1344D02*
X1553Y1344D01*
X1726Y1344D02*
X1779Y1344D01*
X1817Y1344D02*
X1869Y1344D01*
X152Y1343D02*
X205Y1343D01*
X242Y1343D02*
X294Y1343D01*
X468Y1343D02*
X521Y1343D01*
X557Y1343D02*
X610Y1343D01*
X1411Y1343D02*
X1464Y1343D01*
X1500Y1343D02*
X1553Y1343D01*
X1727Y1343D02*
X1779Y1343D01*
X1816Y1343D02*
X1869Y1343D01*
X153Y1342D02*
X206Y1342D01*
X241Y1342D02*
X294Y1342D01*
X468Y1342D02*
X522Y1342D01*
X557Y1342D02*
X610Y1342D01*
X1411Y1342D02*
X1464Y1342D01*
X1499Y1342D02*
X1553Y1342D01*
X1727Y1342D02*
X1780Y1342D01*
X1815Y1342D02*
X1868Y1342D01*
X153Y1341D02*
X207Y1341D01*
X240Y1341D02*
X294Y1341D01*
X469Y1341D02*
X523Y1341D01*
X556Y1341D02*
X610Y1341D01*
X1411Y1341D02*
X1465Y1341D01*
X1498Y1341D02*
X1552Y1341D01*
X1727Y1341D02*
X1781Y1341D01*
X1814Y1341D02*
X1868Y1341D01*
X153Y1340D02*
X208Y1340D01*
X239Y1340D02*
X293Y1340D01*
X469Y1340D02*
X524Y1340D01*
X555Y1340D02*
X609Y1340D01*
X1412Y1340D02*
X1466Y1340D01*
X1498Y1340D02*
X1552Y1340D01*
X1728Y1340D02*
X1782Y1340D01*
X1813Y1340D02*
X1868Y1340D01*
X154Y1339D02*
X209Y1339D01*
X238Y1339D02*
X293Y1339D01*
X470Y1339D02*
X525Y1339D01*
X554Y1339D02*
X609Y1339D01*
X1412Y1339D02*
X1467Y1339D01*
X1496Y1339D02*
X1551Y1339D01*
X1728Y1339D02*
X1783Y1339D01*
X1812Y1339D02*
X1867Y1339D01*
X154Y1338D02*
X210Y1338D01*
X237Y1338D02*
X292Y1338D01*
X470Y1338D02*
X526Y1338D01*
X552Y1338D02*
X608Y1338D01*
X1413Y1338D02*
X1469Y1338D01*
X1495Y1338D02*
X1551Y1338D01*
X1729Y1338D02*
X1784Y1338D01*
X1811Y1338D02*
X1867Y1338D01*
X155Y1337D02*
X212Y1337D01*
X235Y1337D02*
X292Y1337D01*
X471Y1337D02*
X528Y1337D01*
X551Y1337D02*
X607Y1337D01*
X1414Y1337D02*
X1470Y1337D01*
X1494Y1337D02*
X1550Y1337D01*
X1729Y1337D02*
X1786Y1337D01*
X1809Y1337D02*
X1866Y1337D01*
X156Y1336D02*
X214Y1336D01*
X233Y1336D02*
X291Y1336D01*
X472Y1336D02*
X529Y1336D01*
X549Y1336D02*
X607Y1336D01*
X1414Y1336D02*
X1472Y1336D01*
X1492Y1336D02*
X1550Y1336D01*
X1730Y1336D02*
X1788Y1336D01*
X1808Y1336D02*
X1865Y1336D01*
X156Y1335D02*
X216Y1335D01*
X230Y1335D02*
X290Y1335D01*
X472Y1335D02*
X532Y1335D01*
X546Y1335D02*
X606Y1335D01*
X1415Y1335D02*
X1475Y1335D01*
X1489Y1335D02*
X1549Y1335D01*
X1731Y1335D02*
X1791Y1335D01*
X1805Y1335D02*
X1865Y1335D01*
X157Y1334D02*
X221Y1334D01*
X226Y1334D02*
X290Y1334D01*
X473Y1334D02*
X536Y1334D01*
X542Y1334D02*
X605Y1334D01*
X1416Y1334D02*
X1479Y1334D01*
X1485Y1334D02*
X1548Y1334D01*
X1731Y1334D02*
X1795Y1334D01*
X1800Y1334D02*
X1864Y1334D01*
X158Y1333D02*
X289Y1333D01*
X474Y1333D02*
X605Y1333D01*
X1416Y1333D02*
X1547Y1333D01*
X1732Y1333D02*
X1863Y1333D01*
X159Y1332D02*
X288Y1332D01*
X474Y1332D02*
X604Y1332D01*
X1417Y1332D02*
X1547Y1332D01*
X1733Y1332D02*
X1862Y1332D01*
X160Y1331D02*
X287Y1331D01*
X475Y1331D02*
X603Y1331D01*
X1418Y1331D02*
X1546Y1331D01*
X1734Y1331D02*
X1862Y1331D01*
X160Y1330D02*
X286Y1330D01*
X476Y1330D02*
X602Y1330D01*
X1419Y1330D02*
X1545Y1330D01*
X1735Y1330D02*
X1861Y1330D01*
X161Y1329D02*
X285Y1329D01*
X477Y1329D02*
X601Y1329D01*
X1420Y1329D02*
X1544Y1329D01*
X1736Y1329D02*
X1860Y1329D01*
X163Y1328D02*
X284Y1328D01*
X478Y1328D02*
X600Y1328D01*
X1421Y1328D02*
X1543Y1328D01*
X1737Y1328D02*
X1859Y1328D01*
X164Y1327D02*
X283Y1327D01*
X480Y1327D02*
X599Y1327D01*
X1422Y1327D02*
X1541Y1327D01*
X1738Y1327D02*
X1857Y1327D01*
X165Y1326D02*
X282Y1326D01*
X481Y1326D02*
X597Y1326D01*
X1424Y1326D02*
X1540Y1326D01*
X1739Y1326D02*
X1856Y1326D01*
X166Y1325D02*
X280Y1325D01*
X482Y1325D02*
X596Y1325D01*
X1425Y1325D02*
X1539Y1325D01*
X1741Y1325D02*
X1855Y1325D01*
X168Y1324D02*
X279Y1324D01*
X484Y1324D02*
X594Y1324D01*
X1427Y1324D02*
X1537Y1324D01*
X1742Y1324D02*
X1853Y1324D01*
X170Y1323D02*
X277Y1323D01*
X486Y1323D02*
X593Y1323D01*
X1428Y1323D02*
X1535Y1323D01*
X1744Y1323D02*
X1851Y1323D01*
X172Y1322D02*
X275Y1322D01*
X488Y1322D02*
X591Y1322D01*
X1430Y1322D02*
X1533Y1322D01*
X1746Y1322D02*
X1849Y1322D01*
X175Y1321D02*
X272Y1321D01*
X490Y1321D02*
X588Y1321D01*
X1433Y1321D02*
X1531Y1321D01*
X1749Y1321D02*
X1846Y1321D01*
X178Y1320D02*
X269Y1320D01*
X494Y1320D02*
X585Y1320D01*
X1436Y1320D02*
X1527Y1320D01*
X1752Y1320D02*
X1843Y1320D01*
X184Y1319D02*
X262Y1319D01*
X500Y1319D02*
X578Y1319D01*
X1443Y1319D02*
X1521Y1319D01*
X1759Y1319D02*
X1837Y1319D01*
X344Y1246D02*
X427Y1246D01*
X1603Y1246D02*
X1686Y1246D01*
X339Y1245D02*
X432Y1245D01*
X1598Y1245D02*
X1691Y1245D01*
X336Y1244D02*
X435Y1244D01*
X1595Y1244D02*
X1694Y1244D01*
X334Y1243D02*
X438Y1243D01*
X1592Y1243D02*
X1696Y1243D01*
X332Y1242D02*
X440Y1242D01*
X1590Y1242D02*
X1698Y1242D01*
X330Y1241D02*
X441Y1241D01*
X1589Y1241D02*
X1700Y1241D01*
X329Y1240D02*
X443Y1240D01*
X1587Y1240D02*
X1701Y1240D01*
X327Y1239D02*
X444Y1239D01*
X1586Y1239D02*
X1703Y1239D01*
X326Y1238D02*
X446Y1238D01*
X1584Y1238D02*
X1704Y1238D01*
X325Y1237D02*
X447Y1237D01*
X1583Y1237D02*
X1705Y1237D01*
X324Y1236D02*
X448Y1236D01*
X1582Y1236D02*
X1706Y1236D01*
X323Y1235D02*
X449Y1235D01*
X1581Y1235D02*
X1707Y1235D01*
X322Y1234D02*
X450Y1234D01*
X1580Y1234D02*
X1708Y1234D01*
X321Y1233D02*
X451Y1233D01*
X1579Y1233D02*
X1709Y1233D01*
X320Y1232D02*
X451Y1232D01*
X1579Y1232D02*
X1710Y1232D01*
X319Y1231D02*
X381Y1231D01*
X390Y1231D02*
X452Y1231D01*
X1578Y1231D02*
X1640Y1231D01*
X1649Y1231D02*
X1711Y1231D01*
X319Y1230D02*
X378Y1230D01*
X394Y1230D02*
X453Y1230D01*
X1577Y1230D02*
X1636Y1230D01*
X1652Y1230D02*
X1711Y1230D01*
X318Y1229D02*
X376Y1229D01*
X396Y1229D02*
X454Y1229D01*
X1576Y1229D02*
X1634Y1229D01*
X1654Y1229D02*
X1712Y1229D01*
X317Y1228D02*
X374Y1228D01*
X398Y1228D02*
X454Y1228D01*
X1576Y1228D02*
X1632Y1228D01*
X1656Y1228D02*
X1713Y1228D01*
X317Y1227D02*
X372Y1227D01*
X399Y1227D02*
X455Y1227D01*
X1575Y1227D02*
X1631Y1227D01*
X1658Y1227D02*
X1713Y1227D01*
X316Y1226D02*
X371Y1226D01*
X400Y1226D02*
X455Y1226D01*
X1575Y1226D02*
X1630Y1226D01*
X1659Y1226D02*
X1714Y1226D01*
X316Y1225D02*
X370Y1225D01*
X402Y1225D02*
X456Y1225D01*
X1574Y1225D02*
X1628Y1225D01*
X1660Y1225D02*
X1714Y1225D01*
X315Y1224D02*
X369Y1224D01*
X403Y1224D02*
X456Y1224D01*
X1574Y1224D02*
X1627Y1224D01*
X1661Y1224D02*
X1715Y1224D01*
X315Y1223D02*
X368Y1223D01*
X403Y1223D02*
X457Y1223D01*
X1573Y1223D02*
X1627Y1223D01*
X1662Y1223D02*
X1715Y1223D01*
X314Y1222D02*
X367Y1222D01*
X404Y1222D02*
X457Y1222D01*
X1573Y1222D02*
X1626Y1222D01*
X1663Y1222D02*
X1715Y1222D01*
X314Y1221D02*
X367Y1221D01*
X405Y1221D02*
X457Y1221D01*
X1573Y1221D02*
X1625Y1221D01*
X1663Y1221D02*
X1716Y1221D01*
X314Y1220D02*
X366Y1220D01*
X405Y1220D02*
X458Y1220D01*
X1572Y1220D02*
X1625Y1220D01*
X1664Y1220D02*
X1716Y1220D01*
X314Y1219D02*
X366Y1219D01*
X406Y1219D02*
X458Y1219D01*
X1572Y1219D02*
X1624Y1219D01*
X1664Y1219D02*
X1716Y1219D01*
X313Y1218D02*
X365Y1218D01*
X406Y1218D02*
X458Y1218D01*
X1572Y1218D02*
X1624Y1218D01*
X1665Y1218D02*
X1717Y1218D01*
X313Y1217D02*
X365Y1217D01*
X407Y1217D02*
X458Y1217D01*
X1572Y1217D02*
X1623Y1217D01*
X1665Y1217D02*
X1717Y1217D01*
X313Y1216D02*
X364Y1216D01*
X407Y1216D02*
X459Y1216D01*
X1571Y1216D02*
X1623Y1216D01*
X1666Y1216D02*
X1717Y1216D01*
X313Y1215D02*
X364Y1215D01*
X407Y1215D02*
X459Y1215D01*
X1571Y1215D02*
X1623Y1215D01*
X1666Y1215D02*
X1717Y1215D01*
X313Y1214D02*
X364Y1214D01*
X408Y1214D02*
X459Y1214D01*
X1571Y1214D02*
X1622Y1214D01*
X1666Y1214D02*
X1717Y1214D01*
X312Y1213D02*
X364Y1213D01*
X408Y1213D02*
X459Y1213D01*
X1571Y1213D02*
X1622Y1213D01*
X1666Y1213D02*
X1718Y1213D01*
X312Y1212D02*
X363Y1212D01*
X408Y1212D02*
X459Y1212D01*
X1571Y1212D02*
X1622Y1212D01*
X1667Y1212D02*
X1718Y1212D01*
X312Y1211D02*
X363Y1211D01*
X408Y1211D02*
X459Y1211D01*
X1571Y1211D02*
X1622Y1211D01*
X1667Y1211D02*
X1718Y1211D01*
X312Y1210D02*
X363Y1210D01*
X408Y1210D02*
X459Y1210D01*
X1571Y1210D02*
X1622Y1210D01*
X1667Y1210D02*
X1718Y1210D01*
X312Y1209D02*
X363Y1209D01*
X408Y1209D02*
X459Y1209D01*
X1571Y1209D02*
X1622Y1209D01*
X1667Y1209D02*
X1718Y1209D01*
X312Y1208D02*
X363Y1208D01*
X408Y1208D02*
X459Y1208D01*
X1571Y1208D02*
X1622Y1208D01*
X1667Y1208D02*
X1718Y1208D01*
X312Y1207D02*
X363Y1207D01*
X408Y1207D02*
X459Y1207D01*
X1571Y1207D02*
X1622Y1207D01*
X1667Y1207D02*
X1718Y1207D01*
X312Y1206D02*
X364Y1206D01*
X408Y1206D02*
X459Y1206D01*
X1571Y1206D02*
X1622Y1206D01*
X1666Y1206D02*
X1718Y1206D01*
X313Y1205D02*
X364Y1205D01*
X408Y1205D02*
X459Y1205D01*
X1571Y1205D02*
X1622Y1205D01*
X1666Y1205D02*
X1717Y1205D01*
X313Y1204D02*
X364Y1204D01*
X407Y1204D02*
X459Y1204D01*
X1571Y1204D02*
X1622Y1204D01*
X1666Y1204D02*
X1717Y1204D01*
X313Y1203D02*
X364Y1203D01*
X407Y1203D02*
X459Y1203D01*
X1571Y1203D02*
X1623Y1203D01*
X1666Y1203D02*
X1717Y1203D01*
X313Y1202D02*
X365Y1202D01*
X407Y1202D02*
X458Y1202D01*
X1571Y1202D02*
X1623Y1202D01*
X1665Y1202D02*
X1717Y1202D01*
X313Y1201D02*
X365Y1201D01*
X407Y1201D02*
X458Y1201D01*
X1572Y1201D02*
X1623Y1201D01*
X1665Y1201D02*
X1717Y1201D01*
X313Y1200D02*
X365Y1200D01*
X406Y1200D02*
X458Y1200D01*
X1572Y1200D02*
X1624Y1200D01*
X1665Y1200D02*
X1716Y1200D01*
X314Y1199D02*
X366Y1199D01*
X406Y1199D02*
X458Y1199D01*
X1572Y1199D02*
X1624Y1199D01*
X1664Y1199D02*
X1716Y1199D01*
X314Y1198D02*
X366Y1198D01*
X405Y1198D02*
X457Y1198D01*
X1573Y1198D02*
X1625Y1198D01*
X1663Y1198D02*
X1716Y1198D01*
X314Y1197D02*
X367Y1197D01*
X404Y1197D02*
X457Y1197D01*
X1573Y1197D02*
X1626Y1197D01*
X1663Y1197D02*
X1716Y1197D01*
X315Y1196D02*
X368Y1196D01*
X404Y1196D02*
X457Y1196D01*
X1573Y1196D02*
X1626Y1196D01*
X1662Y1196D02*
X1715Y1196D01*
X315Y1195D02*
X369Y1195D01*
X403Y1195D02*
X456Y1195D01*
X1574Y1195D02*
X1627Y1195D01*
X1661Y1195D02*
X1715Y1195D01*
X316Y1194D02*
X370Y1194D01*
X402Y1194D02*
X456Y1194D01*
X1574Y1194D02*
X1628Y1194D01*
X1660Y1194D02*
X1714Y1194D01*
X316Y1193D02*
X371Y1193D01*
X401Y1193D02*
X455Y1193D01*
X1575Y1193D02*
X1629Y1193D01*
X1659Y1193D02*
X1714Y1193D01*
X317Y1192D02*
X372Y1192D01*
X400Y1192D02*
X455Y1192D01*
X1575Y1192D02*
X1630Y1192D01*
X1658Y1192D02*
X1713Y1192D01*
X317Y1191D02*
X373Y1191D01*
X398Y1191D02*
X454Y1191D01*
X1576Y1191D02*
X1632Y1191D01*
X1657Y1191D02*
X1713Y1191D01*
X318Y1190D02*
X375Y1190D01*
X396Y1190D02*
X454Y1190D01*
X1576Y1190D02*
X1633Y1190D01*
X1655Y1190D02*
X1712Y1190D01*
X318Y1189D02*
X377Y1189D01*
X395Y1189D02*
X453Y1189D01*
X1577Y1189D02*
X1635Y1189D01*
X1653Y1189D02*
X1712Y1189D01*
X319Y1188D02*
X380Y1188D01*
X391Y1188D02*
X452Y1188D01*
X1578Y1188D02*
X1639Y1188D01*
X1650Y1188D02*
X1711Y1188D01*
X320Y1187D02*
X452Y1187D01*
X1578Y1187D02*
X1710Y1187D01*
X321Y1186D02*
X451Y1186D01*
X1579Y1186D02*
X1709Y1186D01*
X321Y1185D02*
X450Y1185D01*
X1580Y1185D02*
X1709Y1185D01*
X322Y1184D02*
X449Y1184D01*
X1581Y1184D02*
X1708Y1184D01*
X323Y1183D02*
X448Y1183D01*
X1582Y1183D02*
X1707Y1183D01*
X324Y1182D02*
X447Y1182D01*
X1583Y1182D02*
X1706Y1182D01*
X326Y1181D02*
X446Y1181D01*
X1584Y1181D02*
X1704Y1181D01*
X327Y1180D02*
X445Y1180D01*
X1585Y1180D02*
X1703Y1180D01*
X328Y1179D02*
X443Y1179D01*
X1587Y1179D02*
X1702Y1179D01*
X330Y1178D02*
X442Y1178D01*
X1588Y1178D02*
X1700Y1178D01*
X331Y1177D02*
X440Y1177D01*
X1590Y1177D02*
X1699Y1177D01*
X333Y1176D02*
X438Y1176D01*
X1592Y1176D02*
X1697Y1176D01*
X336Y1175D02*
X436Y1175D01*
X1594Y1175D02*
X1694Y1175D01*
X338Y1174D02*
X433Y1174D01*
X1597Y1174D02*
X1692Y1174D01*
X343Y1173D02*
X429Y1173D01*
X1601Y1173D02*
X1687Y1173D01*
D02*
G04 End of Copper1*
M02*