; NON-PLATED HOLES START AT T1
; THROUGH (PLATED) HOLES START AT T100
M48
INCH
T100C0.038000
T101C0.035000
T102C0.047244
%
T100
X002198Y037393
X013198Y030393
X018225Y018397
X007198Y030393
X003198Y034393
X012198Y030393
X003198Y030393
X007198Y037393
X014198Y030393
X003198Y037393
X004198Y027393
X011198Y037393
X009198Y034393
X017198Y009393
X006198Y034393
X016198Y034393
X017198Y037393
X007198Y034393
X012198Y027393
X009198Y030393
X007198Y027393
X012198Y037393
X013198Y037393
X014198Y037393
X014198Y034393
X020225Y018397
X011198Y030393
X006198Y037393
X015198Y037393
X018198Y034393
X002198Y030393
X004198Y034393
X008198Y037393
X013198Y027393
X011198Y034393
X008198Y030393
X014198Y027393
X016198Y037393
X004198Y037393
X008198Y027393
X013198Y034393
X005198Y037393
X011198Y027393
X008198Y034393
X002198Y034393
X005198Y027393
X017225Y018397
X003198Y027393
X009198Y037393
X017198Y034393
X006198Y027393
X004198Y030393
X018198Y009393
X002198Y027393
X015198Y034393
X019198Y009393
X009198Y027393
X020198Y009393
X006198Y030393
X018198Y037393
X005198Y034393
X005198Y030393
X012198Y034393
X019225Y018397
T101
X009198Y010393
X011225Y023397
X011198Y014393
X009225Y019397
X011198Y010393
X011225Y019397
X009225Y023397
X009198Y014393
T102
X003862Y012088
X014851Y022557
X016448Y012088
X017983Y013553
X014824Y013553
X002238Y013553
X005397Y013553
X005424Y022557
X002265Y022557
X018010Y022557
X016475Y021092
X003889Y021092
T00
M30
