G04 MADE WITH FRITZING*
G04 WWW.FRITZING.ORG*
G04 DOUBLE SIDED*
G04 HOLES PLATED*
G04 CONTOUR ON CENTER OF CONTOUR VECTOR*
%ASAXBY*%
%FSLAX23Y23*%
%MOIN*%
%OFA0B0*%
%SFA1.0B1.0*%
%ADD10C,0.088000*%
%ADD11C,0.085000*%
%ADD12C,0.097244*%
%ADD13R,0.001000X0.001000*%
%LNMASK0*%
G90*
G70*
G54D10*
X1820Y3439D03*
X1720Y3439D03*
X1620Y3439D03*
X1520Y3439D03*
X1420Y3439D03*
X1320Y3439D03*
X1220Y3439D03*
X1120Y3439D03*
X920Y3439D03*
X820Y3439D03*
X720Y3439D03*
X620Y3439D03*
X520Y3439D03*
X420Y3439D03*
X320Y3439D03*
X220Y3439D03*
X1420Y2739D03*
X1320Y2739D03*
X1220Y2739D03*
X1120Y2739D03*
X920Y3739D03*
X820Y3739D03*
X720Y3739D03*
X620Y3739D03*
X520Y3739D03*
X420Y3739D03*
X320Y3739D03*
X220Y3739D03*
X920Y2739D03*
X820Y2739D03*
X720Y2739D03*
X620Y2739D03*
X520Y2739D03*
X420Y2739D03*
X320Y2739D03*
X220Y2739D03*
X1820Y3739D03*
X1720Y3739D03*
X1620Y3739D03*
X1520Y3739D03*
X1420Y3739D03*
X1320Y3739D03*
X1220Y3739D03*
X1120Y3739D03*
X1420Y3039D03*
X1320Y3039D03*
X1220Y3039D03*
X1120Y3039D03*
X920Y3039D03*
X820Y3039D03*
X720Y3039D03*
X620Y3039D03*
X520Y3039D03*
X420Y3039D03*
X320Y3039D03*
X220Y3039D03*
G54D11*
X1123Y2340D03*
X1123Y1940D03*
X1120Y1439D03*
X1120Y1039D03*
X923Y2340D03*
X923Y1940D03*
X920Y1439D03*
X920Y1039D03*
G54D10*
X2023Y1840D03*
X1923Y1840D03*
X1823Y1840D03*
X1723Y1840D03*
X2020Y939D03*
X1920Y939D03*
X1820Y939D03*
X1720Y939D03*
G54D12*
X1798Y1355D03*
X1801Y2256D03*
X542Y2256D03*
X540Y1355D03*
X1645Y1209D03*
X1648Y2109D03*
X386Y1209D03*
X389Y2109D03*
X1482Y1355D03*
X1485Y2256D03*
X227Y2256D03*
X224Y1355D03*
G54D13*
X185Y2298D02*
X267Y2298D01*
X501Y2298D02*
X583Y2298D01*
X1444Y2298D02*
X1525Y2298D01*
X1760Y2298D02*
X1841Y2298D01*
X180Y2297D02*
X272Y2297D01*
X496Y2297D02*
X588Y2297D01*
X1438Y2297D02*
X1531Y2297D01*
X1754Y2297D02*
X1847Y2297D01*
X176Y2296D02*
X276Y2296D01*
X492Y2296D02*
X592Y2296D01*
X1435Y2296D02*
X1534Y2296D01*
X1751Y2296D02*
X1850Y2296D01*
X174Y2295D02*
X278Y2295D01*
X489Y2295D02*
X594Y2295D01*
X1432Y2295D02*
X1537Y2295D01*
X1748Y2295D02*
X1853Y2295D01*
X171Y2294D02*
X281Y2294D01*
X487Y2294D02*
X597Y2294D01*
X1430Y2294D02*
X1539Y2294D01*
X1746Y2294D02*
X1855Y2294D01*
X169Y2293D02*
X283Y2293D01*
X485Y2293D02*
X599Y2293D01*
X1428Y2293D02*
X1541Y2293D01*
X1744Y2293D02*
X1857Y2293D01*
X168Y2292D02*
X284Y2292D01*
X484Y2292D02*
X600Y2292D01*
X1426Y2292D02*
X1543Y2292D01*
X1742Y2292D02*
X1859Y2292D01*
X166Y2291D02*
X286Y2291D01*
X482Y2291D02*
X602Y2291D01*
X1425Y2291D02*
X1545Y2291D01*
X1740Y2291D02*
X1860Y2291D01*
X165Y2290D02*
X287Y2290D01*
X481Y2290D02*
X603Y2290D01*
X1423Y2290D02*
X1546Y2290D01*
X1739Y2290D02*
X1862Y2290D01*
X163Y2289D02*
X289Y2289D01*
X479Y2289D02*
X605Y2289D01*
X1422Y2289D02*
X1547Y2289D01*
X1738Y2289D02*
X1863Y2289D01*
X162Y2288D02*
X290Y2288D01*
X478Y2288D02*
X606Y2288D01*
X1421Y2288D02*
X1548Y2288D01*
X1736Y2288D02*
X1864Y2288D01*
X161Y2287D02*
X291Y2287D01*
X477Y2287D02*
X607Y2287D01*
X1420Y2287D02*
X1550Y2287D01*
X1735Y2287D02*
X1865Y2287D01*
X160Y2286D02*
X292Y2286D01*
X476Y2286D02*
X608Y2286D01*
X1418Y2286D02*
X1551Y2286D01*
X1734Y2286D02*
X1867Y2286D01*
X159Y2285D02*
X293Y2285D01*
X475Y2285D02*
X609Y2285D01*
X1417Y2285D02*
X1552Y2285D01*
X1733Y2285D02*
X1867Y2285D01*
X158Y2284D02*
X294Y2284D01*
X474Y2284D02*
X610Y2284D01*
X1417Y2284D02*
X1553Y2284D01*
X1732Y2284D02*
X1868Y2284D01*
X157Y2283D02*
X295Y2283D01*
X473Y2283D02*
X611Y2283D01*
X1416Y2283D02*
X1553Y2283D01*
X1732Y2283D02*
X1869Y2283D01*
X156Y2282D02*
X296Y2282D01*
X472Y2282D02*
X611Y2282D01*
X1415Y2282D02*
X1554Y2282D01*
X1731Y2282D02*
X1870Y2282D01*
X156Y2281D02*
X296Y2281D01*
X472Y2281D02*
X612Y2281D01*
X1414Y2281D02*
X1555Y2281D01*
X1730Y2281D02*
X1871Y2281D01*
X155Y2280D02*
X297Y2280D01*
X471Y2280D02*
X613Y2280D01*
X1413Y2280D02*
X1556Y2280D01*
X1729Y2280D02*
X1871Y2280D01*
X154Y2279D02*
X298Y2279D01*
X470Y2279D02*
X614Y2279D01*
X1413Y2279D02*
X1556Y2279D01*
X1729Y2279D02*
X1872Y2279D01*
X154Y2278D02*
X298Y2278D01*
X470Y2278D02*
X614Y2278D01*
X1412Y2278D02*
X1557Y2278D01*
X1728Y2278D02*
X1873Y2278D01*
X153Y2277D02*
X299Y2277D01*
X469Y2277D02*
X615Y2277D01*
X1412Y2277D02*
X1557Y2277D01*
X1728Y2277D02*
X1873Y2277D01*
X153Y2276D02*
X300Y2276D01*
X468Y2276D02*
X615Y2276D01*
X1411Y2276D02*
X1558Y2276D01*
X1727Y2276D02*
X1874Y2276D01*
X152Y2275D02*
X300Y2275D01*
X468Y2275D02*
X616Y2275D01*
X1411Y2275D02*
X1558Y2275D01*
X1726Y2275D02*
X1874Y2275D01*
X152Y2274D02*
X300Y2274D01*
X467Y2274D02*
X616Y2274D01*
X1410Y2274D02*
X1559Y2274D01*
X1726Y2274D02*
X1875Y2274D01*
X151Y2273D02*
X223Y2273D01*
X229Y2273D02*
X301Y2273D01*
X467Y2273D02*
X539Y2273D01*
X545Y2273D02*
X617Y2273D01*
X1410Y2273D02*
X1481Y2273D01*
X1488Y2273D02*
X1559Y2273D01*
X1726Y2273D02*
X1797Y2273D01*
X1804Y2273D02*
X1875Y2273D01*
X151Y2272D02*
X219Y2272D01*
X233Y2272D02*
X301Y2272D01*
X467Y2272D02*
X535Y2272D01*
X549Y2272D02*
X617Y2272D01*
X1409Y2272D02*
X1477Y2272D01*
X1492Y2272D02*
X1560Y2272D01*
X1725Y2272D02*
X1793Y2272D01*
X1807Y2272D02*
X1876Y2272D01*
X150Y2271D02*
X217Y2271D01*
X235Y2271D02*
X302Y2271D01*
X466Y2271D02*
X533Y2271D01*
X551Y2271D02*
X618Y2271D01*
X1409Y2271D02*
X1476Y2271D01*
X1494Y2271D02*
X1560Y2271D01*
X1725Y2271D02*
X1791Y2271D01*
X1809Y2271D02*
X1876Y2271D01*
X150Y2270D02*
X216Y2270D01*
X237Y2270D02*
X302Y2270D01*
X466Y2270D02*
X531Y2270D01*
X552Y2270D02*
X618Y2270D01*
X1409Y2270D02*
X1474Y2270D01*
X1495Y2270D02*
X1561Y2270D01*
X1724Y2270D02*
X1790Y2270D01*
X1811Y2270D02*
X1876Y2270D01*
X150Y2269D02*
X214Y2269D01*
X238Y2269D02*
X302Y2269D01*
X465Y2269D02*
X530Y2269D01*
X554Y2269D02*
X618Y2269D01*
X1408Y2269D02*
X1473Y2269D01*
X1496Y2269D02*
X1561Y2269D01*
X1724Y2269D02*
X1789Y2269D01*
X1812Y2269D02*
X1877Y2269D01*
X149Y2268D02*
X213Y2268D01*
X239Y2268D02*
X303Y2268D01*
X465Y2268D02*
X529Y2268D01*
X555Y2268D02*
X619Y2268D01*
X1408Y2268D02*
X1472Y2268D01*
X1497Y2268D02*
X1561Y2268D01*
X1724Y2268D02*
X1788Y2268D01*
X1813Y2268D02*
X1877Y2268D01*
X149Y2267D02*
X212Y2267D01*
X240Y2267D02*
X303Y2267D01*
X465Y2267D02*
X528Y2267D01*
X556Y2267D02*
X619Y2267D01*
X1408Y2267D02*
X1471Y2267D01*
X1498Y2267D02*
X1562Y2267D01*
X1723Y2267D02*
X1787Y2267D01*
X1814Y2267D02*
X1877Y2267D01*
X149Y2266D02*
X212Y2266D01*
X240Y2266D02*
X303Y2266D01*
X465Y2266D02*
X527Y2266D01*
X556Y2266D02*
X619Y2266D01*
X1407Y2266D02*
X1470Y2266D01*
X1499Y2266D02*
X1562Y2266D01*
X1723Y2266D02*
X1786Y2266D01*
X1815Y2266D02*
X1878Y2266D01*
X149Y2265D02*
X211Y2265D01*
X241Y2265D02*
X304Y2265D01*
X464Y2265D02*
X527Y2265D01*
X557Y2265D02*
X619Y2265D01*
X1407Y2265D02*
X1469Y2265D01*
X1500Y2265D02*
X1562Y2265D01*
X1723Y2265D02*
X1785Y2265D01*
X1815Y2265D02*
X1878Y2265D01*
X148Y2264D02*
X210Y2264D01*
X242Y2264D02*
X304Y2264D01*
X464Y2264D02*
X526Y2264D01*
X558Y2264D02*
X620Y2264D01*
X1407Y2264D02*
X1469Y2264D01*
X1500Y2264D02*
X1562Y2264D01*
X1723Y2264D02*
X1785Y2264D01*
X1816Y2264D02*
X1878Y2264D01*
X148Y2263D02*
X210Y2263D01*
X242Y2263D02*
X304Y2263D01*
X464Y2263D02*
X526Y2263D01*
X558Y2263D02*
X620Y2263D01*
X1407Y2263D02*
X1468Y2263D01*
X1501Y2263D02*
X1562Y2263D01*
X1723Y2263D02*
X1784Y2263D01*
X1817Y2263D02*
X1878Y2263D01*
X148Y2262D02*
X210Y2262D01*
X243Y2262D02*
X304Y2262D01*
X464Y2262D02*
X525Y2262D01*
X558Y2262D02*
X620Y2262D01*
X1407Y2262D02*
X1468Y2262D01*
X1501Y2262D02*
X1563Y2262D01*
X1722Y2262D02*
X1784Y2262D01*
X1817Y2262D02*
X1878Y2262D01*
X148Y2261D02*
X209Y2261D01*
X243Y2261D02*
X304Y2261D01*
X464Y2261D02*
X525Y2261D01*
X559Y2261D02*
X620Y2261D01*
X1406Y2261D02*
X1468Y2261D01*
X1501Y2261D02*
X1563Y2261D01*
X1722Y2261D02*
X1784Y2261D01*
X1817Y2261D02*
X1879Y2261D01*
X148Y2260D02*
X209Y2260D01*
X243Y2260D02*
X304Y2260D01*
X464Y2260D02*
X525Y2260D01*
X559Y2260D02*
X620Y2260D01*
X1406Y2260D02*
X1467Y2260D01*
X1502Y2260D02*
X1563Y2260D01*
X1722Y2260D02*
X1783Y2260D01*
X1818Y2260D02*
X1879Y2260D01*
X148Y2259D02*
X209Y2259D01*
X243Y2259D02*
X304Y2259D01*
X464Y2259D02*
X525Y2259D01*
X559Y2259D02*
X620Y2259D01*
X1406Y2259D02*
X1467Y2259D01*
X1502Y2259D02*
X1563Y2259D01*
X1722Y2259D02*
X1783Y2259D01*
X1818Y2259D02*
X1879Y2259D01*
X148Y2258D02*
X209Y2258D01*
X243Y2258D02*
X304Y2258D01*
X463Y2258D02*
X525Y2258D01*
X559Y2258D02*
X620Y2258D01*
X1406Y2258D02*
X1467Y2258D01*
X1502Y2258D02*
X1563Y2258D01*
X1722Y2258D02*
X1783Y2258D01*
X1818Y2258D02*
X1879Y2258D01*
X148Y2257D02*
X209Y2257D01*
X243Y2257D02*
X304Y2257D01*
X463Y2257D02*
X524Y2257D01*
X559Y2257D02*
X620Y2257D01*
X1406Y2257D02*
X1467Y2257D01*
X1502Y2257D02*
X1563Y2257D01*
X1722Y2257D02*
X1783Y2257D01*
X1818Y2257D02*
X1879Y2257D01*
X148Y2256D02*
X209Y2256D01*
X244Y2256D02*
X305Y2256D01*
X463Y2256D02*
X524Y2256D01*
X559Y2256D02*
X620Y2256D01*
X1406Y2256D02*
X1467Y2256D01*
X1502Y2256D02*
X1563Y2256D01*
X1722Y2256D02*
X1783Y2256D01*
X1818Y2256D02*
X1879Y2256D01*
X148Y2255D02*
X209Y2255D01*
X243Y2255D02*
X304Y2255D01*
X463Y2255D02*
X525Y2255D01*
X559Y2255D02*
X620Y2255D01*
X1406Y2255D02*
X1467Y2255D01*
X1502Y2255D02*
X1563Y2255D01*
X1722Y2255D02*
X1783Y2255D01*
X1818Y2255D02*
X1879Y2255D01*
X148Y2254D02*
X209Y2254D01*
X243Y2254D02*
X304Y2254D01*
X464Y2254D02*
X525Y2254D01*
X559Y2254D02*
X620Y2254D01*
X1406Y2254D02*
X1467Y2254D01*
X1502Y2254D02*
X1563Y2254D01*
X1722Y2254D02*
X1783Y2254D01*
X1818Y2254D02*
X1879Y2254D01*
X148Y2253D02*
X209Y2253D01*
X243Y2253D02*
X304Y2253D01*
X464Y2253D02*
X525Y2253D01*
X559Y2253D02*
X620Y2253D01*
X1406Y2253D02*
X1467Y2253D01*
X1502Y2253D02*
X1563Y2253D01*
X1722Y2253D02*
X1783Y2253D01*
X1818Y2253D02*
X1879Y2253D01*
X148Y2252D02*
X209Y2252D01*
X243Y2252D02*
X304Y2252D01*
X464Y2252D02*
X525Y2252D01*
X559Y2252D02*
X620Y2252D01*
X1406Y2252D02*
X1468Y2252D01*
X1502Y2252D02*
X1563Y2252D01*
X1722Y2252D02*
X1783Y2252D01*
X1817Y2252D02*
X1879Y2252D01*
X148Y2251D02*
X209Y2251D01*
X243Y2251D02*
X304Y2251D01*
X464Y2251D02*
X525Y2251D01*
X559Y2251D02*
X620Y2251D01*
X1406Y2251D02*
X1468Y2251D01*
X1501Y2251D02*
X1563Y2251D01*
X1722Y2251D02*
X1784Y2251D01*
X1817Y2251D02*
X1879Y2251D01*
X148Y2250D02*
X210Y2250D01*
X242Y2250D02*
X304Y2250D01*
X464Y2250D02*
X526Y2250D01*
X558Y2250D02*
X620Y2250D01*
X1407Y2250D02*
X1468Y2250D01*
X1501Y2250D02*
X1562Y2250D01*
X1722Y2250D02*
X1784Y2250D01*
X1817Y2250D02*
X1878Y2250D01*
X148Y2249D02*
X210Y2249D01*
X242Y2249D02*
X304Y2249D01*
X464Y2249D02*
X526Y2249D01*
X558Y2249D02*
X620Y2249D01*
X1407Y2249D02*
X1469Y2249D01*
X1500Y2249D02*
X1562Y2249D01*
X1723Y2249D02*
X1784Y2249D01*
X1816Y2249D02*
X1878Y2249D01*
X148Y2248D02*
X211Y2248D01*
X241Y2248D02*
X304Y2248D01*
X464Y2248D02*
X527Y2248D01*
X557Y2248D02*
X620Y2248D01*
X1407Y2248D02*
X1469Y2248D01*
X1500Y2248D02*
X1562Y2248D01*
X1723Y2248D02*
X1785Y2248D01*
X1816Y2248D02*
X1878Y2248D01*
X149Y2247D02*
X211Y2247D01*
X241Y2247D02*
X303Y2247D01*
X465Y2247D02*
X527Y2247D01*
X557Y2247D02*
X619Y2247D01*
X1407Y2247D02*
X1470Y2247D01*
X1499Y2247D02*
X1562Y2247D01*
X1723Y2247D02*
X1786Y2247D01*
X1815Y2247D02*
X1878Y2247D01*
X149Y2246D02*
X212Y2246D01*
X240Y2246D02*
X303Y2246D01*
X465Y2246D02*
X528Y2246D01*
X556Y2246D02*
X619Y2246D01*
X1407Y2246D02*
X1471Y2246D01*
X1499Y2246D02*
X1562Y2246D01*
X1723Y2246D02*
X1786Y2246D01*
X1814Y2246D02*
X1878Y2246D01*
X149Y2245D02*
X213Y2245D01*
X239Y2245D02*
X303Y2245D01*
X465Y2245D02*
X529Y2245D01*
X555Y2245D02*
X619Y2245D01*
X1408Y2245D02*
X1471Y2245D01*
X1498Y2245D02*
X1561Y2245D01*
X1724Y2245D02*
X1787Y2245D01*
X1814Y2245D02*
X1877Y2245D01*
X149Y2244D02*
X214Y2244D01*
X238Y2244D02*
X303Y2244D01*
X465Y2244D02*
X530Y2244D01*
X554Y2244D02*
X618Y2244D01*
X1408Y2244D02*
X1472Y2244D01*
X1497Y2244D02*
X1561Y2244D01*
X1724Y2244D02*
X1788Y2244D01*
X1813Y2244D02*
X1877Y2244D01*
X150Y2243D02*
X215Y2243D01*
X237Y2243D02*
X302Y2243D01*
X466Y2243D02*
X531Y2243D01*
X553Y2243D02*
X618Y2243D01*
X1408Y2243D02*
X1473Y2243D01*
X1496Y2243D02*
X1561Y2243D01*
X1724Y2243D02*
X1789Y2243D01*
X1811Y2243D02*
X1877Y2243D01*
X150Y2242D02*
X216Y2242D01*
X236Y2242D02*
X302Y2242D01*
X466Y2242D02*
X532Y2242D01*
X552Y2242D02*
X618Y2242D01*
X1409Y2242D02*
X1475Y2242D01*
X1494Y2242D02*
X1560Y2242D01*
X1725Y2242D02*
X1791Y2242D01*
X1810Y2242D02*
X1876Y2242D01*
X151Y2241D02*
X218Y2241D01*
X234Y2241D02*
X302Y2241D01*
X466Y2241D02*
X534Y2241D01*
X550Y2241D02*
X617Y2241D01*
X1409Y2241D02*
X1477Y2241D01*
X1493Y2241D02*
X1560Y2241D01*
X1725Y2241D02*
X1792Y2241D01*
X1808Y2241D02*
X1876Y2241D01*
X151Y2240D02*
X221Y2240D01*
X232Y2240D02*
X301Y2240D01*
X467Y2240D02*
X536Y2240D01*
X547Y2240D02*
X617Y2240D01*
X1409Y2240D02*
X1479Y2240D01*
X1490Y2240D02*
X1560Y2240D01*
X1725Y2240D02*
X1795Y2240D01*
X1806Y2240D02*
X1876Y2240D01*
X151Y2239D02*
X301Y2239D01*
X467Y2239D02*
X617Y2239D01*
X1410Y2239D02*
X1559Y2239D01*
X1726Y2239D02*
X1875Y2239D01*
X152Y2238D02*
X300Y2238D01*
X468Y2238D02*
X616Y2238D01*
X1410Y2238D02*
X1559Y2238D01*
X1726Y2238D02*
X1875Y2238D01*
X152Y2237D02*
X300Y2237D01*
X468Y2237D02*
X616Y2237D01*
X1411Y2237D02*
X1558Y2237D01*
X1727Y2237D02*
X1874Y2237D01*
X153Y2236D02*
X299Y2236D01*
X469Y2236D02*
X615Y2236D01*
X1411Y2236D02*
X1558Y2236D01*
X1727Y2236D02*
X1874Y2236D01*
X153Y2235D02*
X299Y2235D01*
X469Y2235D02*
X614Y2235D01*
X1412Y2235D02*
X1557Y2235D01*
X1728Y2235D02*
X1873Y2235D01*
X154Y2234D02*
X298Y2234D01*
X470Y2234D02*
X614Y2234D01*
X1413Y2234D02*
X1557Y2234D01*
X1728Y2234D02*
X1872Y2234D01*
X155Y2233D02*
X297Y2233D01*
X471Y2233D02*
X613Y2233D01*
X1413Y2233D02*
X1556Y2233D01*
X1729Y2233D02*
X1872Y2233D01*
X155Y2232D02*
X297Y2232D01*
X471Y2232D02*
X613Y2232D01*
X1414Y2232D02*
X1555Y2232D01*
X1730Y2232D02*
X1871Y2232D01*
X156Y2231D02*
X296Y2231D01*
X472Y2231D02*
X612Y2231D01*
X1415Y2231D02*
X1555Y2231D01*
X1730Y2231D02*
X1870Y2231D01*
X157Y2230D02*
X295Y2230D01*
X473Y2230D02*
X611Y2230D01*
X1415Y2230D02*
X1554Y2230D01*
X1731Y2230D02*
X1870Y2230D01*
X158Y2229D02*
X294Y2229D01*
X474Y2229D02*
X610Y2229D01*
X1416Y2229D02*
X1553Y2229D01*
X1732Y2229D02*
X1869Y2229D01*
X159Y2228D02*
X294Y2228D01*
X474Y2228D02*
X609Y2228D01*
X1417Y2228D02*
X1552Y2228D01*
X1733Y2228D02*
X1868Y2228D01*
X159Y2227D02*
X293Y2227D01*
X475Y2227D02*
X608Y2227D01*
X1418Y2227D02*
X1551Y2227D01*
X1734Y2227D02*
X1867Y2227D01*
X160Y2226D02*
X292Y2226D01*
X476Y2226D02*
X607Y2226D01*
X1419Y2226D02*
X1550Y2226D01*
X1735Y2226D02*
X1866Y2226D01*
X162Y2225D02*
X291Y2225D01*
X477Y2225D02*
X606Y2225D01*
X1420Y2225D02*
X1549Y2225D01*
X1736Y2225D02*
X1865Y2225D01*
X163Y2224D02*
X289Y2224D01*
X479Y2224D02*
X605Y2224D01*
X1421Y2224D02*
X1548Y2224D01*
X1737Y2224D02*
X1864Y2224D01*
X164Y2223D02*
X288Y2223D01*
X480Y2223D02*
X604Y2223D01*
X1423Y2223D02*
X1547Y2223D01*
X1738Y2223D02*
X1862Y2223D01*
X165Y2222D02*
X287Y2222D01*
X481Y2222D02*
X603Y2222D01*
X1424Y2222D02*
X1545Y2222D01*
X1740Y2222D02*
X1861Y2222D01*
X167Y2221D02*
X285Y2221D01*
X483Y2221D02*
X601Y2221D01*
X1425Y2221D02*
X1544Y2221D01*
X1741Y2221D02*
X1860Y2221D01*
X169Y2220D02*
X284Y2220D01*
X484Y2220D02*
X599Y2220D01*
X1427Y2220D02*
X1542Y2220D01*
X1743Y2220D02*
X1858Y2220D01*
X170Y2219D02*
X282Y2219D01*
X486Y2219D02*
X598Y2219D01*
X1429Y2219D02*
X1540Y2219D01*
X1745Y2219D02*
X1856Y2219D01*
X172Y2218D02*
X280Y2218D01*
X488Y2218D02*
X595Y2218D01*
X1431Y2218D02*
X1538Y2218D01*
X1747Y2218D02*
X1854Y2218D01*
X175Y2217D02*
X277Y2217D01*
X491Y2217D02*
X593Y2217D01*
X1433Y2217D02*
X1536Y2217D01*
X1749Y2217D02*
X1851Y2217D01*
X178Y2216D02*
X274Y2216D01*
X494Y2216D02*
X590Y2216D01*
X1436Y2216D02*
X1533Y2216D01*
X1752Y2216D02*
X1849Y2216D01*
X182Y2215D02*
X270Y2215D01*
X498Y2215D02*
X586Y2215D01*
X1441Y2215D02*
X1529Y2215D01*
X1756Y2215D02*
X1844Y2215D01*
X344Y2151D02*
X432Y2151D01*
X1603Y2151D02*
X1691Y2151D01*
X340Y2150D02*
X437Y2150D01*
X1599Y2150D02*
X1695Y2150D01*
X337Y2149D02*
X439Y2149D01*
X1596Y2149D02*
X1698Y2149D01*
X335Y2148D02*
X442Y2148D01*
X1593Y2148D02*
X1700Y2148D01*
X333Y2147D02*
X444Y2147D01*
X1591Y2147D02*
X1703Y2147D01*
X331Y2146D02*
X446Y2146D01*
X1589Y2146D02*
X1704Y2146D01*
X329Y2145D02*
X448Y2145D01*
X1588Y2145D02*
X1706Y2145D01*
X328Y2144D02*
X449Y2144D01*
X1586Y2144D02*
X1708Y2144D01*
X326Y2143D02*
X450Y2143D01*
X1585Y2143D02*
X1709Y2143D01*
X325Y2142D02*
X452Y2142D01*
X1584Y2142D02*
X1710Y2142D01*
X324Y2141D02*
X453Y2141D01*
X1582Y2141D02*
X1711Y2141D01*
X323Y2140D02*
X454Y2140D01*
X1581Y2140D02*
X1713Y2140D01*
X322Y2139D02*
X455Y2139D01*
X1580Y2139D02*
X1714Y2139D01*
X321Y2138D02*
X456Y2138D01*
X1579Y2138D02*
X1714Y2138D01*
X320Y2137D02*
X457Y2137D01*
X1579Y2137D02*
X1715Y2137D01*
X319Y2136D02*
X458Y2136D01*
X1578Y2136D02*
X1716Y2136D01*
X318Y2135D02*
X458Y2135D01*
X1577Y2135D02*
X1717Y2135D01*
X318Y2134D02*
X459Y2134D01*
X1576Y2134D02*
X1718Y2134D01*
X317Y2133D02*
X460Y2133D01*
X1576Y2133D02*
X1718Y2133D01*
X316Y2132D02*
X460Y2132D01*
X1575Y2132D02*
X1719Y2132D01*
X316Y2131D02*
X461Y2131D01*
X1574Y2131D02*
X1720Y2131D01*
X315Y2130D02*
X462Y2130D01*
X1574Y2130D02*
X1720Y2130D01*
X315Y2129D02*
X462Y2129D01*
X1573Y2129D02*
X1721Y2129D01*
X314Y2128D02*
X463Y2128D01*
X1573Y2128D02*
X1721Y2128D01*
X314Y2127D02*
X463Y2127D01*
X1572Y2127D02*
X1722Y2127D01*
X313Y2126D02*
X383Y2126D01*
X394Y2126D02*
X464Y2126D01*
X1572Y2126D02*
X1641Y2126D01*
X1652Y2126D02*
X1722Y2126D01*
X313Y2125D02*
X380Y2125D01*
X396Y2125D02*
X464Y2125D01*
X1571Y2125D02*
X1639Y2125D01*
X1655Y2125D02*
X1722Y2125D01*
X313Y2124D02*
X379Y2124D01*
X398Y2124D02*
X464Y2124D01*
X1571Y2124D02*
X1637Y2124D01*
X1657Y2124D02*
X1723Y2124D01*
X312Y2123D02*
X377Y2123D01*
X399Y2123D02*
X465Y2123D01*
X1571Y2123D02*
X1636Y2123D01*
X1658Y2123D02*
X1723Y2123D01*
X312Y2122D02*
X376Y2122D01*
X401Y2122D02*
X465Y2122D01*
X1570Y2122D02*
X1635Y2122D01*
X1659Y2122D02*
X1724Y2122D01*
X312Y2121D02*
X375Y2121D01*
X402Y2121D02*
X465Y2121D01*
X1570Y2121D02*
X1634Y2121D01*
X1660Y2121D02*
X1724Y2121D01*
X311Y2120D02*
X374Y2120D01*
X402Y2120D02*
X466Y2120D01*
X1570Y2120D02*
X1633Y2120D01*
X1661Y2120D02*
X1724Y2120D01*
X311Y2119D02*
X374Y2119D01*
X403Y2119D02*
X466Y2119D01*
X1570Y2119D02*
X1632Y2119D01*
X1662Y2119D02*
X1724Y2119D01*
X311Y2118D02*
X373Y2118D01*
X404Y2118D02*
X466Y2118D01*
X1569Y2118D02*
X1632Y2118D01*
X1662Y2118D02*
X1725Y2118D01*
X311Y2117D02*
X373Y2117D01*
X404Y2117D02*
X466Y2117D01*
X1569Y2117D02*
X1631Y2117D01*
X1663Y2117D02*
X1725Y2117D01*
X310Y2116D02*
X372Y2116D01*
X405Y2116D02*
X466Y2116D01*
X1569Y2116D02*
X1631Y2116D01*
X1663Y2116D02*
X1725Y2116D01*
X310Y2115D02*
X372Y2115D01*
X405Y2115D02*
X467Y2115D01*
X1569Y2115D02*
X1630Y2115D01*
X1664Y2115D02*
X1725Y2115D01*
X310Y2114D02*
X371Y2114D01*
X405Y2114D02*
X467Y2114D01*
X1569Y2114D02*
X1630Y2114D01*
X1664Y2114D02*
X1725Y2114D01*
X310Y2113D02*
X371Y2113D01*
X406Y2113D02*
X467Y2113D01*
X1569Y2113D02*
X1630Y2113D01*
X1664Y2113D02*
X1725Y2113D01*
X310Y2112D02*
X371Y2112D01*
X406Y2112D02*
X467Y2112D01*
X1569Y2112D02*
X1630Y2112D01*
X1664Y2112D02*
X1725Y2112D01*
X310Y2111D02*
X371Y2111D01*
X406Y2111D02*
X467Y2111D01*
X1569Y2111D02*
X1630Y2111D01*
X1664Y2111D02*
X1725Y2111D01*
X310Y2110D02*
X371Y2110D01*
X406Y2110D02*
X467Y2110D01*
X1568Y2110D02*
X1629Y2110D01*
X1664Y2110D02*
X1725Y2110D01*
X310Y2109D02*
X371Y2109D01*
X406Y2109D02*
X467Y2109D01*
X1568Y2109D02*
X1630Y2109D01*
X1664Y2109D02*
X1725Y2109D01*
X310Y2108D02*
X371Y2108D01*
X406Y2108D02*
X467Y2108D01*
X1569Y2108D02*
X1630Y2108D01*
X1664Y2108D02*
X1725Y2108D01*
X310Y2107D02*
X371Y2107D01*
X406Y2107D02*
X467Y2107D01*
X1569Y2107D02*
X1630Y2107D01*
X1664Y2107D02*
X1725Y2107D01*
X310Y2106D02*
X371Y2106D01*
X406Y2106D02*
X467Y2106D01*
X1569Y2106D02*
X1630Y2106D01*
X1664Y2106D02*
X1725Y2106D01*
X310Y2105D02*
X372Y2105D01*
X405Y2105D02*
X467Y2105D01*
X1569Y2105D02*
X1630Y2105D01*
X1664Y2105D02*
X1725Y2105D01*
X310Y2104D02*
X372Y2104D01*
X405Y2104D02*
X466Y2104D01*
X1569Y2104D02*
X1630Y2104D01*
X1663Y2104D02*
X1725Y2104D01*
X311Y2103D02*
X372Y2103D01*
X405Y2103D02*
X466Y2103D01*
X1569Y2103D02*
X1631Y2103D01*
X1663Y2103D02*
X1725Y2103D01*
X311Y2102D02*
X373Y2102D01*
X404Y2102D02*
X466Y2102D01*
X1569Y2102D02*
X1631Y2102D01*
X1663Y2102D02*
X1725Y2102D01*
X311Y2101D02*
X373Y2101D01*
X404Y2101D02*
X466Y2101D01*
X1569Y2101D02*
X1632Y2101D01*
X1662Y2101D02*
X1724Y2101D01*
X311Y2100D02*
X374Y2100D01*
X403Y2100D02*
X466Y2100D01*
X1570Y2100D02*
X1632Y2100D01*
X1661Y2100D02*
X1724Y2100D01*
X311Y2099D02*
X375Y2099D01*
X402Y2099D02*
X465Y2099D01*
X1570Y2099D02*
X1633Y2099D01*
X1661Y2099D02*
X1724Y2099D01*
X312Y2098D02*
X376Y2098D01*
X401Y2098D02*
X465Y2098D01*
X1570Y2098D02*
X1634Y2098D01*
X1660Y2098D02*
X1724Y2098D01*
X312Y2097D02*
X377Y2097D01*
X400Y2097D02*
X465Y2097D01*
X1571Y2097D02*
X1635Y2097D01*
X1659Y2097D02*
X1723Y2097D01*
X312Y2096D02*
X378Y2096D01*
X399Y2096D02*
X464Y2096D01*
X1571Y2096D02*
X1636Y2096D01*
X1657Y2096D02*
X1723Y2096D01*
X313Y2095D02*
X379Y2095D01*
X397Y2095D02*
X464Y2095D01*
X1571Y2095D02*
X1638Y2095D01*
X1656Y2095D02*
X1723Y2095D01*
X313Y2094D02*
X381Y2094D01*
X396Y2094D02*
X464Y2094D01*
X1572Y2094D02*
X1640Y2094D01*
X1654Y2094D02*
X1722Y2094D01*
X314Y2093D02*
X385Y2093D01*
X392Y2093D02*
X463Y2093D01*
X1572Y2093D02*
X1644Y2093D01*
X1650Y2093D02*
X1722Y2093D01*
X314Y2092D02*
X463Y2092D01*
X1573Y2092D02*
X1721Y2092D01*
X314Y2091D02*
X462Y2091D01*
X1573Y2091D02*
X1721Y2091D01*
X315Y2090D02*
X462Y2090D01*
X1573Y2090D02*
X1720Y2090D01*
X316Y2089D02*
X461Y2089D01*
X1574Y2089D02*
X1720Y2089D01*
X316Y2088D02*
X461Y2088D01*
X1575Y2088D02*
X1719Y2088D01*
X317Y2087D02*
X460Y2087D01*
X1575Y2087D02*
X1719Y2087D01*
X317Y2086D02*
X459Y2086D01*
X1576Y2086D02*
X1718Y2086D01*
X318Y2085D02*
X459Y2085D01*
X1577Y2085D02*
X1717Y2085D01*
X319Y2084D02*
X458Y2084D01*
X1577Y2084D02*
X1717Y2084D01*
X320Y2083D02*
X457Y2083D01*
X1578Y2083D02*
X1716Y2083D01*
X320Y2082D02*
X456Y2082D01*
X1579Y2082D02*
X1715Y2082D01*
X321Y2081D02*
X455Y2081D01*
X1580Y2081D02*
X1714Y2081D01*
X322Y2080D02*
X455Y2080D01*
X1581Y2080D02*
X1713Y2080D01*
X323Y2079D02*
X453Y2079D01*
X1582Y2079D02*
X1712Y2079D01*
X324Y2078D02*
X452Y2078D01*
X1583Y2078D02*
X1711Y2078D01*
X326Y2077D02*
X451Y2077D01*
X1584Y2077D02*
X1710Y2077D01*
X327Y2076D02*
X450Y2076D01*
X1586Y2076D02*
X1708Y2076D01*
X328Y2075D02*
X448Y2075D01*
X1587Y2075D02*
X1707Y2075D01*
X330Y2074D02*
X447Y2074D01*
X1589Y2074D02*
X1705Y2074D01*
X332Y2073D02*
X445Y2073D01*
X1590Y2073D02*
X1704Y2073D01*
X334Y2072D02*
X443Y2072D01*
X1592Y2072D02*
X1702Y2072D01*
X336Y2071D02*
X441Y2071D01*
X1594Y2071D02*
X1699Y2071D01*
X339Y2070D02*
X438Y2070D01*
X1597Y2070D02*
X1697Y2070D01*
X342Y2069D02*
X435Y2069D01*
X1601Y2069D02*
X1693Y2069D01*
X348Y2068D02*
X429Y2068D01*
X1606Y2068D02*
X1688Y2068D01*
X179Y1397D02*
X268Y1397D01*
X494Y1397D02*
X584Y1397D01*
X1437Y1397D02*
X1527Y1397D01*
X1753Y1397D02*
X1842Y1397D01*
X175Y1396D02*
X272Y1396D01*
X491Y1396D02*
X588Y1396D01*
X1433Y1396D02*
X1530Y1396D01*
X1749Y1396D02*
X1846Y1396D01*
X172Y1395D02*
X275Y1395D01*
X488Y1395D02*
X591Y1395D01*
X1430Y1395D02*
X1533Y1395D01*
X1746Y1395D02*
X1849Y1395D01*
X170Y1394D02*
X277Y1394D01*
X485Y1394D02*
X593Y1394D01*
X1428Y1394D02*
X1536Y1394D01*
X1744Y1394D02*
X1852Y1394D01*
X167Y1393D02*
X279Y1393D01*
X483Y1393D02*
X595Y1393D01*
X1426Y1393D02*
X1538Y1393D01*
X1742Y1393D02*
X1854Y1393D01*
X166Y1392D02*
X281Y1392D01*
X481Y1392D02*
X597Y1392D01*
X1424Y1392D02*
X1540Y1392D01*
X1740Y1392D02*
X1855Y1392D01*
X164Y1391D02*
X283Y1391D01*
X480Y1391D02*
X599Y1391D01*
X1422Y1391D02*
X1541Y1391D01*
X1738Y1391D02*
X1857Y1391D01*
X162Y1390D02*
X284Y1390D01*
X478Y1390D02*
X600Y1390D01*
X1421Y1390D02*
X1543Y1390D01*
X1737Y1390D02*
X1859Y1390D01*
X161Y1389D02*
X286Y1389D01*
X477Y1389D02*
X601Y1389D01*
X1420Y1389D02*
X1544Y1389D01*
X1736Y1389D02*
X1860Y1389D01*
X160Y1388D02*
X287Y1388D01*
X476Y1388D02*
X603Y1388D01*
X1418Y1388D02*
X1545Y1388D01*
X1734Y1388D02*
X1861Y1388D01*
X159Y1387D02*
X288Y1387D01*
X475Y1387D02*
X604Y1387D01*
X1417Y1387D02*
X1546Y1387D01*
X1733Y1387D02*
X1862Y1387D01*
X158Y1386D02*
X289Y1386D01*
X473Y1386D02*
X605Y1386D01*
X1416Y1386D02*
X1548Y1386D01*
X1732Y1386D02*
X1863Y1386D01*
X157Y1385D02*
X290Y1385D01*
X473Y1385D02*
X606Y1385D01*
X1415Y1385D02*
X1549Y1385D01*
X1731Y1385D02*
X1864Y1385D01*
X156Y1384D02*
X291Y1384D01*
X472Y1384D02*
X607Y1384D01*
X1414Y1384D02*
X1549Y1384D01*
X1730Y1384D02*
X1865Y1384D01*
X155Y1383D02*
X292Y1383D01*
X471Y1383D02*
X608Y1383D01*
X1413Y1383D02*
X1550Y1383D01*
X1729Y1383D02*
X1866Y1383D01*
X154Y1382D02*
X293Y1382D01*
X470Y1382D02*
X609Y1382D01*
X1413Y1382D02*
X1551Y1382D01*
X1728Y1382D02*
X1867Y1382D01*
X153Y1381D02*
X293Y1381D01*
X469Y1381D02*
X609Y1381D01*
X1412Y1381D02*
X1552Y1381D01*
X1728Y1381D02*
X1868Y1381D01*
X153Y1380D02*
X294Y1380D01*
X468Y1380D02*
X610Y1380D01*
X1411Y1380D02*
X1553Y1380D01*
X1727Y1380D02*
X1868Y1380D01*
X152Y1379D02*
X295Y1379D01*
X468Y1379D02*
X611Y1379D01*
X1410Y1379D02*
X1553Y1379D01*
X1726Y1379D02*
X1869Y1379D01*
X151Y1378D02*
X295Y1378D01*
X467Y1378D02*
X611Y1378D01*
X1410Y1378D02*
X1554Y1378D01*
X1726Y1378D02*
X1870Y1378D01*
X151Y1377D02*
X296Y1377D01*
X467Y1377D02*
X612Y1377D01*
X1409Y1377D02*
X1555Y1377D01*
X1725Y1377D02*
X1870Y1377D01*
X150Y1376D02*
X297Y1376D01*
X466Y1376D02*
X612Y1376D01*
X1409Y1376D02*
X1555Y1376D01*
X1724Y1376D02*
X1871Y1376D01*
X150Y1375D02*
X297Y1375D01*
X465Y1375D02*
X613Y1375D01*
X1408Y1375D02*
X1556Y1375D01*
X1724Y1375D02*
X1871Y1375D01*
X149Y1374D02*
X298Y1374D01*
X465Y1374D02*
X613Y1374D01*
X1408Y1374D02*
X1556Y1374D01*
X1723Y1374D02*
X1872Y1374D01*
X149Y1373D02*
X298Y1373D01*
X464Y1373D02*
X614Y1373D01*
X1407Y1373D02*
X1557Y1373D01*
X1723Y1373D02*
X1872Y1373D01*
X148Y1372D02*
X217Y1372D01*
X229Y1372D02*
X299Y1372D01*
X464Y1372D02*
X533Y1372D01*
X545Y1372D02*
X614Y1372D01*
X1407Y1372D02*
X1476Y1372D01*
X1488Y1372D02*
X1557Y1372D01*
X1723Y1372D02*
X1792Y1372D01*
X1804Y1372D02*
X1873Y1372D01*
X148Y1371D02*
X215Y1371D01*
X232Y1371D02*
X299Y1371D01*
X464Y1371D02*
X531Y1371D01*
X547Y1371D02*
X615Y1371D01*
X1406Y1371D02*
X1474Y1371D01*
X1490Y1371D02*
X1557Y1371D01*
X1722Y1371D02*
X1789Y1371D01*
X1806Y1371D02*
X1873Y1371D01*
X147Y1370D02*
X213Y1370D01*
X233Y1370D02*
X299Y1370D01*
X463Y1370D02*
X529Y1370D01*
X549Y1370D02*
X615Y1370D01*
X1406Y1370D02*
X1472Y1370D01*
X1492Y1370D02*
X1558Y1370D01*
X1722Y1370D02*
X1788Y1370D01*
X1808Y1370D02*
X1874Y1370D01*
X147Y1369D02*
X212Y1369D01*
X235Y1369D02*
X300Y1369D01*
X463Y1369D02*
X528Y1369D01*
X550Y1369D02*
X615Y1369D01*
X1406Y1369D02*
X1471Y1369D01*
X1493Y1369D02*
X1558Y1369D01*
X1721Y1369D02*
X1787Y1369D01*
X1809Y1369D02*
X1874Y1369D01*
X147Y1368D02*
X211Y1368D01*
X236Y1368D02*
X300Y1368D01*
X463Y1368D02*
X527Y1368D01*
X552Y1368D02*
X616Y1368D01*
X1405Y1368D02*
X1469Y1368D01*
X1494Y1368D02*
X1558Y1368D01*
X1721Y1368D02*
X1785Y1368D01*
X1810Y1368D02*
X1874Y1368D01*
X146Y1367D02*
X210Y1367D01*
X237Y1367D02*
X300Y1367D01*
X462Y1367D02*
X526Y1367D01*
X552Y1367D02*
X616Y1367D01*
X1405Y1367D02*
X1469Y1367D01*
X1495Y1367D02*
X1559Y1367D01*
X1721Y1367D02*
X1784Y1367D01*
X1811Y1367D02*
X1875Y1367D01*
X146Y1366D02*
X209Y1366D01*
X237Y1366D02*
X300Y1366D01*
X462Y1366D02*
X525Y1366D01*
X553Y1366D02*
X616Y1366D01*
X1405Y1366D02*
X1468Y1366D01*
X1496Y1366D02*
X1559Y1366D01*
X1721Y1366D02*
X1784Y1366D01*
X1812Y1366D02*
X1875Y1366D01*
X146Y1365D02*
X208Y1365D01*
X238Y1365D02*
X301Y1365D01*
X462Y1365D02*
X524Y1365D01*
X554Y1365D02*
X617Y1365D01*
X1404Y1365D02*
X1467Y1365D01*
X1497Y1365D02*
X1559Y1365D01*
X1720Y1365D02*
X1783Y1365D01*
X1813Y1365D02*
X1875Y1365D01*
X146Y1364D02*
X208Y1364D01*
X239Y1364D02*
X301Y1364D01*
X462Y1364D02*
X524Y1364D01*
X555Y1364D02*
X617Y1364D01*
X1404Y1364D02*
X1466Y1364D01*
X1497Y1364D02*
X1559Y1364D01*
X1720Y1364D02*
X1782Y1364D01*
X1813Y1364D02*
X1875Y1364D01*
X146Y1363D02*
X207Y1363D01*
X239Y1363D02*
X301Y1363D01*
X461Y1363D02*
X523Y1363D01*
X555Y1363D02*
X617Y1363D01*
X1404Y1363D02*
X1466Y1363D01*
X1498Y1363D02*
X1560Y1363D01*
X1720Y1363D02*
X1782Y1363D01*
X1814Y1363D02*
X1876Y1363D01*
X145Y1362D02*
X207Y1362D01*
X240Y1362D02*
X301Y1362D01*
X461Y1362D02*
X523Y1362D01*
X556Y1362D02*
X617Y1362D01*
X1404Y1362D02*
X1465Y1362D01*
X1498Y1362D02*
X1560Y1362D01*
X1720Y1362D02*
X1781Y1362D01*
X1814Y1362D02*
X1876Y1362D01*
X145Y1361D02*
X207Y1361D01*
X240Y1361D02*
X301Y1361D01*
X461Y1361D02*
X523Y1361D01*
X556Y1361D02*
X617Y1361D01*
X1404Y1361D02*
X1465Y1361D01*
X1499Y1361D02*
X1560Y1361D01*
X1720Y1361D02*
X1781Y1361D01*
X1814Y1361D02*
X1876Y1361D01*
X145Y1360D02*
X206Y1360D01*
X240Y1360D02*
X302Y1360D01*
X461Y1360D02*
X522Y1360D01*
X556Y1360D02*
X617Y1360D01*
X1404Y1360D02*
X1465Y1360D01*
X1499Y1360D02*
X1560Y1360D01*
X1719Y1360D02*
X1781Y1360D01*
X1815Y1360D02*
X1876Y1360D01*
X145Y1359D02*
X206Y1359D01*
X241Y1359D02*
X302Y1359D01*
X461Y1359D02*
X522Y1359D01*
X556Y1359D02*
X618Y1359D01*
X1404Y1359D02*
X1465Y1359D01*
X1499Y1359D02*
X1560Y1359D01*
X1719Y1359D02*
X1781Y1359D01*
X1815Y1359D02*
X1876Y1359D01*
X145Y1358D02*
X206Y1358D01*
X241Y1358D02*
X302Y1358D01*
X461Y1358D02*
X522Y1358D01*
X557Y1358D02*
X618Y1358D01*
X1403Y1358D02*
X1465Y1358D01*
X1499Y1358D02*
X1560Y1358D01*
X1719Y1358D02*
X1780Y1358D01*
X1815Y1358D02*
X1876Y1358D01*
X145Y1357D02*
X206Y1357D01*
X241Y1357D02*
X302Y1357D01*
X461Y1357D02*
X522Y1357D01*
X557Y1357D02*
X618Y1357D01*
X1403Y1357D02*
X1464Y1357D01*
X1499Y1357D02*
X1560Y1357D01*
X1719Y1357D02*
X1780Y1357D01*
X1815Y1357D02*
X1876Y1357D01*
X145Y1356D02*
X206Y1356D01*
X241Y1356D02*
X302Y1356D01*
X461Y1356D02*
X522Y1356D01*
X557Y1356D02*
X618Y1356D01*
X1403Y1356D02*
X1464Y1356D01*
X1499Y1356D02*
X1560Y1356D01*
X1719Y1356D02*
X1780Y1356D01*
X1815Y1356D02*
X1876Y1356D01*
X145Y1355D02*
X206Y1355D01*
X241Y1355D02*
X302Y1355D01*
X461Y1355D02*
X522Y1355D01*
X557Y1355D02*
X618Y1355D01*
X1403Y1355D02*
X1464Y1355D01*
X1499Y1355D02*
X1560Y1355D01*
X1719Y1355D02*
X1780Y1355D01*
X1815Y1355D02*
X1876Y1355D01*
X145Y1354D02*
X206Y1354D01*
X241Y1354D02*
X302Y1354D01*
X461Y1354D02*
X522Y1354D01*
X557Y1354D02*
X618Y1354D01*
X1403Y1354D02*
X1465Y1354D01*
X1499Y1354D02*
X1560Y1354D01*
X1719Y1354D02*
X1780Y1354D01*
X1815Y1354D02*
X1876Y1354D01*
X145Y1353D02*
X206Y1353D01*
X241Y1353D02*
X302Y1353D01*
X461Y1353D02*
X522Y1353D01*
X556Y1353D02*
X618Y1353D01*
X1404Y1353D02*
X1465Y1353D01*
X1499Y1353D02*
X1560Y1353D01*
X1719Y1353D02*
X1780Y1353D01*
X1815Y1353D02*
X1876Y1353D01*
X145Y1352D02*
X206Y1352D01*
X240Y1352D02*
X302Y1352D01*
X461Y1352D02*
X522Y1352D01*
X556Y1352D02*
X617Y1352D01*
X1404Y1352D02*
X1465Y1352D01*
X1499Y1352D02*
X1560Y1352D01*
X1719Y1352D02*
X1781Y1352D01*
X1815Y1352D02*
X1876Y1352D01*
X145Y1351D02*
X207Y1351D01*
X240Y1351D02*
X302Y1351D01*
X461Y1351D02*
X522Y1351D01*
X556Y1351D02*
X617Y1351D01*
X1404Y1351D02*
X1465Y1351D01*
X1499Y1351D02*
X1560Y1351D01*
X1720Y1351D02*
X1781Y1351D01*
X1814Y1351D02*
X1876Y1351D01*
X145Y1350D02*
X207Y1350D01*
X240Y1350D02*
X301Y1350D01*
X461Y1350D02*
X523Y1350D01*
X556Y1350D02*
X617Y1350D01*
X1404Y1350D02*
X1465Y1350D01*
X1498Y1350D02*
X1560Y1350D01*
X1720Y1350D02*
X1781Y1350D01*
X1814Y1350D02*
X1876Y1350D01*
X145Y1349D02*
X207Y1349D01*
X239Y1349D02*
X301Y1349D01*
X461Y1349D02*
X523Y1349D01*
X555Y1349D02*
X617Y1349D01*
X1404Y1349D02*
X1466Y1349D01*
X1498Y1349D02*
X1560Y1349D01*
X1720Y1349D02*
X1782Y1349D01*
X1814Y1349D02*
X1876Y1349D01*
X146Y1348D02*
X208Y1348D01*
X239Y1348D02*
X301Y1348D01*
X462Y1348D02*
X524Y1348D01*
X555Y1348D02*
X617Y1348D01*
X1404Y1348D02*
X1466Y1348D01*
X1497Y1348D02*
X1560Y1348D01*
X1720Y1348D02*
X1782Y1348D01*
X1813Y1348D02*
X1875Y1348D01*
X146Y1347D02*
X208Y1347D01*
X238Y1347D02*
X301Y1347D01*
X462Y1347D02*
X524Y1347D01*
X554Y1347D02*
X617Y1347D01*
X1404Y1347D02*
X1467Y1347D01*
X1497Y1347D02*
X1559Y1347D01*
X1720Y1347D02*
X1783Y1347D01*
X1813Y1347D02*
X1875Y1347D01*
X146Y1346D02*
X209Y1346D01*
X238Y1346D02*
X301Y1346D01*
X462Y1346D02*
X525Y1346D01*
X554Y1346D02*
X616Y1346D01*
X1405Y1346D02*
X1468Y1346D01*
X1496Y1346D02*
X1559Y1346D01*
X1720Y1346D02*
X1783Y1346D01*
X1812Y1346D02*
X1875Y1346D01*
X146Y1345D02*
X210Y1345D01*
X237Y1345D02*
X300Y1345D01*
X462Y1345D02*
X526Y1345D01*
X553Y1345D02*
X616Y1345D01*
X1405Y1345D02*
X1468Y1345D01*
X1495Y1345D02*
X1559Y1345D01*
X1721Y1345D02*
X1784Y1345D01*
X1811Y1345D02*
X1875Y1345D01*
X147Y1344D02*
X211Y1344D01*
X236Y1344D02*
X300Y1344D01*
X463Y1344D02*
X527Y1344D01*
X552Y1344D02*
X616Y1344D01*
X1405Y1344D02*
X1469Y1344D01*
X1494Y1344D02*
X1559Y1344D01*
X1721Y1344D02*
X1785Y1344D01*
X1810Y1344D02*
X1874Y1344D01*
X147Y1343D02*
X212Y1343D01*
X235Y1343D02*
X300Y1343D01*
X463Y1343D02*
X528Y1343D01*
X551Y1343D02*
X616Y1343D01*
X1405Y1343D02*
X1470Y1343D01*
X1493Y1343D02*
X1558Y1343D01*
X1721Y1343D02*
X1786Y1343D01*
X1809Y1343D02*
X1874Y1343D01*
X147Y1342D02*
X213Y1342D01*
X234Y1342D02*
X299Y1342D01*
X463Y1342D02*
X529Y1342D01*
X550Y1342D02*
X615Y1342D01*
X1406Y1342D02*
X1472Y1342D01*
X1492Y1342D02*
X1558Y1342D01*
X1722Y1342D02*
X1787Y1342D01*
X1808Y1342D02*
X1874Y1342D01*
X148Y1341D02*
X215Y1341D01*
X232Y1341D02*
X299Y1341D01*
X464Y1341D02*
X530Y1341D01*
X548Y1341D02*
X615Y1341D01*
X1406Y1341D02*
X1473Y1341D01*
X1491Y1341D02*
X1557Y1341D01*
X1722Y1341D02*
X1789Y1341D01*
X1806Y1341D02*
X1873Y1341D01*
X148Y1340D02*
X217Y1340D01*
X230Y1340D02*
X299Y1340D01*
X464Y1340D02*
X532Y1340D01*
X546Y1340D02*
X614Y1340D01*
X1407Y1340D02*
X1475Y1340D01*
X1489Y1340D02*
X1557Y1340D01*
X1722Y1340D02*
X1791Y1340D01*
X1804Y1340D02*
X1873Y1340D01*
X149Y1339D02*
X221Y1339D01*
X225Y1339D02*
X298Y1339D01*
X464Y1339D02*
X537Y1339D01*
X541Y1339D02*
X614Y1339D01*
X1407Y1339D02*
X1480Y1339D01*
X1484Y1339D02*
X1557Y1339D01*
X1723Y1339D02*
X1796Y1339D01*
X1800Y1339D02*
X1873Y1339D01*
X149Y1338D02*
X298Y1338D01*
X465Y1338D02*
X614Y1338D01*
X1407Y1338D02*
X1556Y1338D01*
X1723Y1338D02*
X1872Y1338D01*
X149Y1337D02*
X297Y1337D01*
X465Y1337D02*
X613Y1337D01*
X1408Y1337D02*
X1556Y1337D01*
X1724Y1337D02*
X1872Y1337D01*
X150Y1336D02*
X297Y1336D01*
X466Y1336D02*
X613Y1336D01*
X1408Y1336D02*
X1555Y1336D01*
X1724Y1336D02*
X1871Y1336D01*
X151Y1335D02*
X296Y1335D01*
X466Y1335D02*
X612Y1335D01*
X1409Y1335D02*
X1555Y1335D01*
X1725Y1335D02*
X1871Y1335D01*
X151Y1334D02*
X296Y1334D01*
X467Y1334D02*
X611Y1334D01*
X1410Y1334D02*
X1554Y1334D01*
X1725Y1334D02*
X1870Y1334D01*
X152Y1333D02*
X295Y1333D01*
X468Y1333D02*
X611Y1333D01*
X1410Y1333D02*
X1553Y1333D01*
X1726Y1333D02*
X1869Y1333D01*
X152Y1332D02*
X294Y1332D01*
X468Y1332D02*
X610Y1332D01*
X1411Y1332D02*
X1553Y1332D01*
X1727Y1332D02*
X1869Y1332D01*
X153Y1331D02*
X294Y1331D01*
X469Y1331D02*
X609Y1331D01*
X1412Y1331D02*
X1552Y1331D01*
X1727Y1331D02*
X1868Y1331D01*
X154Y1330D02*
X293Y1330D01*
X470Y1330D02*
X609Y1330D01*
X1412Y1330D02*
X1551Y1330D01*
X1728Y1330D02*
X1867Y1330D01*
X155Y1329D02*
X292Y1329D01*
X470Y1329D02*
X608Y1329D01*
X1413Y1329D02*
X1551Y1329D01*
X1729Y1329D02*
X1866Y1329D01*
X155Y1328D02*
X291Y1328D01*
X471Y1328D02*
X607Y1328D01*
X1414Y1328D02*
X1550Y1328D01*
X1730Y1328D02*
X1866Y1328D01*
X156Y1327D02*
X290Y1327D01*
X472Y1327D02*
X606Y1327D01*
X1415Y1327D02*
X1549Y1327D01*
X1731Y1327D02*
X1865Y1327D01*
X157Y1326D02*
X289Y1326D01*
X473Y1326D02*
X605Y1326D01*
X1416Y1326D02*
X1548Y1326D01*
X1732Y1326D02*
X1864Y1326D01*
X158Y1325D02*
X288Y1325D01*
X474Y1325D02*
X604Y1325D01*
X1417Y1325D02*
X1547Y1325D01*
X1733Y1325D02*
X1863Y1325D01*
X160Y1324D02*
X287Y1324D01*
X475Y1324D02*
X603Y1324D01*
X1418Y1324D02*
X1546Y1324D01*
X1734Y1324D02*
X1862Y1324D01*
X161Y1323D02*
X286Y1323D01*
X477Y1323D02*
X602Y1323D01*
X1419Y1323D02*
X1544Y1323D01*
X1735Y1323D02*
X1860Y1323D01*
X162Y1322D02*
X285Y1322D01*
X478Y1322D02*
X600Y1322D01*
X1421Y1322D02*
X1543Y1322D01*
X1737Y1322D02*
X1859Y1322D01*
X164Y1321D02*
X283Y1321D01*
X479Y1321D02*
X599Y1321D01*
X1422Y1321D02*
X1542Y1321D01*
X1738Y1321D02*
X1858Y1321D01*
X165Y1320D02*
X281Y1320D01*
X481Y1320D02*
X597Y1320D01*
X1424Y1320D02*
X1540Y1320D01*
X1740Y1320D02*
X1856Y1320D01*
X167Y1319D02*
X280Y1319D01*
X483Y1319D02*
X596Y1319D01*
X1425Y1319D02*
X1538Y1319D01*
X1741Y1319D02*
X1854Y1319D01*
X169Y1318D02*
X278Y1318D01*
X485Y1318D02*
X594Y1318D01*
X1427Y1318D02*
X1536Y1318D01*
X1743Y1318D02*
X1852Y1318D01*
X171Y1317D02*
X275Y1317D01*
X487Y1317D02*
X591Y1317D01*
X1430Y1317D02*
X1534Y1317D01*
X1746Y1317D02*
X1850Y1317D01*
X174Y1316D02*
X273Y1316D01*
X490Y1316D02*
X589Y1316D01*
X1432Y1316D02*
X1531Y1316D01*
X1748Y1316D02*
X1847Y1316D01*
X178Y1315D02*
X269Y1315D01*
X493Y1315D02*
X585Y1315D01*
X1436Y1315D02*
X1528Y1315D01*
X1752Y1315D02*
X1844Y1315D01*
X184Y1314D02*
X262Y1314D01*
X500Y1314D02*
X578Y1314D01*
X1443Y1314D02*
X1521Y1314D01*
X1759Y1314D02*
X1837Y1314D01*
X344Y1251D02*
X427Y1251D01*
X1603Y1251D02*
X1686Y1251D01*
X339Y1250D02*
X432Y1250D01*
X1598Y1250D02*
X1691Y1250D01*
X336Y1249D02*
X436Y1249D01*
X1594Y1249D02*
X1694Y1249D01*
X333Y1248D02*
X438Y1248D01*
X1592Y1248D02*
X1697Y1248D01*
X331Y1247D02*
X441Y1247D01*
X1589Y1247D02*
X1699Y1247D01*
X329Y1246D02*
X443Y1246D01*
X1587Y1246D02*
X1701Y1246D01*
X327Y1245D02*
X444Y1245D01*
X1586Y1245D02*
X1703Y1245D01*
X326Y1244D02*
X446Y1244D01*
X1584Y1244D02*
X1704Y1244D01*
X324Y1243D02*
X447Y1243D01*
X1583Y1243D02*
X1706Y1243D01*
X323Y1242D02*
X449Y1242D01*
X1581Y1242D02*
X1707Y1242D01*
X322Y1241D02*
X450Y1241D01*
X1580Y1241D02*
X1708Y1241D01*
X321Y1240D02*
X451Y1240D01*
X1579Y1240D02*
X1709Y1240D01*
X319Y1239D02*
X452Y1239D01*
X1578Y1239D02*
X1710Y1239D01*
X319Y1238D02*
X453Y1238D01*
X1577Y1238D02*
X1711Y1238D01*
X318Y1237D02*
X454Y1237D01*
X1576Y1237D02*
X1712Y1237D01*
X317Y1236D02*
X455Y1236D01*
X1575Y1236D02*
X1713Y1236D01*
X316Y1235D02*
X455Y1235D01*
X1575Y1235D02*
X1714Y1235D01*
X315Y1234D02*
X456Y1234D01*
X1574Y1234D02*
X1715Y1234D01*
X315Y1233D02*
X457Y1233D01*
X1573Y1233D02*
X1715Y1233D01*
X314Y1232D02*
X457Y1232D01*
X1572Y1232D02*
X1716Y1232D01*
X313Y1231D02*
X458Y1231D01*
X1572Y1231D02*
X1717Y1231D01*
X313Y1230D02*
X459Y1230D01*
X1571Y1230D02*
X1717Y1230D01*
X312Y1229D02*
X459Y1229D01*
X1571Y1229D02*
X1718Y1229D01*
X312Y1228D02*
X460Y1228D01*
X1570Y1228D02*
X1718Y1228D01*
X311Y1227D02*
X460Y1227D01*
X1570Y1227D02*
X1719Y1227D01*
X311Y1226D02*
X382Y1226D01*
X390Y1226D02*
X461Y1226D01*
X1569Y1226D02*
X1640Y1226D01*
X1648Y1226D02*
X1719Y1226D01*
X310Y1225D02*
X378Y1225D01*
X393Y1225D02*
X461Y1225D01*
X1569Y1225D02*
X1637Y1225D01*
X1652Y1225D02*
X1720Y1225D01*
X310Y1224D02*
X377Y1224D01*
X395Y1224D02*
X461Y1224D01*
X1569Y1224D02*
X1635Y1224D01*
X1653Y1224D02*
X1720Y1224D01*
X310Y1223D02*
X375Y1223D01*
X396Y1223D02*
X462Y1223D01*
X1568Y1223D02*
X1634Y1223D01*
X1655Y1223D02*
X1720Y1223D01*
X309Y1222D02*
X374Y1222D01*
X398Y1222D02*
X462Y1222D01*
X1568Y1222D02*
X1632Y1222D01*
X1656Y1222D02*
X1721Y1222D01*
X309Y1221D02*
X373Y1221D01*
X399Y1221D02*
X462Y1221D01*
X1567Y1221D02*
X1631Y1221D01*
X1657Y1221D02*
X1721Y1221D01*
X309Y1220D02*
X372Y1220D01*
X399Y1220D02*
X463Y1220D01*
X1567Y1220D02*
X1631Y1220D01*
X1658Y1220D02*
X1721Y1220D01*
X308Y1219D02*
X371Y1219D01*
X400Y1219D02*
X463Y1219D01*
X1567Y1219D02*
X1630Y1219D01*
X1659Y1219D02*
X1722Y1219D01*
X308Y1218D02*
X371Y1218D01*
X401Y1218D02*
X463Y1218D01*
X1567Y1218D02*
X1629Y1218D01*
X1659Y1218D02*
X1722Y1218D01*
X308Y1217D02*
X370Y1217D01*
X401Y1217D02*
X463Y1217D01*
X1567Y1217D02*
X1629Y1217D01*
X1660Y1217D02*
X1722Y1217D01*
X308Y1216D02*
X370Y1216D01*
X402Y1216D02*
X464Y1216D01*
X1566Y1216D02*
X1628Y1216D01*
X1660Y1216D02*
X1722Y1216D01*
X308Y1215D02*
X369Y1215D01*
X402Y1215D02*
X464Y1215D01*
X1566Y1215D02*
X1628Y1215D01*
X1661Y1215D02*
X1722Y1215D01*
X308Y1214D02*
X369Y1214D01*
X403Y1214D02*
X464Y1214D01*
X1566Y1214D02*
X1627Y1214D01*
X1661Y1214D02*
X1722Y1214D01*
X307Y1213D02*
X369Y1213D01*
X403Y1213D02*
X464Y1213D01*
X1566Y1213D02*
X1627Y1213D01*
X1661Y1213D02*
X1723Y1213D01*
X307Y1212D02*
X368Y1212D01*
X403Y1212D02*
X464Y1212D01*
X1566Y1212D02*
X1627Y1212D01*
X1661Y1212D02*
X1723Y1212D01*
X307Y1211D02*
X368Y1211D01*
X403Y1211D02*
X464Y1211D01*
X1566Y1211D02*
X1627Y1211D01*
X1662Y1211D02*
X1723Y1211D01*
X307Y1210D02*
X368Y1210D01*
X403Y1210D02*
X464Y1210D01*
X1566Y1210D02*
X1627Y1210D01*
X1662Y1210D02*
X1723Y1210D01*
X307Y1209D02*
X368Y1209D01*
X403Y1209D02*
X464Y1209D01*
X1566Y1209D02*
X1627Y1209D01*
X1662Y1209D02*
X1723Y1209D01*
X307Y1208D02*
X368Y1208D01*
X403Y1208D02*
X464Y1208D01*
X1566Y1208D02*
X1627Y1208D01*
X1662Y1208D02*
X1723Y1208D01*
X307Y1207D02*
X368Y1207D01*
X403Y1207D02*
X464Y1207D01*
X1566Y1207D02*
X1627Y1207D01*
X1662Y1207D02*
X1723Y1207D01*
X307Y1206D02*
X369Y1206D01*
X403Y1206D02*
X464Y1206D01*
X1566Y1206D02*
X1627Y1206D01*
X1661Y1206D02*
X1723Y1206D01*
X307Y1205D02*
X369Y1205D01*
X403Y1205D02*
X464Y1205D01*
X1566Y1205D02*
X1627Y1205D01*
X1661Y1205D02*
X1722Y1205D01*
X308Y1204D02*
X369Y1204D01*
X402Y1204D02*
X464Y1204D01*
X1566Y1204D02*
X1628Y1204D01*
X1661Y1204D02*
X1722Y1204D01*
X308Y1203D02*
X369Y1203D01*
X402Y1203D02*
X464Y1203D01*
X1566Y1203D02*
X1628Y1203D01*
X1661Y1203D02*
X1722Y1203D01*
X308Y1202D02*
X370Y1202D01*
X402Y1202D02*
X463Y1202D01*
X1566Y1202D02*
X1628Y1202D01*
X1660Y1202D02*
X1722Y1202D01*
X308Y1201D02*
X370Y1201D01*
X401Y1201D02*
X463Y1201D01*
X1567Y1201D02*
X1629Y1201D01*
X1660Y1201D02*
X1722Y1201D01*
X308Y1200D02*
X371Y1200D01*
X400Y1200D02*
X463Y1200D01*
X1567Y1200D02*
X1630Y1200D01*
X1659Y1200D02*
X1722Y1200D01*
X309Y1199D02*
X372Y1199D01*
X400Y1199D02*
X463Y1199D01*
X1567Y1199D02*
X1630Y1199D01*
X1658Y1199D02*
X1721Y1199D01*
X309Y1198D02*
X373Y1198D01*
X399Y1198D02*
X463Y1198D01*
X1567Y1198D02*
X1631Y1198D01*
X1657Y1198D02*
X1721Y1198D01*
X309Y1197D02*
X374Y1197D01*
X398Y1197D02*
X462Y1197D01*
X1568Y1197D02*
X1632Y1197D01*
X1656Y1197D02*
X1721Y1197D01*
X310Y1196D02*
X375Y1196D01*
X397Y1196D02*
X462Y1196D01*
X1568Y1196D02*
X1633Y1196D01*
X1655Y1196D02*
X1720Y1196D01*
X310Y1195D02*
X376Y1195D01*
X395Y1195D02*
X462Y1195D01*
X1568Y1195D02*
X1635Y1195D01*
X1654Y1195D02*
X1720Y1195D01*
X310Y1194D02*
X378Y1194D01*
X394Y1194D02*
X461Y1194D01*
X1569Y1194D02*
X1636Y1194D01*
X1652Y1194D02*
X1720Y1194D01*
X311Y1193D02*
X381Y1193D01*
X391Y1193D02*
X461Y1193D01*
X1569Y1193D02*
X1639Y1193D01*
X1649Y1193D02*
X1719Y1193D01*
X311Y1192D02*
X460Y1192D01*
X1570Y1192D02*
X1719Y1192D01*
X312Y1191D02*
X460Y1191D01*
X1570Y1191D02*
X1718Y1191D01*
X312Y1190D02*
X459Y1190D01*
X1571Y1190D02*
X1718Y1190D01*
X313Y1189D02*
X459Y1189D01*
X1571Y1189D02*
X1717Y1189D01*
X313Y1188D02*
X458Y1188D01*
X1572Y1188D02*
X1717Y1188D01*
X314Y1187D02*
X458Y1187D01*
X1572Y1187D02*
X1716Y1187D01*
X314Y1186D02*
X457Y1186D01*
X1573Y1186D02*
X1716Y1186D01*
X315Y1185D02*
X456Y1185D01*
X1574Y1185D02*
X1715Y1185D01*
X316Y1184D02*
X456Y1184D01*
X1574Y1184D02*
X1714Y1184D01*
X317Y1183D02*
X455Y1183D01*
X1575Y1183D02*
X1713Y1183D01*
X317Y1182D02*
X454Y1182D01*
X1576Y1182D02*
X1713Y1182D01*
X318Y1181D02*
X453Y1181D01*
X1577Y1181D02*
X1712Y1181D01*
X319Y1180D02*
X452Y1180D01*
X1578Y1180D02*
X1711Y1180D01*
X320Y1179D02*
X451Y1179D01*
X1579Y1179D02*
X1710Y1179D01*
X321Y1178D02*
X450Y1178D01*
X1580Y1178D02*
X1709Y1178D01*
X322Y1177D02*
X449Y1177D01*
X1581Y1177D02*
X1707Y1177D01*
X324Y1176D02*
X448Y1176D01*
X1582Y1176D02*
X1706Y1176D01*
X325Y1175D02*
X446Y1175D01*
X1584Y1175D02*
X1705Y1175D01*
X327Y1174D02*
X445Y1174D01*
X1585Y1174D02*
X1703Y1174D01*
X328Y1173D02*
X443Y1173D01*
X1587Y1173D02*
X1702Y1173D01*
X330Y1172D02*
X441Y1172D01*
X1589Y1172D02*
X1700Y1172D01*
X332Y1171D02*
X439Y1171D01*
X1591Y1171D02*
X1698Y1171D01*
X335Y1170D02*
X437Y1170D01*
X1593Y1170D02*
X1695Y1170D01*
X338Y1169D02*
X433Y1169D01*
X1597Y1169D02*
X1692Y1169D01*
X342Y1168D02*
X429Y1168D01*
X1601Y1168D02*
X1688Y1168D01*
D02*
G04 End of Mask0*
M02*