G04 MADE WITH FRITZING*
G04 WWW.FRITZING.ORG*
G04 DOUBLE SIDED*
G04 HOLES PLATED*
G04 CONTOUR ON CENTER OF CONTOUR VECTOR*
%ASAXBY*%
%FSLAX23Y23*%
%MOIN*%
%OFA0B0*%
%SFA1.0B1.0*%
%ADD10C,0.075000*%
%ADD11C,0.078000*%
%ADD12C,0.087244*%
%ADD13R,0.001000X0.001000*%
%LNCOPPER0*%
G90*
G70*
G54D10*
X79Y574D03*
X79Y174D03*
G54D11*
X779Y74D03*
X679Y74D03*
X579Y74D03*
G54D12*
X557Y490D03*
X404Y343D03*
X241Y490D03*
G54D13*
X197Y526D02*
X284Y526D01*
X513Y526D02*
X600Y526D01*
X193Y525D02*
X288Y525D01*
X509Y525D02*
X604Y525D01*
X190Y524D02*
X291Y524D01*
X506Y524D02*
X606Y524D01*
X188Y523D02*
X293Y523D01*
X504Y523D02*
X609Y523D01*
X186Y522D02*
X295Y522D01*
X502Y522D02*
X611Y522D01*
X185Y521D02*
X297Y521D01*
X500Y521D02*
X612Y521D01*
X183Y520D02*
X298Y520D01*
X499Y520D02*
X614Y520D01*
X182Y519D02*
X300Y519D01*
X497Y519D02*
X615Y519D01*
X180Y518D02*
X301Y518D01*
X496Y518D02*
X616Y518D01*
X179Y517D02*
X302Y517D01*
X495Y517D02*
X618Y517D01*
X178Y516D02*
X303Y516D01*
X494Y516D02*
X619Y516D01*
X177Y515D02*
X304Y515D01*
X493Y515D02*
X620Y515D01*
X176Y514D02*
X305Y514D01*
X492Y514D02*
X620Y514D01*
X175Y513D02*
X306Y513D01*
X491Y513D02*
X621Y513D01*
X175Y512D02*
X306Y512D01*
X490Y512D02*
X622Y512D01*
X174Y511D02*
X235Y511D01*
X246Y511D02*
X307Y511D01*
X490Y511D02*
X551Y511D01*
X562Y511D02*
X623Y511D01*
X173Y510D02*
X232Y510D01*
X249Y510D02*
X308Y510D01*
X489Y510D02*
X547Y510D01*
X565Y510D02*
X624Y510D01*
X173Y509D02*
X230Y509D01*
X251Y509D02*
X309Y509D01*
X488Y509D02*
X545Y509D01*
X567Y509D02*
X624Y509D01*
X172Y508D02*
X228Y508D01*
X253Y508D02*
X309Y508D01*
X488Y508D02*
X544Y508D01*
X569Y508D02*
X625Y508D01*
X171Y507D02*
X227Y507D01*
X254Y507D02*
X310Y507D01*
X487Y507D02*
X542Y507D01*
X570Y507D02*
X625Y507D01*
X171Y506D02*
X225Y506D01*
X256Y506D02*
X310Y506D01*
X487Y506D02*
X541Y506D01*
X571Y506D02*
X626Y506D01*
X170Y505D02*
X224Y505D01*
X257Y505D02*
X311Y505D01*
X486Y505D02*
X540Y505D01*
X572Y505D02*
X626Y505D01*
X170Y504D02*
X224Y504D01*
X258Y504D02*
X311Y504D01*
X486Y504D02*
X539Y504D01*
X573Y504D02*
X627Y504D01*
X170Y503D02*
X223Y503D01*
X258Y503D02*
X312Y503D01*
X485Y503D02*
X538Y503D01*
X574Y503D02*
X627Y503D01*
X169Y502D02*
X222Y502D01*
X259Y502D02*
X312Y502D01*
X485Y502D02*
X538Y502D01*
X575Y502D02*
X628Y502D01*
X169Y501D02*
X221Y501D01*
X260Y501D02*
X312Y501D01*
X485Y501D02*
X537Y501D01*
X575Y501D02*
X628Y501D01*
X169Y500D02*
X221Y500D01*
X260Y500D02*
X313Y500D01*
X484Y500D02*
X536Y500D01*
X576Y500D02*
X628Y500D01*
X168Y499D02*
X220Y499D01*
X261Y499D02*
X313Y499D01*
X484Y499D02*
X536Y499D01*
X577Y499D02*
X628Y499D01*
X168Y498D02*
X220Y498D01*
X261Y498D02*
X313Y498D01*
X484Y498D02*
X535Y498D01*
X577Y498D02*
X629Y498D01*
X168Y497D02*
X219Y497D01*
X262Y497D02*
X313Y497D01*
X484Y497D02*
X535Y497D01*
X577Y497D02*
X629Y497D01*
X168Y496D02*
X219Y496D01*
X262Y496D02*
X313Y496D01*
X483Y496D02*
X535Y496D01*
X578Y496D02*
X629Y496D01*
X168Y495D02*
X219Y495D01*
X262Y495D02*
X314Y495D01*
X483Y495D02*
X534Y495D01*
X578Y495D02*
X629Y495D01*
X167Y494D02*
X219Y494D01*
X263Y494D02*
X314Y494D01*
X483Y494D02*
X534Y494D01*
X578Y494D02*
X629Y494D01*
X167Y493D02*
X218Y493D01*
X263Y493D02*
X314Y493D01*
X483Y493D02*
X534Y493D01*
X578Y493D02*
X629Y493D01*
X167Y492D02*
X218Y492D01*
X263Y492D02*
X314Y492D01*
X483Y492D02*
X534Y492D01*
X579Y492D02*
X630Y492D01*
X167Y491D02*
X218Y491D01*
X263Y491D02*
X314Y491D01*
X483Y491D02*
X534Y491D01*
X579Y491D02*
X630Y491D01*
X167Y490D02*
X218Y490D01*
X263Y490D02*
X314Y490D01*
X483Y490D02*
X534Y490D01*
X579Y490D02*
X630Y490D01*
X167Y489D02*
X218Y489D01*
X263Y489D02*
X314Y489D01*
X483Y489D02*
X534Y489D01*
X579Y489D02*
X630Y489D01*
X167Y488D02*
X218Y488D01*
X263Y488D02*
X314Y488D01*
X483Y488D02*
X534Y488D01*
X579Y488D02*
X630Y488D01*
X167Y487D02*
X218Y487D01*
X263Y487D02*
X314Y487D01*
X483Y487D02*
X534Y487D01*
X579Y487D02*
X630Y487D01*
X167Y486D02*
X218Y486D01*
X263Y486D02*
X314Y486D01*
X483Y486D02*
X534Y486D01*
X578Y486D02*
X629Y486D01*
X167Y485D02*
X219Y485D01*
X263Y485D02*
X314Y485D01*
X483Y485D02*
X534Y485D01*
X578Y485D02*
X629Y485D01*
X168Y484D02*
X219Y484D01*
X262Y484D02*
X314Y484D01*
X483Y484D02*
X535Y484D01*
X578Y484D02*
X629Y484D01*
X168Y483D02*
X219Y483D01*
X262Y483D02*
X313Y483D01*
X483Y483D02*
X535Y483D01*
X578Y483D02*
X629Y483D01*
X168Y482D02*
X220Y482D01*
X262Y482D02*
X313Y482D01*
X484Y482D02*
X535Y482D01*
X577Y482D02*
X629Y482D01*
X168Y481D02*
X220Y481D01*
X261Y481D02*
X313Y481D01*
X484Y481D02*
X536Y481D01*
X577Y481D02*
X629Y481D01*
X168Y480D02*
X220Y480D01*
X261Y480D02*
X313Y480D01*
X484Y480D02*
X536Y480D01*
X576Y480D02*
X628Y480D01*
X169Y479D02*
X221Y479D01*
X260Y479D02*
X312Y479D01*
X484Y479D02*
X537Y479D01*
X576Y479D02*
X628Y479D01*
X169Y478D02*
X222Y478D01*
X260Y478D02*
X312Y478D01*
X485Y478D02*
X537Y478D01*
X575Y478D02*
X628Y478D01*
X169Y477D02*
X222Y477D01*
X259Y477D02*
X312Y477D01*
X485Y477D02*
X538Y477D01*
X575Y477D02*
X627Y477D01*
X170Y476D02*
X223Y476D01*
X258Y476D02*
X311Y476D01*
X485Y476D02*
X539Y476D01*
X574Y476D02*
X627Y476D01*
X170Y475D02*
X224Y475D01*
X257Y475D02*
X311Y475D01*
X486Y475D02*
X539Y475D01*
X573Y475D02*
X627Y475D01*
X171Y474D02*
X225Y474D01*
X256Y474D02*
X310Y474D01*
X486Y474D02*
X540Y474D01*
X572Y474D02*
X626Y474D01*
X171Y473D02*
X226Y473D01*
X255Y473D02*
X310Y473D01*
X487Y473D02*
X542Y473D01*
X571Y473D02*
X626Y473D01*
X172Y472D02*
X227Y472D01*
X254Y472D02*
X310Y472D01*
X487Y472D02*
X543Y472D01*
X570Y472D02*
X625Y472D01*
X172Y471D02*
X229Y471D01*
X253Y471D02*
X309Y471D01*
X488Y471D02*
X544Y471D01*
X568Y471D02*
X625Y471D01*
X173Y470D02*
X230Y470D01*
X251Y470D02*
X308Y470D01*
X488Y470D02*
X546Y470D01*
X566Y470D02*
X624Y470D01*
X173Y469D02*
X233Y469D01*
X248Y469D02*
X308Y469D01*
X489Y469D02*
X549Y469D01*
X564Y469D02*
X623Y469D01*
X174Y468D02*
X237Y468D01*
X245Y468D02*
X307Y468D01*
X490Y468D02*
X552Y468D01*
X560Y468D02*
X623Y468D01*
X175Y467D02*
X306Y467D01*
X491Y467D02*
X622Y467D01*
X176Y466D02*
X305Y466D01*
X491Y466D02*
X621Y466D01*
X177Y465D02*
X305Y465D01*
X492Y465D02*
X620Y465D01*
X178Y464D02*
X304Y464D01*
X493Y464D02*
X619Y464D01*
X179Y463D02*
X303Y463D01*
X494Y463D02*
X618Y463D01*
X180Y462D02*
X302Y462D01*
X495Y462D02*
X617Y462D01*
X181Y461D02*
X300Y461D01*
X496Y461D02*
X616Y461D01*
X182Y460D02*
X299Y460D01*
X498Y460D02*
X615Y460D01*
X183Y459D02*
X298Y459D01*
X499Y459D02*
X613Y459D01*
X185Y458D02*
X296Y458D01*
X501Y458D02*
X612Y458D01*
X187Y457D02*
X294Y457D01*
X502Y457D02*
X610Y457D01*
X189Y456D02*
X292Y456D01*
X505Y456D02*
X608Y456D01*
X191Y455D02*
X290Y455D01*
X507Y455D02*
X605Y455D01*
X195Y454D02*
X287Y454D01*
X510Y454D02*
X602Y454D01*
X200Y453D02*
X282Y453D01*
X515Y453D02*
X597Y453D01*
X362Y380D02*
X443Y380D01*
X357Y379D02*
X449Y379D01*
X354Y378D02*
X452Y378D01*
X351Y377D02*
X454Y377D01*
X349Y376D02*
X456Y376D01*
X347Y375D02*
X458Y375D01*
X346Y374D02*
X460Y374D01*
X344Y373D02*
X461Y373D01*
X343Y372D02*
X463Y372D01*
X342Y371D02*
X464Y371D01*
X341Y370D02*
X465Y370D01*
X340Y369D02*
X466Y369D01*
X339Y368D02*
X467Y368D01*
X338Y367D02*
X468Y367D01*
X337Y366D02*
X468Y366D01*
X337Y365D02*
X399Y365D01*
X406Y365D02*
X469Y365D01*
X336Y364D02*
X395Y364D01*
X410Y364D02*
X470Y364D01*
X335Y363D02*
X393Y363D01*
X413Y363D02*
X471Y363D01*
X335Y362D02*
X391Y362D01*
X415Y362D02*
X471Y362D01*
X334Y361D02*
X389Y361D01*
X416Y361D02*
X472Y361D01*
X333Y360D02*
X388Y360D01*
X417Y360D02*
X472Y360D01*
X333Y359D02*
X387Y359D01*
X419Y359D02*
X473Y359D01*
X332Y358D02*
X386Y358D01*
X420Y358D02*
X473Y358D01*
X332Y357D02*
X385Y357D01*
X420Y357D02*
X474Y357D01*
X332Y356D02*
X384Y356D01*
X421Y356D02*
X474Y356D01*
X331Y355D02*
X384Y355D01*
X422Y355D02*
X474Y355D01*
X331Y354D02*
X383Y354D01*
X422Y354D02*
X475Y354D01*
X331Y353D02*
X383Y353D01*
X423Y353D02*
X475Y353D01*
X330Y352D02*
X382Y352D01*
X423Y352D02*
X475Y352D01*
X330Y351D02*
X382Y351D01*
X424Y351D02*
X475Y351D01*
X330Y350D02*
X382Y350D01*
X424Y350D02*
X476Y350D01*
X330Y349D02*
X381Y349D01*
X424Y349D02*
X476Y349D01*
X330Y348D02*
X381Y348D01*
X425Y348D02*
X476Y348D01*
X330Y347D02*
X381Y347D01*
X425Y347D02*
X476Y347D01*
X330Y346D02*
X381Y346D01*
X425Y346D02*
X476Y346D01*
X329Y345D02*
X380Y345D01*
X425Y345D02*
X476Y345D01*
X329Y344D02*
X380Y344D01*
X425Y344D02*
X476Y344D01*
X329Y343D02*
X380Y343D01*
X425Y343D02*
X476Y343D01*
X329Y342D02*
X380Y342D01*
X425Y342D02*
X476Y342D01*
X330Y341D02*
X380Y341D01*
X425Y341D02*
X476Y341D01*
X330Y340D02*
X381Y340D01*
X425Y340D02*
X476Y340D01*
X330Y339D02*
X381Y339D01*
X425Y339D02*
X476Y339D01*
X330Y338D02*
X381Y338D01*
X425Y338D02*
X476Y338D01*
X330Y337D02*
X381Y337D01*
X424Y337D02*
X476Y337D01*
X330Y336D02*
X382Y336D01*
X424Y336D02*
X476Y336D01*
X330Y335D02*
X382Y335D01*
X424Y335D02*
X475Y335D01*
X331Y334D02*
X382Y334D01*
X423Y334D02*
X475Y334D01*
X331Y333D02*
X383Y333D01*
X423Y333D02*
X475Y333D01*
X331Y332D02*
X384Y332D01*
X422Y332D02*
X475Y332D01*
X332Y331D02*
X384Y331D01*
X422Y331D02*
X474Y331D01*
X332Y330D02*
X385Y330D01*
X421Y330D02*
X474Y330D01*
X332Y329D02*
X386Y329D01*
X420Y329D02*
X473Y329D01*
X333Y328D02*
X387Y328D01*
X419Y328D02*
X473Y328D01*
X333Y327D02*
X388Y327D01*
X418Y327D02*
X472Y327D01*
X334Y326D02*
X389Y326D01*
X417Y326D02*
X472Y326D01*
X334Y325D02*
X390Y325D01*
X416Y325D02*
X471Y325D01*
X335Y324D02*
X392Y324D01*
X414Y324D02*
X471Y324D01*
X335Y323D02*
X394Y323D01*
X412Y323D02*
X470Y323D01*
X336Y322D02*
X397Y322D01*
X409Y322D02*
X470Y322D01*
X337Y321D02*
X469Y321D01*
X338Y320D02*
X468Y320D01*
X339Y319D02*
X467Y319D01*
X339Y318D02*
X466Y318D01*
X340Y317D02*
X465Y317D01*
X341Y316D02*
X464Y316D01*
X343Y315D02*
X463Y315D01*
X344Y314D02*
X462Y314D01*
X345Y313D02*
X461Y313D01*
X347Y312D02*
X459Y312D01*
X348Y311D02*
X457Y311D01*
X350Y310D02*
X455Y310D01*
X353Y309D02*
X453Y309D01*
X355Y308D02*
X450Y308D01*
X359Y307D02*
X446Y307D01*
D02*
G04 End of Copper0*
M02*