G04 MADE WITH FRITZING*
G04 WWW.FRITZING.ORG*
G04 DOUBLE SIDED*
G04 HOLES PLATED*
G04 CONTOUR ON CENTER OF CONTOUR VECTOR*
%ASAXBY*%
%FSLAX23Y23*%
%MOIN*%
%OFA0B0*%
%SFA1.0B1.0*%
%ADD10C,0.010000*%
%ADD11R,0.001000X0.001000*%
%LNSILK1*%
G90*
G70*
G54D10*
X112Y464D02*
X112Y264D01*
D02*
X112Y264D02*
X46Y264D01*
D02*
X46Y264D02*
X46Y464D01*
D02*
X46Y464D02*
X112Y464D01*
D02*
X829Y124D02*
X529Y124D01*
D02*
X529Y124D02*
X529Y24D01*
D02*
X529Y24D02*
X829Y24D01*
D02*
X829Y24D02*
X829Y124D01*
G54D11*
X0Y625D02*
X857Y625D01*
X0Y624D02*
X857Y624D01*
X0Y623D02*
X857Y623D01*
X0Y622D02*
X857Y622D01*
X0Y621D02*
X857Y621D01*
X0Y620D02*
X857Y620D01*
X0Y619D02*
X857Y619D01*
X0Y618D02*
X857Y618D01*
X0Y617D02*
X7Y617D01*
X347Y617D02*
X353Y617D01*
X380Y617D02*
X405Y617D01*
X424Y617D02*
X443Y617D01*
X663Y617D02*
X669Y617D01*
X690Y617D02*
X696Y617D01*
X713Y617D02*
X715Y617D01*
X738Y617D02*
X772Y617D01*
X850Y617D02*
X857Y617D01*
X0Y616D02*
X7Y616D01*
X347Y616D02*
X353Y616D01*
X380Y616D02*
X386Y616D01*
X436Y616D02*
X443Y616D01*
X663Y616D02*
X669Y616D01*
X690Y616D02*
X696Y616D01*
X711Y616D02*
X716Y616D01*
X738Y616D02*
X744Y616D01*
X766Y616D02*
X772Y616D01*
X850Y616D02*
X857Y616D01*
X0Y615D02*
X7Y615D01*
X347Y615D02*
X353Y615D01*
X380Y615D02*
X386Y615D01*
X437Y615D02*
X443Y615D01*
X663Y615D02*
X669Y615D01*
X690Y615D02*
X696Y615D01*
X711Y615D02*
X717Y615D01*
X738Y615D02*
X744Y615D01*
X766Y615D02*
X772Y615D01*
X850Y615D02*
X857Y615D01*
X0Y614D02*
X7Y614D01*
X347Y614D02*
X353Y614D01*
X380Y614D02*
X386Y614D01*
X437Y614D02*
X443Y614D01*
X663Y614D02*
X669Y614D01*
X690Y614D02*
X696Y614D01*
X711Y614D02*
X717Y614D01*
X738Y614D02*
X744Y614D01*
X766Y614D02*
X772Y614D01*
X850Y614D02*
X857Y614D01*
X0Y613D02*
X7Y613D01*
X347Y613D02*
X353Y613D01*
X380Y613D02*
X386Y613D01*
X437Y613D02*
X443Y613D01*
X663Y613D02*
X669Y613D01*
X690Y613D02*
X696Y613D01*
X711Y613D02*
X717Y613D01*
X738Y613D02*
X744Y613D01*
X766Y613D02*
X772Y613D01*
X850Y613D02*
X857Y613D01*
X0Y612D02*
X7Y612D01*
X347Y612D02*
X353Y612D01*
X380Y612D02*
X386Y612D01*
X437Y612D02*
X443Y612D01*
X663Y612D02*
X669Y612D01*
X690Y612D02*
X696Y612D01*
X711Y612D02*
X717Y612D01*
X738Y612D02*
X744Y612D01*
X766Y612D02*
X772Y612D01*
X850Y612D02*
X857Y612D01*
X0Y611D02*
X7Y611D01*
X347Y611D02*
X353Y611D01*
X380Y611D02*
X386Y611D01*
X437Y611D02*
X443Y611D01*
X663Y611D02*
X669Y611D01*
X690Y611D02*
X696Y611D01*
X711Y611D02*
X717Y611D01*
X738Y611D02*
X744Y611D01*
X766Y611D02*
X772Y611D01*
X850Y611D02*
X857Y611D01*
X0Y610D02*
X7Y610D01*
X347Y610D02*
X353Y610D01*
X380Y610D02*
X386Y610D01*
X437Y610D02*
X443Y610D01*
X663Y610D02*
X669Y610D01*
X690Y610D02*
X696Y610D01*
X711Y610D02*
X717Y610D01*
X738Y610D02*
X744Y610D01*
X766Y610D02*
X772Y610D01*
X850Y610D02*
X857Y610D01*
X0Y609D02*
X7Y609D01*
X347Y609D02*
X353Y609D01*
X380Y609D02*
X386Y609D01*
X437Y609D02*
X443Y609D01*
X663Y609D02*
X669Y609D01*
X690Y609D02*
X696Y609D01*
X711Y609D02*
X717Y609D01*
X738Y609D02*
X744Y609D01*
X766Y609D02*
X772Y609D01*
X850Y609D02*
X857Y609D01*
X0Y608D02*
X7Y608D01*
X347Y608D02*
X353Y608D01*
X380Y608D02*
X386Y608D01*
X437Y608D02*
X443Y608D01*
X663Y608D02*
X669Y608D01*
X690Y608D02*
X696Y608D01*
X711Y608D02*
X717Y608D01*
X738Y608D02*
X744Y608D01*
X766Y608D02*
X772Y608D01*
X850Y608D02*
X857Y608D01*
X0Y607D02*
X7Y607D01*
X347Y607D02*
X353Y607D01*
X380Y607D02*
X386Y607D01*
X437Y607D02*
X443Y607D01*
X663Y607D02*
X669Y607D01*
X690Y607D02*
X696Y607D01*
X711Y607D02*
X717Y607D01*
X738Y607D02*
X744Y607D01*
X766Y607D02*
X772Y607D01*
X850Y607D02*
X857Y607D01*
X0Y606D02*
X7Y606D01*
X347Y606D02*
X353Y606D01*
X380Y606D02*
X386Y606D01*
X437Y606D02*
X443Y606D01*
X663Y606D02*
X669Y606D01*
X690Y606D02*
X696Y606D01*
X711Y606D02*
X717Y606D01*
X738Y606D02*
X745Y606D01*
X766Y606D02*
X772Y606D01*
X850Y606D02*
X857Y606D01*
X0Y605D02*
X7Y605D01*
X347Y605D02*
X353Y605D01*
X380Y605D02*
X386Y605D01*
X437Y605D02*
X443Y605D01*
X663Y605D02*
X669Y605D01*
X690Y605D02*
X696Y605D01*
X711Y605D02*
X717Y605D01*
X738Y605D02*
X772Y605D01*
X850Y605D02*
X857Y605D01*
X0Y604D02*
X7Y604D01*
X347Y604D02*
X353Y604D01*
X380Y604D02*
X386Y604D01*
X437Y604D02*
X443Y604D01*
X663Y604D02*
X669Y604D01*
X690Y604D02*
X696Y604D01*
X711Y604D02*
X717Y604D01*
X738Y604D02*
X772Y604D01*
X850Y604D02*
X857Y604D01*
X0Y603D02*
X7Y603D01*
X347Y603D02*
X353Y603D01*
X380Y603D02*
X386Y603D01*
X437Y603D02*
X443Y603D01*
X663Y603D02*
X669Y603D01*
X690Y603D02*
X696Y603D01*
X711Y603D02*
X717Y603D01*
X738Y603D02*
X772Y603D01*
X850Y603D02*
X857Y603D01*
X0Y602D02*
X7Y602D01*
X347Y602D02*
X353Y602D01*
X380Y602D02*
X386Y602D01*
X437Y602D02*
X443Y602D01*
X663Y602D02*
X669Y602D01*
X690Y602D02*
X696Y602D01*
X711Y602D02*
X717Y602D01*
X738Y602D02*
X772Y602D01*
X850Y602D02*
X857Y602D01*
X0Y601D02*
X7Y601D01*
X347Y601D02*
X353Y601D01*
X380Y601D02*
X386Y601D01*
X437Y601D02*
X443Y601D01*
X663Y601D02*
X669Y601D01*
X690Y601D02*
X696Y601D01*
X711Y601D02*
X717Y601D01*
X739Y601D02*
X772Y601D01*
X850Y601D02*
X857Y601D01*
X0Y600D02*
X7Y600D01*
X347Y600D02*
X353Y600D01*
X380Y600D02*
X386Y600D01*
X437Y600D02*
X443Y600D01*
X663Y600D02*
X669Y600D01*
X690Y600D02*
X696Y600D01*
X711Y600D02*
X717Y600D01*
X739Y600D02*
X772Y600D01*
X850Y600D02*
X857Y600D01*
X0Y599D02*
X7Y599D01*
X347Y599D02*
X353Y599D01*
X380Y599D02*
X403Y599D01*
X437Y599D02*
X443Y599D01*
X663Y599D02*
X669Y599D01*
X690Y599D02*
X696Y599D01*
X711Y599D02*
X717Y599D01*
X741Y599D02*
X772Y599D01*
X850Y599D02*
X857Y599D01*
X0Y598D02*
X7Y598D01*
X347Y598D02*
X353Y598D01*
X380Y598D02*
X404Y598D01*
X437Y598D02*
X443Y598D01*
X663Y598D02*
X669Y598D01*
X690Y598D02*
X696Y598D01*
X711Y598D02*
X717Y598D01*
X766Y598D02*
X772Y598D01*
X850Y598D02*
X857Y598D01*
X0Y597D02*
X7Y597D01*
X347Y597D02*
X353Y597D01*
X380Y597D02*
X405Y597D01*
X437Y597D02*
X443Y597D01*
X663Y597D02*
X669Y597D01*
X690Y597D02*
X696Y597D01*
X711Y597D02*
X717Y597D01*
X766Y597D02*
X772Y597D01*
X850Y597D02*
X857Y597D01*
X0Y596D02*
X7Y596D01*
X347Y596D02*
X353Y596D01*
X380Y596D02*
X406Y596D01*
X437Y596D02*
X443Y596D01*
X663Y596D02*
X669Y596D01*
X690Y596D02*
X696Y596D01*
X711Y596D02*
X717Y596D01*
X766Y596D02*
X772Y596D01*
X850Y596D02*
X857Y596D01*
X0Y595D02*
X7Y595D01*
X347Y595D02*
X353Y595D01*
X380Y595D02*
X406Y595D01*
X437Y595D02*
X443Y595D01*
X663Y595D02*
X669Y595D01*
X690Y595D02*
X696Y595D01*
X711Y595D02*
X717Y595D01*
X766Y595D02*
X772Y595D01*
X850Y595D02*
X857Y595D01*
X0Y594D02*
X7Y594D01*
X347Y594D02*
X353Y594D01*
X380Y594D02*
X406Y594D01*
X437Y594D02*
X443Y594D01*
X663Y594D02*
X669Y594D01*
X690Y594D02*
X717Y594D01*
X766Y594D02*
X772Y594D01*
X850Y594D02*
X857Y594D01*
X0Y593D02*
X7Y593D01*
X327Y593D02*
X331Y593D01*
X347Y593D02*
X353Y593D01*
X380Y593D02*
X406Y593D01*
X437Y593D02*
X443Y593D01*
X451Y593D02*
X455Y593D01*
X643Y593D02*
X647Y593D01*
X663Y593D02*
X669Y593D01*
X690Y593D02*
X719Y593D01*
X766Y593D02*
X772Y593D01*
X850Y593D02*
X857Y593D01*
X0Y592D02*
X7Y592D01*
X327Y592D02*
X332Y592D01*
X347Y592D02*
X353Y592D01*
X400Y592D02*
X406Y592D01*
X437Y592D02*
X443Y592D01*
X451Y592D02*
X456Y592D01*
X642Y592D02*
X648Y592D01*
X663Y592D02*
X669Y592D01*
X690Y592D02*
X720Y592D01*
X766Y592D02*
X772Y592D01*
X850Y592D02*
X857Y592D01*
X0Y591D02*
X7Y591D01*
X326Y591D02*
X332Y591D01*
X347Y591D02*
X353Y591D01*
X400Y591D02*
X406Y591D01*
X437Y591D02*
X443Y591D01*
X450Y591D02*
X456Y591D01*
X642Y591D02*
X648Y591D01*
X663Y591D02*
X669Y591D01*
X690Y591D02*
X720Y591D01*
X766Y591D02*
X772Y591D01*
X850Y591D02*
X857Y591D01*
X0Y590D02*
X7Y590D01*
X326Y590D02*
X332Y590D01*
X347Y590D02*
X353Y590D01*
X400Y590D02*
X406Y590D01*
X437Y590D02*
X443Y590D01*
X450Y590D02*
X456Y590D01*
X642Y590D02*
X648Y590D01*
X663Y590D02*
X669Y590D01*
X690Y590D02*
X720Y590D01*
X766Y590D02*
X772Y590D01*
X850Y590D02*
X857Y590D01*
X0Y589D02*
X7Y589D01*
X326Y589D02*
X332Y589D01*
X347Y589D02*
X353Y589D01*
X400Y589D02*
X406Y589D01*
X437Y589D02*
X443Y589D01*
X450Y589D02*
X456Y589D01*
X642Y589D02*
X648Y589D01*
X663Y589D02*
X669Y589D01*
X690Y589D02*
X720Y589D01*
X766Y589D02*
X772Y589D01*
X850Y589D02*
X857Y589D01*
X0Y588D02*
X7Y588D01*
X326Y588D02*
X332Y588D01*
X347Y588D02*
X353Y588D01*
X400Y588D02*
X406Y588D01*
X437Y588D02*
X443Y588D01*
X450Y588D02*
X456Y588D01*
X642Y588D02*
X648Y588D01*
X663Y588D02*
X669Y588D01*
X690Y588D02*
X719Y588D01*
X766Y588D02*
X772Y588D01*
X850Y588D02*
X857Y588D01*
X0Y587D02*
X7Y587D01*
X326Y587D02*
X332Y587D01*
X347Y587D02*
X353Y587D01*
X400Y587D02*
X406Y587D01*
X437Y587D02*
X443Y587D01*
X450Y587D02*
X456Y587D01*
X642Y587D02*
X648Y587D01*
X663Y587D02*
X669Y587D01*
X710Y587D02*
X717Y587D01*
X766Y587D02*
X772Y587D01*
X850Y587D02*
X857Y587D01*
X0Y586D02*
X7Y586D01*
X326Y586D02*
X332Y586D01*
X347Y586D02*
X353Y586D01*
X400Y586D02*
X406Y586D01*
X437Y586D02*
X443Y586D01*
X450Y586D02*
X456Y586D01*
X642Y586D02*
X648Y586D01*
X663Y586D02*
X669Y586D01*
X711Y586D02*
X717Y586D01*
X766Y586D02*
X772Y586D01*
X850Y586D02*
X857Y586D01*
X0Y585D02*
X7Y585D01*
X326Y585D02*
X332Y585D01*
X347Y585D02*
X353Y585D01*
X400Y585D02*
X406Y585D01*
X437Y585D02*
X443Y585D01*
X450Y585D02*
X456Y585D01*
X642Y585D02*
X648Y585D01*
X663Y585D02*
X669Y585D01*
X711Y585D02*
X717Y585D01*
X766Y585D02*
X772Y585D01*
X850Y585D02*
X857Y585D01*
X0Y584D02*
X7Y584D01*
X326Y584D02*
X332Y584D01*
X347Y584D02*
X353Y584D01*
X400Y584D02*
X406Y584D01*
X437Y584D02*
X443Y584D01*
X450Y584D02*
X456Y584D01*
X642Y584D02*
X648Y584D01*
X663Y584D02*
X669Y584D01*
X711Y584D02*
X717Y584D01*
X766Y584D02*
X772Y584D01*
X850Y584D02*
X857Y584D01*
X0Y583D02*
X7Y583D01*
X326Y583D02*
X332Y583D01*
X347Y583D02*
X353Y583D01*
X400Y583D02*
X406Y583D01*
X437Y583D02*
X443Y583D01*
X450Y583D02*
X456Y583D01*
X642Y583D02*
X648Y583D01*
X663Y583D02*
X669Y583D01*
X711Y583D02*
X717Y583D01*
X766Y583D02*
X772Y583D01*
X850Y583D02*
X857Y583D01*
X0Y582D02*
X7Y582D01*
X326Y582D02*
X332Y582D01*
X347Y582D02*
X353Y582D01*
X400Y582D02*
X406Y582D01*
X437Y582D02*
X443Y582D01*
X450Y582D02*
X456Y582D01*
X642Y582D02*
X648Y582D01*
X663Y582D02*
X669Y582D01*
X711Y582D02*
X717Y582D01*
X766Y582D02*
X772Y582D01*
X850Y582D02*
X857Y582D01*
X0Y581D02*
X7Y581D01*
X326Y581D02*
X332Y581D01*
X347Y581D02*
X353Y581D01*
X400Y581D02*
X406Y581D01*
X437Y581D02*
X443Y581D01*
X450Y581D02*
X456Y581D01*
X642Y581D02*
X648Y581D01*
X663Y581D02*
X669Y581D01*
X711Y581D02*
X717Y581D01*
X766Y581D02*
X772Y581D01*
X850Y581D02*
X857Y581D01*
X0Y580D02*
X7Y580D01*
X326Y580D02*
X332Y580D01*
X347Y580D02*
X353Y580D01*
X400Y580D02*
X406Y580D01*
X437Y580D02*
X443Y580D01*
X450Y580D02*
X456Y580D01*
X642Y580D02*
X648Y580D01*
X663Y580D02*
X669Y580D01*
X711Y580D02*
X717Y580D01*
X766Y580D02*
X772Y580D01*
X850Y580D02*
X857Y580D01*
X0Y579D02*
X7Y579D01*
X326Y579D02*
X332Y579D01*
X347Y579D02*
X353Y579D01*
X375Y579D02*
X376Y579D01*
X400Y579D02*
X406Y579D01*
X437Y579D02*
X443Y579D01*
X450Y579D02*
X456Y579D01*
X642Y579D02*
X648Y579D01*
X662Y579D02*
X669Y579D01*
X711Y579D02*
X717Y579D01*
X766Y579D02*
X772Y579D01*
X850Y579D02*
X857Y579D01*
X0Y578D02*
X7Y578D01*
X326Y578D02*
X333Y578D01*
X346Y578D02*
X353Y578D01*
X374Y578D02*
X379Y578D01*
X400Y578D02*
X406Y578D01*
X437Y578D02*
X443Y578D01*
X450Y578D02*
X456Y578D01*
X642Y578D02*
X648Y578D01*
X662Y578D02*
X668Y578D01*
X711Y578D02*
X717Y578D01*
X766Y578D02*
X772Y578D01*
X850Y578D02*
X857Y578D01*
X0Y577D02*
X7Y577D01*
X327Y577D02*
X334Y577D01*
X345Y577D02*
X353Y577D01*
X373Y577D02*
X381Y577D01*
X400Y577D02*
X406Y577D01*
X437Y577D02*
X443Y577D01*
X450Y577D02*
X456Y577D01*
X642Y577D02*
X649Y577D01*
X661Y577D02*
X668Y577D01*
X711Y577D02*
X717Y577D01*
X766Y577D02*
X772Y577D01*
X850Y577D02*
X857Y577D01*
X0Y576D02*
X7Y576D01*
X327Y576D02*
X352Y576D01*
X373Y576D02*
X406Y576D01*
X425Y576D02*
X456Y576D01*
X643Y576D02*
X668Y576D01*
X711Y576D02*
X717Y576D01*
X765Y576D02*
X772Y576D01*
X850Y576D02*
X857Y576D01*
X0Y575D02*
X7Y575D01*
X327Y575D02*
X352Y575D01*
X373Y575D02*
X406Y575D01*
X424Y575D02*
X456Y575D01*
X643Y575D02*
X667Y575D01*
X711Y575D02*
X717Y575D01*
X763Y575D02*
X772Y575D01*
X850Y575D02*
X857Y575D01*
X0Y574D02*
X7Y574D01*
X328Y574D02*
X351Y574D01*
X373Y574D02*
X406Y574D01*
X423Y574D02*
X456Y574D01*
X644Y574D02*
X667Y574D01*
X711Y574D02*
X717Y574D01*
X763Y574D02*
X772Y574D01*
X850Y574D02*
X857Y574D01*
X0Y573D02*
X7Y573D01*
X329Y573D02*
X350Y573D01*
X374Y573D02*
X405Y573D01*
X423Y573D02*
X456Y573D01*
X645Y573D02*
X666Y573D01*
X711Y573D02*
X717Y573D01*
X763Y573D02*
X772Y573D01*
X850Y573D02*
X857Y573D01*
X0Y572D02*
X7Y572D01*
X330Y572D02*
X349Y572D01*
X376Y572D02*
X405Y572D01*
X423Y572D02*
X456Y572D01*
X646Y572D02*
X665Y572D01*
X711Y572D02*
X717Y572D01*
X763Y572D02*
X772Y572D01*
X850Y572D02*
X857Y572D01*
X0Y571D02*
X7Y571D01*
X331Y571D02*
X348Y571D01*
X378Y571D02*
X404Y571D01*
X423Y571D02*
X456Y571D01*
X647Y571D02*
X664Y571D01*
X711Y571D02*
X716Y571D01*
X763Y571D02*
X771Y571D01*
X850Y571D02*
X857Y571D01*
X0Y570D02*
X7Y570D01*
X333Y570D02*
X346Y570D01*
X381Y570D02*
X402Y570D01*
X424Y570D02*
X455Y570D01*
X649Y570D02*
X662Y570D01*
X712Y570D02*
X715Y570D01*
X764Y570D02*
X770Y570D01*
X850Y570D02*
X857Y570D01*
X0Y569D02*
X7Y569D01*
X850Y569D02*
X857Y569D01*
X0Y568D02*
X7Y568D01*
X850Y568D02*
X857Y568D01*
X0Y567D02*
X7Y567D01*
X850Y567D02*
X857Y567D01*
X0Y566D02*
X7Y566D01*
X850Y566D02*
X857Y566D01*
X0Y565D02*
X7Y565D01*
X850Y565D02*
X857Y565D01*
X0Y564D02*
X7Y564D01*
X850Y564D02*
X857Y564D01*
X0Y563D02*
X7Y563D01*
X850Y563D02*
X857Y563D01*
X0Y562D02*
X7Y562D01*
X850Y562D02*
X857Y562D01*
X0Y561D02*
X7Y561D01*
X850Y561D02*
X857Y561D01*
X0Y560D02*
X7Y560D01*
X850Y560D02*
X857Y560D01*
X0Y559D02*
X7Y559D01*
X850Y559D02*
X857Y559D01*
X0Y558D02*
X7Y558D01*
X850Y558D02*
X857Y558D01*
X0Y557D02*
X7Y557D01*
X850Y557D02*
X857Y557D01*
X0Y556D02*
X7Y556D01*
X850Y556D02*
X857Y556D01*
X0Y555D02*
X7Y555D01*
X850Y555D02*
X857Y555D01*
X0Y554D02*
X7Y554D01*
X850Y554D02*
X857Y554D01*
X0Y553D02*
X7Y553D01*
X850Y553D02*
X857Y553D01*
X0Y552D02*
X7Y552D01*
X850Y552D02*
X857Y552D01*
X0Y551D02*
X7Y551D01*
X850Y551D02*
X857Y551D01*
X0Y550D02*
X7Y550D01*
X850Y550D02*
X857Y550D01*
X0Y549D02*
X7Y549D01*
X850Y549D02*
X857Y549D01*
X0Y548D02*
X7Y548D01*
X850Y548D02*
X857Y548D01*
X0Y547D02*
X7Y547D01*
X850Y547D02*
X857Y547D01*
X0Y546D02*
X7Y546D01*
X850Y546D02*
X857Y546D01*
X0Y545D02*
X7Y545D01*
X850Y545D02*
X857Y545D01*
X0Y544D02*
X7Y544D01*
X850Y544D02*
X857Y544D01*
X0Y543D02*
X7Y543D01*
X214Y543D02*
X267Y543D01*
X530Y543D02*
X583Y543D01*
X850Y543D02*
X857Y543D01*
X0Y542D02*
X7Y542D01*
X213Y542D02*
X268Y542D01*
X529Y542D02*
X584Y542D01*
X850Y542D02*
X857Y542D01*
X0Y541D02*
X7Y541D01*
X212Y541D02*
X269Y541D01*
X528Y541D02*
X584Y541D01*
X850Y541D02*
X857Y541D01*
X0Y540D02*
X7Y540D01*
X212Y540D02*
X269Y540D01*
X528Y540D02*
X585Y540D01*
X850Y540D02*
X857Y540D01*
X0Y539D02*
X7Y539D01*
X212Y539D02*
X269Y539D01*
X528Y539D02*
X585Y539D01*
X850Y539D02*
X857Y539D01*
X0Y538D02*
X7Y538D01*
X213Y538D02*
X235Y538D01*
X246Y538D02*
X269Y538D01*
X528Y538D02*
X551Y538D01*
X561Y538D02*
X584Y538D01*
X850Y538D02*
X857Y538D01*
X0Y537D02*
X7Y537D01*
X213Y537D02*
X229Y537D01*
X252Y537D02*
X268Y537D01*
X529Y537D02*
X545Y537D01*
X567Y537D02*
X584Y537D01*
X850Y537D02*
X857Y537D01*
X0Y536D02*
X7Y536D01*
X215Y536D02*
X226Y536D01*
X256Y536D02*
X267Y536D01*
X530Y536D02*
X541Y536D01*
X571Y536D02*
X582Y536D01*
X850Y536D02*
X857Y536D01*
X0Y535D02*
X7Y535D01*
X850Y535D02*
X857Y535D01*
X0Y534D02*
X7Y534D01*
X850Y534D02*
X857Y534D01*
X0Y533D02*
X7Y533D01*
X850Y533D02*
X857Y533D01*
X0Y532D02*
X7Y532D01*
X850Y532D02*
X857Y532D01*
X0Y531D02*
X7Y531D01*
X74Y531D02*
X83Y531D01*
X850Y531D02*
X857Y531D01*
X0Y530D02*
X7Y530D01*
X74Y530D02*
X83Y530D01*
X850Y530D02*
X857Y530D01*
X0Y529D02*
X7Y529D01*
X74Y529D02*
X83Y529D01*
X850Y529D02*
X857Y529D01*
X0Y528D02*
X7Y528D01*
X74Y528D02*
X83Y528D01*
X850Y528D02*
X857Y528D01*
X0Y527D02*
X7Y527D01*
X74Y527D02*
X83Y527D01*
X850Y527D02*
X857Y527D01*
X0Y526D02*
X7Y526D01*
X74Y526D02*
X83Y526D01*
X850Y526D02*
X857Y526D01*
X0Y525D02*
X7Y525D01*
X74Y525D02*
X83Y525D01*
X850Y525D02*
X857Y525D01*
X0Y524D02*
X7Y524D01*
X74Y524D02*
X83Y524D01*
X850Y524D02*
X857Y524D01*
X0Y523D02*
X7Y523D01*
X74Y523D02*
X83Y523D01*
X850Y523D02*
X857Y523D01*
X0Y522D02*
X7Y522D01*
X74Y522D02*
X83Y522D01*
X850Y522D02*
X857Y522D01*
X0Y521D02*
X7Y521D01*
X74Y521D02*
X83Y521D01*
X850Y521D02*
X857Y521D01*
X0Y520D02*
X7Y520D01*
X74Y520D02*
X83Y520D01*
X850Y520D02*
X857Y520D01*
X0Y519D02*
X7Y519D01*
X74Y519D02*
X83Y519D01*
X850Y519D02*
X857Y519D01*
X0Y518D02*
X7Y518D01*
X74Y518D02*
X83Y518D01*
X850Y518D02*
X857Y518D01*
X0Y517D02*
X7Y517D01*
X74Y517D02*
X83Y517D01*
X850Y517D02*
X857Y517D01*
X0Y516D02*
X7Y516D01*
X74Y516D02*
X83Y516D01*
X850Y516D02*
X857Y516D01*
X0Y515D02*
X7Y515D01*
X74Y515D02*
X83Y515D01*
X850Y515D02*
X857Y515D01*
X0Y514D02*
X7Y514D01*
X74Y514D02*
X83Y514D01*
X850Y514D02*
X857Y514D01*
X0Y513D02*
X7Y513D01*
X74Y513D02*
X83Y513D01*
X850Y513D02*
X857Y513D01*
X0Y512D02*
X7Y512D01*
X74Y512D02*
X83Y512D01*
X850Y512D02*
X857Y512D01*
X0Y511D02*
X7Y511D01*
X74Y511D02*
X83Y511D01*
X850Y511D02*
X857Y511D01*
X0Y510D02*
X7Y510D01*
X74Y510D02*
X83Y510D01*
X850Y510D02*
X857Y510D01*
X0Y509D02*
X7Y509D01*
X74Y509D02*
X83Y509D01*
X850Y509D02*
X857Y509D01*
X0Y508D02*
X7Y508D01*
X74Y508D02*
X83Y508D01*
X850Y508D02*
X857Y508D01*
X0Y507D02*
X7Y507D01*
X74Y507D02*
X83Y507D01*
X850Y507D02*
X857Y507D01*
X0Y506D02*
X7Y506D01*
X74Y506D02*
X83Y506D01*
X850Y506D02*
X857Y506D01*
X0Y505D02*
X7Y505D01*
X74Y505D02*
X83Y505D01*
X850Y505D02*
X857Y505D01*
X0Y504D02*
X7Y504D01*
X74Y504D02*
X83Y504D01*
X850Y504D02*
X857Y504D01*
X0Y503D02*
X7Y503D01*
X74Y503D02*
X83Y503D01*
X850Y503D02*
X857Y503D01*
X0Y502D02*
X7Y502D01*
X74Y502D02*
X83Y502D01*
X850Y502D02*
X857Y502D01*
X0Y501D02*
X7Y501D01*
X74Y501D02*
X83Y501D01*
X850Y501D02*
X857Y501D01*
X0Y500D02*
X7Y500D01*
X74Y500D02*
X83Y500D01*
X850Y500D02*
X857Y500D01*
X0Y499D02*
X7Y499D01*
X74Y499D02*
X83Y499D01*
X850Y499D02*
X857Y499D01*
X0Y498D02*
X7Y498D01*
X74Y498D02*
X83Y498D01*
X850Y498D02*
X857Y498D01*
X0Y497D02*
X7Y497D01*
X74Y497D02*
X83Y497D01*
X850Y497D02*
X857Y497D01*
X0Y496D02*
X7Y496D01*
X74Y496D02*
X83Y496D01*
X850Y496D02*
X857Y496D01*
X0Y495D02*
X7Y495D01*
X74Y495D02*
X83Y495D01*
X850Y495D02*
X857Y495D01*
X0Y494D02*
X7Y494D01*
X74Y494D02*
X83Y494D01*
X850Y494D02*
X857Y494D01*
X0Y493D02*
X7Y493D01*
X74Y493D02*
X83Y493D01*
X850Y493D02*
X857Y493D01*
X0Y492D02*
X7Y492D01*
X74Y492D02*
X83Y492D01*
X850Y492D02*
X857Y492D01*
X0Y491D02*
X7Y491D01*
X74Y491D02*
X83Y491D01*
X850Y491D02*
X857Y491D01*
X0Y490D02*
X7Y490D01*
X74Y490D02*
X83Y490D01*
X850Y490D02*
X857Y490D01*
X0Y489D02*
X7Y489D01*
X74Y489D02*
X83Y489D01*
X850Y489D02*
X857Y489D01*
X0Y488D02*
X7Y488D01*
X74Y488D02*
X83Y488D01*
X850Y488D02*
X857Y488D01*
X0Y487D02*
X7Y487D01*
X74Y487D02*
X83Y487D01*
X850Y487D02*
X857Y487D01*
X0Y486D02*
X7Y486D01*
X74Y486D02*
X83Y486D01*
X850Y486D02*
X857Y486D01*
X0Y485D02*
X7Y485D01*
X74Y485D02*
X83Y485D01*
X850Y485D02*
X857Y485D01*
X0Y484D02*
X7Y484D01*
X74Y484D02*
X83Y484D01*
X850Y484D02*
X857Y484D01*
X0Y483D02*
X7Y483D01*
X74Y483D02*
X83Y483D01*
X850Y483D02*
X857Y483D01*
X0Y482D02*
X7Y482D01*
X74Y482D02*
X83Y482D01*
X850Y482D02*
X857Y482D01*
X0Y481D02*
X7Y481D01*
X74Y481D02*
X83Y481D01*
X850Y481D02*
X857Y481D01*
X0Y480D02*
X7Y480D01*
X74Y480D02*
X83Y480D01*
X850Y480D02*
X857Y480D01*
X0Y479D02*
X7Y479D01*
X74Y479D02*
X83Y479D01*
X850Y479D02*
X857Y479D01*
X0Y478D02*
X7Y478D01*
X74Y478D02*
X83Y478D01*
X850Y478D02*
X857Y478D01*
X0Y477D02*
X7Y477D01*
X74Y477D02*
X83Y477D01*
X850Y477D02*
X857Y477D01*
X0Y476D02*
X7Y476D01*
X74Y476D02*
X83Y476D01*
X850Y476D02*
X857Y476D01*
X0Y475D02*
X7Y475D01*
X74Y475D02*
X83Y475D01*
X850Y475D02*
X857Y475D01*
X0Y474D02*
X7Y474D01*
X74Y474D02*
X83Y474D01*
X850Y474D02*
X857Y474D01*
X0Y473D02*
X7Y473D01*
X74Y473D02*
X83Y473D01*
X850Y473D02*
X857Y473D01*
X0Y472D02*
X7Y472D01*
X74Y472D02*
X83Y472D01*
X850Y472D02*
X857Y472D01*
X0Y471D02*
X7Y471D01*
X74Y471D02*
X83Y471D01*
X850Y471D02*
X857Y471D01*
X0Y470D02*
X7Y470D01*
X74Y470D02*
X83Y470D01*
X850Y470D02*
X857Y470D01*
X0Y469D02*
X7Y469D01*
X74Y469D02*
X83Y469D01*
X850Y469D02*
X857Y469D01*
X0Y468D02*
X7Y468D01*
X74Y468D02*
X83Y468D01*
X850Y468D02*
X857Y468D01*
X0Y467D02*
X7Y467D01*
X74Y467D02*
X83Y467D01*
X850Y467D02*
X857Y467D01*
X0Y466D02*
X7Y466D01*
X74Y466D02*
X83Y466D01*
X850Y466D02*
X857Y466D01*
X0Y465D02*
X7Y465D01*
X74Y465D02*
X83Y465D01*
X850Y465D02*
X857Y465D01*
X0Y464D02*
X7Y464D01*
X850Y464D02*
X857Y464D01*
X0Y463D02*
X7Y463D01*
X850Y463D02*
X857Y463D01*
X0Y462D02*
X7Y462D01*
X850Y462D02*
X857Y462D01*
X0Y461D02*
X7Y461D01*
X850Y461D02*
X857Y461D01*
X0Y460D02*
X7Y460D01*
X850Y460D02*
X857Y460D01*
X0Y459D02*
X7Y459D01*
X850Y459D02*
X857Y459D01*
X0Y458D02*
X7Y458D01*
X850Y458D02*
X857Y458D01*
X0Y457D02*
X7Y457D01*
X619Y457D02*
X619Y457D01*
X850Y457D02*
X857Y457D01*
X0Y456D02*
X7Y456D01*
X618Y456D02*
X619Y456D01*
X850Y456D02*
X857Y456D01*
X0Y455D02*
X7Y455D01*
X616Y455D02*
X619Y455D01*
X850Y455D02*
X857Y455D01*
X0Y454D02*
X7Y454D01*
X615Y454D02*
X619Y454D01*
X850Y454D02*
X857Y454D01*
X0Y453D02*
X7Y453D01*
X613Y453D02*
X619Y453D01*
X850Y453D02*
X857Y453D01*
X0Y452D02*
X7Y452D01*
X613Y452D02*
X619Y452D01*
X850Y452D02*
X857Y452D01*
X0Y451D02*
X7Y451D01*
X613Y451D02*
X619Y451D01*
X850Y451D02*
X857Y451D01*
X0Y450D02*
X7Y450D01*
X613Y450D02*
X619Y450D01*
X850Y450D02*
X857Y450D01*
X0Y449D02*
X7Y449D01*
X509Y449D02*
X509Y449D01*
X613Y449D02*
X619Y449D01*
X850Y449D02*
X857Y449D01*
X0Y448D02*
X7Y448D01*
X509Y448D02*
X514Y448D01*
X613Y448D02*
X619Y448D01*
X850Y448D02*
X857Y448D01*
X0Y447D02*
X7Y447D01*
X490Y447D02*
X493Y447D01*
X509Y447D02*
X515Y447D01*
X585Y447D02*
X591Y447D01*
X613Y447D02*
X619Y447D01*
X850Y447D02*
X857Y447D01*
X0Y446D02*
X7Y446D01*
X489Y446D02*
X494Y446D01*
X509Y446D02*
X515Y446D01*
X585Y446D02*
X591Y446D01*
X613Y446D02*
X619Y446D01*
X850Y446D02*
X857Y446D01*
X0Y445D02*
X7Y445D01*
X489Y445D02*
X494Y445D01*
X509Y445D02*
X515Y445D01*
X585Y445D02*
X591Y445D01*
X613Y445D02*
X619Y445D01*
X850Y445D02*
X857Y445D01*
X0Y444D02*
X7Y444D01*
X489Y444D02*
X495Y444D01*
X509Y444D02*
X515Y444D01*
X585Y444D02*
X591Y444D01*
X613Y444D02*
X619Y444D01*
X850Y444D02*
X857Y444D01*
X0Y443D02*
X7Y443D01*
X214Y443D02*
X227Y443D01*
X254Y443D02*
X267Y443D01*
X489Y443D02*
X495Y443D01*
X509Y443D02*
X515Y443D01*
X530Y443D02*
X543Y443D01*
X570Y443D02*
X583Y443D01*
X585Y443D02*
X591Y443D01*
X613Y443D02*
X619Y443D01*
X850Y443D02*
X857Y443D01*
X0Y442D02*
X7Y442D01*
X213Y442D02*
X231Y442D01*
X250Y442D02*
X268Y442D01*
X489Y442D02*
X495Y442D01*
X509Y442D02*
X515Y442D01*
X529Y442D02*
X547Y442D01*
X566Y442D02*
X591Y442D01*
X613Y442D02*
X619Y442D01*
X850Y442D02*
X857Y442D01*
X0Y441D02*
X7Y441D01*
X212Y441D02*
X269Y441D01*
X489Y441D02*
X495Y441D01*
X509Y441D02*
X515Y441D01*
X528Y441D02*
X591Y441D01*
X613Y441D02*
X619Y441D01*
X850Y441D02*
X857Y441D01*
X0Y440D02*
X7Y440D01*
X212Y440D02*
X269Y440D01*
X489Y440D02*
X495Y440D01*
X509Y440D02*
X515Y440D01*
X528Y440D02*
X591Y440D01*
X613Y440D02*
X619Y440D01*
X850Y440D02*
X857Y440D01*
X0Y439D02*
X7Y439D01*
X212Y439D02*
X269Y439D01*
X489Y439D02*
X495Y439D01*
X509Y439D02*
X515Y439D01*
X528Y439D02*
X591Y439D01*
X613Y439D02*
X619Y439D01*
X850Y439D02*
X857Y439D01*
X0Y438D02*
X7Y438D01*
X213Y438D02*
X269Y438D01*
X489Y438D02*
X495Y438D01*
X509Y438D02*
X515Y438D01*
X528Y438D02*
X591Y438D01*
X613Y438D02*
X619Y438D01*
X850Y438D02*
X857Y438D01*
X0Y437D02*
X7Y437D01*
X213Y437D02*
X268Y437D01*
X489Y437D02*
X495Y437D01*
X509Y437D02*
X515Y437D01*
X529Y437D02*
X591Y437D01*
X613Y437D02*
X619Y437D01*
X850Y437D02*
X857Y437D01*
X0Y436D02*
X7Y436D01*
X215Y436D02*
X266Y436D01*
X489Y436D02*
X495Y436D01*
X509Y436D02*
X515Y436D01*
X530Y436D02*
X582Y436D01*
X585Y436D02*
X591Y436D01*
X613Y436D02*
X619Y436D01*
X850Y436D02*
X857Y436D01*
X0Y435D02*
X7Y435D01*
X489Y435D02*
X495Y435D01*
X509Y435D02*
X515Y435D01*
X563Y435D02*
X569Y435D01*
X585Y435D02*
X591Y435D01*
X613Y435D02*
X619Y435D01*
X850Y435D02*
X857Y435D01*
X0Y434D02*
X7Y434D01*
X489Y434D02*
X495Y434D01*
X509Y434D02*
X515Y434D01*
X563Y434D02*
X569Y434D01*
X585Y434D02*
X591Y434D01*
X613Y434D02*
X619Y434D01*
X850Y434D02*
X857Y434D01*
X0Y433D02*
X7Y433D01*
X489Y433D02*
X495Y433D01*
X509Y433D02*
X515Y433D01*
X563Y433D02*
X569Y433D01*
X585Y433D02*
X591Y433D01*
X613Y433D02*
X619Y433D01*
X850Y433D02*
X857Y433D01*
X0Y432D02*
X7Y432D01*
X489Y432D02*
X495Y432D01*
X509Y432D02*
X515Y432D01*
X536Y432D02*
X540Y432D01*
X563Y432D02*
X569Y432D01*
X585Y432D02*
X591Y432D01*
X613Y432D02*
X619Y432D01*
X850Y432D02*
X857Y432D01*
X0Y431D02*
X7Y431D01*
X489Y431D02*
X496Y431D01*
X508Y431D02*
X515Y431D01*
X536Y431D02*
X543Y431D01*
X563Y431D02*
X569Y431D01*
X585Y431D02*
X591Y431D01*
X613Y431D02*
X619Y431D01*
X850Y431D02*
X857Y431D01*
X0Y430D02*
X7Y430D01*
X489Y430D02*
X498Y430D01*
X506Y430D02*
X515Y430D01*
X535Y430D02*
X545Y430D01*
X562Y430D02*
X569Y430D01*
X585Y430D02*
X591Y430D01*
X612Y430D02*
X619Y430D01*
X850Y430D02*
X857Y430D01*
X0Y429D02*
X7Y429D01*
X490Y429D02*
X514Y429D01*
X535Y429D02*
X569Y429D01*
X585Y429D02*
X619Y429D01*
X850Y429D02*
X857Y429D01*
X0Y428D02*
X7Y428D01*
X490Y428D02*
X514Y428D01*
X535Y428D02*
X568Y428D01*
X585Y428D02*
X618Y428D01*
X850Y428D02*
X857Y428D01*
X0Y427D02*
X7Y427D01*
X491Y427D02*
X513Y427D01*
X536Y427D02*
X568Y427D01*
X586Y427D02*
X618Y427D01*
X850Y427D02*
X857Y427D01*
X0Y426D02*
X7Y426D01*
X492Y426D02*
X512Y426D01*
X537Y426D02*
X567Y426D01*
X586Y426D02*
X617Y426D01*
X850Y426D02*
X857Y426D01*
X0Y425D02*
X7Y425D01*
X493Y425D02*
X511Y425D01*
X540Y425D02*
X567Y425D01*
X587Y425D02*
X616Y425D01*
X850Y425D02*
X857Y425D01*
X0Y424D02*
X7Y424D01*
X494Y424D02*
X509Y424D01*
X542Y424D02*
X565Y424D01*
X588Y424D02*
X615Y424D01*
X850Y424D02*
X857Y424D01*
X0Y423D02*
X7Y423D01*
X498Y423D02*
X506Y423D01*
X546Y423D02*
X563Y423D01*
X591Y423D02*
X613Y423D01*
X850Y423D02*
X857Y423D01*
X0Y422D02*
X7Y422D01*
X850Y422D02*
X857Y422D01*
X0Y421D02*
X7Y421D01*
X850Y421D02*
X857Y421D01*
X0Y420D02*
X7Y420D01*
X850Y420D02*
X857Y420D01*
X0Y419D02*
X7Y419D01*
X850Y419D02*
X857Y419D01*
X0Y418D02*
X7Y418D01*
X850Y418D02*
X857Y418D01*
X0Y417D02*
X7Y417D01*
X850Y417D02*
X857Y417D01*
X0Y416D02*
X7Y416D01*
X850Y416D02*
X857Y416D01*
X0Y415D02*
X7Y415D01*
X850Y415D02*
X857Y415D01*
X0Y414D02*
X7Y414D01*
X850Y414D02*
X857Y414D01*
X0Y413D02*
X7Y413D01*
X850Y413D02*
X857Y413D01*
X0Y412D02*
X7Y412D01*
X850Y412D02*
X857Y412D01*
X0Y411D02*
X7Y411D01*
X850Y411D02*
X857Y411D01*
X0Y410D02*
X7Y410D01*
X850Y410D02*
X857Y410D01*
X0Y409D02*
X7Y409D01*
X850Y409D02*
X857Y409D01*
X0Y408D02*
X7Y408D01*
X850Y408D02*
X857Y408D01*
X0Y407D02*
X7Y407D01*
X850Y407D02*
X857Y407D01*
X0Y406D02*
X7Y406D01*
X850Y406D02*
X857Y406D01*
X0Y405D02*
X7Y405D01*
X850Y405D02*
X857Y405D01*
X0Y404D02*
X7Y404D01*
X850Y404D02*
X857Y404D01*
X0Y403D02*
X7Y403D01*
X850Y403D02*
X857Y403D01*
X0Y402D02*
X7Y402D01*
X850Y402D02*
X857Y402D01*
X0Y401D02*
X7Y401D01*
X850Y401D02*
X857Y401D01*
X0Y400D02*
X7Y400D01*
X850Y400D02*
X857Y400D01*
X0Y399D02*
X7Y399D01*
X850Y399D02*
X857Y399D01*
X0Y398D02*
X7Y398D01*
X850Y398D02*
X857Y398D01*
X0Y397D02*
X7Y397D01*
X377Y397D02*
X428Y397D01*
X850Y397D02*
X857Y397D01*
X0Y396D02*
X7Y396D01*
X376Y396D02*
X430Y396D01*
X850Y396D02*
X857Y396D01*
X0Y395D02*
X7Y395D01*
X375Y395D02*
X431Y395D01*
X850Y395D02*
X857Y395D01*
X0Y394D02*
X7Y394D01*
X375Y394D02*
X431Y394D01*
X850Y394D02*
X857Y394D01*
X0Y393D02*
X7Y393D01*
X374Y393D02*
X431Y393D01*
X850Y393D02*
X857Y393D01*
X0Y392D02*
X7Y392D01*
X375Y392D02*
X431Y392D01*
X850Y392D02*
X857Y392D01*
X0Y391D02*
X7Y391D01*
X375Y391D02*
X394Y391D01*
X412Y391D02*
X431Y391D01*
X850Y391D02*
X857Y391D01*
X0Y390D02*
X7Y390D01*
X376Y390D02*
X389Y390D01*
X416Y390D02*
X430Y390D01*
X850Y390D02*
X857Y390D01*
X0Y389D02*
X7Y389D01*
X850Y389D02*
X857Y389D01*
X0Y388D02*
X7Y388D01*
X850Y388D02*
X857Y388D01*
X0Y387D02*
X7Y387D01*
X850Y387D02*
X857Y387D01*
X0Y386D02*
X7Y386D01*
X850Y386D02*
X857Y386D01*
X0Y385D02*
X7Y385D01*
X850Y385D02*
X857Y385D01*
X0Y384D02*
X7Y384D01*
X850Y384D02*
X857Y384D01*
X0Y383D02*
X7Y383D01*
X850Y383D02*
X857Y383D01*
X0Y382D02*
X7Y382D01*
X850Y382D02*
X857Y382D01*
X0Y381D02*
X7Y381D01*
X850Y381D02*
X857Y381D01*
X0Y380D02*
X7Y380D01*
X850Y380D02*
X857Y380D01*
X0Y379D02*
X7Y379D01*
X850Y379D02*
X857Y379D01*
X0Y378D02*
X7Y378D01*
X850Y378D02*
X857Y378D01*
X0Y377D02*
X7Y377D01*
X850Y377D02*
X857Y377D01*
X0Y376D02*
X7Y376D01*
X850Y376D02*
X857Y376D01*
X0Y375D02*
X7Y375D01*
X850Y375D02*
X857Y375D01*
X0Y374D02*
X7Y374D01*
X850Y374D02*
X857Y374D01*
X0Y373D02*
X7Y373D01*
X850Y373D02*
X857Y373D01*
X0Y372D02*
X7Y372D01*
X850Y372D02*
X857Y372D01*
X0Y371D02*
X7Y371D01*
X850Y371D02*
X857Y371D01*
X0Y370D02*
X7Y370D01*
X850Y370D02*
X857Y370D01*
X0Y369D02*
X7Y369D01*
X850Y369D02*
X857Y369D01*
X0Y368D02*
X7Y368D01*
X850Y368D02*
X857Y368D01*
X0Y367D02*
X7Y367D01*
X850Y367D02*
X857Y367D01*
X0Y366D02*
X7Y366D01*
X850Y366D02*
X857Y366D01*
X0Y365D02*
X7Y365D01*
X850Y365D02*
X857Y365D01*
X0Y364D02*
X7Y364D01*
X850Y364D02*
X857Y364D01*
X0Y363D02*
X7Y363D01*
X850Y363D02*
X857Y363D01*
X0Y362D02*
X7Y362D01*
X850Y362D02*
X857Y362D01*
X0Y361D02*
X7Y361D01*
X850Y361D02*
X857Y361D01*
X0Y360D02*
X7Y360D01*
X850Y360D02*
X857Y360D01*
X0Y359D02*
X7Y359D01*
X850Y359D02*
X857Y359D01*
X0Y358D02*
X7Y358D01*
X850Y358D02*
X857Y358D01*
X0Y357D02*
X7Y357D01*
X850Y357D02*
X857Y357D01*
X0Y356D02*
X7Y356D01*
X850Y356D02*
X857Y356D01*
X0Y355D02*
X7Y355D01*
X850Y355D02*
X857Y355D01*
X0Y354D02*
X7Y354D01*
X850Y354D02*
X857Y354D01*
X0Y353D02*
X7Y353D01*
X850Y353D02*
X857Y353D01*
X0Y352D02*
X7Y352D01*
X850Y352D02*
X857Y352D01*
X0Y351D02*
X7Y351D01*
X850Y351D02*
X857Y351D01*
X0Y350D02*
X7Y350D01*
X850Y350D02*
X857Y350D01*
X0Y349D02*
X7Y349D01*
X850Y349D02*
X857Y349D01*
X0Y348D02*
X7Y348D01*
X850Y348D02*
X857Y348D01*
X0Y347D02*
X7Y347D01*
X850Y347D02*
X857Y347D01*
X0Y346D02*
X7Y346D01*
X850Y346D02*
X857Y346D01*
X0Y345D02*
X7Y345D01*
X850Y345D02*
X857Y345D01*
X0Y344D02*
X7Y344D01*
X850Y344D02*
X857Y344D01*
X0Y343D02*
X7Y343D01*
X850Y343D02*
X857Y343D01*
X0Y342D02*
X7Y342D01*
X850Y342D02*
X857Y342D01*
X0Y341D02*
X7Y341D01*
X850Y341D02*
X857Y341D01*
X0Y340D02*
X7Y340D01*
X850Y340D02*
X857Y340D01*
X0Y339D02*
X7Y339D01*
X850Y339D02*
X857Y339D01*
X0Y338D02*
X7Y338D01*
X850Y338D02*
X857Y338D01*
X0Y337D02*
X7Y337D01*
X850Y337D02*
X857Y337D01*
X0Y336D02*
X7Y336D01*
X850Y336D02*
X857Y336D01*
X0Y335D02*
X7Y335D01*
X850Y335D02*
X857Y335D01*
X0Y334D02*
X7Y334D01*
X850Y334D02*
X857Y334D01*
X0Y333D02*
X7Y333D01*
X850Y333D02*
X857Y333D01*
X0Y332D02*
X7Y332D01*
X850Y332D02*
X857Y332D01*
X0Y331D02*
X7Y331D01*
X850Y331D02*
X857Y331D01*
X0Y330D02*
X7Y330D01*
X850Y330D02*
X857Y330D01*
X0Y329D02*
X7Y329D01*
X850Y329D02*
X857Y329D01*
X0Y328D02*
X7Y328D01*
X850Y328D02*
X857Y328D01*
X0Y327D02*
X7Y327D01*
X850Y327D02*
X857Y327D01*
X0Y326D02*
X7Y326D01*
X850Y326D02*
X857Y326D01*
X0Y325D02*
X7Y325D01*
X850Y325D02*
X857Y325D01*
X0Y324D02*
X7Y324D01*
X850Y324D02*
X857Y324D01*
X0Y323D02*
X7Y323D01*
X782Y323D02*
X784Y323D01*
X809Y323D02*
X812Y323D01*
X850Y323D02*
X857Y323D01*
X0Y322D02*
X7Y322D01*
X781Y322D02*
X785Y322D01*
X808Y322D02*
X813Y322D01*
X850Y322D02*
X857Y322D01*
X0Y321D02*
X7Y321D01*
X780Y321D02*
X786Y321D01*
X808Y321D02*
X813Y321D01*
X850Y321D02*
X857Y321D01*
X0Y320D02*
X7Y320D01*
X780Y320D02*
X786Y320D01*
X808Y320D02*
X814Y320D01*
X850Y320D02*
X857Y320D01*
X0Y319D02*
X7Y319D01*
X780Y319D02*
X786Y319D01*
X808Y319D02*
X814Y319D01*
X850Y319D02*
X857Y319D01*
X0Y318D02*
X7Y318D01*
X780Y318D02*
X786Y318D01*
X808Y318D02*
X814Y318D01*
X850Y318D02*
X857Y318D01*
X0Y317D02*
X7Y317D01*
X780Y317D02*
X786Y317D01*
X808Y317D02*
X814Y317D01*
X830Y317D02*
X833Y317D01*
X850Y317D02*
X857Y317D01*
X0Y316D02*
X7Y316D01*
X780Y316D02*
X786Y316D01*
X808Y316D02*
X814Y316D01*
X829Y316D02*
X834Y316D01*
X850Y316D02*
X857Y316D01*
X0Y315D02*
X7Y315D01*
X780Y315D02*
X786Y315D01*
X808Y315D02*
X814Y315D01*
X828Y315D02*
X834Y315D01*
X850Y315D02*
X857Y315D01*
X0Y314D02*
X7Y314D01*
X780Y314D02*
X786Y314D01*
X808Y314D02*
X814Y314D01*
X828Y314D02*
X834Y314D01*
X850Y314D02*
X857Y314D01*
X0Y313D02*
X7Y313D01*
X780Y313D02*
X786Y313D01*
X808Y313D02*
X814Y313D01*
X828Y313D02*
X834Y313D01*
X850Y313D02*
X857Y313D01*
X0Y312D02*
X7Y312D01*
X780Y312D02*
X786Y312D01*
X808Y312D02*
X814Y312D01*
X828Y312D02*
X834Y312D01*
X850Y312D02*
X857Y312D01*
X0Y311D02*
X7Y311D01*
X780Y311D02*
X786Y311D01*
X808Y311D02*
X814Y311D01*
X828Y311D02*
X834Y311D01*
X850Y311D02*
X857Y311D01*
X0Y310D02*
X7Y310D01*
X780Y310D02*
X786Y310D01*
X808Y310D02*
X814Y310D01*
X828Y310D02*
X834Y310D01*
X850Y310D02*
X857Y310D01*
X0Y309D02*
X7Y309D01*
X780Y309D02*
X786Y309D01*
X808Y309D02*
X814Y309D01*
X828Y309D02*
X834Y309D01*
X850Y309D02*
X857Y309D01*
X0Y308D02*
X7Y308D01*
X780Y308D02*
X786Y308D01*
X808Y308D02*
X814Y308D01*
X828Y308D02*
X834Y308D01*
X850Y308D02*
X857Y308D01*
X0Y307D02*
X7Y307D01*
X780Y307D02*
X786Y307D01*
X808Y307D02*
X814Y307D01*
X828Y307D02*
X834Y307D01*
X850Y307D02*
X857Y307D01*
X0Y306D02*
X7Y306D01*
X780Y306D02*
X786Y306D01*
X808Y306D02*
X814Y306D01*
X828Y306D02*
X834Y306D01*
X850Y306D02*
X857Y306D01*
X0Y305D02*
X7Y305D01*
X780Y305D02*
X786Y305D01*
X808Y305D02*
X814Y305D01*
X828Y305D02*
X834Y305D01*
X850Y305D02*
X857Y305D01*
X0Y304D02*
X7Y304D01*
X780Y304D02*
X786Y304D01*
X808Y304D02*
X814Y304D01*
X828Y304D02*
X834Y304D01*
X850Y304D02*
X857Y304D01*
X0Y303D02*
X7Y303D01*
X780Y303D02*
X786Y303D01*
X808Y303D02*
X814Y303D01*
X828Y303D02*
X834Y303D01*
X850Y303D02*
X857Y303D01*
X0Y302D02*
X7Y302D01*
X780Y302D02*
X786Y302D01*
X808Y302D02*
X814Y302D01*
X828Y302D02*
X834Y302D01*
X850Y302D02*
X857Y302D01*
X0Y301D02*
X7Y301D01*
X780Y301D02*
X786Y301D01*
X808Y301D02*
X814Y301D01*
X828Y301D02*
X834Y301D01*
X850Y301D02*
X857Y301D01*
X0Y300D02*
X7Y300D01*
X780Y300D02*
X786Y300D01*
X808Y300D02*
X814Y300D01*
X828Y300D02*
X834Y300D01*
X850Y300D02*
X857Y300D01*
X0Y299D02*
X7Y299D01*
X780Y299D02*
X786Y299D01*
X808Y299D02*
X814Y299D01*
X828Y299D02*
X834Y299D01*
X850Y299D02*
X857Y299D01*
X0Y298D02*
X7Y298D01*
X780Y298D02*
X786Y298D01*
X808Y298D02*
X814Y298D01*
X828Y298D02*
X834Y298D01*
X0Y297D02*
X7Y297D01*
X377Y297D02*
X388Y297D01*
X418Y297D02*
X429Y297D01*
X780Y297D02*
X786Y297D01*
X808Y297D02*
X814Y297D01*
X828Y297D02*
X834Y297D01*
X0Y296D02*
X7Y296D01*
X375Y296D02*
X392Y296D01*
X414Y296D02*
X430Y296D01*
X780Y296D02*
X786Y296D01*
X808Y296D02*
X814Y296D01*
X828Y296D02*
X834Y296D01*
X0Y295D02*
X7Y295D01*
X375Y295D02*
X397Y295D01*
X408Y295D02*
X431Y295D01*
X780Y295D02*
X786Y295D01*
X808Y295D02*
X814Y295D01*
X828Y295D02*
X834Y295D01*
X0Y294D02*
X7Y294D01*
X375Y294D02*
X431Y294D01*
X762Y294D02*
X763Y294D01*
X780Y294D02*
X786Y294D01*
X808Y294D02*
X835Y294D01*
X0Y293D02*
X7Y293D01*
X374Y293D02*
X431Y293D01*
X760Y293D02*
X764Y293D01*
X780Y293D02*
X786Y293D01*
X808Y293D02*
X837Y293D01*
X0Y292D02*
X7Y292D01*
X375Y292D02*
X431Y292D01*
X760Y292D02*
X765Y292D01*
X780Y292D02*
X786Y292D01*
X808Y292D02*
X837Y292D01*
X0Y291D02*
X7Y291D01*
X375Y291D02*
X431Y291D01*
X759Y291D02*
X765Y291D01*
X780Y291D02*
X786Y291D01*
X808Y291D02*
X838Y291D01*
X0Y290D02*
X7Y290D01*
X376Y290D02*
X429Y290D01*
X759Y290D02*
X765Y290D01*
X780Y290D02*
X786Y290D01*
X808Y290D02*
X838Y290D01*
X0Y289D02*
X7Y289D01*
X759Y289D02*
X765Y289D01*
X780Y289D02*
X786Y289D01*
X808Y289D02*
X837Y289D01*
X0Y288D02*
X7Y288D01*
X759Y288D02*
X765Y288D01*
X780Y288D02*
X786Y288D01*
X808Y288D02*
X836Y288D01*
X0Y287D02*
X7Y287D01*
X759Y287D02*
X765Y287D01*
X780Y287D02*
X786Y287D01*
X828Y287D02*
X834Y287D01*
X0Y286D02*
X7Y286D01*
X759Y286D02*
X765Y286D01*
X780Y286D02*
X786Y286D01*
X828Y286D02*
X834Y286D01*
X0Y285D02*
X7Y285D01*
X759Y285D02*
X765Y285D01*
X780Y285D02*
X786Y285D01*
X828Y285D02*
X834Y285D01*
X0Y284D02*
X7Y284D01*
X759Y284D02*
X765Y284D01*
X780Y284D02*
X786Y284D01*
X828Y284D02*
X834Y284D01*
X0Y283D02*
X7Y283D01*
X759Y283D02*
X765Y283D01*
X780Y283D02*
X786Y283D01*
X828Y283D02*
X834Y283D01*
X0Y282D02*
X7Y282D01*
X759Y282D02*
X765Y282D01*
X780Y282D02*
X786Y282D01*
X828Y282D02*
X834Y282D01*
X0Y281D02*
X7Y281D01*
X759Y281D02*
X765Y281D01*
X780Y281D02*
X786Y281D01*
X828Y281D02*
X834Y281D01*
X0Y280D02*
X7Y280D01*
X759Y280D02*
X765Y280D01*
X780Y280D02*
X786Y280D01*
X828Y280D02*
X834Y280D01*
X0Y279D02*
X7Y279D01*
X759Y279D02*
X765Y279D01*
X780Y279D02*
X786Y279D01*
X828Y279D02*
X834Y279D01*
X0Y278D02*
X7Y278D01*
X759Y278D02*
X766Y278D01*
X779Y278D02*
X786Y278D01*
X828Y278D02*
X834Y278D01*
X0Y277D02*
X7Y277D01*
X760Y277D02*
X767Y277D01*
X778Y277D02*
X785Y277D01*
X828Y277D02*
X834Y277D01*
X0Y276D02*
X7Y276D01*
X760Y276D02*
X785Y276D01*
X828Y276D02*
X834Y276D01*
X0Y275D02*
X7Y275D01*
X761Y275D02*
X785Y275D01*
X828Y275D02*
X834Y275D01*
X0Y274D02*
X7Y274D01*
X761Y274D02*
X784Y274D01*
X828Y274D02*
X834Y274D01*
X0Y273D02*
X7Y273D01*
X762Y273D02*
X783Y273D01*
X828Y273D02*
X834Y273D01*
X0Y272D02*
X7Y272D01*
X763Y272D02*
X782Y272D01*
X828Y272D02*
X834Y272D01*
X0Y271D02*
X7Y271D01*
X765Y271D02*
X781Y271D01*
X829Y271D02*
X833Y271D01*
X850Y271D02*
X857Y271D01*
X0Y270D02*
X7Y270D01*
X767Y270D02*
X778Y270D01*
X830Y270D02*
X832Y270D01*
X850Y270D02*
X857Y270D01*
X0Y269D02*
X7Y269D01*
X850Y269D02*
X857Y269D01*
X0Y268D02*
X7Y268D01*
X850Y268D02*
X857Y268D01*
X0Y267D02*
X7Y267D01*
X850Y267D02*
X857Y267D01*
X0Y266D02*
X7Y266D01*
X850Y266D02*
X857Y266D01*
X0Y265D02*
X7Y265D01*
X850Y265D02*
X857Y265D01*
X0Y264D02*
X7Y264D01*
X74Y264D02*
X82Y264D01*
X850Y264D02*
X857Y264D01*
X0Y263D02*
X7Y263D01*
X74Y263D02*
X83Y263D01*
X850Y263D02*
X857Y263D01*
X0Y262D02*
X7Y262D01*
X74Y262D02*
X83Y262D01*
X850Y262D02*
X857Y262D01*
X0Y261D02*
X7Y261D01*
X74Y261D02*
X83Y261D01*
X850Y261D02*
X857Y261D01*
X0Y260D02*
X7Y260D01*
X74Y260D02*
X83Y260D01*
X850Y260D02*
X857Y260D01*
X0Y259D02*
X7Y259D01*
X74Y259D02*
X83Y259D01*
X850Y259D02*
X857Y259D01*
X0Y258D02*
X7Y258D01*
X74Y258D02*
X83Y258D01*
X850Y258D02*
X857Y258D01*
X0Y257D02*
X7Y257D01*
X74Y257D02*
X83Y257D01*
X850Y257D02*
X857Y257D01*
X0Y256D02*
X7Y256D01*
X74Y256D02*
X83Y256D01*
X850Y256D02*
X857Y256D01*
X0Y255D02*
X7Y255D01*
X74Y255D02*
X83Y255D01*
X850Y255D02*
X857Y255D01*
X0Y254D02*
X7Y254D01*
X74Y254D02*
X83Y254D01*
X850Y254D02*
X857Y254D01*
X0Y253D02*
X7Y253D01*
X74Y253D02*
X83Y253D01*
X850Y253D02*
X857Y253D01*
X0Y252D02*
X7Y252D01*
X74Y252D02*
X83Y252D01*
X850Y252D02*
X857Y252D01*
X0Y251D02*
X7Y251D01*
X74Y251D02*
X83Y251D01*
X850Y251D02*
X857Y251D01*
X0Y250D02*
X7Y250D01*
X74Y250D02*
X83Y250D01*
X850Y250D02*
X857Y250D01*
X0Y249D02*
X7Y249D01*
X74Y249D02*
X83Y249D01*
X850Y249D02*
X857Y249D01*
X0Y248D02*
X7Y248D01*
X74Y248D02*
X83Y248D01*
X850Y248D02*
X857Y248D01*
X0Y247D02*
X7Y247D01*
X74Y247D02*
X83Y247D01*
X850Y247D02*
X857Y247D01*
X0Y246D02*
X7Y246D01*
X74Y246D02*
X83Y246D01*
X850Y246D02*
X857Y246D01*
X0Y245D02*
X7Y245D01*
X74Y245D02*
X83Y245D01*
X850Y245D02*
X857Y245D01*
X0Y244D02*
X7Y244D01*
X74Y244D02*
X83Y244D01*
X850Y244D02*
X857Y244D01*
X0Y243D02*
X7Y243D01*
X74Y243D02*
X83Y243D01*
X850Y243D02*
X857Y243D01*
X0Y242D02*
X7Y242D01*
X74Y242D02*
X83Y242D01*
X850Y242D02*
X857Y242D01*
X0Y241D02*
X7Y241D01*
X74Y241D02*
X83Y241D01*
X850Y241D02*
X857Y241D01*
X0Y240D02*
X7Y240D01*
X74Y240D02*
X83Y240D01*
X850Y240D02*
X857Y240D01*
X0Y239D02*
X7Y239D01*
X74Y239D02*
X83Y239D01*
X850Y239D02*
X857Y239D01*
X0Y238D02*
X7Y238D01*
X74Y238D02*
X83Y238D01*
X850Y238D02*
X857Y238D01*
X0Y237D02*
X7Y237D01*
X74Y237D02*
X83Y237D01*
X850Y237D02*
X857Y237D01*
X0Y236D02*
X7Y236D01*
X74Y236D02*
X83Y236D01*
X850Y236D02*
X857Y236D01*
X0Y235D02*
X7Y235D01*
X74Y235D02*
X83Y235D01*
X850Y235D02*
X857Y235D01*
X0Y234D02*
X7Y234D01*
X74Y234D02*
X83Y234D01*
X850Y234D02*
X857Y234D01*
X0Y233D02*
X7Y233D01*
X74Y233D02*
X83Y233D01*
X850Y233D02*
X857Y233D01*
X0Y232D02*
X7Y232D01*
X74Y232D02*
X83Y232D01*
X850Y232D02*
X857Y232D01*
X0Y231D02*
X7Y231D01*
X74Y231D02*
X83Y231D01*
X850Y231D02*
X857Y231D01*
X0Y230D02*
X7Y230D01*
X74Y230D02*
X83Y230D01*
X850Y230D02*
X857Y230D01*
X0Y229D02*
X7Y229D01*
X74Y229D02*
X83Y229D01*
X850Y229D02*
X857Y229D01*
X0Y228D02*
X7Y228D01*
X74Y228D02*
X83Y228D01*
X850Y228D02*
X857Y228D01*
X0Y227D02*
X7Y227D01*
X74Y227D02*
X83Y227D01*
X850Y227D02*
X857Y227D01*
X0Y226D02*
X7Y226D01*
X74Y226D02*
X83Y226D01*
X850Y226D02*
X857Y226D01*
X0Y225D02*
X7Y225D01*
X74Y225D02*
X83Y225D01*
X850Y225D02*
X857Y225D01*
X0Y224D02*
X7Y224D01*
X74Y224D02*
X83Y224D01*
X850Y224D02*
X857Y224D01*
X0Y223D02*
X7Y223D01*
X74Y223D02*
X83Y223D01*
X850Y223D02*
X857Y223D01*
X0Y222D02*
X7Y222D01*
X74Y222D02*
X83Y222D01*
X850Y222D02*
X857Y222D01*
X0Y221D02*
X7Y221D01*
X74Y221D02*
X83Y221D01*
X850Y221D02*
X857Y221D01*
X0Y220D02*
X7Y220D01*
X74Y220D02*
X83Y220D01*
X850Y220D02*
X857Y220D01*
X0Y219D02*
X7Y219D01*
X74Y219D02*
X83Y219D01*
X850Y219D02*
X857Y219D01*
X0Y218D02*
X7Y218D01*
X74Y218D02*
X83Y218D01*
X850Y218D02*
X857Y218D01*
X0Y217D02*
X7Y217D01*
X74Y217D02*
X83Y217D01*
X850Y217D02*
X857Y217D01*
X0Y216D02*
X7Y216D01*
X850Y216D02*
X857Y216D01*
X0Y215D02*
X7Y215D01*
X850Y215D02*
X857Y215D01*
X0Y214D02*
X7Y214D01*
X850Y214D02*
X857Y214D01*
X0Y213D02*
X7Y213D01*
X850Y213D02*
X857Y213D01*
X0Y212D02*
X7Y212D01*
X850Y212D02*
X857Y212D01*
X0Y211D02*
X7Y211D01*
X850Y211D02*
X857Y211D01*
X0Y210D02*
X7Y210D01*
X850Y210D02*
X857Y210D01*
X0Y209D02*
X7Y209D01*
X850Y209D02*
X857Y209D01*
X0Y208D02*
X7Y208D01*
X850Y208D02*
X857Y208D01*
X0Y207D02*
X7Y207D01*
X850Y207D02*
X857Y207D01*
X0Y206D02*
X7Y206D01*
X850Y206D02*
X857Y206D01*
X0Y205D02*
X7Y205D01*
X850Y205D02*
X857Y205D01*
X0Y204D02*
X7Y204D01*
X850Y204D02*
X857Y204D01*
X0Y203D02*
X7Y203D01*
X850Y203D02*
X857Y203D01*
X0Y202D02*
X7Y202D01*
X850Y202D02*
X857Y202D01*
X0Y201D02*
X7Y201D01*
X850Y201D02*
X857Y201D01*
X0Y200D02*
X7Y200D01*
X850Y200D02*
X857Y200D01*
X0Y199D02*
X7Y199D01*
X850Y199D02*
X857Y199D01*
X0Y198D02*
X7Y198D01*
X850Y198D02*
X857Y198D01*
X0Y197D02*
X7Y197D01*
X850Y197D02*
X857Y197D01*
X0Y196D02*
X7Y196D01*
X850Y196D02*
X857Y196D01*
X0Y195D02*
X7Y195D01*
X850Y195D02*
X857Y195D01*
X0Y194D02*
X7Y194D01*
X850Y194D02*
X857Y194D01*
X0Y193D02*
X7Y193D01*
X850Y193D02*
X857Y193D01*
X0Y192D02*
X7Y192D01*
X850Y192D02*
X857Y192D01*
X0Y191D02*
X7Y191D01*
X850Y191D02*
X857Y191D01*
X0Y190D02*
X7Y190D01*
X850Y190D02*
X857Y190D01*
X0Y189D02*
X7Y189D01*
X850Y189D02*
X857Y189D01*
X0Y188D02*
X7Y188D01*
X850Y188D02*
X857Y188D01*
X0Y187D02*
X7Y187D01*
X850Y187D02*
X857Y187D01*
X0Y186D02*
X7Y186D01*
X850Y186D02*
X857Y186D01*
X0Y185D02*
X7Y185D01*
X850Y185D02*
X857Y185D01*
X0Y184D02*
X7Y184D01*
X850Y184D02*
X857Y184D01*
X0Y183D02*
X7Y183D01*
X850Y183D02*
X857Y183D01*
X0Y182D02*
X7Y182D01*
X850Y182D02*
X857Y182D01*
X0Y181D02*
X7Y181D01*
X850Y181D02*
X857Y181D01*
X0Y180D02*
X7Y180D01*
X850Y180D02*
X857Y180D01*
X0Y179D02*
X7Y179D01*
X850Y179D02*
X857Y179D01*
X0Y178D02*
X7Y178D01*
X850Y178D02*
X857Y178D01*
X0Y177D02*
X7Y177D01*
X850Y177D02*
X857Y177D01*
X0Y176D02*
X7Y176D01*
X850Y176D02*
X857Y176D01*
X0Y175D02*
X7Y175D01*
X850Y175D02*
X857Y175D01*
X0Y174D02*
X7Y174D01*
X850Y174D02*
X857Y174D01*
X0Y173D02*
X7Y173D01*
X850Y173D02*
X857Y173D01*
X0Y172D02*
X7Y172D01*
X850Y172D02*
X857Y172D01*
X0Y171D02*
X7Y171D01*
X850Y171D02*
X857Y171D01*
X0Y170D02*
X7Y170D01*
X850Y170D02*
X857Y170D01*
X0Y169D02*
X7Y169D01*
X850Y169D02*
X857Y169D01*
X0Y168D02*
X7Y168D01*
X850Y168D02*
X857Y168D01*
X0Y167D02*
X7Y167D01*
X850Y167D02*
X857Y167D01*
X0Y166D02*
X7Y166D01*
X850Y166D02*
X857Y166D01*
X0Y165D02*
X7Y165D01*
X850Y165D02*
X857Y165D01*
X0Y164D02*
X7Y164D01*
X850Y164D02*
X857Y164D01*
X0Y163D02*
X7Y163D01*
X850Y163D02*
X857Y163D01*
X0Y162D02*
X7Y162D01*
X850Y162D02*
X857Y162D01*
X0Y161D02*
X7Y161D01*
X850Y161D02*
X857Y161D01*
X0Y160D02*
X7Y160D01*
X850Y160D02*
X857Y160D01*
X0Y159D02*
X7Y159D01*
X850Y159D02*
X857Y159D01*
X0Y158D02*
X7Y158D01*
X850Y158D02*
X857Y158D01*
X0Y157D02*
X7Y157D01*
X850Y157D02*
X857Y157D01*
X0Y156D02*
X7Y156D01*
X850Y156D02*
X857Y156D01*
X0Y155D02*
X7Y155D01*
X850Y155D02*
X857Y155D01*
X0Y154D02*
X7Y154D01*
X850Y154D02*
X857Y154D01*
X0Y153D02*
X7Y153D01*
X850Y153D02*
X857Y153D01*
X0Y152D02*
X7Y152D01*
X850Y152D02*
X857Y152D01*
X0Y151D02*
X7Y151D01*
X850Y151D02*
X857Y151D01*
X0Y150D02*
X7Y150D01*
X850Y150D02*
X857Y150D01*
X0Y149D02*
X7Y149D01*
X850Y149D02*
X857Y149D01*
X0Y148D02*
X7Y148D01*
X850Y148D02*
X857Y148D01*
X0Y147D02*
X7Y147D01*
X850Y147D02*
X857Y147D01*
X0Y146D02*
X7Y146D01*
X850Y146D02*
X857Y146D01*
X0Y145D02*
X7Y145D01*
X850Y145D02*
X857Y145D01*
X0Y144D02*
X7Y144D01*
X850Y144D02*
X857Y144D01*
X0Y143D02*
X7Y143D01*
X850Y143D02*
X857Y143D01*
X0Y142D02*
X7Y142D01*
X850Y142D02*
X857Y142D01*
X0Y141D02*
X7Y141D01*
X850Y141D02*
X857Y141D01*
X0Y140D02*
X7Y140D01*
X850Y140D02*
X857Y140D01*
X0Y139D02*
X7Y139D01*
X850Y139D02*
X857Y139D01*
X0Y138D02*
X7Y138D01*
X850Y138D02*
X857Y138D01*
X0Y137D02*
X7Y137D01*
X850Y137D02*
X857Y137D01*
X0Y136D02*
X7Y136D01*
X850Y136D02*
X857Y136D01*
X0Y135D02*
X7Y135D01*
X850Y135D02*
X857Y135D01*
X0Y134D02*
X7Y134D01*
X850Y134D02*
X857Y134D01*
X0Y133D02*
X7Y133D01*
X850Y133D02*
X857Y133D01*
X0Y132D02*
X7Y132D01*
X850Y132D02*
X857Y132D01*
X0Y131D02*
X7Y131D01*
X850Y131D02*
X857Y131D01*
X0Y130D02*
X7Y130D01*
X850Y130D02*
X857Y130D01*
X0Y129D02*
X7Y129D01*
X850Y129D02*
X857Y129D01*
X0Y128D02*
X7Y128D01*
X149Y128D02*
X200Y128D01*
X850Y128D02*
X857Y128D01*
X0Y127D02*
X7Y127D01*
X148Y127D02*
X200Y127D01*
X850Y127D02*
X857Y127D01*
X0Y126D02*
X7Y126D01*
X147Y126D02*
X200Y126D01*
X850Y126D02*
X857Y126D01*
X0Y125D02*
X7Y125D01*
X147Y125D02*
X200Y125D01*
X794Y125D02*
X794Y125D01*
X850Y125D02*
X857Y125D01*
X0Y124D02*
X7Y124D01*
X147Y124D02*
X200Y124D01*
X793Y124D02*
X795Y124D01*
X850Y124D02*
X857Y124D01*
X0Y123D02*
X7Y123D01*
X148Y123D02*
X200Y123D01*
X792Y123D02*
X796Y123D01*
X850Y123D02*
X857Y123D01*
X0Y122D02*
X7Y122D01*
X149Y122D02*
X200Y122D01*
X792Y122D02*
X797Y122D01*
X850Y122D02*
X857Y122D01*
X0Y121D02*
X7Y121D01*
X177Y121D02*
X183Y121D01*
X194Y121D02*
X200Y121D01*
X792Y121D02*
X798Y121D01*
X850Y121D02*
X857Y121D01*
X0Y120D02*
X7Y120D01*
X177Y120D02*
X183Y120D01*
X194Y120D02*
X200Y120D01*
X793Y120D02*
X799Y120D01*
X850Y120D02*
X857Y120D01*
X0Y119D02*
X7Y119D01*
X177Y119D02*
X183Y119D01*
X194Y119D02*
X200Y119D01*
X794Y119D02*
X800Y119D01*
X850Y119D02*
X857Y119D01*
X0Y118D02*
X7Y118D01*
X177Y118D02*
X183Y118D01*
X194Y118D02*
X200Y118D01*
X795Y118D02*
X801Y118D01*
X850Y118D02*
X857Y118D01*
X0Y117D02*
X7Y117D01*
X177Y117D02*
X183Y117D01*
X194Y117D02*
X200Y117D01*
X796Y117D02*
X802Y117D01*
X850Y117D02*
X857Y117D01*
X0Y116D02*
X7Y116D01*
X175Y116D02*
X183Y116D01*
X194Y116D02*
X200Y116D01*
X797Y116D02*
X803Y116D01*
X850Y116D02*
X857Y116D01*
X0Y115D02*
X7Y115D01*
X174Y115D02*
X183Y115D01*
X194Y115D02*
X200Y115D01*
X798Y115D02*
X804Y115D01*
X850Y115D02*
X857Y115D01*
X0Y114D02*
X7Y114D01*
X172Y114D02*
X183Y114D01*
X194Y114D02*
X200Y114D01*
X799Y114D02*
X805Y114D01*
X850Y114D02*
X857Y114D01*
X0Y113D02*
X7Y113D01*
X170Y113D02*
X183Y113D01*
X194Y113D02*
X200Y113D01*
X800Y113D02*
X806Y113D01*
X850Y113D02*
X857Y113D01*
X0Y112D02*
X7Y112D01*
X168Y112D02*
X183Y112D01*
X194Y112D02*
X200Y112D01*
X801Y112D02*
X807Y112D01*
X850Y112D02*
X857Y112D01*
X0Y111D02*
X7Y111D01*
X167Y111D02*
X183Y111D01*
X194Y111D02*
X200Y111D01*
X802Y111D02*
X808Y111D01*
X850Y111D02*
X857Y111D01*
X0Y110D02*
X7Y110D01*
X165Y110D02*
X183Y110D01*
X194Y110D02*
X200Y110D01*
X803Y110D02*
X809Y110D01*
X850Y110D02*
X857Y110D01*
X0Y109D02*
X7Y109D01*
X163Y109D02*
X183Y109D01*
X194Y109D02*
X200Y109D01*
X804Y109D02*
X810Y109D01*
X850Y109D02*
X857Y109D01*
X0Y108D02*
X7Y108D01*
X162Y108D02*
X175Y108D01*
X177Y108D02*
X183Y108D01*
X194Y108D02*
X200Y108D01*
X806Y108D02*
X811Y108D01*
X850Y108D02*
X857Y108D01*
X0Y107D02*
X7Y107D01*
X160Y107D02*
X173Y107D01*
X177Y107D02*
X183Y107D01*
X194Y107D02*
X200Y107D01*
X807Y107D02*
X812Y107D01*
X850Y107D02*
X857Y107D01*
X0Y106D02*
X7Y106D01*
X158Y106D02*
X171Y106D01*
X177Y106D02*
X183Y106D01*
X194Y106D02*
X200Y106D01*
X808Y106D02*
X813Y106D01*
X850Y106D02*
X857Y106D01*
X0Y105D02*
X7Y105D01*
X156Y105D02*
X169Y105D01*
X177Y105D02*
X183Y105D01*
X194Y105D02*
X200Y105D01*
X809Y105D02*
X814Y105D01*
X850Y105D02*
X857Y105D01*
X0Y104D02*
X7Y104D01*
X155Y104D02*
X168Y104D01*
X177Y104D02*
X183Y104D01*
X194Y104D02*
X200Y104D01*
X810Y104D02*
X815Y104D01*
X850Y104D02*
X857Y104D01*
X0Y103D02*
X7Y103D01*
X153Y103D02*
X166Y103D01*
X177Y103D02*
X183Y103D01*
X194Y103D02*
X200Y103D01*
X811Y103D02*
X816Y103D01*
X850Y103D02*
X857Y103D01*
X0Y102D02*
X7Y102D01*
X151Y102D02*
X164Y102D01*
X177Y102D02*
X184Y102D01*
X193Y102D02*
X200Y102D01*
X812Y102D02*
X817Y102D01*
X850Y102D02*
X857Y102D01*
X0Y101D02*
X7Y101D01*
X150Y101D02*
X163Y101D01*
X177Y101D02*
X200Y101D01*
X813Y101D02*
X818Y101D01*
X850Y101D02*
X857Y101D01*
X0Y100D02*
X7Y100D01*
X148Y100D02*
X161Y100D01*
X178Y100D02*
X199Y100D01*
X813Y100D02*
X819Y100D01*
X850Y100D02*
X857Y100D01*
X0Y99D02*
X7Y99D01*
X148Y99D02*
X159Y99D01*
X178Y99D02*
X199Y99D01*
X814Y99D02*
X820Y99D01*
X850Y99D02*
X857Y99D01*
X0Y98D02*
X7Y98D01*
X147Y98D02*
X157Y98D01*
X179Y98D02*
X198Y98D01*
X815Y98D02*
X821Y98D01*
X850Y98D02*
X857Y98D01*
X0Y97D02*
X7Y97D01*
X147Y97D02*
X156Y97D01*
X180Y97D02*
X197Y97D01*
X816Y97D02*
X822Y97D01*
X850Y97D02*
X857Y97D01*
X0Y96D02*
X7Y96D01*
X148Y96D02*
X154Y96D01*
X181Y96D02*
X196Y96D01*
X817Y96D02*
X823Y96D01*
X850Y96D02*
X857Y96D01*
X0Y95D02*
X7Y95D01*
X148Y95D02*
X152Y95D01*
X183Y95D02*
X194Y95D01*
X818Y95D02*
X824Y95D01*
X850Y95D02*
X857Y95D01*
X0Y94D02*
X7Y94D01*
X819Y94D02*
X825Y94D01*
X850Y94D02*
X857Y94D01*
X0Y93D02*
X7Y93D01*
X820Y93D02*
X826Y93D01*
X850Y93D02*
X857Y93D01*
X0Y92D02*
X7Y92D01*
X821Y92D02*
X827Y92D01*
X850Y92D02*
X857Y92D01*
X0Y91D02*
X7Y91D01*
X822Y91D02*
X828Y91D01*
X850Y91D02*
X857Y91D01*
X0Y90D02*
X7Y90D01*
X823Y90D02*
X828Y90D01*
X850Y90D02*
X857Y90D01*
X0Y89D02*
X7Y89D01*
X824Y89D02*
X827Y89D01*
X850Y89D02*
X857Y89D01*
X0Y88D02*
X7Y88D01*
X825Y88D02*
X826Y88D01*
X850Y88D02*
X857Y88D01*
X0Y87D02*
X7Y87D01*
X850Y87D02*
X857Y87D01*
X0Y86D02*
X7Y86D01*
X850Y86D02*
X857Y86D01*
X0Y85D02*
X7Y85D01*
X850Y85D02*
X857Y85D01*
X0Y84D02*
X7Y84D01*
X850Y84D02*
X857Y84D01*
X0Y83D02*
X7Y83D01*
X850Y83D02*
X857Y83D01*
X0Y82D02*
X7Y82D01*
X850Y82D02*
X857Y82D01*
X0Y81D02*
X7Y81D01*
X850Y81D02*
X857Y81D01*
X0Y80D02*
X7Y80D01*
X850Y80D02*
X857Y80D01*
X0Y79D02*
X7Y79D01*
X850Y79D02*
X857Y79D01*
X0Y78D02*
X7Y78D01*
X147Y78D02*
X173Y78D01*
X196Y78D02*
X199Y78D01*
X850Y78D02*
X857Y78D01*
X0Y77D02*
X7Y77D01*
X147Y77D02*
X174Y77D01*
X195Y77D02*
X200Y77D01*
X850Y77D02*
X857Y77D01*
X0Y76D02*
X7Y76D01*
X147Y76D02*
X175Y76D01*
X194Y76D02*
X200Y76D01*
X850Y76D02*
X857Y76D01*
X0Y75D02*
X7Y75D01*
X147Y75D02*
X176Y75D01*
X194Y75D02*
X200Y75D01*
X850Y75D02*
X857Y75D01*
X0Y74D02*
X7Y74D01*
X147Y74D02*
X176Y74D01*
X194Y74D02*
X200Y74D01*
X850Y74D02*
X857Y74D01*
X0Y73D02*
X7Y73D01*
X147Y73D02*
X177Y73D01*
X194Y73D02*
X200Y73D01*
X850Y73D02*
X857Y73D01*
X0Y72D02*
X7Y72D01*
X147Y72D02*
X177Y72D01*
X194Y72D02*
X200Y72D01*
X850Y72D02*
X857Y72D01*
X0Y71D02*
X7Y71D01*
X147Y71D02*
X153Y71D01*
X171Y71D02*
X177Y71D01*
X194Y71D02*
X200Y71D01*
X850Y71D02*
X857Y71D01*
X0Y70D02*
X7Y70D01*
X147Y70D02*
X153Y70D01*
X171Y70D02*
X177Y70D01*
X194Y70D02*
X200Y70D01*
X850Y70D02*
X857Y70D01*
X0Y69D02*
X7Y69D01*
X147Y69D02*
X153Y69D01*
X171Y69D02*
X177Y69D01*
X194Y69D02*
X200Y69D01*
X850Y69D02*
X857Y69D01*
X0Y68D02*
X7Y68D01*
X147Y68D02*
X153Y68D01*
X171Y68D02*
X177Y68D01*
X194Y68D02*
X200Y68D01*
X850Y68D02*
X857Y68D01*
X0Y67D02*
X7Y67D01*
X147Y67D02*
X153Y67D01*
X171Y67D02*
X177Y67D01*
X194Y67D02*
X200Y67D01*
X850Y67D02*
X857Y67D01*
X0Y66D02*
X7Y66D01*
X147Y66D02*
X153Y66D01*
X171Y66D02*
X177Y66D01*
X194Y66D02*
X200Y66D01*
X850Y66D02*
X857Y66D01*
X0Y65D02*
X7Y65D01*
X147Y65D02*
X153Y65D01*
X171Y65D02*
X177Y65D01*
X194Y65D02*
X200Y65D01*
X850Y65D02*
X857Y65D01*
X0Y64D02*
X7Y64D01*
X147Y64D02*
X153Y64D01*
X171Y64D02*
X177Y64D01*
X194Y64D02*
X200Y64D01*
X850Y64D02*
X857Y64D01*
X0Y63D02*
X7Y63D01*
X147Y63D02*
X153Y63D01*
X171Y63D02*
X177Y63D01*
X194Y63D02*
X200Y63D01*
X850Y63D02*
X857Y63D01*
X0Y62D02*
X7Y62D01*
X147Y62D02*
X153Y62D01*
X171Y62D02*
X177Y62D01*
X194Y62D02*
X200Y62D01*
X850Y62D02*
X857Y62D01*
X0Y61D02*
X7Y61D01*
X147Y61D02*
X153Y61D01*
X171Y61D02*
X177Y61D01*
X194Y61D02*
X200Y61D01*
X850Y61D02*
X857Y61D01*
X0Y60D02*
X7Y60D01*
X147Y60D02*
X153Y60D01*
X171Y60D02*
X177Y60D01*
X194Y60D02*
X200Y60D01*
X850Y60D02*
X857Y60D01*
X0Y59D02*
X7Y59D01*
X147Y59D02*
X153Y59D01*
X171Y59D02*
X177Y59D01*
X194Y59D02*
X200Y59D01*
X850Y59D02*
X857Y59D01*
X0Y58D02*
X7Y58D01*
X147Y58D02*
X153Y58D01*
X171Y58D02*
X177Y58D01*
X194Y58D02*
X200Y58D01*
X850Y58D02*
X857Y58D01*
X0Y57D02*
X7Y57D01*
X147Y57D02*
X153Y57D01*
X171Y57D02*
X177Y57D01*
X194Y57D02*
X200Y57D01*
X850Y57D02*
X857Y57D01*
X0Y56D02*
X7Y56D01*
X147Y56D02*
X153Y56D01*
X171Y56D02*
X177Y56D01*
X194Y56D02*
X200Y56D01*
X850Y56D02*
X857Y56D01*
X0Y55D02*
X7Y55D01*
X147Y55D02*
X153Y55D01*
X171Y55D02*
X177Y55D01*
X194Y55D02*
X200Y55D01*
X850Y55D02*
X857Y55D01*
X0Y54D02*
X7Y54D01*
X147Y54D02*
X153Y54D01*
X171Y54D02*
X177Y54D01*
X194Y54D02*
X200Y54D01*
X850Y54D02*
X857Y54D01*
X0Y53D02*
X7Y53D01*
X147Y53D02*
X153Y53D01*
X171Y53D02*
X177Y53D01*
X194Y53D02*
X200Y53D01*
X850Y53D02*
X857Y53D01*
X0Y52D02*
X7Y52D01*
X147Y52D02*
X153Y52D01*
X171Y52D02*
X177Y52D01*
X194Y52D02*
X200Y52D01*
X850Y52D02*
X857Y52D01*
X0Y51D02*
X7Y51D01*
X147Y51D02*
X153Y51D01*
X171Y51D02*
X200Y51D01*
X850Y51D02*
X857Y51D01*
X0Y50D02*
X7Y50D01*
X147Y50D02*
X153Y50D01*
X171Y50D02*
X200Y50D01*
X850Y50D02*
X857Y50D01*
X0Y49D02*
X7Y49D01*
X147Y49D02*
X153Y49D01*
X171Y49D02*
X200Y49D01*
X850Y49D02*
X857Y49D01*
X0Y48D02*
X7Y48D01*
X147Y48D02*
X153Y48D01*
X172Y48D02*
X200Y48D01*
X850Y48D02*
X857Y48D01*
X0Y47D02*
X7Y47D01*
X147Y47D02*
X153Y47D01*
X172Y47D02*
X199Y47D01*
X850Y47D02*
X857Y47D01*
X0Y46D02*
X7Y46D01*
X148Y46D02*
X153Y46D01*
X173Y46D02*
X198Y46D01*
X850Y46D02*
X857Y46D01*
X0Y45D02*
X7Y45D01*
X148Y45D02*
X152Y45D01*
X174Y45D02*
X197Y45D01*
X850Y45D02*
X857Y45D01*
X0Y44D02*
X7Y44D01*
X850Y44D02*
X857Y44D01*
X0Y43D02*
X7Y43D01*
X850Y43D02*
X857Y43D01*
X0Y42D02*
X7Y42D01*
X850Y42D02*
X857Y42D01*
X0Y41D02*
X7Y41D01*
X850Y41D02*
X857Y41D01*
X0Y40D02*
X7Y40D01*
X850Y40D02*
X857Y40D01*
X0Y39D02*
X7Y39D01*
X850Y39D02*
X857Y39D01*
X0Y38D02*
X7Y38D01*
X850Y38D02*
X857Y38D01*
X0Y37D02*
X7Y37D01*
X850Y37D02*
X857Y37D01*
X0Y36D02*
X7Y36D01*
X850Y36D02*
X857Y36D01*
X0Y35D02*
X7Y35D01*
X850Y35D02*
X857Y35D01*
X0Y34D02*
X7Y34D01*
X850Y34D02*
X857Y34D01*
X0Y33D02*
X7Y33D01*
X850Y33D02*
X857Y33D01*
X0Y32D02*
X7Y32D01*
X850Y32D02*
X857Y32D01*
X0Y31D02*
X7Y31D01*
X850Y31D02*
X857Y31D01*
X0Y30D02*
X7Y30D01*
X850Y30D02*
X857Y30D01*
X0Y29D02*
X7Y29D01*
X850Y29D02*
X857Y29D01*
X0Y28D02*
X7Y28D01*
X850Y28D02*
X857Y28D01*
X0Y27D02*
X7Y27D01*
X850Y27D02*
X857Y27D01*
X0Y26D02*
X7Y26D01*
X850Y26D02*
X857Y26D01*
X0Y25D02*
X7Y25D01*
X850Y25D02*
X857Y25D01*
X0Y24D02*
X7Y24D01*
X850Y24D02*
X857Y24D01*
X0Y23D02*
X7Y23D01*
X850Y23D02*
X857Y23D01*
X0Y22D02*
X7Y22D01*
X850Y22D02*
X857Y22D01*
X0Y21D02*
X7Y21D01*
X850Y21D02*
X857Y21D01*
X0Y20D02*
X7Y20D01*
X850Y20D02*
X857Y20D01*
X0Y19D02*
X7Y19D01*
X850Y19D02*
X857Y19D01*
X0Y18D02*
X7Y18D01*
X850Y18D02*
X857Y18D01*
X0Y17D02*
X7Y17D01*
X850Y17D02*
X857Y17D01*
X0Y16D02*
X7Y16D01*
X850Y16D02*
X857Y16D01*
X0Y15D02*
X7Y15D01*
X850Y15D02*
X857Y15D01*
X0Y14D02*
X7Y14D01*
X850Y14D02*
X857Y14D01*
X0Y13D02*
X7Y13D01*
X850Y13D02*
X857Y13D01*
X0Y12D02*
X7Y12D01*
X850Y12D02*
X857Y12D01*
X0Y11D02*
X7Y11D01*
X850Y11D02*
X857Y11D01*
X0Y10D02*
X7Y10D01*
X850Y10D02*
X857Y10D01*
X0Y9D02*
X7Y9D01*
X850Y9D02*
X857Y9D01*
X0Y8D02*
X857Y8D01*
X0Y7D02*
X857Y7D01*
X0Y6D02*
X857Y6D01*
X0Y5D02*
X857Y5D01*
X0Y4D02*
X857Y4D01*
X0Y3D02*
X857Y3D01*
X0Y2D02*
X857Y2D01*
X0Y1D02*
X857Y1D01*
D02*
G04 End of Silk1*
M02*