; NON-PLATED HOLES START AT T1
; THROUGH (PLATED) HOLES START AT T100
M48
INCH
T100C0.035000
T101C0.043307
T102C0.039370
T103C0.090551
T104C0.118110
T105C0.038000
T106C0.034028
T107C0.034000
%
T100
X045101Y040718
X054101Y017718
X015101Y038718
X043101Y040718
X018101Y037718
X045101Y044718
X037101Y040718
X051101Y018718
X041101Y040718
X022101Y040718
X015101Y039718
X053101Y018718
X037101Y037718
X052101Y018718
X041101Y037718
X022101Y037718
X034101Y040718
X011063Y041714
X050101Y017718
X034101Y039718
X034101Y038718
X018101Y040718
X015101Y040718
X007063Y041714
X043101Y044718
T101
X034101Y051910
X043101Y037718
X057101Y025718
X079101Y004718
X065101Y023718
X026756Y048718
X060101Y044718
X053101Y029718
X079101Y006718
X068101Y025718
X061101Y044718
X047101Y008718
X020101Y048718
X034101Y052910
X057101Y006718
X072293Y009373
X047101Y028718
X056101Y028718
X040101Y041718
X078101Y043718
X038101Y052718
X024101Y037718
X007100Y042718
X068101Y016718
X026756Y052910
X038101Y053718
X031101Y049718
X003101Y002718
X064101Y002718
X050101Y006718
X072293Y016718
X079101Y041718
X001101Y003718
X033101Y035718
X068101Y009373
X004101Y046718
X024101Y039718
X014101Y035718
X026756Y047718
X020101Y051718
X034101Y048718
X058101Y024718
X034101Y047718
X073293Y009373
X003101Y006718
X069101Y009373
X005100Y043718
X069101Y047718
X005100Y041718
X003101Y004718
X035101Y035718
X066101Y023718
X016101Y035718
X048101Y048718
X026756Y051910
X069101Y025718
X069101Y016718
X073293Y016718
X070101Y047718
X026101Y044718
X031101Y050718
T102
X006101Y036718
X007101Y035718
X079101Y051718
X079101Y049718
X006101Y035718
X007101Y036718
X079101Y052718
X079101Y050718
T103
X080101Y048536
X080101Y053718
T104
X061101Y021122
X074505Y002914
X015101Y003804
X007101Y053718
X061101Y002718
X074505Y021122
X034101Y003804
X015101Y022718
X004101Y010718
X075101Y053718
X079101Y010718
X034101Y022718
T105
X043101Y048718
X055101Y003718
X071101Y023718
X050101Y036718
X017101Y050718
X056101Y003718
X050101Y039718
X005101Y038718
X062031Y035718
X049101Y034718
X050101Y003718
X049101Y038718
X073730Y027718
X009101Y038718
X064101Y003718
X050101Y032718
X062101Y046718
X065101Y003718
X049101Y035718
X045101Y047718
X061031Y036718
X064101Y027718
X050101Y033718
X043101Y047718
X047101Y003718
X006101Y045718
X017101Y048718
X068101Y027718
X065101Y027718
X049101Y031718
X073101Y046718
X049101Y039718
X049101Y028718
X049101Y003718
X010101Y038718
X050101Y038718
X050101Y028718
X050101Y027718
X050101Y029718
X049101Y036718
X067101Y046718
X003101Y038718
X050101Y043718
X049101Y033718
X050101Y034718
X079730Y027718
X009101Y045718
X045101Y048718
X055101Y027718
X070101Y046718
X072101Y046718
X067101Y003718
X062031Y037718
X049101Y029718
X050101Y041718
X070730Y027718
X049101Y027718
X050101Y035718
X008101Y045718
X078730Y027718
X049101Y041718
X049101Y043718
X056101Y046718
X063101Y046718
X068101Y003718
X074730Y027718
X050101Y044718
X004101Y038718
X055101Y046718
X068101Y023718
X060101Y046718
X067101Y027718
X007101Y038718
X075730Y027718
X053101Y046718
X049101Y040718
X069101Y027718
X050101Y030718
X056101Y027718
X061031Y037718
X071101Y046718
X069101Y046718
X050101Y037718
X057101Y027718
X074101Y046718
X048101Y003718
X050101Y040718
X067101Y023718
X017101Y051718
X079101Y046718
X078101Y046718
X070101Y023718
X049101Y042718
X066101Y046718
X058101Y046718
X054101Y003718
X077730Y027718
X075101Y046718
X049101Y032718
X069101Y023718
X003101Y045718
X007101Y045718
X058101Y027718
X061031Y035718
X017101Y049718
X005101Y045718
X054101Y046718
X064101Y046718
X006101Y038718
X061101Y046718
X049101Y044718
X050101Y042718
X052101Y046718
X053101Y027718
X054101Y027718
X057101Y046718
X051101Y046718
X072730Y027718
X065101Y046718
X008101Y038718
X004101Y045718
X050101Y031718
X057101Y003718
X071730Y027718
X049101Y037718
X076730Y027718
X010101Y045718
X066101Y003718
X049101Y030718
X062031Y036718
X076101Y046718
X066101Y027718
T106
X037101Y039718
X040101Y039718
X018101Y039718
X021101Y039718
T107
X037111Y038718
X018111Y038718
X021101Y038718
X040101Y038718
T00
M30
