G04 MADE WITH FRITZING*
G04 WWW.FRITZING.ORG*
G04 DOUBLE SIDED*
G04 HOLES PLATED*
G04 CONTOUR ON CENTER OF CONTOUR VECTOR*
%ASAXBY*%
%FSLAX23Y23*%
%MOIN*%
%OFA0B0*%
%SFA1.0B1.0*%
%ADD10C,0.088000*%
%ADD11C,0.093307*%
%ADD12C,0.179291*%
%ADD13C,0.089370*%
%ADD14C,0.168110*%
%ADD15C,0.085000*%
%ADD16C,0.085667*%
%ADD17C,0.085695*%
%ADD18R,0.085667X0.085667*%
%LNMASK1*%
G90*
G70*
G54D10*
X6810Y372D03*
X6710Y372D03*
X6610Y372D03*
X6510Y372D03*
X6410Y372D03*
X5710Y372D03*
X5610Y372D03*
X5510Y372D03*
X5410Y372D03*
G54D11*
X6910Y2572D03*
X4810Y4872D03*
X3110Y5072D03*
X3110Y4972D03*
X2010Y5172D03*
X2010Y4872D03*
X4710Y872D03*
X3810Y5372D03*
X4710Y2872D03*
X6810Y2572D03*
X3810Y5272D03*
G54D12*
X8010Y5372D03*
G54D11*
X7010Y4772D03*
X6910Y4772D03*
X5310Y2972D03*
X5810Y2472D03*
X5610Y2872D03*
X5710Y2572D03*
X6510Y2372D03*
X6410Y272D03*
X5710Y672D03*
X310Y272D03*
X110Y372D03*
X5010Y672D03*
G54D12*
X8010Y4854D03*
G54D13*
X7910Y4972D03*
X7910Y5072D03*
X7910Y5172D03*
X7910Y5272D03*
G54D11*
X7910Y672D03*
X7910Y472D03*
X310Y672D03*
X310Y472D03*
X6910Y937D03*
X6810Y937D03*
X2676Y5191D03*
X2676Y5291D03*
X7329Y937D03*
X7229Y937D03*
X2676Y4772D03*
X2676Y4872D03*
X6910Y1672D03*
X6810Y1672D03*
X3410Y5191D03*
X3410Y5291D03*
X7329Y1672D03*
X7229Y1672D03*
X3410Y4772D03*
X3410Y4872D03*
G54D10*
X5010Y372D03*
X4910Y372D03*
X4810Y372D03*
X4710Y372D03*
X1710Y5172D03*
X1710Y5072D03*
X1710Y4972D03*
X1710Y4872D03*
X310Y3872D03*
X410Y3872D03*
X510Y3872D03*
X610Y3872D03*
X710Y3872D03*
X810Y3872D03*
X910Y3872D03*
X1010Y3872D03*
X310Y4572D03*
X410Y4572D03*
X510Y4572D03*
X610Y4572D03*
X710Y4572D03*
X810Y4572D03*
X910Y4572D03*
X1010Y4572D03*
X5810Y2772D03*
X5710Y2772D03*
X5610Y2772D03*
X5510Y2772D03*
X5410Y2772D03*
X5310Y2772D03*
X6910Y2772D03*
X6810Y2772D03*
X6710Y2772D03*
X6610Y2772D03*
X6510Y2772D03*
X6410Y2772D03*
X7973Y2772D03*
X7873Y2772D03*
X7773Y2772D03*
X7673Y2772D03*
X7573Y2772D03*
X7473Y2772D03*
X7373Y2772D03*
X7273Y2772D03*
X7173Y2772D03*
X7073Y2772D03*
X5810Y4672D03*
X5710Y4672D03*
X5610Y4672D03*
X5510Y4672D03*
X5410Y4672D03*
X5310Y4672D03*
X5210Y4672D03*
X5110Y4672D03*
X6710Y4672D03*
X6610Y4672D03*
X6510Y4672D03*
X6410Y4672D03*
X6310Y4672D03*
X6210Y4672D03*
X6110Y4672D03*
X6010Y4672D03*
X5010Y4472D03*
X5010Y4372D03*
X5010Y4272D03*
X5010Y4172D03*
X5010Y4072D03*
X5010Y3972D03*
X5010Y3872D03*
X5010Y3772D03*
X5010Y3672D03*
X5010Y3572D03*
X5010Y3472D03*
X5010Y3372D03*
X5010Y3272D03*
X5010Y3172D03*
X5010Y3072D03*
X5010Y2972D03*
X5010Y2872D03*
X5010Y2772D03*
X4910Y4472D03*
X4910Y4372D03*
X4910Y4272D03*
X4910Y4172D03*
X4910Y4072D03*
X4910Y3972D03*
X4910Y3872D03*
X4910Y3772D03*
X4910Y3672D03*
X4910Y3572D03*
X4910Y3472D03*
X4910Y3372D03*
X4910Y3272D03*
X4910Y3172D03*
X4910Y3072D03*
X4910Y2972D03*
X4910Y2872D03*
X4910Y2772D03*
X7610Y4672D03*
X7510Y4672D03*
X7410Y4672D03*
X7310Y4672D03*
X7210Y4672D03*
X7110Y4672D03*
X7010Y4672D03*
X6910Y4672D03*
X7910Y4672D03*
X7810Y4672D03*
G54D14*
X6110Y272D03*
X6110Y2112D03*
X7451Y291D03*
G54D10*
X6103Y3772D03*
X6103Y3672D03*
X6103Y3572D03*
X6103Y3772D03*
X6103Y3672D03*
X6103Y3572D03*
X6203Y3572D03*
X6203Y3672D03*
X6203Y3772D03*
G54D14*
X7451Y2112D03*
X3410Y380D03*
X3410Y2272D03*
G54D15*
X4310Y4072D03*
X4310Y4472D03*
X4510Y4072D03*
X4510Y4472D03*
G54D10*
X4310Y4872D03*
X4310Y4772D03*
X4510Y4872D03*
X4510Y4772D03*
G54D11*
X6010Y4472D03*
X7910Y4172D03*
X7810Y4372D03*
X6110Y4472D03*
X510Y4372D03*
X710Y4272D03*
X510Y4172D03*
X6610Y2372D03*
X3510Y3572D03*
X3310Y3572D03*
G54D15*
X5310Y1872D03*
X5210Y1872D03*
X5110Y1872D03*
X3410Y3872D03*
X3410Y3972D03*
X3410Y4072D03*
G54D16*
X4010Y3872D03*
X3711Y3872D03*
G54D17*
X4010Y3972D03*
X3710Y3972D03*
G54D15*
X3710Y4072D03*
X4110Y4072D03*
X3710Y3772D03*
X4110Y3772D03*
X706Y4171D03*
X1106Y4171D03*
G54D14*
X1510Y380D03*
X710Y5372D03*
X7910Y1072D03*
X410Y1072D03*
X7510Y5372D03*
X1510Y2272D03*
G54D11*
X1610Y3572D03*
X1410Y3572D03*
G54D15*
X1510Y3872D03*
X1510Y3972D03*
X1510Y4072D03*
G54D16*
X2110Y3872D03*
X1811Y3872D03*
G54D17*
X2110Y3972D03*
X1810Y3972D03*
G54D15*
X1810Y4072D03*
X2210Y4072D03*
X5010Y1772D03*
X5410Y1772D03*
X1810Y3772D03*
X2210Y3772D03*
G54D11*
X2410Y3972D03*
X410Y4672D03*
X2610Y4472D03*
X4010Y4172D03*
X4310Y3772D03*
X2410Y3772D03*
G54D10*
X6710Y2372D03*
X6810Y2372D03*
X6910Y2372D03*
X7010Y2372D03*
X7110Y2372D03*
G54D13*
X710Y3572D03*
X610Y3572D03*
X710Y3672D03*
X610Y3672D03*
G54D18*
X4010Y3872D03*
X2110Y3872D03*
G04 End of Mask1*
M02*