G04 MADE WITH FRITZING*
G04 WWW.FRITZING.ORG*
G04 DOUBLE SIDED*
G04 HOLES PLATED*
G04 CONTOUR ON CENTER OF CONTOUR VECTOR*
%ASAXBY*%
%FSLAX23Y23*%
%MOIN*%
%OFA0B0*%
%SFA1.0B1.0*%
%ADD10C,0.079370*%
%ADD11C,0.078000*%
%ADD12C,0.083307*%
%ADD13C,0.169291*%
%ADD14C,0.158110*%
%ADD15C,0.075000*%
%ADD16C,0.075667*%
%ADD17C,0.075695*%
%ADD18R,0.075667X0.075667*%
%ADD19C,0.024000*%
%ADD20C,0.048000*%
%LNCOPPER0*%
G90*
G70*
G54D10*
X710Y3572D03*
X610Y3572D03*
X710Y3672D03*
X610Y3672D03*
G54D11*
X6810Y372D03*
X6710Y372D03*
X6610Y372D03*
X6510Y372D03*
X6410Y372D03*
X5710Y372D03*
X5610Y372D03*
X5510Y372D03*
X5410Y372D03*
G54D12*
X6910Y2572D03*
X4810Y4872D03*
X3110Y5072D03*
X3110Y4972D03*
X2010Y5172D03*
X2010Y4872D03*
X4710Y872D03*
X3810Y5372D03*
X4710Y2872D03*
X6810Y2572D03*
X3810Y5272D03*
G54D13*
X8010Y5372D03*
G54D12*
X7010Y4772D03*
X6910Y4772D03*
X5310Y2972D03*
X5810Y2472D03*
X5610Y2872D03*
X5710Y2572D03*
X6510Y2372D03*
X6410Y272D03*
X5710Y672D03*
X310Y272D03*
X110Y372D03*
X5010Y672D03*
G54D13*
X8010Y4854D03*
G54D10*
X7910Y4972D03*
X7910Y5072D03*
X7910Y5172D03*
X7910Y5272D03*
G54D12*
X7910Y672D03*
X7910Y472D03*
X310Y672D03*
X310Y472D03*
X6910Y937D03*
X6810Y937D03*
X2676Y5191D03*
X2676Y5291D03*
X7329Y937D03*
X7229Y937D03*
X2676Y4772D03*
X2676Y4872D03*
X6910Y1672D03*
X6810Y1672D03*
X3410Y5191D03*
X3410Y5291D03*
X7329Y1672D03*
X7229Y1672D03*
X3410Y4772D03*
X3410Y4872D03*
G54D11*
X5010Y372D03*
X4910Y372D03*
X4810Y372D03*
X4710Y372D03*
X1710Y5172D03*
X1710Y5072D03*
X1710Y4972D03*
X1710Y4872D03*
X310Y3872D03*
X410Y3872D03*
X510Y3872D03*
X610Y3872D03*
X710Y3872D03*
X810Y3872D03*
X910Y3872D03*
X1010Y3872D03*
X310Y4572D03*
X410Y4572D03*
X510Y4572D03*
X610Y4572D03*
X710Y4572D03*
X810Y4572D03*
X910Y4572D03*
X1010Y4572D03*
X5810Y2772D03*
X5710Y2772D03*
X5610Y2772D03*
X5510Y2772D03*
X5410Y2772D03*
X5310Y2772D03*
X6910Y2772D03*
X6810Y2772D03*
X6710Y2772D03*
X6610Y2772D03*
X6510Y2772D03*
X6410Y2772D03*
X7973Y2772D03*
X7873Y2772D03*
X7773Y2772D03*
X7673Y2772D03*
X7573Y2772D03*
X7473Y2772D03*
X7373Y2772D03*
X7273Y2772D03*
X7173Y2772D03*
X7073Y2772D03*
X5810Y4672D03*
X5710Y4672D03*
X5610Y4672D03*
X5510Y4672D03*
X5410Y4672D03*
X5310Y4672D03*
X5210Y4672D03*
X5110Y4672D03*
X6710Y4672D03*
X6610Y4672D03*
X6510Y4672D03*
X6410Y4672D03*
X6310Y4672D03*
X6210Y4672D03*
X6110Y4672D03*
X6010Y4672D03*
X5010Y4472D03*
X5010Y4372D03*
X5010Y4272D03*
X5010Y4172D03*
X5010Y4072D03*
X5010Y3972D03*
X5010Y3872D03*
X5010Y3772D03*
X5010Y3672D03*
X5010Y3572D03*
X5010Y3472D03*
X5010Y3372D03*
X5010Y3272D03*
X5010Y3172D03*
X5010Y3072D03*
X5010Y2972D03*
X5010Y2872D03*
X5010Y2772D03*
X4910Y4472D03*
X4910Y4372D03*
X4910Y4272D03*
X4910Y4172D03*
X4910Y4072D03*
X4910Y3972D03*
X4910Y3872D03*
X4910Y3772D03*
X4910Y3672D03*
X4910Y3572D03*
X4910Y3472D03*
X4910Y3372D03*
X4910Y3272D03*
X4910Y3172D03*
X4910Y3072D03*
X4910Y2972D03*
X4910Y2872D03*
X4910Y2772D03*
X7610Y4672D03*
X7510Y4672D03*
X7410Y4672D03*
X7310Y4672D03*
X7210Y4672D03*
X7110Y4672D03*
X7010Y4672D03*
X6910Y4672D03*
X7910Y4672D03*
X7810Y4672D03*
G54D14*
X6110Y272D03*
X6110Y2112D03*
X7451Y291D03*
G54D11*
X6103Y3772D03*
X6103Y3672D03*
X6103Y3572D03*
X6103Y3772D03*
X6103Y3672D03*
X6103Y3572D03*
X6203Y3572D03*
X6203Y3672D03*
X6203Y3772D03*
G54D14*
X7451Y2112D03*
X3410Y380D03*
X3410Y2272D03*
G54D15*
X4310Y4072D03*
X4310Y4472D03*
X4510Y4072D03*
X4510Y4472D03*
G54D11*
X4310Y4872D03*
X4310Y4772D03*
X4510Y4872D03*
X4510Y4772D03*
G54D12*
X6010Y4472D03*
X7910Y4172D03*
X7810Y4372D03*
X6110Y4472D03*
X510Y4372D03*
X710Y4272D03*
X510Y4172D03*
X6610Y2372D03*
X3510Y3572D03*
X3310Y3572D03*
G54D15*
X5310Y1872D03*
X5210Y1872D03*
X5110Y1872D03*
X3410Y3872D03*
X3410Y3972D03*
X3410Y4072D03*
G54D16*
X4010Y3872D03*
X3711Y3872D03*
G54D17*
X4010Y3972D03*
X3710Y3972D03*
G54D15*
X3710Y4072D03*
X4110Y4072D03*
X3710Y3772D03*
X4110Y3772D03*
X706Y4171D03*
X1106Y4171D03*
G54D14*
X1510Y380D03*
X710Y5372D03*
X7910Y1072D03*
X410Y1072D03*
X7510Y5372D03*
X1510Y2272D03*
G54D12*
X1610Y3572D03*
X1410Y3572D03*
G54D15*
X1510Y3872D03*
X1510Y3972D03*
X1510Y4072D03*
G54D16*
X2110Y3872D03*
X1811Y3872D03*
G54D17*
X2110Y3972D03*
X1810Y3972D03*
G54D15*
X1810Y4072D03*
X2210Y4072D03*
X5010Y1772D03*
X5410Y1772D03*
X1810Y3772D03*
X2210Y3772D03*
G54D12*
X2410Y3972D03*
X410Y4672D03*
X2610Y4472D03*
X4010Y4172D03*
X4310Y3772D03*
X2410Y3772D03*
G54D11*
X6710Y2372D03*
X6810Y2372D03*
X6910Y2372D03*
X7010Y2372D03*
X7110Y2372D03*
G54D18*
X4010Y3872D03*
X2110Y3872D03*
G54D19*
X1010Y3671D02*
X741Y3672D01*
D02*
X413Y3671D02*
X579Y3672D01*
D02*
X610Y3599D02*
X610Y3645D01*
D02*
X710Y3599D02*
X710Y3645D01*
G54D20*
D02*
X7810Y4416D02*
X7810Y4631D01*
G54D19*
D02*
X6910Y4739D02*
X6910Y4702D01*
D02*
X7010Y4739D02*
X7010Y4702D01*
D02*
X5710Y2605D02*
X5710Y2742D01*
D02*
X5810Y2505D02*
X5810Y2742D01*
D02*
X5610Y2839D02*
X5610Y2802D01*
D02*
X5106Y4372D02*
X5110Y1900D01*
D02*
X5031Y4450D02*
X5106Y4372D01*
D02*
X5210Y2876D02*
X5287Y2949D01*
D02*
X5210Y2068D02*
X5210Y2876D01*
D02*
X387Y4649D02*
X331Y4593D01*
G54D20*
D02*
X7910Y4631D02*
X7910Y4216D01*
G54D19*
D02*
X906Y3777D02*
X909Y3842D01*
D02*
X1010Y3671D02*
X906Y3777D01*
G54D20*
D02*
X108Y770D02*
X110Y416D01*
D02*
X310Y316D02*
X310Y428D01*
G54D19*
D02*
X6312Y173D02*
X6387Y248D01*
D02*
X5511Y175D02*
X6312Y173D01*
D02*
X4208Y4074D02*
X4110Y3969D01*
D02*
X4110Y3969D02*
X4038Y3971D01*
D02*
X4208Y4172D02*
X4208Y4074D01*
D02*
X5210Y1900D02*
X5210Y2068D01*
D02*
X5408Y1973D02*
X5410Y1800D01*
D02*
X5210Y2068D02*
X5408Y1973D01*
G54D20*
D02*
X4808Y1773D02*
X4970Y1772D01*
D02*
X4711Y1870D02*
X4808Y1773D01*
G54D19*
D02*
X5208Y1773D02*
X5290Y1852D01*
D02*
X5039Y1772D02*
X5208Y1773D01*
D02*
X7212Y3369D02*
X7111Y3274D01*
D02*
X7111Y3274D02*
X6213Y3270D01*
D02*
X7210Y4642D02*
X7212Y3369D01*
D02*
X6213Y3270D02*
X6113Y3169D01*
D02*
X6614Y2568D02*
X6714Y2468D01*
D02*
X6109Y2671D02*
X6213Y2568D01*
D02*
X6714Y2468D02*
X6711Y2402D01*
D02*
X6213Y2568D02*
X6614Y2568D01*
D02*
X6113Y3169D02*
X6109Y2671D01*
D02*
X4510Y4500D02*
X4510Y4742D01*
D02*
X5511Y175D02*
X5597Y345D01*
D02*
X4812Y169D02*
X4897Y345D01*
D02*
X4409Y4173D02*
X4330Y4092D01*
D02*
X4310Y4500D02*
X4310Y4742D01*
D02*
X4280Y4772D02*
X4210Y4772D01*
G54D20*
D02*
X8210Y4874D02*
X8113Y4970D01*
D02*
X8113Y4970D02*
X7952Y4972D01*
D02*
X8210Y3273D02*
X8210Y4874D01*
D02*
X8214Y572D02*
X8210Y3273D01*
D02*
X8111Y469D02*
X8214Y572D01*
D02*
X7954Y471D02*
X8111Y469D01*
D02*
X7510Y473D02*
X7107Y873D01*
D02*
X7866Y472D02*
X7510Y473D01*
D02*
X7908Y2568D02*
X7107Y2568D01*
D02*
X8109Y2368D02*
X7908Y2568D01*
D02*
X7107Y2568D02*
X7007Y2468D01*
D02*
X7007Y2468D02*
X7009Y2413D01*
D02*
X8109Y2368D02*
X8111Y770D01*
D02*
X8112Y3174D02*
X8109Y2368D01*
D02*
X8111Y770D02*
X8008Y674D01*
D02*
X8008Y674D02*
X7954Y673D01*
D02*
X7813Y3272D02*
X8008Y3272D01*
D02*
X8008Y3272D02*
X8112Y3174D01*
D02*
X7709Y4773D02*
X7709Y3369D01*
D02*
X7709Y3369D02*
X7813Y3272D01*
D02*
X7612Y4874D02*
X7709Y4773D01*
G54D19*
D02*
X5089Y4693D02*
X5010Y4772D01*
D02*
X5410Y672D02*
X6511Y2069D01*
D02*
X910Y4542D02*
X910Y3902D01*
D02*
X6511Y2069D02*
X6510Y2339D01*
G54D20*
D02*
X2608Y5173D02*
X2507Y5175D01*
D02*
X2633Y5180D02*
X2608Y5173D01*
D02*
X2507Y5175D02*
X2410Y5369D01*
D02*
X2410Y5369D02*
X1210Y5369D01*
D02*
X1113Y5175D02*
X207Y5175D01*
D02*
X207Y5175D02*
X112Y5072D01*
D02*
X1210Y5369D02*
X1113Y5175D01*
D02*
X112Y5072D02*
X108Y770D01*
G54D19*
D02*
X6614Y2069D02*
X5513Y672D01*
G54D20*
D02*
X211Y673D02*
X266Y672D01*
D02*
X108Y770D02*
X211Y673D01*
G54D19*
D02*
X6610Y2339D02*
X6614Y2069D01*
G54D20*
D02*
X2514Y4868D02*
X2312Y5272D01*
D02*
X1308Y5272D02*
X1208Y5072D01*
D02*
X2312Y5272D02*
X1308Y5272D01*
D02*
X2632Y4871D02*
X2514Y4868D01*
D02*
X310Y5072D02*
X207Y4969D01*
D02*
X207Y4969D02*
X213Y969D01*
D02*
X1208Y5072D02*
X310Y5072D01*
G54D19*
D02*
X5909Y1871D02*
X5909Y1871D01*
D02*
X6114Y4068D02*
X6110Y4439D01*
D02*
X6010Y3868D02*
X6114Y4068D01*
D02*
X6010Y2276D02*
X6010Y3868D01*
D02*
X5912Y2173D02*
X6010Y2276D01*
D02*
X5909Y1871D02*
X5912Y2173D01*
G54D20*
D02*
X213Y969D02*
X410Y772D01*
G54D19*
D02*
X4814Y672D02*
X5909Y1871D01*
G54D20*
D02*
X410Y572D02*
X341Y503D01*
D02*
X410Y772D02*
X410Y572D01*
G54D19*
D02*
X4710Y402D02*
X4711Y672D01*
D02*
X4777Y4872D02*
X4540Y4872D01*
D02*
X6010Y4068D02*
X6010Y4439D01*
D02*
X5906Y3868D02*
X6010Y4068D01*
D02*
X5906Y2372D02*
X5906Y3868D01*
D02*
X5807Y2271D02*
X5906Y2372D01*
D02*
X5807Y1871D02*
X5807Y2271D01*
G54D20*
D02*
X3512Y4869D02*
X3454Y4871D01*
D02*
X3609Y4869D02*
X3512Y4869D01*
D02*
X3791Y5233D02*
X3609Y4869D01*
D02*
X3512Y5173D02*
X3453Y5183D01*
D02*
X3609Y5173D02*
X3512Y5173D01*
D02*
X3766Y5372D02*
X3712Y5372D01*
D02*
X3712Y5372D02*
X3609Y5173D01*
D02*
X4811Y4474D02*
X4869Y4473D01*
D02*
X4713Y4368D02*
X4811Y4474D01*
D02*
X4709Y4272D02*
X4713Y4368D01*
D02*
X4810Y2772D02*
X4869Y2772D01*
D02*
X4741Y2841D02*
X4810Y2772D01*
G54D19*
D02*
X1309Y4972D02*
X1212Y4869D01*
D02*
X1680Y4972D02*
X1309Y4972D01*
D02*
X1212Y4869D02*
X1212Y3971D01*
D02*
X1212Y3971D02*
X1109Y3874D01*
G54D20*
D02*
X310Y4174D02*
X479Y4341D01*
D02*
X310Y3913D02*
X310Y4174D01*
G54D19*
D02*
X487Y4148D02*
X412Y4071D01*
D02*
X412Y4071D02*
X410Y3902D01*
D02*
X687Y4249D02*
X506Y4071D01*
D02*
X506Y4071D02*
X510Y3902D01*
G54D20*
D02*
X4610Y272D02*
X4610Y4172D01*
D02*
X4710Y172D02*
X4610Y272D01*
D02*
X4812Y169D02*
X4710Y172D01*
D02*
X4812Y169D02*
X5511Y175D01*
D02*
X4711Y1870D02*
X4710Y916D01*
D02*
X4714Y2772D02*
X4711Y1870D01*
D02*
X4712Y2828D02*
X4714Y2772D01*
G54D19*
D02*
X3141Y4961D02*
X3379Y4882D01*
D02*
X3141Y5084D02*
X3380Y5179D01*
D02*
X3312Y3771D02*
X3310Y3605D01*
D02*
X3390Y3851D02*
X3312Y3771D01*
D02*
X3511Y3770D02*
X3510Y3605D01*
D02*
X3612Y3873D02*
X3511Y3770D01*
D02*
X3683Y3872D02*
X3612Y3873D01*
D02*
X3736Y3785D02*
X3911Y3873D01*
D02*
X3911Y3873D02*
X3982Y3872D01*
D02*
X3912Y4074D02*
X3735Y3984D01*
D02*
X4081Y4072D02*
X3912Y4074D01*
D02*
X3609Y4074D02*
X3436Y3985D01*
D02*
X3682Y4072D02*
X3609Y4074D01*
D02*
X308Y3770D02*
X310Y3842D01*
D02*
X413Y3671D02*
X308Y3770D01*
G54D20*
D02*
X7708Y5273D02*
X7868Y5272D01*
D02*
X7208Y4873D02*
X7708Y5273D01*
D02*
X7612Y4874D02*
X7208Y4873D01*
G54D19*
D02*
X6910Y2402D02*
X6910Y2539D01*
D02*
X6810Y2402D02*
X6810Y2539D01*
D02*
X5710Y639D02*
X5710Y402D01*
D02*
X5010Y639D02*
X5010Y402D01*
G54D20*
D02*
X6508Y4873D02*
X6812Y4873D01*
D02*
X6313Y5269D02*
X6508Y4873D01*
D02*
X4113Y5270D02*
X6313Y5269D01*
D02*
X6812Y4873D02*
X7208Y4873D01*
G54D19*
D02*
X1977Y5172D02*
X1740Y5172D01*
D02*
X1977Y4872D02*
X1740Y4872D01*
D02*
X1109Y3874D02*
X1040Y3872D01*
D02*
X1412Y3771D02*
X1410Y3605D01*
D02*
X1490Y3851D02*
X1412Y3771D01*
D02*
X1613Y3770D02*
X1611Y3605D01*
D02*
X1712Y3873D02*
X1613Y3770D01*
D02*
X1783Y3872D02*
X1712Y3873D01*
D02*
X1836Y3785D02*
X2011Y3873D01*
D02*
X2011Y3873D02*
X2082Y3872D01*
D02*
X2011Y4071D02*
X1835Y3984D01*
D02*
X2181Y4072D02*
X2011Y4071D01*
D02*
X1712Y4071D02*
X1536Y3984D01*
D02*
X1781Y4071D02*
X1712Y4071D01*
D02*
X2377Y3772D02*
X2239Y3772D01*
D02*
X4277Y3772D02*
X4139Y3772D01*
G54D20*
D02*
X4208Y4172D02*
X4054Y4172D01*
D02*
X4409Y4173D02*
X4208Y4172D01*
D02*
X4610Y4172D02*
X4409Y4173D01*
D02*
X4610Y4172D02*
X4709Y4272D01*
G54D19*
D02*
X4610Y4172D02*
X4530Y4092D01*
G54D20*
D02*
X3912Y4572D02*
X3912Y5070D01*
D02*
X3912Y5070D02*
X4113Y5270D01*
D02*
X3712Y4372D02*
X3912Y4572D01*
D02*
X3512Y4372D02*
X3712Y4372D01*
D02*
X3512Y4372D02*
X1612Y4372D01*
G54D19*
D02*
X1612Y4372D02*
X1519Y4099D01*
D02*
X3512Y4372D02*
X3419Y4099D01*
G54D20*
D02*
X2511Y4572D02*
X2579Y4503D01*
D02*
X2207Y4572D02*
X2511Y4572D01*
D02*
X1813Y4572D02*
X2207Y4572D01*
D02*
X1612Y4572D02*
X1813Y4572D01*
D02*
X1309Y4274D02*
X1612Y4572D01*
D02*
X1309Y3971D02*
X1309Y4274D01*
D02*
X1010Y3671D02*
X1309Y3971D01*
G54D19*
D02*
X4711Y672D02*
X5807Y1871D01*
D02*
X5513Y672D02*
X5510Y402D01*
D02*
X5410Y672D02*
X5410Y402D01*
D02*
X4814Y672D02*
X4810Y402D01*
G54D20*
D02*
X3609Y3370D02*
X1710Y3370D01*
D02*
X3912Y3273D02*
X3809Y3370D01*
D02*
X3809Y3370D02*
X3609Y3370D01*
D02*
X3908Y670D02*
X3912Y3273D01*
D02*
X4512Y74D02*
X3908Y670D01*
D02*
X6815Y74D02*
X4512Y74D01*
D02*
X7213Y473D02*
X6815Y74D01*
D02*
X7510Y473D02*
X7213Y473D01*
G54D19*
D02*
X2377Y3972D02*
X2138Y3972D01*
D02*
X2110Y4972D02*
X2013Y5070D01*
D02*
X2110Y4669D02*
X2110Y4972D01*
D02*
X2207Y4572D02*
X2110Y4669D01*
D02*
X2013Y5070D02*
X1740Y5072D01*
D02*
X3609Y3370D02*
X3525Y3542D01*
D02*
X1710Y3370D02*
X1625Y3542D01*
D02*
X4480Y4872D02*
X4340Y4872D01*
D02*
X4210Y5068D02*
X5810Y5068D01*
D02*
X4114Y4972D02*
X4210Y5068D01*
D02*
X5810Y5068D02*
X5914Y4972D01*
D02*
X5914Y4068D02*
X5810Y3868D01*
D02*
X5810Y3868D02*
X5810Y3268D01*
D02*
X5914Y4972D02*
X5914Y4068D01*
D02*
X5810Y3268D02*
X5506Y2972D01*
D02*
X5506Y2972D02*
X5510Y2802D01*
D02*
X4113Y4869D02*
X4114Y4972D01*
D02*
X4210Y4772D02*
X4113Y4869D01*
D02*
X5010Y4772D02*
X4540Y4772D01*
G54D20*
D02*
X7107Y873D02*
X7110Y2331D01*
G04 End of Copper0*
M02*