G04 MADE WITH FRITZING*
G04 WWW.FRITZING.ORG*
G04 DOUBLE SIDED*
G04 HOLES PLATED*
G04 CONTOUR ON CENTER OF CONTOUR VECTOR*
%ASAXBY*%
%FSLAX23Y23*%
%MOIN*%
%OFA0B0*%
%SFA1.0B1.0*%
%ADD10C,0.010000*%
%ADD11R,0.001000X0.001000*%
%LNSILK1*%
G90*
G70*
G54D10*
X1043Y464D02*
X1043Y264D01*
D02*
X1043Y264D02*
X977Y264D01*
D02*
X977Y264D02*
X977Y464D01*
D02*
X977Y464D02*
X1043Y464D01*
D02*
X843Y464D02*
X843Y264D01*
D02*
X843Y264D02*
X777Y264D01*
D02*
X777Y264D02*
X777Y464D01*
D02*
X777Y464D02*
X843Y464D01*
D02*
X1960Y124D02*
X1560Y124D01*
D02*
X1560Y124D02*
X1560Y24D01*
D02*
X1560Y24D02*
X1960Y24D01*
D02*
X1960Y24D02*
X1960Y124D01*
G54D11*
X0Y636D02*
X1989Y636D01*
X0Y635D02*
X1989Y635D01*
X0Y634D02*
X1989Y634D01*
X0Y633D02*
X1989Y633D01*
X0Y632D02*
X1989Y632D01*
X0Y631D02*
X1989Y631D01*
X0Y630D02*
X1989Y630D01*
X0Y629D02*
X1989Y629D01*
X0Y628D02*
X7Y628D01*
X1982Y628D02*
X1989Y628D01*
X0Y627D02*
X7Y627D01*
X1982Y627D02*
X1989Y627D01*
X0Y626D02*
X7Y626D01*
X1982Y626D02*
X1989Y626D01*
X0Y625D02*
X7Y625D01*
X1982Y625D02*
X1989Y625D01*
X0Y624D02*
X7Y624D01*
X223Y624D02*
X223Y624D01*
X250Y624D02*
X251Y624D01*
X303Y624D02*
X327Y624D01*
X539Y624D02*
X539Y624D01*
X566Y624D02*
X567Y624D01*
X614Y624D02*
X645Y624D01*
X1481Y624D02*
X1482Y624D01*
X1512Y624D02*
X1535Y624D01*
X1557Y624D02*
X1574Y624D01*
X1797Y624D02*
X1798Y624D01*
X1825Y624D02*
X1825Y624D01*
X1873Y624D02*
X1901Y624D01*
X1982Y624D02*
X1989Y624D01*
X0Y623D02*
X7Y623D01*
X221Y623D02*
X225Y623D01*
X249Y623D02*
X253Y623D01*
X303Y623D02*
X328Y623D01*
X537Y623D02*
X541Y623D01*
X564Y623D02*
X568Y623D01*
X613Y623D02*
X645Y623D01*
X1480Y623D02*
X1484Y623D01*
X1511Y623D02*
X1537Y623D01*
X1555Y623D02*
X1574Y623D01*
X1795Y623D02*
X1799Y623D01*
X1823Y623D02*
X1827Y623D01*
X1871Y623D02*
X1903Y623D01*
X1982Y623D02*
X1989Y623D01*
X0Y622D02*
X7Y622D01*
X220Y622D02*
X226Y622D01*
X248Y622D02*
X253Y622D01*
X303Y622D02*
X329Y622D01*
X536Y622D02*
X542Y622D01*
X564Y622D02*
X569Y622D01*
X612Y622D02*
X645Y622D01*
X1479Y622D02*
X1484Y622D01*
X1511Y622D02*
X1538Y622D01*
X1555Y622D02*
X1574Y622D01*
X1795Y622D02*
X1800Y622D01*
X1822Y622D02*
X1828Y622D01*
X1871Y622D02*
X1904Y622D01*
X1982Y622D02*
X1989Y622D01*
X0Y621D02*
X7Y621D01*
X220Y621D02*
X226Y621D01*
X248Y621D02*
X254Y621D01*
X303Y621D02*
X329Y621D01*
X536Y621D02*
X542Y621D01*
X564Y621D02*
X569Y621D01*
X612Y621D02*
X645Y621D01*
X1479Y621D02*
X1485Y621D01*
X1511Y621D02*
X1538Y621D01*
X1555Y621D02*
X1574Y621D01*
X1794Y621D02*
X1800Y621D01*
X1822Y621D02*
X1828Y621D01*
X1870Y621D02*
X1904Y621D01*
X1982Y621D02*
X1989Y621D01*
X0Y620D02*
X7Y620D01*
X220Y620D02*
X226Y620D01*
X248Y620D02*
X254Y620D01*
X303Y620D02*
X329Y620D01*
X536Y620D02*
X542Y620D01*
X563Y620D02*
X569Y620D01*
X612Y620D02*
X645Y620D01*
X1479Y620D02*
X1485Y620D01*
X1511Y620D02*
X1538Y620D01*
X1555Y620D02*
X1574Y620D01*
X1794Y620D02*
X1800Y620D01*
X1822Y620D02*
X1828Y620D01*
X1870Y620D02*
X1904Y620D01*
X1982Y620D02*
X1989Y620D01*
X0Y619D02*
X7Y619D01*
X220Y619D02*
X226Y619D01*
X248Y619D02*
X254Y619D01*
X303Y619D02*
X329Y619D01*
X536Y619D02*
X542Y619D01*
X563Y619D02*
X569Y619D01*
X612Y619D02*
X645Y619D01*
X1479Y619D02*
X1485Y619D01*
X1511Y619D02*
X1538Y619D01*
X1555Y619D02*
X1574Y619D01*
X1794Y619D02*
X1800Y619D01*
X1822Y619D02*
X1828Y619D01*
X1870Y619D02*
X1904Y619D01*
X1982Y619D02*
X1989Y619D01*
X0Y618D02*
X7Y618D01*
X220Y618D02*
X226Y618D01*
X248Y618D02*
X254Y618D01*
X271Y618D02*
X272Y618D01*
X303Y618D02*
X328Y618D01*
X536Y618D02*
X542Y618D01*
X563Y618D02*
X569Y618D01*
X586Y618D02*
X588Y618D01*
X612Y618D02*
X645Y618D01*
X1479Y618D02*
X1485Y618D01*
X1511Y618D02*
X1537Y618D01*
X1556Y618D02*
X1574Y618D01*
X1794Y618D02*
X1800Y618D01*
X1822Y618D02*
X1828Y618D01*
X1845Y618D02*
X1846Y618D01*
X1870Y618D02*
X1904Y618D01*
X1982Y618D02*
X1989Y618D01*
X0Y617D02*
X7Y617D01*
X220Y617D02*
X226Y617D01*
X248Y617D02*
X254Y617D01*
X269Y617D02*
X273Y617D01*
X303Y617D02*
X309Y617D01*
X536Y617D02*
X542Y617D01*
X563Y617D02*
X569Y617D01*
X585Y617D02*
X589Y617D01*
X612Y617D02*
X618Y617D01*
X639Y617D02*
X645Y617D01*
X1479Y617D02*
X1485Y617D01*
X1511Y617D02*
X1518Y617D01*
X1568Y617D02*
X1574Y617D01*
X1794Y617D02*
X1800Y617D01*
X1822Y617D02*
X1828Y617D01*
X1844Y617D02*
X1848Y617D01*
X1870Y617D02*
X1877Y617D01*
X1898Y617D02*
X1904Y617D01*
X1982Y617D02*
X1989Y617D01*
X0Y616D02*
X7Y616D01*
X220Y616D02*
X226Y616D01*
X248Y616D02*
X254Y616D01*
X269Y616D02*
X274Y616D01*
X303Y616D02*
X309Y616D01*
X536Y616D02*
X542Y616D01*
X563Y616D02*
X569Y616D01*
X584Y616D02*
X590Y616D01*
X612Y616D02*
X617Y616D01*
X639Y616D02*
X645Y616D01*
X1479Y616D02*
X1485Y616D01*
X1511Y616D02*
X1517Y616D01*
X1568Y616D02*
X1574Y616D01*
X1794Y616D02*
X1800Y616D01*
X1822Y616D02*
X1828Y616D01*
X1843Y616D02*
X1848Y616D01*
X1870Y616D02*
X1876Y616D01*
X1898Y616D02*
X1904Y616D01*
X1982Y616D02*
X1989Y616D01*
X0Y615D02*
X7Y615D01*
X220Y615D02*
X226Y615D01*
X248Y615D02*
X254Y615D01*
X268Y615D02*
X274Y615D01*
X303Y615D02*
X309Y615D01*
X536Y615D02*
X542Y615D01*
X563Y615D02*
X569Y615D01*
X584Y615D02*
X590Y615D01*
X613Y615D02*
X616Y615D01*
X639Y615D02*
X645Y615D01*
X1479Y615D02*
X1485Y615D01*
X1511Y615D02*
X1517Y615D01*
X1568Y615D02*
X1574Y615D01*
X1794Y615D02*
X1800Y615D01*
X1822Y615D02*
X1828Y615D01*
X1843Y615D02*
X1849Y615D01*
X1870Y615D02*
X1876Y615D01*
X1898Y615D02*
X1904Y615D01*
X1982Y615D02*
X1989Y615D01*
X0Y614D02*
X7Y614D01*
X220Y614D02*
X226Y614D01*
X248Y614D02*
X254Y614D01*
X268Y614D02*
X274Y614D01*
X303Y614D02*
X309Y614D01*
X536Y614D02*
X542Y614D01*
X563Y614D02*
X569Y614D01*
X584Y614D02*
X590Y614D01*
X639Y614D02*
X645Y614D01*
X1479Y614D02*
X1485Y614D01*
X1511Y614D02*
X1517Y614D01*
X1568Y614D02*
X1574Y614D01*
X1794Y614D02*
X1800Y614D01*
X1822Y614D02*
X1828Y614D01*
X1843Y614D02*
X1849Y614D01*
X1870Y614D02*
X1876Y614D01*
X1898Y614D02*
X1904Y614D01*
X1982Y614D02*
X1989Y614D01*
X0Y613D02*
X7Y613D01*
X220Y613D02*
X226Y613D01*
X248Y613D02*
X254Y613D01*
X268Y613D02*
X274Y613D01*
X303Y613D02*
X309Y613D01*
X536Y613D02*
X542Y613D01*
X563Y613D02*
X569Y613D01*
X584Y613D02*
X590Y613D01*
X639Y613D02*
X645Y613D01*
X1479Y613D02*
X1485Y613D01*
X1511Y613D02*
X1517Y613D01*
X1568Y613D02*
X1574Y613D01*
X1794Y613D02*
X1800Y613D01*
X1822Y613D02*
X1828Y613D01*
X1843Y613D02*
X1849Y613D01*
X1870Y613D02*
X1876Y613D01*
X1898Y613D02*
X1904Y613D01*
X1982Y613D02*
X1989Y613D01*
X0Y612D02*
X7Y612D01*
X220Y612D02*
X226Y612D01*
X248Y612D02*
X254Y612D01*
X268Y612D02*
X274Y612D01*
X303Y612D02*
X309Y612D01*
X536Y612D02*
X542Y612D01*
X563Y612D02*
X569Y612D01*
X584Y612D02*
X590Y612D01*
X639Y612D02*
X645Y612D01*
X1479Y612D02*
X1485Y612D01*
X1511Y612D02*
X1517Y612D01*
X1568Y612D02*
X1574Y612D01*
X1794Y612D02*
X1800Y612D01*
X1822Y612D02*
X1828Y612D01*
X1843Y612D02*
X1849Y612D01*
X1870Y612D02*
X1876Y612D01*
X1898Y612D02*
X1904Y612D01*
X1982Y612D02*
X1989Y612D01*
X0Y611D02*
X7Y611D01*
X220Y611D02*
X226Y611D01*
X248Y611D02*
X254Y611D01*
X268Y611D02*
X274Y611D01*
X303Y611D02*
X309Y611D01*
X536Y611D02*
X542Y611D01*
X563Y611D02*
X569Y611D01*
X584Y611D02*
X590Y611D01*
X639Y611D02*
X645Y611D01*
X1479Y611D02*
X1485Y611D01*
X1511Y611D02*
X1517Y611D01*
X1568Y611D02*
X1574Y611D01*
X1794Y611D02*
X1800Y611D01*
X1822Y611D02*
X1828Y611D01*
X1843Y611D02*
X1849Y611D01*
X1870Y611D02*
X1876Y611D01*
X1898Y611D02*
X1904Y611D01*
X1982Y611D02*
X1989Y611D01*
X0Y610D02*
X7Y610D01*
X220Y610D02*
X226Y610D01*
X248Y610D02*
X254Y610D01*
X268Y610D02*
X274Y610D01*
X303Y610D02*
X309Y610D01*
X536Y610D02*
X542Y610D01*
X563Y610D02*
X569Y610D01*
X584Y610D02*
X590Y610D01*
X639Y610D02*
X645Y610D01*
X1479Y610D02*
X1485Y610D01*
X1511Y610D02*
X1517Y610D01*
X1568Y610D02*
X1574Y610D01*
X1794Y610D02*
X1800Y610D01*
X1822Y610D02*
X1828Y610D01*
X1843Y610D02*
X1849Y610D01*
X1870Y610D02*
X1876Y610D01*
X1898Y610D02*
X1904Y610D01*
X1982Y610D02*
X1989Y610D01*
X0Y609D02*
X7Y609D01*
X220Y609D02*
X226Y609D01*
X248Y609D02*
X254Y609D01*
X268Y609D02*
X274Y609D01*
X303Y609D02*
X309Y609D01*
X536Y609D02*
X542Y609D01*
X563Y609D02*
X569Y609D01*
X584Y609D02*
X590Y609D01*
X639Y609D02*
X645Y609D01*
X1479Y609D02*
X1485Y609D01*
X1511Y609D02*
X1517Y609D01*
X1568Y609D02*
X1574Y609D01*
X1794Y609D02*
X1800Y609D01*
X1822Y609D02*
X1828Y609D01*
X1843Y609D02*
X1849Y609D01*
X1870Y609D02*
X1876Y609D01*
X1898Y609D02*
X1904Y609D01*
X1982Y609D02*
X1989Y609D01*
X0Y608D02*
X7Y608D01*
X220Y608D02*
X226Y608D01*
X248Y608D02*
X254Y608D01*
X268Y608D02*
X274Y608D01*
X303Y608D02*
X309Y608D01*
X536Y608D02*
X542Y608D01*
X563Y608D02*
X569Y608D01*
X584Y608D02*
X590Y608D01*
X639Y608D02*
X645Y608D01*
X1479Y608D02*
X1485Y608D01*
X1511Y608D02*
X1517Y608D01*
X1568Y608D02*
X1574Y608D01*
X1794Y608D02*
X1800Y608D01*
X1822Y608D02*
X1828Y608D01*
X1843Y608D02*
X1849Y608D01*
X1870Y608D02*
X1876Y608D01*
X1898Y608D02*
X1904Y608D01*
X1982Y608D02*
X1989Y608D01*
X0Y607D02*
X7Y607D01*
X220Y607D02*
X226Y607D01*
X248Y607D02*
X254Y607D01*
X268Y607D02*
X274Y607D01*
X303Y607D02*
X309Y607D01*
X536Y607D02*
X542Y607D01*
X563Y607D02*
X569Y607D01*
X584Y607D02*
X590Y607D01*
X639Y607D02*
X645Y607D01*
X1479Y607D02*
X1485Y607D01*
X1511Y607D02*
X1517Y607D01*
X1568Y607D02*
X1574Y607D01*
X1794Y607D02*
X1800Y607D01*
X1822Y607D02*
X1828Y607D01*
X1843Y607D02*
X1849Y607D01*
X1870Y607D02*
X1876Y607D01*
X1898Y607D02*
X1904Y607D01*
X1982Y607D02*
X1989Y607D01*
X0Y606D02*
X7Y606D01*
X220Y606D02*
X226Y606D01*
X248Y606D02*
X254Y606D01*
X268Y606D02*
X274Y606D01*
X303Y606D02*
X309Y606D01*
X536Y606D02*
X542Y606D01*
X563Y606D02*
X569Y606D01*
X584Y606D02*
X590Y606D01*
X639Y606D02*
X645Y606D01*
X1479Y606D02*
X1485Y606D01*
X1511Y606D02*
X1517Y606D01*
X1568Y606D02*
X1574Y606D01*
X1794Y606D02*
X1800Y606D01*
X1822Y606D02*
X1828Y606D01*
X1843Y606D02*
X1849Y606D01*
X1870Y606D02*
X1904Y606D01*
X1982Y606D02*
X1989Y606D01*
X0Y605D02*
X7Y605D01*
X220Y605D02*
X226Y605D01*
X248Y605D02*
X254Y605D01*
X268Y605D02*
X274Y605D01*
X303Y605D02*
X309Y605D01*
X536Y605D02*
X542Y605D01*
X563Y605D02*
X569Y605D01*
X584Y605D02*
X590Y605D01*
X639Y605D02*
X645Y605D01*
X1479Y605D02*
X1485Y605D01*
X1511Y605D02*
X1517Y605D01*
X1568Y605D02*
X1574Y605D01*
X1794Y605D02*
X1800Y605D01*
X1822Y605D02*
X1828Y605D01*
X1843Y605D02*
X1849Y605D01*
X1870Y605D02*
X1904Y605D01*
X1982Y605D02*
X1989Y605D01*
X0Y604D02*
X7Y604D01*
X220Y604D02*
X226Y604D01*
X248Y604D02*
X254Y604D01*
X268Y604D02*
X274Y604D01*
X303Y604D02*
X309Y604D01*
X536Y604D02*
X542Y604D01*
X563Y604D02*
X569Y604D01*
X584Y604D02*
X590Y604D01*
X639Y604D02*
X645Y604D01*
X1479Y604D02*
X1485Y604D01*
X1511Y604D02*
X1517Y604D01*
X1568Y604D02*
X1574Y604D01*
X1794Y604D02*
X1800Y604D01*
X1822Y604D02*
X1828Y604D01*
X1843Y604D02*
X1849Y604D01*
X1870Y604D02*
X1904Y604D01*
X1982Y604D02*
X1989Y604D01*
X0Y603D02*
X7Y603D01*
X220Y603D02*
X226Y603D01*
X248Y603D02*
X254Y603D01*
X268Y603D02*
X274Y603D01*
X303Y603D02*
X309Y603D01*
X536Y603D02*
X542Y603D01*
X563Y603D02*
X569Y603D01*
X584Y603D02*
X590Y603D01*
X637Y603D02*
X645Y603D01*
X1479Y603D02*
X1485Y603D01*
X1511Y603D02*
X1517Y603D01*
X1568Y603D02*
X1574Y603D01*
X1794Y603D02*
X1800Y603D01*
X1822Y603D02*
X1828Y603D01*
X1843Y603D02*
X1849Y603D01*
X1870Y603D02*
X1904Y603D01*
X1982Y603D02*
X1989Y603D01*
X0Y602D02*
X7Y602D01*
X220Y602D02*
X226Y602D01*
X248Y602D02*
X254Y602D01*
X268Y602D02*
X274Y602D01*
X303Y602D02*
X309Y602D01*
X536Y602D02*
X542Y602D01*
X563Y602D02*
X569Y602D01*
X584Y602D02*
X590Y602D01*
X636Y602D02*
X645Y602D01*
X1479Y602D02*
X1485Y602D01*
X1511Y602D02*
X1517Y602D01*
X1568Y602D02*
X1574Y602D01*
X1794Y602D02*
X1800Y602D01*
X1822Y602D02*
X1828Y602D01*
X1843Y602D02*
X1849Y602D01*
X1871Y602D02*
X1904Y602D01*
X1982Y602D02*
X1989Y602D01*
X0Y601D02*
X7Y601D01*
X220Y601D02*
X226Y601D01*
X248Y601D02*
X254Y601D01*
X268Y601D02*
X274Y601D01*
X303Y601D02*
X309Y601D01*
X536Y601D02*
X542Y601D01*
X563Y601D02*
X569Y601D01*
X584Y601D02*
X590Y601D01*
X635Y601D02*
X645Y601D01*
X1479Y601D02*
X1485Y601D01*
X1511Y601D02*
X1517Y601D01*
X1568Y601D02*
X1574Y601D01*
X1794Y601D02*
X1800Y601D01*
X1822Y601D02*
X1828Y601D01*
X1843Y601D02*
X1849Y601D01*
X1871Y601D02*
X1904Y601D01*
X1982Y601D02*
X1989Y601D01*
X0Y600D02*
X7Y600D01*
X220Y600D02*
X226Y600D01*
X248Y600D02*
X254Y600D01*
X268Y600D02*
X274Y600D01*
X303Y600D02*
X325Y600D01*
X536Y600D02*
X542Y600D01*
X563Y600D02*
X569Y600D01*
X584Y600D02*
X590Y600D01*
X634Y600D02*
X644Y600D01*
X1479Y600D02*
X1485Y600D01*
X1511Y600D02*
X1534Y600D01*
X1568Y600D02*
X1574Y600D01*
X1794Y600D02*
X1800Y600D01*
X1822Y600D02*
X1828Y600D01*
X1843Y600D02*
X1849Y600D01*
X1872Y600D02*
X1904Y600D01*
X1982Y600D02*
X1989Y600D01*
X0Y599D02*
X7Y599D01*
X220Y599D02*
X226Y599D01*
X248Y599D02*
X254Y599D01*
X268Y599D02*
X274Y599D01*
X303Y599D02*
X327Y599D01*
X536Y599D02*
X542Y599D01*
X563Y599D02*
X569Y599D01*
X584Y599D02*
X590Y599D01*
X633Y599D02*
X643Y599D01*
X1479Y599D02*
X1485Y599D01*
X1511Y599D02*
X1535Y599D01*
X1568Y599D02*
X1574Y599D01*
X1794Y599D02*
X1800Y599D01*
X1822Y599D02*
X1828Y599D01*
X1843Y599D02*
X1849Y599D01*
X1898Y599D02*
X1904Y599D01*
X1982Y599D02*
X1989Y599D01*
X0Y598D02*
X7Y598D01*
X220Y598D02*
X226Y598D01*
X248Y598D02*
X254Y598D01*
X268Y598D02*
X274Y598D01*
X303Y598D02*
X328Y598D01*
X536Y598D02*
X542Y598D01*
X563Y598D02*
X569Y598D01*
X584Y598D02*
X590Y598D01*
X632Y598D02*
X641Y598D01*
X1479Y598D02*
X1485Y598D01*
X1511Y598D02*
X1536Y598D01*
X1568Y598D02*
X1574Y598D01*
X1794Y598D02*
X1800Y598D01*
X1822Y598D02*
X1828Y598D01*
X1843Y598D02*
X1849Y598D01*
X1898Y598D02*
X1904Y598D01*
X1982Y598D02*
X1989Y598D01*
X0Y597D02*
X7Y597D01*
X220Y597D02*
X226Y597D01*
X248Y597D02*
X254Y597D01*
X268Y597D02*
X274Y597D01*
X303Y597D02*
X329Y597D01*
X536Y597D02*
X542Y597D01*
X563Y597D02*
X569Y597D01*
X584Y597D02*
X590Y597D01*
X630Y597D02*
X640Y597D01*
X1479Y597D02*
X1485Y597D01*
X1511Y597D02*
X1537Y597D01*
X1568Y597D02*
X1574Y597D01*
X1794Y597D02*
X1800Y597D01*
X1822Y597D02*
X1828Y597D01*
X1843Y597D02*
X1849Y597D01*
X1898Y597D02*
X1904Y597D01*
X1982Y597D02*
X1989Y597D01*
X0Y596D02*
X7Y596D01*
X220Y596D02*
X226Y596D01*
X248Y596D02*
X254Y596D01*
X268Y596D02*
X274Y596D01*
X303Y596D02*
X329Y596D01*
X536Y596D02*
X542Y596D01*
X563Y596D02*
X569Y596D01*
X584Y596D02*
X590Y596D01*
X629Y596D02*
X639Y596D01*
X1479Y596D02*
X1485Y596D01*
X1511Y596D02*
X1538Y596D01*
X1568Y596D02*
X1574Y596D01*
X1794Y596D02*
X1800Y596D01*
X1822Y596D02*
X1828Y596D01*
X1843Y596D02*
X1849Y596D01*
X1898Y596D02*
X1904Y596D01*
X1982Y596D02*
X1989Y596D01*
X0Y595D02*
X7Y595D01*
X220Y595D02*
X226Y595D01*
X248Y595D02*
X254Y595D01*
X268Y595D02*
X274Y595D01*
X303Y595D02*
X329Y595D01*
X536Y595D02*
X542Y595D01*
X563Y595D02*
X570Y595D01*
X584Y595D02*
X590Y595D01*
X628Y595D02*
X638Y595D01*
X1479Y595D02*
X1485Y595D01*
X1511Y595D02*
X1538Y595D01*
X1568Y595D02*
X1574Y595D01*
X1794Y595D02*
X1800Y595D01*
X1822Y595D02*
X1828Y595D01*
X1843Y595D02*
X1849Y595D01*
X1898Y595D02*
X1904Y595D01*
X1982Y595D02*
X1989Y595D01*
X0Y594D02*
X7Y594D01*
X201Y594D02*
X204Y594D01*
X220Y594D02*
X226Y594D01*
X248Y594D02*
X276Y594D01*
X303Y594D02*
X329Y594D01*
X517Y594D02*
X520Y594D01*
X536Y594D02*
X542Y594D01*
X563Y594D02*
X592Y594D01*
X627Y594D02*
X637Y594D01*
X1459Y594D02*
X1462Y594D01*
X1479Y594D02*
X1485Y594D01*
X1511Y594D02*
X1538Y594D01*
X1568Y594D02*
X1574Y594D01*
X1583Y594D02*
X1587Y594D01*
X1775Y594D02*
X1778Y594D01*
X1794Y594D02*
X1800Y594D01*
X1822Y594D02*
X1851Y594D01*
X1898Y594D02*
X1904Y594D01*
X1982Y594D02*
X1989Y594D01*
X0Y593D02*
X7Y593D01*
X200Y593D02*
X205Y593D01*
X220Y593D02*
X226Y593D01*
X248Y593D02*
X277Y593D01*
X323Y593D02*
X330Y593D01*
X516Y593D02*
X521Y593D01*
X536Y593D02*
X542Y593D01*
X563Y593D02*
X593Y593D01*
X626Y593D02*
X636Y593D01*
X1458Y593D02*
X1463Y593D01*
X1479Y593D02*
X1485Y593D01*
X1532Y593D02*
X1538Y593D01*
X1568Y593D02*
X1574Y593D01*
X1583Y593D02*
X1587Y593D01*
X1774Y593D02*
X1779Y593D01*
X1794Y593D02*
X1800Y593D01*
X1822Y593D02*
X1852Y593D01*
X1898Y593D02*
X1904Y593D01*
X1982Y593D02*
X1989Y593D01*
X0Y592D02*
X7Y592D01*
X199Y592D02*
X205Y592D01*
X220Y592D02*
X226Y592D01*
X248Y592D02*
X278Y592D01*
X323Y592D02*
X330Y592D01*
X515Y592D02*
X521Y592D01*
X536Y592D02*
X542Y592D01*
X563Y592D02*
X593Y592D01*
X626Y592D02*
X634Y592D01*
X1458Y592D02*
X1464Y592D01*
X1479Y592D02*
X1485Y592D01*
X1532Y592D02*
X1538Y592D01*
X1568Y592D02*
X1574Y592D01*
X1582Y592D02*
X1588Y592D01*
X1774Y592D02*
X1780Y592D01*
X1794Y592D02*
X1800Y592D01*
X1822Y592D02*
X1852Y592D01*
X1898Y592D02*
X1904Y592D01*
X1982Y592D02*
X1989Y592D01*
X0Y591D02*
X7Y591D01*
X199Y591D02*
X205Y591D01*
X220Y591D02*
X226Y591D01*
X248Y591D02*
X278Y591D01*
X323Y591D02*
X330Y591D01*
X515Y591D02*
X521Y591D01*
X536Y591D02*
X542Y591D01*
X563Y591D02*
X594Y591D01*
X626Y591D02*
X633Y591D01*
X1458Y591D02*
X1464Y591D01*
X1479Y591D02*
X1485Y591D01*
X1532Y591D02*
X1538Y591D01*
X1568Y591D02*
X1574Y591D01*
X1582Y591D02*
X1588Y591D01*
X1774Y591D02*
X1780Y591D01*
X1794Y591D02*
X1800Y591D01*
X1822Y591D02*
X1852Y591D01*
X1898Y591D02*
X1904Y591D01*
X1982Y591D02*
X1989Y591D01*
X0Y590D02*
X7Y590D01*
X199Y590D02*
X205Y590D01*
X220Y590D02*
X226Y590D01*
X248Y590D02*
X278Y590D01*
X323Y590D02*
X330Y590D01*
X515Y590D02*
X521Y590D01*
X536Y590D02*
X542Y590D01*
X563Y590D02*
X593Y590D01*
X626Y590D02*
X632Y590D01*
X1458Y590D02*
X1464Y590D01*
X1479Y590D02*
X1485Y590D01*
X1532Y590D02*
X1538Y590D01*
X1568Y590D02*
X1574Y590D01*
X1582Y590D02*
X1588Y590D01*
X1774Y590D02*
X1780Y590D01*
X1794Y590D02*
X1800Y590D01*
X1822Y590D02*
X1852Y590D01*
X1898Y590D02*
X1904Y590D01*
X1982Y590D02*
X1989Y590D01*
X0Y589D02*
X7Y589D01*
X199Y589D02*
X205Y589D01*
X220Y589D02*
X226Y589D01*
X248Y589D02*
X277Y589D01*
X323Y589D02*
X330Y589D01*
X515Y589D02*
X521Y589D01*
X536Y589D02*
X542Y589D01*
X563Y589D02*
X593Y589D01*
X626Y589D02*
X632Y589D01*
X1458Y589D02*
X1464Y589D01*
X1479Y589D02*
X1485Y589D01*
X1532Y589D02*
X1538Y589D01*
X1568Y589D02*
X1574Y589D01*
X1582Y589D02*
X1588Y589D01*
X1774Y589D02*
X1780Y589D01*
X1794Y589D02*
X1800Y589D01*
X1822Y589D02*
X1851Y589D01*
X1898Y589D02*
X1904Y589D01*
X1982Y589D02*
X1989Y589D01*
X0Y588D02*
X7Y588D01*
X199Y588D02*
X205Y588D01*
X220Y588D02*
X226Y588D01*
X248Y588D02*
X276Y588D01*
X323Y588D02*
X330Y588D01*
X515Y588D02*
X521Y588D01*
X536Y588D02*
X542Y588D01*
X564Y588D02*
X591Y588D01*
X626Y588D02*
X632Y588D01*
X1458Y588D02*
X1464Y588D01*
X1479Y588D02*
X1485Y588D01*
X1532Y588D02*
X1538Y588D01*
X1568Y588D02*
X1574Y588D01*
X1582Y588D02*
X1588Y588D01*
X1774Y588D02*
X1780Y588D01*
X1794Y588D02*
X1800Y588D01*
X1822Y588D02*
X1850Y588D01*
X1898Y588D02*
X1904Y588D01*
X1982Y588D02*
X1989Y588D01*
X0Y587D02*
X7Y587D01*
X199Y587D02*
X205Y587D01*
X220Y587D02*
X226Y587D01*
X268Y587D02*
X274Y587D01*
X323Y587D02*
X330Y587D01*
X515Y587D02*
X521Y587D01*
X536Y587D02*
X542Y587D01*
X584Y587D02*
X590Y587D01*
X626Y587D02*
X632Y587D01*
X1458Y587D02*
X1464Y587D01*
X1479Y587D02*
X1485Y587D01*
X1532Y587D02*
X1538Y587D01*
X1568Y587D02*
X1574Y587D01*
X1582Y587D02*
X1588Y587D01*
X1774Y587D02*
X1780Y587D01*
X1794Y587D02*
X1800Y587D01*
X1843Y587D02*
X1849Y587D01*
X1898Y587D02*
X1904Y587D01*
X1982Y587D02*
X1989Y587D01*
X0Y586D02*
X7Y586D01*
X199Y586D02*
X205Y586D01*
X220Y586D02*
X226Y586D01*
X268Y586D02*
X274Y586D01*
X323Y586D02*
X330Y586D01*
X515Y586D02*
X521Y586D01*
X536Y586D02*
X542Y586D01*
X584Y586D02*
X590Y586D01*
X626Y586D02*
X632Y586D01*
X1458Y586D02*
X1464Y586D01*
X1479Y586D02*
X1485Y586D01*
X1532Y586D02*
X1538Y586D01*
X1568Y586D02*
X1574Y586D01*
X1582Y586D02*
X1588Y586D01*
X1774Y586D02*
X1780Y586D01*
X1794Y586D02*
X1800Y586D01*
X1843Y586D02*
X1849Y586D01*
X1898Y586D02*
X1904Y586D01*
X1982Y586D02*
X1989Y586D01*
X0Y585D02*
X7Y585D01*
X199Y585D02*
X205Y585D01*
X220Y585D02*
X226Y585D01*
X268Y585D02*
X274Y585D01*
X323Y585D02*
X330Y585D01*
X515Y585D02*
X521Y585D01*
X536Y585D02*
X542Y585D01*
X584Y585D02*
X590Y585D01*
X626Y585D02*
X632Y585D01*
X1458Y585D02*
X1464Y585D01*
X1479Y585D02*
X1485Y585D01*
X1532Y585D02*
X1538Y585D01*
X1568Y585D02*
X1574Y585D01*
X1582Y585D02*
X1588Y585D01*
X1774Y585D02*
X1780Y585D01*
X1794Y585D02*
X1800Y585D01*
X1843Y585D02*
X1849Y585D01*
X1898Y585D02*
X1904Y585D01*
X1982Y585D02*
X1989Y585D01*
X0Y584D02*
X7Y584D01*
X199Y584D02*
X205Y584D01*
X220Y584D02*
X226Y584D01*
X268Y584D02*
X274Y584D01*
X323Y584D02*
X330Y584D01*
X515Y584D02*
X521Y584D01*
X536Y584D02*
X542Y584D01*
X584Y584D02*
X590Y584D01*
X626Y584D02*
X632Y584D01*
X1458Y584D02*
X1464Y584D01*
X1479Y584D02*
X1485Y584D01*
X1532Y584D02*
X1538Y584D01*
X1568Y584D02*
X1574Y584D01*
X1582Y584D02*
X1588Y584D01*
X1774Y584D02*
X1780Y584D01*
X1794Y584D02*
X1800Y584D01*
X1843Y584D02*
X1849Y584D01*
X1898Y584D02*
X1904Y584D01*
X1982Y584D02*
X1989Y584D01*
X0Y583D02*
X7Y583D01*
X199Y583D02*
X205Y583D01*
X220Y583D02*
X226Y583D01*
X268Y583D02*
X274Y583D01*
X323Y583D02*
X330Y583D01*
X515Y583D02*
X521Y583D01*
X536Y583D02*
X542Y583D01*
X584Y583D02*
X590Y583D01*
X626Y583D02*
X632Y583D01*
X1458Y583D02*
X1464Y583D01*
X1479Y583D02*
X1485Y583D01*
X1532Y583D02*
X1538Y583D01*
X1568Y583D02*
X1574Y583D01*
X1582Y583D02*
X1588Y583D01*
X1774Y583D02*
X1780Y583D01*
X1794Y583D02*
X1800Y583D01*
X1843Y583D02*
X1849Y583D01*
X1898Y583D02*
X1904Y583D01*
X1982Y583D02*
X1989Y583D01*
X0Y582D02*
X7Y582D01*
X199Y582D02*
X205Y582D01*
X220Y582D02*
X226Y582D01*
X268Y582D02*
X274Y582D01*
X323Y582D02*
X330Y582D01*
X515Y582D02*
X521Y582D01*
X536Y582D02*
X542Y582D01*
X584Y582D02*
X590Y582D01*
X626Y582D02*
X632Y582D01*
X1458Y582D02*
X1464Y582D01*
X1479Y582D02*
X1485Y582D01*
X1532Y582D02*
X1538Y582D01*
X1568Y582D02*
X1574Y582D01*
X1582Y582D02*
X1588Y582D01*
X1774Y582D02*
X1780Y582D01*
X1794Y582D02*
X1800Y582D01*
X1843Y582D02*
X1849Y582D01*
X1898Y582D02*
X1904Y582D01*
X1982Y582D02*
X1989Y582D01*
X0Y581D02*
X7Y581D01*
X199Y581D02*
X205Y581D01*
X220Y581D02*
X226Y581D01*
X268Y581D02*
X274Y581D01*
X323Y581D02*
X330Y581D01*
X515Y581D02*
X521Y581D01*
X536Y581D02*
X542Y581D01*
X584Y581D02*
X590Y581D01*
X626Y581D02*
X632Y581D01*
X1458Y581D02*
X1464Y581D01*
X1479Y581D02*
X1485Y581D01*
X1532Y581D02*
X1538Y581D01*
X1568Y581D02*
X1574Y581D01*
X1582Y581D02*
X1588Y581D01*
X1774Y581D02*
X1780Y581D01*
X1794Y581D02*
X1800Y581D01*
X1843Y581D02*
X1849Y581D01*
X1898Y581D02*
X1904Y581D01*
X1982Y581D02*
X1989Y581D01*
X0Y580D02*
X7Y580D01*
X199Y580D02*
X205Y580D01*
X220Y580D02*
X226Y580D01*
X268Y580D02*
X274Y580D01*
X323Y580D02*
X330Y580D01*
X515Y580D02*
X521Y580D01*
X536Y580D02*
X542Y580D01*
X584Y580D02*
X590Y580D01*
X626Y580D02*
X632Y580D01*
X1458Y580D02*
X1464Y580D01*
X1478Y580D02*
X1485Y580D01*
X1532Y580D02*
X1538Y580D01*
X1568Y580D02*
X1574Y580D01*
X1582Y580D02*
X1588Y580D01*
X1774Y580D02*
X1780Y580D01*
X1794Y580D02*
X1800Y580D01*
X1843Y580D02*
X1849Y580D01*
X1898Y580D02*
X1904Y580D01*
X1982Y580D02*
X1989Y580D01*
X0Y579D02*
X7Y579D01*
X199Y579D02*
X206Y579D01*
X220Y579D02*
X226Y579D01*
X268Y579D02*
X274Y579D01*
X297Y579D02*
X301Y579D01*
X323Y579D02*
X330Y579D01*
X515Y579D02*
X522Y579D01*
X535Y579D02*
X542Y579D01*
X584Y579D02*
X590Y579D01*
X626Y579D02*
X632Y579D01*
X1458Y579D02*
X1464Y579D01*
X1478Y579D02*
X1484Y579D01*
X1506Y579D02*
X1510Y579D01*
X1532Y579D02*
X1538Y579D01*
X1568Y579D02*
X1574Y579D01*
X1582Y579D02*
X1588Y579D01*
X1774Y579D02*
X1780Y579D01*
X1794Y579D02*
X1800Y579D01*
X1843Y579D02*
X1849Y579D01*
X1898Y579D02*
X1904Y579D01*
X1982Y579D02*
X1989Y579D01*
X0Y578D02*
X7Y578D01*
X200Y578D02*
X207Y578D01*
X219Y578D02*
X226Y578D01*
X268Y578D02*
X274Y578D01*
X296Y578D02*
X304Y578D01*
X323Y578D02*
X330Y578D01*
X516Y578D02*
X522Y578D01*
X535Y578D02*
X542Y578D01*
X584Y578D02*
X590Y578D01*
X626Y578D02*
X632Y578D01*
X1458Y578D02*
X1465Y578D01*
X1477Y578D02*
X1484Y578D01*
X1505Y578D02*
X1512Y578D01*
X1532Y578D02*
X1538Y578D01*
X1568Y578D02*
X1574Y578D01*
X1582Y578D02*
X1588Y578D01*
X1774Y578D02*
X1781Y578D01*
X1793Y578D02*
X1800Y578D01*
X1843Y578D02*
X1849Y578D01*
X1898Y578D02*
X1904Y578D01*
X1982Y578D02*
X1989Y578D01*
X0Y577D02*
X7Y577D01*
X200Y577D02*
X225Y577D01*
X268Y577D02*
X274Y577D01*
X296Y577D02*
X329Y577D01*
X516Y577D02*
X541Y577D01*
X584Y577D02*
X590Y577D01*
X626Y577D02*
X632Y577D01*
X1459Y577D02*
X1484Y577D01*
X1505Y577D02*
X1538Y577D01*
X1558Y577D02*
X1588Y577D01*
X1774Y577D02*
X1800Y577D01*
X1843Y577D02*
X1849Y577D01*
X1897Y577D02*
X1904Y577D01*
X1982Y577D02*
X1989Y577D01*
X0Y576D02*
X7Y576D01*
X200Y576D02*
X225Y576D01*
X268Y576D02*
X274Y576D01*
X296Y576D02*
X329Y576D01*
X516Y576D02*
X541Y576D01*
X584Y576D02*
X590Y576D01*
X626Y576D02*
X632Y576D01*
X1459Y576D02*
X1484Y576D01*
X1505Y576D02*
X1538Y576D01*
X1556Y576D02*
X1588Y576D01*
X1775Y576D02*
X1799Y576D01*
X1843Y576D02*
X1849Y576D01*
X1895Y576D02*
X1904Y576D01*
X1982Y576D02*
X1989Y576D01*
X0Y575D02*
X7Y575D01*
X201Y575D02*
X224Y575D01*
X268Y575D02*
X274Y575D01*
X296Y575D02*
X329Y575D01*
X517Y575D02*
X540Y575D01*
X584Y575D02*
X590Y575D01*
X626Y575D02*
X632Y575D01*
X1459Y575D02*
X1483Y575D01*
X1505Y575D02*
X1538Y575D01*
X1555Y575D02*
X1588Y575D01*
X1775Y575D02*
X1799Y575D01*
X1843Y575D02*
X1849Y575D01*
X1895Y575D02*
X1904Y575D01*
X1982Y575D02*
X1989Y575D01*
X0Y574D02*
X7Y574D01*
X202Y574D02*
X224Y574D01*
X268Y574D02*
X274Y574D01*
X297Y574D02*
X329Y574D01*
X518Y574D02*
X540Y574D01*
X584Y574D02*
X590Y574D01*
X626Y574D02*
X632Y574D01*
X1460Y574D02*
X1482Y574D01*
X1505Y574D02*
X1537Y574D01*
X1555Y574D02*
X1588Y574D01*
X1776Y574D02*
X1798Y574D01*
X1843Y574D02*
X1849Y574D01*
X1894Y574D02*
X1904Y574D01*
X1982Y574D02*
X1989Y574D01*
X0Y573D02*
X7Y573D01*
X203Y573D02*
X223Y573D01*
X268Y573D02*
X274Y573D01*
X299Y573D02*
X328Y573D01*
X519Y573D02*
X539Y573D01*
X584Y573D02*
X590Y573D01*
X626Y573D02*
X631Y573D01*
X1461Y573D02*
X1481Y573D01*
X1507Y573D02*
X1537Y573D01*
X1555Y573D02*
X1588Y573D01*
X1777Y573D02*
X1797Y573D01*
X1843Y573D02*
X1849Y573D01*
X1895Y573D02*
X1904Y573D01*
X1982Y573D02*
X1989Y573D01*
X0Y572D02*
X7Y572D01*
X204Y572D02*
X222Y572D01*
X269Y572D02*
X274Y572D01*
X301Y572D02*
X327Y572D01*
X520Y572D02*
X537Y572D01*
X585Y572D02*
X590Y572D01*
X626Y572D02*
X631Y572D01*
X1462Y572D02*
X1480Y572D01*
X1509Y572D02*
X1536Y572D01*
X1555Y572D02*
X1588Y572D01*
X1778Y572D02*
X1796Y572D01*
X1843Y572D02*
X1848Y572D01*
X1895Y572D02*
X1903Y572D01*
X1982Y572D02*
X1989Y572D01*
X0Y571D02*
X7Y571D01*
X206Y571D02*
X220Y571D01*
X270Y571D02*
X273Y571D01*
X303Y571D02*
X326Y571D01*
X521Y571D02*
X536Y571D01*
X585Y571D02*
X589Y571D01*
X627Y571D02*
X630Y571D01*
X1464Y571D02*
X1478Y571D01*
X1512Y571D02*
X1534Y571D01*
X1556Y571D02*
X1587Y571D01*
X1780Y571D02*
X1794Y571D01*
X1844Y571D02*
X1847Y571D01*
X1896Y571D02*
X1903Y571D01*
X1982Y571D02*
X1989Y571D01*
X0Y570D02*
X7Y570D01*
X1982Y570D02*
X1989Y570D01*
X0Y569D02*
X7Y569D01*
X1982Y569D02*
X1989Y569D01*
X0Y568D02*
X7Y568D01*
X1982Y568D02*
X1989Y568D01*
X0Y567D02*
X7Y567D01*
X1982Y567D02*
X1989Y567D01*
X0Y566D02*
X7Y566D01*
X1982Y566D02*
X1989Y566D01*
X0Y565D02*
X7Y565D01*
X1982Y565D02*
X1989Y565D01*
X0Y564D02*
X7Y564D01*
X1982Y564D02*
X1989Y564D01*
X0Y563D02*
X7Y563D01*
X1982Y563D02*
X1989Y563D01*
X0Y562D02*
X7Y562D01*
X1982Y562D02*
X1989Y562D01*
X0Y561D02*
X7Y561D01*
X1982Y561D02*
X1989Y561D01*
X0Y560D02*
X7Y560D01*
X1982Y560D02*
X1989Y560D01*
X0Y559D02*
X7Y559D01*
X1982Y559D02*
X1989Y559D01*
X0Y558D02*
X7Y558D01*
X1982Y558D02*
X1989Y558D01*
X0Y557D02*
X7Y557D01*
X1982Y557D02*
X1989Y557D01*
X0Y556D02*
X7Y556D01*
X1982Y556D02*
X1989Y556D01*
X0Y555D02*
X7Y555D01*
X1982Y555D02*
X1989Y555D01*
X0Y554D02*
X7Y554D01*
X1982Y554D02*
X1989Y554D01*
X0Y553D02*
X7Y553D01*
X1982Y553D02*
X1989Y553D01*
X0Y552D02*
X7Y552D01*
X1982Y552D02*
X1989Y552D01*
X0Y551D02*
X7Y551D01*
X1982Y551D02*
X1989Y551D01*
X0Y550D02*
X7Y550D01*
X1982Y550D02*
X1989Y550D01*
X0Y549D02*
X7Y549D01*
X1982Y549D02*
X1989Y549D01*
X0Y548D02*
X7Y548D01*
X1982Y548D02*
X1989Y548D01*
X0Y547D02*
X7Y547D01*
X1982Y547D02*
X1989Y547D01*
X0Y546D02*
X7Y546D01*
X1982Y546D02*
X1989Y546D01*
X0Y545D02*
X7Y545D01*
X1982Y545D02*
X1989Y545D01*
X0Y544D02*
X7Y544D01*
X88Y544D02*
X140Y544D01*
X403Y544D02*
X456Y544D01*
X1346Y544D02*
X1398Y544D01*
X1662Y544D02*
X1714Y544D01*
X1982Y544D02*
X1989Y544D01*
X0Y543D02*
X7Y543D01*
X86Y543D02*
X141Y543D01*
X402Y543D02*
X457Y543D01*
X1345Y543D02*
X1400Y543D01*
X1661Y543D02*
X1715Y543D01*
X1982Y543D02*
X1989Y543D01*
X0Y542D02*
X7Y542D01*
X85Y542D02*
X142Y542D01*
X401Y542D02*
X458Y542D01*
X1344Y542D02*
X1400Y542D01*
X1660Y542D02*
X1716Y542D01*
X1982Y542D02*
X1989Y542D01*
X0Y541D02*
X7Y541D01*
X85Y541D02*
X142Y541D01*
X401Y541D02*
X458Y541D01*
X1344Y541D02*
X1401Y541D01*
X1660Y541D02*
X1716Y541D01*
X1982Y541D02*
X1989Y541D01*
X0Y540D02*
X7Y540D01*
X85Y540D02*
X142Y540D01*
X401Y540D02*
X458Y540D01*
X1344Y540D02*
X1401Y540D01*
X1660Y540D02*
X1716Y540D01*
X1982Y540D02*
X1989Y540D01*
X0Y539D02*
X7Y539D01*
X85Y539D02*
X142Y539D01*
X401Y539D02*
X458Y539D01*
X1344Y539D02*
X1371Y539D01*
X1373Y539D02*
X1400Y539D01*
X1660Y539D02*
X1687Y539D01*
X1689Y539D02*
X1716Y539D01*
X1982Y539D02*
X1989Y539D01*
X0Y538D02*
X7Y538D01*
X86Y538D02*
X104Y538D01*
X124Y538D02*
X141Y538D01*
X402Y538D02*
X419Y538D01*
X439Y538D02*
X457Y538D01*
X1344Y538D02*
X1362Y538D01*
X1382Y538D02*
X1400Y538D01*
X1660Y538D02*
X1678Y538D01*
X1698Y538D02*
X1716Y538D01*
X1982Y538D02*
X1989Y538D01*
X0Y537D02*
X7Y537D01*
X87Y537D02*
X100Y537D01*
X128Y537D02*
X140Y537D01*
X403Y537D02*
X415Y537D01*
X444Y537D02*
X456Y537D01*
X1346Y537D02*
X1358Y537D01*
X1386Y537D02*
X1399Y537D01*
X1661Y537D02*
X1674Y537D01*
X1702Y537D02*
X1714Y537D01*
X1982Y537D02*
X1989Y537D01*
X0Y536D02*
X7Y536D01*
X1982Y536D02*
X1989Y536D01*
X0Y535D02*
X7Y535D01*
X1982Y535D02*
X1989Y535D01*
X0Y534D02*
X7Y534D01*
X1982Y534D02*
X1989Y534D01*
X0Y533D02*
X7Y533D01*
X1982Y533D02*
X1989Y533D01*
X0Y532D02*
X7Y532D01*
X805Y532D02*
X807Y532D01*
X812Y532D02*
X814Y532D01*
X1005Y532D02*
X1007Y532D01*
X1012Y532D02*
X1014Y532D01*
X1982Y532D02*
X1989Y532D01*
X0Y531D02*
X7Y531D01*
X805Y531D02*
X814Y531D01*
X1005Y531D02*
X1014Y531D01*
X1982Y531D02*
X1989Y531D01*
X0Y530D02*
X7Y530D01*
X805Y530D02*
X814Y530D01*
X1005Y530D02*
X1014Y530D01*
X1982Y530D02*
X1989Y530D01*
X0Y529D02*
X7Y529D01*
X805Y529D02*
X814Y529D01*
X1005Y529D02*
X1014Y529D01*
X1982Y529D02*
X1989Y529D01*
X0Y528D02*
X7Y528D01*
X805Y528D02*
X814Y528D01*
X1005Y528D02*
X1014Y528D01*
X1982Y528D02*
X1989Y528D01*
X0Y527D02*
X7Y527D01*
X805Y527D02*
X814Y527D01*
X1005Y527D02*
X1014Y527D01*
X1982Y527D02*
X1989Y527D01*
X0Y526D02*
X7Y526D01*
X805Y526D02*
X814Y526D01*
X1005Y526D02*
X1014Y526D01*
X1982Y526D02*
X1989Y526D01*
X0Y525D02*
X7Y525D01*
X805Y525D02*
X814Y525D01*
X1005Y525D02*
X1014Y525D01*
X1982Y525D02*
X1989Y525D01*
X0Y524D02*
X7Y524D01*
X805Y524D02*
X814Y524D01*
X1005Y524D02*
X1014Y524D01*
X1982Y524D02*
X1989Y524D01*
X0Y523D02*
X7Y523D01*
X805Y523D02*
X814Y523D01*
X1005Y523D02*
X1014Y523D01*
X1982Y523D02*
X1989Y523D01*
X0Y522D02*
X7Y522D01*
X805Y522D02*
X814Y522D01*
X1005Y522D02*
X1014Y522D01*
X1982Y522D02*
X1989Y522D01*
X0Y521D02*
X7Y521D01*
X805Y521D02*
X814Y521D01*
X1005Y521D02*
X1014Y521D01*
X1982Y521D02*
X1989Y521D01*
X0Y520D02*
X7Y520D01*
X805Y520D02*
X814Y520D01*
X1005Y520D02*
X1014Y520D01*
X1982Y520D02*
X1989Y520D01*
X0Y519D02*
X7Y519D01*
X805Y519D02*
X814Y519D01*
X1005Y519D02*
X1014Y519D01*
X1982Y519D02*
X1989Y519D01*
X0Y518D02*
X7Y518D01*
X805Y518D02*
X814Y518D01*
X1005Y518D02*
X1014Y518D01*
X1982Y518D02*
X1989Y518D01*
X0Y517D02*
X7Y517D01*
X805Y517D02*
X814Y517D01*
X1005Y517D02*
X1014Y517D01*
X1982Y517D02*
X1989Y517D01*
X0Y516D02*
X7Y516D01*
X805Y516D02*
X814Y516D01*
X1005Y516D02*
X1014Y516D01*
X1982Y516D02*
X1989Y516D01*
X0Y515D02*
X7Y515D01*
X805Y515D02*
X814Y515D01*
X1005Y515D02*
X1014Y515D01*
X1982Y515D02*
X1989Y515D01*
X0Y514D02*
X7Y514D01*
X805Y514D02*
X814Y514D01*
X1005Y514D02*
X1014Y514D01*
X1982Y514D02*
X1989Y514D01*
X0Y513D02*
X7Y513D01*
X805Y513D02*
X814Y513D01*
X1005Y513D02*
X1014Y513D01*
X1982Y513D02*
X1989Y513D01*
X0Y512D02*
X7Y512D01*
X805Y512D02*
X814Y512D01*
X1005Y512D02*
X1014Y512D01*
X1982Y512D02*
X1989Y512D01*
X0Y511D02*
X7Y511D01*
X805Y511D02*
X814Y511D01*
X1005Y511D02*
X1014Y511D01*
X1982Y511D02*
X1989Y511D01*
X0Y510D02*
X7Y510D01*
X805Y510D02*
X814Y510D01*
X1005Y510D02*
X1014Y510D01*
X1982Y510D02*
X1989Y510D01*
X0Y509D02*
X7Y509D01*
X805Y509D02*
X814Y509D01*
X1005Y509D02*
X1014Y509D01*
X1982Y509D02*
X1989Y509D01*
X0Y508D02*
X7Y508D01*
X805Y508D02*
X814Y508D01*
X1005Y508D02*
X1014Y508D01*
X1982Y508D02*
X1989Y508D01*
X0Y507D02*
X7Y507D01*
X805Y507D02*
X814Y507D01*
X1005Y507D02*
X1014Y507D01*
X1982Y507D02*
X1989Y507D01*
X0Y506D02*
X7Y506D01*
X805Y506D02*
X814Y506D01*
X1005Y506D02*
X1014Y506D01*
X1982Y506D02*
X1989Y506D01*
X0Y505D02*
X7Y505D01*
X805Y505D02*
X814Y505D01*
X1005Y505D02*
X1014Y505D01*
X1982Y505D02*
X1989Y505D01*
X0Y504D02*
X7Y504D01*
X805Y504D02*
X814Y504D01*
X1005Y504D02*
X1014Y504D01*
X1982Y504D02*
X1989Y504D01*
X0Y503D02*
X7Y503D01*
X805Y503D02*
X814Y503D01*
X1005Y503D02*
X1014Y503D01*
X1982Y503D02*
X1989Y503D01*
X0Y502D02*
X7Y502D01*
X805Y502D02*
X814Y502D01*
X1005Y502D02*
X1014Y502D01*
X1982Y502D02*
X1989Y502D01*
X0Y501D02*
X7Y501D01*
X805Y501D02*
X814Y501D01*
X1005Y501D02*
X1014Y501D01*
X1982Y501D02*
X1989Y501D01*
X0Y500D02*
X7Y500D01*
X805Y500D02*
X814Y500D01*
X1005Y500D02*
X1014Y500D01*
X1982Y500D02*
X1989Y500D01*
X0Y499D02*
X7Y499D01*
X805Y499D02*
X814Y499D01*
X1005Y499D02*
X1014Y499D01*
X1982Y499D02*
X1989Y499D01*
X0Y498D02*
X7Y498D01*
X805Y498D02*
X814Y498D01*
X1005Y498D02*
X1014Y498D01*
X1982Y498D02*
X1989Y498D01*
X0Y497D02*
X7Y497D01*
X805Y497D02*
X814Y497D01*
X1005Y497D02*
X1014Y497D01*
X1982Y497D02*
X1989Y497D01*
X0Y496D02*
X7Y496D01*
X805Y496D02*
X814Y496D01*
X1005Y496D02*
X1014Y496D01*
X1982Y496D02*
X1989Y496D01*
X0Y495D02*
X7Y495D01*
X805Y495D02*
X814Y495D01*
X1005Y495D02*
X1014Y495D01*
X1982Y495D02*
X1989Y495D01*
X0Y494D02*
X7Y494D01*
X805Y494D02*
X814Y494D01*
X1005Y494D02*
X1014Y494D01*
X1982Y494D02*
X1989Y494D01*
X0Y493D02*
X7Y493D01*
X805Y493D02*
X814Y493D01*
X1005Y493D02*
X1014Y493D01*
X1982Y493D02*
X1989Y493D01*
X0Y492D02*
X7Y492D01*
X805Y492D02*
X814Y492D01*
X1005Y492D02*
X1014Y492D01*
X1982Y492D02*
X1989Y492D01*
X0Y491D02*
X7Y491D01*
X805Y491D02*
X814Y491D01*
X1005Y491D02*
X1014Y491D01*
X1982Y491D02*
X1989Y491D01*
X0Y490D02*
X7Y490D01*
X805Y490D02*
X814Y490D01*
X1005Y490D02*
X1014Y490D01*
X1982Y490D02*
X1989Y490D01*
X0Y489D02*
X7Y489D01*
X805Y489D02*
X814Y489D01*
X1005Y489D02*
X1014Y489D01*
X1982Y489D02*
X1989Y489D01*
X0Y488D02*
X7Y488D01*
X805Y488D02*
X814Y488D01*
X1005Y488D02*
X1014Y488D01*
X1982Y488D02*
X1989Y488D01*
X0Y487D02*
X7Y487D01*
X805Y487D02*
X814Y487D01*
X1005Y487D02*
X1014Y487D01*
X1982Y487D02*
X1989Y487D01*
X0Y486D02*
X7Y486D01*
X805Y486D02*
X814Y486D01*
X1005Y486D02*
X1014Y486D01*
X1982Y486D02*
X1989Y486D01*
X0Y485D02*
X7Y485D01*
X805Y485D02*
X814Y485D01*
X1005Y485D02*
X1014Y485D01*
X1982Y485D02*
X1989Y485D01*
X0Y484D02*
X7Y484D01*
X805Y484D02*
X814Y484D01*
X1005Y484D02*
X1014Y484D01*
X1982Y484D02*
X1989Y484D01*
X0Y483D02*
X7Y483D01*
X805Y483D02*
X814Y483D01*
X1005Y483D02*
X1014Y483D01*
X1982Y483D02*
X1989Y483D01*
X0Y482D02*
X7Y482D01*
X805Y482D02*
X814Y482D01*
X1005Y482D02*
X1014Y482D01*
X1982Y482D02*
X1989Y482D01*
X0Y481D02*
X7Y481D01*
X805Y481D02*
X814Y481D01*
X1005Y481D02*
X1014Y481D01*
X1982Y481D02*
X1989Y481D01*
X0Y480D02*
X7Y480D01*
X805Y480D02*
X814Y480D01*
X1005Y480D02*
X1014Y480D01*
X1982Y480D02*
X1989Y480D01*
X0Y479D02*
X7Y479D01*
X805Y479D02*
X814Y479D01*
X1005Y479D02*
X1014Y479D01*
X1982Y479D02*
X1989Y479D01*
X0Y478D02*
X7Y478D01*
X805Y478D02*
X814Y478D01*
X1005Y478D02*
X1014Y478D01*
X1982Y478D02*
X1989Y478D01*
X0Y477D02*
X7Y477D01*
X805Y477D02*
X814Y477D01*
X1005Y477D02*
X1014Y477D01*
X1982Y477D02*
X1989Y477D01*
X0Y476D02*
X7Y476D01*
X805Y476D02*
X814Y476D01*
X1005Y476D02*
X1014Y476D01*
X1982Y476D02*
X1989Y476D01*
X0Y475D02*
X7Y475D01*
X805Y475D02*
X814Y475D01*
X1005Y475D02*
X1014Y475D01*
X1982Y475D02*
X1989Y475D01*
X0Y474D02*
X7Y474D01*
X805Y474D02*
X814Y474D01*
X1005Y474D02*
X1014Y474D01*
X1982Y474D02*
X1989Y474D01*
X0Y473D02*
X7Y473D01*
X805Y473D02*
X814Y473D01*
X1005Y473D02*
X1014Y473D01*
X1982Y473D02*
X1989Y473D01*
X0Y472D02*
X7Y472D01*
X805Y472D02*
X814Y472D01*
X1005Y472D02*
X1014Y472D01*
X1982Y472D02*
X1989Y472D01*
X0Y471D02*
X7Y471D01*
X805Y471D02*
X814Y471D01*
X1005Y471D02*
X1014Y471D01*
X1982Y471D02*
X1989Y471D01*
X0Y470D02*
X7Y470D01*
X805Y470D02*
X814Y470D01*
X1005Y470D02*
X1014Y470D01*
X1982Y470D02*
X1989Y470D01*
X0Y469D02*
X7Y469D01*
X805Y469D02*
X814Y469D01*
X1005Y469D02*
X1014Y469D01*
X1982Y469D02*
X1989Y469D01*
X0Y468D02*
X7Y468D01*
X805Y468D02*
X814Y468D01*
X1005Y468D02*
X1014Y468D01*
X1982Y468D02*
X1989Y468D01*
X0Y467D02*
X7Y467D01*
X805Y467D02*
X814Y467D01*
X1005Y467D02*
X1014Y467D01*
X1982Y467D02*
X1989Y467D01*
X0Y466D02*
X7Y466D01*
X805Y466D02*
X814Y466D01*
X1005Y466D02*
X1014Y466D01*
X1982Y466D02*
X1989Y466D01*
X0Y465D02*
X7Y465D01*
X805Y465D02*
X814Y465D01*
X1005Y465D02*
X1014Y465D01*
X1982Y465D02*
X1989Y465D01*
X0Y464D02*
X7Y464D01*
X1982Y464D02*
X1989Y464D01*
X0Y463D02*
X7Y463D01*
X1982Y463D02*
X1989Y463D01*
X0Y462D02*
X7Y462D01*
X1982Y462D02*
X1989Y462D01*
X0Y461D02*
X7Y461D01*
X1982Y461D02*
X1989Y461D01*
X0Y460D02*
X7Y460D01*
X1982Y460D02*
X1989Y460D01*
X0Y459D02*
X7Y459D01*
X1982Y459D02*
X1989Y459D01*
X0Y458D02*
X7Y458D01*
X1982Y458D02*
X1989Y458D01*
X0Y457D02*
X7Y457D01*
X1982Y457D02*
X1989Y457D01*
X0Y456D02*
X7Y456D01*
X1749Y456D02*
X1750Y456D01*
X1982Y456D02*
X1989Y456D01*
X0Y455D02*
X7Y455D01*
X1748Y455D02*
X1750Y455D01*
X1982Y455D02*
X1989Y455D01*
X0Y454D02*
X7Y454D01*
X1746Y454D02*
X1750Y454D01*
X1982Y454D02*
X1989Y454D01*
X0Y453D02*
X7Y453D01*
X1744Y453D02*
X1750Y453D01*
X1982Y453D02*
X1989Y453D01*
X0Y452D02*
X7Y452D01*
X1744Y452D02*
X1750Y452D01*
X1982Y452D02*
X1989Y452D01*
X0Y451D02*
X7Y451D01*
X1744Y451D02*
X1750Y451D01*
X1982Y451D02*
X1989Y451D01*
X0Y450D02*
X7Y450D01*
X1744Y450D02*
X1750Y450D01*
X1982Y450D02*
X1989Y450D01*
X0Y449D02*
X7Y449D01*
X382Y449D02*
X386Y449D01*
X1641Y449D02*
X1644Y449D01*
X1744Y449D02*
X1750Y449D01*
X1982Y449D02*
X1989Y449D01*
X0Y448D02*
X7Y448D01*
X364Y448D02*
X366Y448D01*
X382Y448D02*
X388Y448D01*
X458Y448D02*
X490Y448D01*
X1622Y448D02*
X1624Y448D01*
X1641Y448D02*
X1647Y448D01*
X1717Y448D02*
X1723Y448D01*
X1744Y448D02*
X1750Y448D01*
X1982Y448D02*
X1989Y448D01*
X0Y447D02*
X7Y447D01*
X363Y447D02*
X367Y447D01*
X382Y447D02*
X388Y447D01*
X458Y447D02*
X491Y447D01*
X1621Y447D02*
X1625Y447D01*
X1641Y447D02*
X1647Y447D01*
X1717Y447D02*
X1723Y447D01*
X1744Y447D02*
X1750Y447D01*
X1982Y447D02*
X1989Y447D01*
X0Y446D02*
X7Y446D01*
X362Y446D02*
X368Y446D01*
X382Y446D02*
X388Y446D01*
X458Y446D02*
X492Y446D01*
X1620Y446D02*
X1626Y446D01*
X1641Y446D02*
X1647Y446D01*
X1717Y446D02*
X1723Y446D01*
X1744Y446D02*
X1750Y446D01*
X1982Y446D02*
X1989Y446D01*
X0Y445D02*
X7Y445D01*
X362Y445D02*
X368Y445D01*
X382Y445D02*
X388Y445D01*
X410Y445D02*
X412Y445D01*
X458Y445D02*
X492Y445D01*
X1620Y445D02*
X1626Y445D01*
X1641Y445D02*
X1647Y445D01*
X1717Y445D02*
X1723Y445D01*
X1744Y445D02*
X1750Y445D01*
X1982Y445D02*
X1989Y445D01*
X0Y444D02*
X7Y444D01*
X87Y444D02*
X99Y444D01*
X128Y444D02*
X140Y444D01*
X362Y444D02*
X368Y444D01*
X382Y444D02*
X388Y444D01*
X403Y444D02*
X415Y444D01*
X444Y444D02*
X456Y444D01*
X458Y444D02*
X492Y444D01*
X1346Y444D02*
X1358Y444D01*
X1387Y444D02*
X1398Y444D01*
X1620Y444D02*
X1626Y444D01*
X1641Y444D02*
X1647Y444D01*
X1662Y444D02*
X1674Y444D01*
X1702Y444D02*
X1714Y444D01*
X1717Y444D02*
X1723Y444D01*
X1744Y444D02*
X1750Y444D01*
X1982Y444D02*
X1989Y444D01*
X0Y443D02*
X7Y443D01*
X86Y443D02*
X103Y443D01*
X124Y443D02*
X141Y443D01*
X362Y443D02*
X368Y443D01*
X382Y443D02*
X388Y443D01*
X402Y443D02*
X419Y443D01*
X440Y443D02*
X492Y443D01*
X1345Y443D02*
X1362Y443D01*
X1383Y443D02*
X1400Y443D01*
X1620Y443D02*
X1626Y443D01*
X1641Y443D02*
X1647Y443D01*
X1660Y443D02*
X1677Y443D01*
X1699Y443D02*
X1723Y443D01*
X1744Y443D02*
X1750Y443D01*
X1982Y443D02*
X1989Y443D01*
X0Y442D02*
X7Y442D01*
X85Y442D02*
X111Y442D01*
X116Y442D02*
X142Y442D01*
X362Y442D02*
X368Y442D01*
X382Y442D02*
X388Y442D01*
X401Y442D02*
X427Y442D01*
X432Y442D02*
X492Y442D01*
X1344Y442D02*
X1369Y442D01*
X1375Y442D02*
X1400Y442D01*
X1620Y442D02*
X1626Y442D01*
X1641Y442D02*
X1647Y442D01*
X1660Y442D02*
X1685Y442D01*
X1691Y442D02*
X1723Y442D01*
X1744Y442D02*
X1750Y442D01*
X1982Y442D02*
X1989Y442D01*
X0Y441D02*
X7Y441D01*
X85Y441D02*
X142Y441D01*
X362Y441D02*
X368Y441D01*
X382Y441D02*
X388Y441D01*
X401Y441D02*
X464Y441D01*
X486Y441D02*
X492Y441D01*
X1344Y441D02*
X1401Y441D01*
X1620Y441D02*
X1626Y441D01*
X1641Y441D02*
X1647Y441D01*
X1660Y441D02*
X1723Y441D01*
X1744Y441D02*
X1750Y441D01*
X1982Y441D02*
X1989Y441D01*
X0Y440D02*
X7Y440D01*
X85Y440D02*
X142Y440D01*
X362Y440D02*
X368Y440D01*
X382Y440D02*
X388Y440D01*
X401Y440D02*
X464Y440D01*
X486Y440D02*
X492Y440D01*
X1344Y440D02*
X1401Y440D01*
X1620Y440D02*
X1626Y440D01*
X1641Y440D02*
X1647Y440D01*
X1660Y440D02*
X1723Y440D01*
X1744Y440D02*
X1750Y440D01*
X1982Y440D02*
X1989Y440D01*
X0Y439D02*
X7Y439D01*
X85Y439D02*
X142Y439D01*
X362Y439D02*
X368Y439D01*
X382Y439D02*
X388Y439D01*
X401Y439D02*
X464Y439D01*
X486Y439D02*
X492Y439D01*
X1344Y439D02*
X1400Y439D01*
X1620Y439D02*
X1626Y439D01*
X1641Y439D02*
X1647Y439D01*
X1660Y439D02*
X1723Y439D01*
X1744Y439D02*
X1750Y439D01*
X1982Y439D02*
X1989Y439D01*
X0Y438D02*
X7Y438D01*
X86Y438D02*
X141Y438D01*
X362Y438D02*
X368Y438D01*
X382Y438D02*
X388Y438D01*
X402Y438D02*
X464Y438D01*
X486Y438D02*
X492Y438D01*
X1345Y438D02*
X1400Y438D01*
X1620Y438D02*
X1626Y438D01*
X1641Y438D02*
X1647Y438D01*
X1660Y438D02*
X1723Y438D01*
X1744Y438D02*
X1750Y438D01*
X1982Y438D02*
X1989Y438D01*
X0Y437D02*
X7Y437D01*
X87Y437D02*
X140Y437D01*
X362Y437D02*
X368Y437D01*
X382Y437D02*
X388Y437D01*
X403Y437D02*
X456Y437D01*
X458Y437D02*
X464Y437D01*
X486Y437D02*
X492Y437D01*
X1346Y437D02*
X1398Y437D01*
X1620Y437D02*
X1626Y437D01*
X1641Y437D02*
X1647Y437D01*
X1662Y437D02*
X1714Y437D01*
X1717Y437D02*
X1723Y437D01*
X1744Y437D02*
X1750Y437D01*
X1982Y437D02*
X1989Y437D01*
X0Y436D02*
X7Y436D01*
X362Y436D02*
X368Y436D01*
X382Y436D02*
X388Y436D01*
X431Y436D02*
X437Y436D01*
X458Y436D02*
X464Y436D01*
X486Y436D02*
X492Y436D01*
X1620Y436D02*
X1626Y436D01*
X1641Y436D02*
X1647Y436D01*
X1694Y436D02*
X1700Y436D01*
X1717Y436D02*
X1723Y436D01*
X1744Y436D02*
X1750Y436D01*
X1982Y436D02*
X1989Y436D01*
X0Y435D02*
X7Y435D01*
X362Y435D02*
X368Y435D01*
X382Y435D02*
X388Y435D01*
X431Y435D02*
X437Y435D01*
X458Y435D02*
X464Y435D01*
X486Y435D02*
X492Y435D01*
X1620Y435D02*
X1626Y435D01*
X1641Y435D02*
X1647Y435D01*
X1694Y435D02*
X1700Y435D01*
X1717Y435D02*
X1723Y435D01*
X1744Y435D02*
X1750Y435D01*
X1982Y435D02*
X1989Y435D01*
X0Y434D02*
X7Y434D01*
X362Y434D02*
X368Y434D01*
X382Y434D02*
X388Y434D01*
X431Y434D02*
X437Y434D01*
X458Y434D02*
X464Y434D01*
X486Y434D02*
X492Y434D01*
X1620Y434D02*
X1626Y434D01*
X1641Y434D02*
X1647Y434D01*
X1694Y434D02*
X1700Y434D01*
X1717Y434D02*
X1723Y434D01*
X1744Y434D02*
X1750Y434D01*
X1982Y434D02*
X1989Y434D01*
X0Y433D02*
X7Y433D01*
X362Y433D02*
X368Y433D01*
X382Y433D02*
X388Y433D01*
X431Y433D02*
X437Y433D01*
X458Y433D02*
X464Y433D01*
X486Y433D02*
X492Y433D01*
X1620Y433D02*
X1627Y433D01*
X1641Y433D02*
X1647Y433D01*
X1668Y433D02*
X1672Y433D01*
X1694Y433D02*
X1700Y433D01*
X1717Y433D02*
X1723Y433D01*
X1744Y433D02*
X1750Y433D01*
X1982Y433D02*
X1989Y433D01*
X0Y432D02*
X7Y432D01*
X362Y432D02*
X369Y432D01*
X382Y432D02*
X388Y432D01*
X431Y432D02*
X437Y432D01*
X458Y432D02*
X464Y432D01*
X486Y432D02*
X492Y432D01*
X1620Y432D02*
X1627Y432D01*
X1640Y432D02*
X1647Y432D01*
X1667Y432D02*
X1674Y432D01*
X1694Y432D02*
X1700Y432D01*
X1717Y432D02*
X1723Y432D01*
X1744Y432D02*
X1750Y432D01*
X1982Y432D02*
X1989Y432D01*
X0Y431D02*
X7Y431D01*
X362Y431D02*
X370Y431D01*
X380Y431D02*
X388Y431D01*
X431Y431D02*
X437Y431D01*
X458Y431D02*
X464Y431D01*
X486Y431D02*
X492Y431D01*
X1621Y431D02*
X1629Y431D01*
X1639Y431D02*
X1646Y431D01*
X1667Y431D02*
X1676Y431D01*
X1694Y431D02*
X1700Y431D01*
X1717Y431D02*
X1723Y431D01*
X1744Y431D02*
X1750Y431D01*
X1982Y431D02*
X1989Y431D01*
X0Y430D02*
X7Y430D01*
X363Y430D02*
X388Y430D01*
X431Y430D02*
X437Y430D01*
X458Y430D02*
X492Y430D01*
X1621Y430D02*
X1646Y430D01*
X1667Y430D02*
X1700Y430D01*
X1717Y430D02*
X1750Y430D01*
X1982Y430D02*
X1989Y430D01*
X0Y429D02*
X7Y429D01*
X363Y429D02*
X387Y429D01*
X431Y429D02*
X437Y429D01*
X458Y429D02*
X492Y429D01*
X1622Y429D02*
X1646Y429D01*
X1667Y429D02*
X1700Y429D01*
X1717Y429D02*
X1750Y429D01*
X1982Y429D02*
X1989Y429D01*
X0Y428D02*
X7Y428D01*
X364Y428D02*
X386Y428D01*
X431Y428D02*
X437Y428D01*
X458Y428D02*
X492Y428D01*
X1622Y428D02*
X1645Y428D01*
X1668Y428D02*
X1700Y428D01*
X1717Y428D02*
X1750Y428D01*
X1982Y428D02*
X1989Y428D01*
X0Y427D02*
X7Y427D01*
X365Y427D02*
X385Y427D01*
X431Y427D02*
X437Y427D01*
X458Y427D02*
X492Y427D01*
X1623Y427D02*
X1644Y427D01*
X1669Y427D02*
X1699Y427D01*
X1718Y427D02*
X1749Y427D01*
X1982Y427D02*
X1989Y427D01*
X0Y426D02*
X7Y426D01*
X366Y426D02*
X384Y426D01*
X431Y426D02*
X436Y426D01*
X459Y426D02*
X492Y426D01*
X1624Y426D02*
X1643Y426D01*
X1671Y426D02*
X1698Y426D01*
X1719Y426D02*
X1748Y426D01*
X1982Y426D02*
X1989Y426D01*
X0Y425D02*
X7Y425D01*
X367Y425D02*
X383Y425D01*
X432Y425D02*
X436Y425D01*
X459Y425D02*
X491Y425D01*
X1626Y425D02*
X1641Y425D01*
X1673Y425D02*
X1697Y425D01*
X1720Y425D02*
X1747Y425D01*
X1982Y425D02*
X1989Y425D01*
X0Y424D02*
X7Y424D01*
X370Y424D02*
X380Y424D01*
X433Y424D02*
X434Y424D01*
X461Y424D02*
X490Y424D01*
X1628Y424D02*
X1639Y424D01*
X1676Y424D02*
X1695Y424D01*
X1722Y424D02*
X1745Y424D01*
X1982Y424D02*
X1989Y424D01*
X0Y423D02*
X7Y423D01*
X1982Y423D02*
X1989Y423D01*
X0Y422D02*
X7Y422D01*
X1982Y422D02*
X1989Y422D01*
X0Y421D02*
X7Y421D01*
X1982Y421D02*
X1989Y421D01*
X0Y420D02*
X7Y420D01*
X1982Y420D02*
X1989Y420D01*
X0Y419D02*
X7Y419D01*
X1982Y419D02*
X1989Y419D01*
X0Y418D02*
X7Y418D01*
X1982Y418D02*
X1989Y418D01*
X0Y417D02*
X7Y417D01*
X1982Y417D02*
X1989Y417D01*
X0Y416D02*
X7Y416D01*
X1982Y416D02*
X1989Y416D01*
X0Y415D02*
X7Y415D01*
X1982Y415D02*
X1989Y415D01*
X0Y414D02*
X7Y414D01*
X1982Y414D02*
X1989Y414D01*
X0Y413D02*
X7Y413D01*
X1982Y413D02*
X1989Y413D01*
X0Y412D02*
X7Y412D01*
X1982Y412D02*
X1989Y412D01*
X0Y411D02*
X7Y411D01*
X1982Y411D02*
X1989Y411D01*
X0Y410D02*
X7Y410D01*
X1982Y410D02*
X1989Y410D01*
X0Y409D02*
X7Y409D01*
X1982Y409D02*
X1989Y409D01*
X0Y408D02*
X7Y408D01*
X1982Y408D02*
X1989Y408D01*
X0Y407D02*
X7Y407D01*
X1982Y407D02*
X1989Y407D01*
X0Y406D02*
X7Y406D01*
X1982Y406D02*
X1989Y406D01*
X0Y405D02*
X7Y405D01*
X1982Y405D02*
X1989Y405D01*
X0Y404D02*
X7Y404D01*
X1982Y404D02*
X1989Y404D01*
X0Y403D02*
X7Y403D01*
X1982Y403D02*
X1989Y403D01*
X0Y402D02*
X7Y402D01*
X1982Y402D02*
X1989Y402D01*
X0Y401D02*
X7Y401D01*
X1982Y401D02*
X1989Y401D01*
X0Y400D02*
X7Y400D01*
X1982Y400D02*
X1989Y400D01*
X0Y399D02*
X7Y399D01*
X1982Y399D02*
X1989Y399D01*
X0Y398D02*
X7Y398D01*
X251Y398D02*
X301Y398D01*
X1510Y398D02*
X1559Y398D01*
X1982Y398D02*
X1989Y398D01*
X0Y397D02*
X7Y397D01*
X249Y397D02*
X303Y397D01*
X1507Y397D02*
X1562Y397D01*
X1982Y397D02*
X1989Y397D01*
X0Y396D02*
X7Y396D01*
X248Y396D02*
X304Y396D01*
X1507Y396D02*
X1562Y396D01*
X1982Y396D02*
X1989Y396D01*
X0Y395D02*
X7Y395D01*
X248Y395D02*
X304Y395D01*
X1506Y395D02*
X1563Y395D01*
X1982Y395D02*
X1989Y395D01*
X0Y394D02*
X7Y394D01*
X248Y394D02*
X304Y394D01*
X1506Y394D02*
X1563Y394D01*
X1982Y394D02*
X1989Y394D01*
X0Y393D02*
X7Y393D01*
X248Y393D02*
X304Y393D01*
X1506Y393D02*
X1563Y393D01*
X1982Y393D02*
X1989Y393D01*
X0Y392D02*
X7Y392D01*
X248Y392D02*
X268Y392D01*
X284Y392D02*
X304Y392D01*
X1507Y392D02*
X1527Y392D01*
X1542Y392D02*
X1562Y392D01*
X1982Y392D02*
X1989Y392D01*
X0Y391D02*
X7Y391D01*
X249Y391D02*
X263Y391D01*
X289Y391D02*
X303Y391D01*
X1508Y391D02*
X1522Y391D01*
X1547Y391D02*
X1562Y391D01*
X1982Y391D02*
X1989Y391D01*
X0Y390D02*
X7Y390D01*
X1982Y390D02*
X1989Y390D01*
X0Y389D02*
X7Y389D01*
X1982Y389D02*
X1989Y389D01*
X0Y388D02*
X7Y388D01*
X1982Y388D02*
X1989Y388D01*
X0Y387D02*
X7Y387D01*
X1982Y387D02*
X1989Y387D01*
X0Y386D02*
X7Y386D01*
X1982Y386D02*
X1989Y386D01*
X0Y385D02*
X7Y385D01*
X1982Y385D02*
X1989Y385D01*
X0Y384D02*
X7Y384D01*
X1982Y384D02*
X1989Y384D01*
X0Y383D02*
X7Y383D01*
X1982Y383D02*
X1989Y383D01*
X0Y382D02*
X7Y382D01*
X1982Y382D02*
X1989Y382D01*
X0Y381D02*
X7Y381D01*
X1982Y381D02*
X1989Y381D01*
X0Y380D02*
X7Y380D01*
X1982Y380D02*
X1989Y380D01*
X0Y379D02*
X7Y379D01*
X1982Y379D02*
X1989Y379D01*
X0Y378D02*
X7Y378D01*
X1982Y378D02*
X1989Y378D01*
X0Y377D02*
X7Y377D01*
X1982Y377D02*
X1989Y377D01*
X0Y376D02*
X7Y376D01*
X1982Y376D02*
X1989Y376D01*
X0Y375D02*
X7Y375D01*
X1982Y375D02*
X1989Y375D01*
X0Y374D02*
X7Y374D01*
X1982Y374D02*
X1989Y374D01*
X0Y373D02*
X7Y373D01*
X1982Y373D02*
X1989Y373D01*
X0Y372D02*
X7Y372D01*
X1982Y372D02*
X1989Y372D01*
X0Y371D02*
X7Y371D01*
X1982Y371D02*
X1989Y371D01*
X0Y370D02*
X7Y370D01*
X1982Y370D02*
X1989Y370D01*
X0Y369D02*
X7Y369D01*
X1982Y369D02*
X1989Y369D01*
X0Y368D02*
X7Y368D01*
X1982Y368D02*
X1989Y368D01*
X0Y367D02*
X7Y367D01*
X1982Y367D02*
X1989Y367D01*
X0Y366D02*
X7Y366D01*
X1982Y366D02*
X1989Y366D01*
X0Y365D02*
X7Y365D01*
X1982Y365D02*
X1989Y365D01*
X0Y364D02*
X7Y364D01*
X1982Y364D02*
X1989Y364D01*
X0Y363D02*
X7Y363D01*
X1982Y363D02*
X1989Y363D01*
X0Y362D02*
X7Y362D01*
X1982Y362D02*
X1989Y362D01*
X0Y361D02*
X7Y361D01*
X1982Y361D02*
X1989Y361D01*
X0Y360D02*
X7Y360D01*
X1982Y360D02*
X1989Y360D01*
X0Y359D02*
X7Y359D01*
X1982Y359D02*
X1989Y359D01*
X0Y358D02*
X7Y358D01*
X1982Y358D02*
X1989Y358D01*
X0Y357D02*
X7Y357D01*
X1982Y357D02*
X1989Y357D01*
X0Y356D02*
X7Y356D01*
X1982Y356D02*
X1989Y356D01*
X0Y355D02*
X7Y355D01*
X1982Y355D02*
X1989Y355D01*
X0Y354D02*
X7Y354D01*
X1982Y354D02*
X1989Y354D01*
X0Y353D02*
X7Y353D01*
X1982Y353D02*
X1989Y353D01*
X0Y352D02*
X7Y352D01*
X1982Y352D02*
X1989Y352D01*
X0Y351D02*
X7Y351D01*
X1982Y351D02*
X1989Y351D01*
X0Y350D02*
X7Y350D01*
X1982Y350D02*
X1989Y350D01*
X0Y349D02*
X7Y349D01*
X1982Y349D02*
X1989Y349D01*
X0Y348D02*
X7Y348D01*
X1982Y348D02*
X1989Y348D01*
X0Y347D02*
X7Y347D01*
X1982Y347D02*
X1989Y347D01*
X0Y346D02*
X7Y346D01*
X1982Y346D02*
X1989Y346D01*
X0Y345D02*
X7Y345D01*
X1982Y345D02*
X1989Y345D01*
X0Y344D02*
X7Y344D01*
X1982Y344D02*
X1989Y344D01*
X0Y343D02*
X7Y343D01*
X1982Y343D02*
X1989Y343D01*
X0Y342D02*
X7Y342D01*
X1982Y342D02*
X1989Y342D01*
X0Y341D02*
X7Y341D01*
X1982Y341D02*
X1989Y341D01*
X0Y340D02*
X7Y340D01*
X1982Y340D02*
X1989Y340D01*
X0Y339D02*
X7Y339D01*
X1982Y339D02*
X1989Y339D01*
X0Y338D02*
X7Y338D01*
X1982Y338D02*
X1989Y338D01*
X0Y337D02*
X7Y337D01*
X1982Y337D02*
X1989Y337D01*
X0Y336D02*
X7Y336D01*
X1982Y336D02*
X1989Y336D01*
X0Y335D02*
X7Y335D01*
X1982Y335D02*
X1989Y335D01*
X0Y334D02*
X7Y334D01*
X1982Y334D02*
X1989Y334D01*
X0Y333D02*
X7Y333D01*
X1982Y333D02*
X1989Y333D01*
X0Y332D02*
X7Y332D01*
X1982Y332D02*
X1989Y332D01*
X0Y331D02*
X7Y331D01*
X1982Y331D02*
X1989Y331D01*
X0Y330D02*
X7Y330D01*
X1982Y330D02*
X1989Y330D01*
X0Y329D02*
X7Y329D01*
X1982Y329D02*
X1989Y329D01*
X0Y328D02*
X7Y328D01*
X1982Y328D02*
X1989Y328D01*
X0Y327D02*
X7Y327D01*
X1982Y327D02*
X1989Y327D01*
X0Y326D02*
X7Y326D01*
X1982Y326D02*
X1989Y326D01*
X0Y325D02*
X7Y325D01*
X1982Y325D02*
X1989Y325D01*
X0Y324D02*
X7Y324D01*
X1982Y324D02*
X1989Y324D01*
X0Y323D02*
X7Y323D01*
X1982Y323D02*
X1989Y323D01*
X0Y322D02*
X7Y322D01*
X1982Y322D02*
X1989Y322D01*
X0Y321D02*
X7Y321D01*
X1982Y321D02*
X1989Y321D01*
X0Y320D02*
X7Y320D01*
X1982Y320D02*
X1989Y320D01*
X0Y319D02*
X7Y319D01*
X1982Y319D02*
X1989Y319D01*
X0Y318D02*
X7Y318D01*
X1982Y318D02*
X1989Y318D01*
X0Y317D02*
X7Y317D01*
X1982Y317D02*
X1989Y317D01*
X0Y316D02*
X7Y316D01*
X1982Y316D02*
X1989Y316D01*
X0Y315D02*
X7Y315D01*
X1982Y315D02*
X1989Y315D01*
X0Y314D02*
X7Y314D01*
X1982Y314D02*
X1989Y314D01*
X0Y313D02*
X7Y313D01*
X1982Y313D02*
X1989Y313D01*
X0Y312D02*
X7Y312D01*
X1982Y312D02*
X1989Y312D01*
X0Y311D02*
X7Y311D01*
X1982Y311D02*
X1989Y311D01*
X0Y310D02*
X7Y310D01*
X1982Y310D02*
X1989Y310D01*
X0Y309D02*
X7Y309D01*
X1982Y309D02*
X1989Y309D01*
X0Y308D02*
X7Y308D01*
X1982Y308D02*
X1989Y308D01*
X0Y307D02*
X7Y307D01*
X1982Y307D02*
X1989Y307D01*
X0Y306D02*
X7Y306D01*
X1982Y306D02*
X1989Y306D01*
X0Y305D02*
X7Y305D01*
X1982Y305D02*
X1989Y305D01*
X0Y304D02*
X7Y304D01*
X1982Y304D02*
X1989Y304D01*
X0Y303D02*
X7Y303D01*
X1982Y303D02*
X1989Y303D01*
X0Y302D02*
X7Y302D01*
X1982Y302D02*
X1989Y302D01*
X0Y301D02*
X7Y301D01*
X1982Y301D02*
X1989Y301D01*
X0Y300D02*
X7Y300D01*
X1982Y300D02*
X1989Y300D01*
X0Y299D02*
X7Y299D01*
X1982Y299D02*
X1989Y299D01*
X0Y298D02*
X7Y298D01*
X251Y298D02*
X260Y298D01*
X292Y298D02*
X301Y298D01*
X1509Y298D02*
X1519Y298D01*
X1550Y298D02*
X1560Y298D01*
X1982Y298D02*
X1989Y298D01*
X0Y297D02*
X7Y297D01*
X249Y297D02*
X264Y297D01*
X288Y297D02*
X303Y297D01*
X1507Y297D02*
X1523Y297D01*
X1546Y297D02*
X1562Y297D01*
X1982Y297D02*
X1989Y297D01*
X0Y296D02*
X7Y296D01*
X248Y296D02*
X269Y296D01*
X282Y296D02*
X304Y296D01*
X1507Y296D02*
X1528Y296D01*
X1541Y296D02*
X1563Y296D01*
X1982Y296D02*
X1989Y296D01*
X0Y295D02*
X7Y295D01*
X248Y295D02*
X304Y295D01*
X1506Y295D02*
X1563Y295D01*
X1982Y295D02*
X1989Y295D01*
X0Y294D02*
X7Y294D01*
X248Y294D02*
X304Y294D01*
X1506Y294D02*
X1563Y294D01*
X1982Y294D02*
X1989Y294D01*
X0Y293D02*
X7Y293D01*
X248Y293D02*
X304Y293D01*
X1506Y293D02*
X1563Y293D01*
X1982Y293D02*
X1989Y293D01*
X0Y292D02*
X7Y292D01*
X248Y292D02*
X304Y292D01*
X1507Y292D02*
X1562Y292D01*
X1982Y292D02*
X1989Y292D01*
X0Y291D02*
X7Y291D01*
X249Y291D02*
X303Y291D01*
X1508Y291D02*
X1561Y291D01*
X1982Y291D02*
X1989Y291D01*
X0Y290D02*
X7Y290D01*
X1982Y290D02*
X1989Y290D01*
X0Y289D02*
X7Y289D01*
X1982Y289D02*
X1989Y289D01*
X0Y288D02*
X7Y288D01*
X1982Y288D02*
X1989Y288D01*
X0Y287D02*
X7Y287D01*
X1982Y287D02*
X1989Y287D01*
X0Y286D02*
X7Y286D01*
X1982Y286D02*
X1989Y286D01*
X0Y285D02*
X7Y285D01*
X1982Y285D02*
X1989Y285D01*
X0Y284D02*
X7Y284D01*
X1982Y284D02*
X1989Y284D01*
X0Y283D02*
X7Y283D01*
X1982Y283D02*
X1989Y283D01*
X0Y282D02*
X7Y282D01*
X1982Y282D02*
X1989Y282D01*
X0Y281D02*
X7Y281D01*
X1982Y281D02*
X1989Y281D01*
X0Y280D02*
X7Y280D01*
X1982Y280D02*
X1989Y280D01*
X0Y279D02*
X7Y279D01*
X1982Y279D02*
X1989Y279D01*
X0Y278D02*
X7Y278D01*
X1982Y278D02*
X1989Y278D01*
X0Y277D02*
X7Y277D01*
X1982Y277D02*
X1989Y277D01*
X0Y276D02*
X7Y276D01*
X1982Y276D02*
X1989Y276D01*
X0Y275D02*
X7Y275D01*
X1982Y275D02*
X1989Y275D01*
X0Y274D02*
X7Y274D01*
X1982Y274D02*
X1989Y274D01*
X0Y273D02*
X7Y273D01*
X1982Y273D02*
X1989Y273D01*
X0Y272D02*
X7Y272D01*
X1982Y272D02*
X1989Y272D01*
X0Y271D02*
X7Y271D01*
X1982Y271D02*
X1989Y271D01*
X0Y270D02*
X7Y270D01*
X1982Y270D02*
X1989Y270D01*
X0Y269D02*
X7Y269D01*
X1982Y269D02*
X1989Y269D01*
X0Y268D02*
X7Y268D01*
X1982Y268D02*
X1989Y268D01*
X0Y267D02*
X7Y267D01*
X1982Y267D02*
X1989Y267D01*
X0Y266D02*
X7Y266D01*
X1982Y266D02*
X1989Y266D01*
X0Y265D02*
X7Y265D01*
X805Y265D02*
X814Y265D01*
X1005Y265D02*
X1014Y265D01*
X1982Y265D02*
X1989Y265D01*
X0Y264D02*
X7Y264D01*
X805Y264D02*
X814Y264D01*
X1005Y264D02*
X1014Y264D01*
X1982Y264D02*
X1989Y264D01*
X0Y263D02*
X7Y263D01*
X805Y263D02*
X814Y263D01*
X1005Y263D02*
X1014Y263D01*
X1982Y263D02*
X1989Y263D01*
X0Y262D02*
X7Y262D01*
X805Y262D02*
X814Y262D01*
X1005Y262D02*
X1014Y262D01*
X1982Y262D02*
X1989Y262D01*
X0Y261D02*
X7Y261D01*
X805Y261D02*
X814Y261D01*
X1005Y261D02*
X1014Y261D01*
X1982Y261D02*
X1989Y261D01*
X0Y260D02*
X7Y260D01*
X805Y260D02*
X814Y260D01*
X1005Y260D02*
X1014Y260D01*
X1982Y260D02*
X1989Y260D01*
X0Y259D02*
X7Y259D01*
X805Y259D02*
X814Y259D01*
X1005Y259D02*
X1014Y259D01*
X1982Y259D02*
X1989Y259D01*
X0Y258D02*
X7Y258D01*
X805Y258D02*
X814Y258D01*
X1005Y258D02*
X1014Y258D01*
X1982Y258D02*
X1989Y258D01*
X0Y257D02*
X7Y257D01*
X805Y257D02*
X814Y257D01*
X1005Y257D02*
X1014Y257D01*
X1982Y257D02*
X1989Y257D01*
X0Y256D02*
X7Y256D01*
X805Y256D02*
X814Y256D01*
X1005Y256D02*
X1014Y256D01*
X1982Y256D02*
X1989Y256D01*
X0Y255D02*
X7Y255D01*
X805Y255D02*
X814Y255D01*
X1005Y255D02*
X1014Y255D01*
X1982Y255D02*
X1989Y255D01*
X0Y254D02*
X7Y254D01*
X805Y254D02*
X814Y254D01*
X1005Y254D02*
X1014Y254D01*
X1982Y254D02*
X1989Y254D01*
X0Y253D02*
X7Y253D01*
X805Y253D02*
X814Y253D01*
X1005Y253D02*
X1014Y253D01*
X1982Y253D02*
X1989Y253D01*
X0Y252D02*
X7Y252D01*
X805Y252D02*
X814Y252D01*
X1005Y252D02*
X1014Y252D01*
X1982Y252D02*
X1989Y252D01*
X0Y251D02*
X7Y251D01*
X805Y251D02*
X814Y251D01*
X1005Y251D02*
X1014Y251D01*
X1982Y251D02*
X1989Y251D01*
X0Y250D02*
X7Y250D01*
X805Y250D02*
X814Y250D01*
X1005Y250D02*
X1014Y250D01*
X1982Y250D02*
X1989Y250D01*
X0Y249D02*
X7Y249D01*
X805Y249D02*
X814Y249D01*
X1005Y249D02*
X1014Y249D01*
X1982Y249D02*
X1989Y249D01*
X0Y248D02*
X7Y248D01*
X805Y248D02*
X814Y248D01*
X1005Y248D02*
X1014Y248D01*
X1982Y248D02*
X1989Y248D01*
X0Y247D02*
X7Y247D01*
X805Y247D02*
X814Y247D01*
X1005Y247D02*
X1014Y247D01*
X1982Y247D02*
X1989Y247D01*
X0Y246D02*
X7Y246D01*
X805Y246D02*
X814Y246D01*
X1005Y246D02*
X1014Y246D01*
X1982Y246D02*
X1989Y246D01*
X0Y245D02*
X7Y245D01*
X805Y245D02*
X814Y245D01*
X1005Y245D02*
X1014Y245D01*
X1982Y245D02*
X1989Y245D01*
X0Y244D02*
X7Y244D01*
X805Y244D02*
X814Y244D01*
X1005Y244D02*
X1014Y244D01*
X1982Y244D02*
X1989Y244D01*
X0Y243D02*
X7Y243D01*
X805Y243D02*
X814Y243D01*
X1005Y243D02*
X1014Y243D01*
X1982Y243D02*
X1989Y243D01*
X0Y242D02*
X7Y242D01*
X805Y242D02*
X814Y242D01*
X1005Y242D02*
X1014Y242D01*
X1982Y242D02*
X1989Y242D01*
X0Y241D02*
X7Y241D01*
X805Y241D02*
X814Y241D01*
X1005Y241D02*
X1014Y241D01*
X1982Y241D02*
X1989Y241D01*
X0Y240D02*
X7Y240D01*
X805Y240D02*
X814Y240D01*
X1005Y240D02*
X1014Y240D01*
X1982Y240D02*
X1989Y240D01*
X0Y239D02*
X7Y239D01*
X805Y239D02*
X814Y239D01*
X1005Y239D02*
X1014Y239D01*
X1982Y239D02*
X1989Y239D01*
X0Y238D02*
X7Y238D01*
X805Y238D02*
X814Y238D01*
X1005Y238D02*
X1014Y238D01*
X1982Y238D02*
X1989Y238D01*
X0Y237D02*
X7Y237D01*
X805Y237D02*
X814Y237D01*
X1005Y237D02*
X1014Y237D01*
X1982Y237D02*
X1989Y237D01*
X0Y236D02*
X7Y236D01*
X805Y236D02*
X814Y236D01*
X1005Y236D02*
X1014Y236D01*
X1982Y236D02*
X1989Y236D01*
X0Y235D02*
X7Y235D01*
X805Y235D02*
X814Y235D01*
X1005Y235D02*
X1014Y235D01*
X1982Y235D02*
X1989Y235D01*
X0Y234D02*
X7Y234D01*
X805Y234D02*
X814Y234D01*
X1005Y234D02*
X1014Y234D01*
X1982Y234D02*
X1989Y234D01*
X0Y233D02*
X7Y233D01*
X805Y233D02*
X814Y233D01*
X1005Y233D02*
X1014Y233D01*
X1982Y233D02*
X1989Y233D01*
X0Y232D02*
X7Y232D01*
X805Y232D02*
X814Y232D01*
X1005Y232D02*
X1014Y232D01*
X1982Y232D02*
X1989Y232D01*
X0Y231D02*
X7Y231D01*
X805Y231D02*
X814Y231D01*
X1005Y231D02*
X1014Y231D01*
X1982Y231D02*
X1989Y231D01*
X0Y230D02*
X7Y230D01*
X805Y230D02*
X814Y230D01*
X1005Y230D02*
X1014Y230D01*
X1982Y230D02*
X1989Y230D01*
X0Y229D02*
X7Y229D01*
X805Y229D02*
X814Y229D01*
X1005Y229D02*
X1014Y229D01*
X1982Y229D02*
X1989Y229D01*
X0Y228D02*
X7Y228D01*
X805Y228D02*
X814Y228D01*
X1005Y228D02*
X1014Y228D01*
X1982Y228D02*
X1989Y228D01*
X0Y227D02*
X7Y227D01*
X805Y227D02*
X814Y227D01*
X1005Y227D02*
X1014Y227D01*
X1982Y227D02*
X1989Y227D01*
X0Y226D02*
X7Y226D01*
X805Y226D02*
X814Y226D01*
X1005Y226D02*
X1014Y226D01*
X1982Y226D02*
X1989Y226D01*
X0Y225D02*
X7Y225D01*
X805Y225D02*
X814Y225D01*
X1005Y225D02*
X1014Y225D01*
X1982Y225D02*
X1989Y225D01*
X0Y224D02*
X7Y224D01*
X805Y224D02*
X814Y224D01*
X1005Y224D02*
X1014Y224D01*
X1982Y224D02*
X1989Y224D01*
X0Y223D02*
X7Y223D01*
X805Y223D02*
X814Y223D01*
X1005Y223D02*
X1014Y223D01*
X1982Y223D02*
X1989Y223D01*
X0Y222D02*
X7Y222D01*
X805Y222D02*
X814Y222D01*
X1005Y222D02*
X1014Y222D01*
X1982Y222D02*
X1989Y222D01*
X0Y221D02*
X7Y221D01*
X805Y221D02*
X814Y221D01*
X1005Y221D02*
X1014Y221D01*
X1982Y221D02*
X1989Y221D01*
X0Y220D02*
X7Y220D01*
X805Y220D02*
X814Y220D01*
X1005Y220D02*
X1014Y220D01*
X1982Y220D02*
X1989Y220D01*
X0Y219D02*
X7Y219D01*
X805Y219D02*
X814Y219D01*
X1005Y219D02*
X1014Y219D01*
X1982Y219D02*
X1989Y219D01*
X0Y218D02*
X7Y218D01*
X805Y218D02*
X814Y218D01*
X1005Y218D02*
X1014Y218D01*
X1982Y218D02*
X1989Y218D01*
X0Y217D02*
X7Y217D01*
X805Y217D02*
X805Y217D01*
X814Y217D02*
X814Y217D01*
X1005Y217D02*
X1005Y217D01*
X1014Y217D02*
X1014Y217D01*
X1982Y217D02*
X1989Y217D01*
X0Y216D02*
X7Y216D01*
X1982Y216D02*
X1989Y216D01*
X0Y215D02*
X7Y215D01*
X1982Y215D02*
X1989Y215D01*
X0Y214D02*
X7Y214D01*
X1982Y214D02*
X1989Y214D01*
X0Y213D02*
X7Y213D01*
X1982Y213D02*
X1989Y213D01*
X0Y212D02*
X7Y212D01*
X1982Y212D02*
X1989Y212D01*
X0Y211D02*
X7Y211D01*
X1982Y211D02*
X1989Y211D01*
X0Y210D02*
X7Y210D01*
X1982Y210D02*
X1989Y210D01*
X0Y209D02*
X7Y209D01*
X1982Y209D02*
X1989Y209D01*
X0Y208D02*
X7Y208D01*
X1982Y208D02*
X1989Y208D01*
X0Y207D02*
X7Y207D01*
X1982Y207D02*
X1989Y207D01*
X0Y206D02*
X7Y206D01*
X1982Y206D02*
X1989Y206D01*
X0Y205D02*
X7Y205D01*
X1982Y205D02*
X1989Y205D01*
X0Y204D02*
X7Y204D01*
X1982Y204D02*
X1989Y204D01*
X0Y203D02*
X7Y203D01*
X1982Y203D02*
X1989Y203D01*
X0Y202D02*
X7Y202D01*
X1982Y202D02*
X1989Y202D01*
X0Y201D02*
X7Y201D01*
X1982Y201D02*
X1989Y201D01*
X0Y200D02*
X7Y200D01*
X1982Y200D02*
X1989Y200D01*
X0Y199D02*
X7Y199D01*
X1982Y199D02*
X1989Y199D01*
X0Y198D02*
X7Y198D01*
X1982Y198D02*
X1989Y198D01*
X0Y197D02*
X7Y197D01*
X1982Y197D02*
X1989Y197D01*
X0Y196D02*
X7Y196D01*
X1982Y196D02*
X1989Y196D01*
X0Y195D02*
X7Y195D01*
X1982Y195D02*
X1989Y195D01*
X0Y194D02*
X7Y194D01*
X1982Y194D02*
X1989Y194D01*
X0Y193D02*
X7Y193D01*
X1982Y193D02*
X1989Y193D01*
X0Y192D02*
X7Y192D01*
X1982Y192D02*
X1989Y192D01*
X0Y191D02*
X7Y191D01*
X1982Y191D02*
X1989Y191D01*
X0Y190D02*
X7Y190D01*
X1982Y190D02*
X1989Y190D01*
X0Y189D02*
X7Y189D01*
X1982Y189D02*
X1989Y189D01*
X0Y188D02*
X7Y188D01*
X1982Y188D02*
X1989Y188D01*
X0Y187D02*
X7Y187D01*
X1982Y187D02*
X1989Y187D01*
X0Y186D02*
X7Y186D01*
X1982Y186D02*
X1989Y186D01*
X0Y185D02*
X7Y185D01*
X1982Y185D02*
X1989Y185D01*
X0Y184D02*
X7Y184D01*
X1982Y184D02*
X1989Y184D01*
X0Y183D02*
X7Y183D01*
X1982Y183D02*
X1989Y183D01*
X0Y182D02*
X7Y182D01*
X1982Y182D02*
X1989Y182D01*
X0Y181D02*
X7Y181D01*
X1982Y181D02*
X1989Y181D01*
X0Y180D02*
X7Y180D01*
X1982Y180D02*
X1989Y180D01*
X0Y179D02*
X7Y179D01*
X1982Y179D02*
X1989Y179D01*
X0Y178D02*
X7Y178D01*
X1982Y178D02*
X1989Y178D01*
X0Y177D02*
X7Y177D01*
X1982Y177D02*
X1989Y177D01*
X0Y176D02*
X7Y176D01*
X1982Y176D02*
X1989Y176D01*
X0Y175D02*
X7Y175D01*
X1982Y175D02*
X1989Y175D01*
X0Y174D02*
X7Y174D01*
X1982Y174D02*
X1989Y174D01*
X0Y173D02*
X7Y173D01*
X1982Y173D02*
X1989Y173D01*
X0Y172D02*
X7Y172D01*
X1982Y172D02*
X1989Y172D01*
X0Y171D02*
X7Y171D01*
X1982Y171D02*
X1989Y171D01*
X0Y170D02*
X7Y170D01*
X1982Y170D02*
X1989Y170D01*
X0Y169D02*
X7Y169D01*
X1982Y169D02*
X1989Y169D01*
X0Y168D02*
X7Y168D01*
X1982Y168D02*
X1989Y168D01*
X0Y167D02*
X7Y167D01*
X1982Y167D02*
X1989Y167D01*
X0Y166D02*
X7Y166D01*
X1982Y166D02*
X1989Y166D01*
X0Y165D02*
X7Y165D01*
X1982Y165D02*
X1989Y165D01*
X0Y164D02*
X7Y164D01*
X1982Y164D02*
X1989Y164D01*
X0Y163D02*
X7Y163D01*
X1982Y163D02*
X1989Y163D01*
X0Y162D02*
X7Y162D01*
X1982Y162D02*
X1989Y162D01*
X0Y161D02*
X7Y161D01*
X1982Y161D02*
X1989Y161D01*
X0Y160D02*
X7Y160D01*
X1982Y160D02*
X1989Y160D01*
X0Y159D02*
X7Y159D01*
X1982Y159D02*
X1989Y159D01*
X0Y158D02*
X7Y158D01*
X1982Y158D02*
X1989Y158D01*
X0Y157D02*
X7Y157D01*
X1982Y157D02*
X1989Y157D01*
X0Y156D02*
X7Y156D01*
X1982Y156D02*
X1989Y156D01*
X0Y155D02*
X7Y155D01*
X1982Y155D02*
X1989Y155D01*
X0Y154D02*
X7Y154D01*
X1982Y154D02*
X1989Y154D01*
X0Y153D02*
X7Y153D01*
X1982Y153D02*
X1989Y153D01*
X0Y152D02*
X7Y152D01*
X1982Y152D02*
X1989Y152D01*
X0Y151D02*
X7Y151D01*
X1982Y151D02*
X1989Y151D01*
X0Y150D02*
X7Y150D01*
X1982Y150D02*
X1989Y150D01*
X0Y149D02*
X7Y149D01*
X1982Y149D02*
X1989Y149D01*
X0Y148D02*
X7Y148D01*
X1982Y148D02*
X1989Y148D01*
X0Y147D02*
X7Y147D01*
X1982Y147D02*
X1989Y147D01*
X0Y146D02*
X7Y146D01*
X1982Y146D02*
X1989Y146D01*
X0Y145D02*
X7Y145D01*
X1982Y145D02*
X1989Y145D01*
X0Y144D02*
X7Y144D01*
X1982Y144D02*
X1989Y144D01*
X0Y143D02*
X7Y143D01*
X1982Y143D02*
X1989Y143D01*
X0Y142D02*
X7Y142D01*
X1982Y142D02*
X1989Y142D01*
X0Y141D02*
X7Y141D01*
X1982Y141D02*
X1989Y141D01*
X0Y140D02*
X7Y140D01*
X1982Y140D02*
X1989Y140D01*
X0Y139D02*
X7Y139D01*
X1982Y139D02*
X1989Y139D01*
X0Y138D02*
X7Y138D01*
X1982Y138D02*
X1989Y138D01*
X0Y137D02*
X7Y137D01*
X1982Y137D02*
X1989Y137D01*
X0Y136D02*
X7Y136D01*
X1982Y136D02*
X1989Y136D01*
X0Y135D02*
X7Y135D01*
X1982Y135D02*
X1989Y135D01*
X0Y134D02*
X7Y134D01*
X1982Y134D02*
X1989Y134D01*
X0Y133D02*
X7Y133D01*
X1982Y133D02*
X1989Y133D01*
X0Y132D02*
X7Y132D01*
X1982Y132D02*
X1989Y132D01*
X0Y131D02*
X7Y131D01*
X1982Y131D02*
X1989Y131D01*
X0Y130D02*
X7Y130D01*
X1982Y130D02*
X1989Y130D01*
X0Y129D02*
X7Y129D01*
X881Y129D02*
X932Y129D01*
X1080Y129D02*
X1132Y129D01*
X1982Y129D02*
X1989Y129D01*
X0Y128D02*
X7Y128D01*
X879Y128D02*
X932Y128D01*
X1079Y128D02*
X1132Y128D01*
X1982Y128D02*
X1989Y128D01*
X0Y127D02*
X7Y127D01*
X879Y127D02*
X932Y127D01*
X1079Y127D02*
X1132Y127D01*
X1982Y127D02*
X1989Y127D01*
X0Y126D02*
X7Y126D01*
X879Y126D02*
X932Y126D01*
X1079Y126D02*
X1132Y126D01*
X1926Y126D02*
X1926Y126D01*
X1982Y126D02*
X1989Y126D01*
X0Y125D02*
X7Y125D01*
X879Y125D02*
X932Y125D01*
X1079Y125D02*
X1132Y125D01*
X1925Y125D02*
X1927Y125D01*
X1982Y125D02*
X1989Y125D01*
X0Y124D02*
X7Y124D01*
X879Y124D02*
X932Y124D01*
X1079Y124D02*
X1132Y124D01*
X1924Y124D02*
X1928Y124D01*
X1982Y124D02*
X1989Y124D01*
X0Y123D02*
X7Y123D01*
X881Y123D02*
X932Y123D01*
X1081Y123D02*
X1132Y123D01*
X1923Y123D02*
X1929Y123D01*
X1982Y123D02*
X1989Y123D01*
X0Y122D02*
X7Y122D01*
X908Y122D02*
X914Y122D01*
X926Y122D02*
X932Y122D01*
X1108Y122D02*
X1114Y122D01*
X1126Y122D02*
X1132Y122D01*
X1924Y122D02*
X1930Y122D01*
X1982Y122D02*
X1989Y122D01*
X0Y121D02*
X7Y121D01*
X908Y121D02*
X914Y121D01*
X926Y121D02*
X932Y121D01*
X1108Y121D02*
X1114Y121D01*
X1126Y121D02*
X1132Y121D01*
X1925Y121D02*
X1931Y121D01*
X1982Y121D02*
X1989Y121D01*
X0Y120D02*
X7Y120D01*
X908Y120D02*
X914Y120D01*
X926Y120D02*
X932Y120D01*
X1108Y120D02*
X1114Y120D01*
X1126Y120D02*
X1132Y120D01*
X1926Y120D02*
X1932Y120D01*
X1982Y120D02*
X1989Y120D01*
X0Y119D02*
X7Y119D01*
X908Y119D02*
X914Y119D01*
X926Y119D02*
X932Y119D01*
X1108Y119D02*
X1114Y119D01*
X1126Y119D02*
X1132Y119D01*
X1927Y119D02*
X1933Y119D01*
X1982Y119D02*
X1989Y119D01*
X0Y118D02*
X7Y118D01*
X908Y118D02*
X914Y118D01*
X926Y118D02*
X932Y118D01*
X1108Y118D02*
X1114Y118D01*
X1126Y118D02*
X1132Y118D01*
X1928Y118D02*
X1934Y118D01*
X1982Y118D02*
X1989Y118D01*
X0Y117D02*
X7Y117D01*
X907Y117D02*
X914Y117D01*
X926Y117D02*
X932Y117D01*
X1107Y117D02*
X1114Y117D01*
X1126Y117D02*
X1132Y117D01*
X1929Y117D02*
X1935Y117D01*
X1982Y117D02*
X1989Y117D01*
X0Y116D02*
X7Y116D01*
X905Y116D02*
X914Y116D01*
X926Y116D02*
X932Y116D01*
X1105Y116D02*
X1114Y116D01*
X1126Y116D02*
X1132Y116D01*
X1930Y116D02*
X1936Y116D01*
X1982Y116D02*
X1989Y116D01*
X0Y115D02*
X7Y115D01*
X904Y115D02*
X914Y115D01*
X926Y115D02*
X932Y115D01*
X1103Y115D02*
X1114Y115D01*
X1126Y115D02*
X1132Y115D01*
X1931Y115D02*
X1937Y115D01*
X1982Y115D02*
X1989Y115D01*
X0Y114D02*
X7Y114D01*
X902Y114D02*
X914Y114D01*
X926Y114D02*
X932Y114D01*
X1102Y114D02*
X1114Y114D01*
X1126Y114D02*
X1132Y114D01*
X1932Y114D02*
X1938Y114D01*
X1982Y114D02*
X1989Y114D01*
X0Y113D02*
X7Y113D01*
X900Y113D02*
X914Y113D01*
X926Y113D02*
X932Y113D01*
X1100Y113D02*
X1114Y113D01*
X1126Y113D02*
X1132Y113D01*
X1933Y113D02*
X1939Y113D01*
X1982Y113D02*
X1989Y113D01*
X0Y112D02*
X7Y112D01*
X898Y112D02*
X914Y112D01*
X926Y112D02*
X932Y112D01*
X1098Y112D02*
X1114Y112D01*
X1126Y112D02*
X1132Y112D01*
X1934Y112D02*
X1940Y112D01*
X1982Y112D02*
X1989Y112D01*
X0Y111D02*
X7Y111D01*
X897Y111D02*
X914Y111D01*
X926Y111D02*
X932Y111D01*
X1097Y111D02*
X1114Y111D01*
X1126Y111D02*
X1132Y111D01*
X1935Y111D02*
X1941Y111D01*
X1982Y111D02*
X1989Y111D01*
X0Y110D02*
X7Y110D01*
X895Y110D02*
X914Y110D01*
X926Y110D02*
X932Y110D01*
X1095Y110D02*
X1114Y110D01*
X1126Y110D02*
X1132Y110D01*
X1936Y110D02*
X1942Y110D01*
X1982Y110D02*
X1989Y110D01*
X0Y109D02*
X7Y109D01*
X893Y109D02*
X906Y109D01*
X908Y109D02*
X914Y109D01*
X926Y109D02*
X932Y109D01*
X1093Y109D02*
X1106Y109D01*
X1108Y109D02*
X1114Y109D01*
X1126Y109D02*
X1132Y109D01*
X1938Y109D02*
X1943Y109D01*
X1982Y109D02*
X1989Y109D01*
X0Y108D02*
X7Y108D01*
X891Y108D02*
X905Y108D01*
X908Y108D02*
X914Y108D01*
X926Y108D02*
X932Y108D01*
X1091Y108D02*
X1105Y108D01*
X1108Y108D02*
X1114Y108D01*
X1126Y108D02*
X1132Y108D01*
X1939Y108D02*
X1944Y108D01*
X1982Y108D02*
X1989Y108D01*
X0Y107D02*
X7Y107D01*
X890Y107D02*
X903Y107D01*
X908Y107D02*
X914Y107D01*
X926Y107D02*
X932Y107D01*
X1090Y107D02*
X1103Y107D01*
X1108Y107D02*
X1114Y107D01*
X1126Y107D02*
X1132Y107D01*
X1940Y107D02*
X1945Y107D01*
X1982Y107D02*
X1989Y107D01*
X0Y106D02*
X7Y106D01*
X888Y106D02*
X901Y106D01*
X908Y106D02*
X914Y106D01*
X926Y106D02*
X932Y106D01*
X1088Y106D02*
X1101Y106D01*
X1108Y106D02*
X1114Y106D01*
X1126Y106D02*
X1132Y106D01*
X1941Y106D02*
X1946Y106D01*
X1982Y106D02*
X1989Y106D01*
X0Y105D02*
X7Y105D01*
X886Y105D02*
X899Y105D01*
X908Y105D02*
X914Y105D01*
X926Y105D02*
X932Y105D01*
X1086Y105D02*
X1099Y105D01*
X1108Y105D02*
X1114Y105D01*
X1126Y105D02*
X1132Y105D01*
X1942Y105D02*
X1947Y105D01*
X1982Y105D02*
X1989Y105D01*
X0Y104D02*
X7Y104D01*
X885Y104D02*
X898Y104D01*
X908Y104D02*
X915Y104D01*
X925Y104D02*
X932Y104D01*
X1085Y104D02*
X1098Y104D01*
X1108Y104D02*
X1115Y104D01*
X1125Y104D02*
X1132Y104D01*
X1943Y104D02*
X1948Y104D01*
X1982Y104D02*
X1989Y104D01*
X0Y103D02*
X7Y103D01*
X883Y103D02*
X896Y103D01*
X909Y103D02*
X915Y103D01*
X925Y103D02*
X932Y103D01*
X1083Y103D02*
X1096Y103D01*
X1108Y103D02*
X1115Y103D01*
X1125Y103D02*
X1132Y103D01*
X1944Y103D02*
X1949Y103D01*
X1982Y103D02*
X1989Y103D01*
X0Y102D02*
X7Y102D01*
X881Y102D02*
X894Y102D01*
X909Y102D02*
X918Y102D01*
X922Y102D02*
X931Y102D01*
X1081Y102D02*
X1094Y102D01*
X1109Y102D02*
X1118Y102D01*
X1122Y102D02*
X1131Y102D01*
X1945Y102D02*
X1950Y102D01*
X1982Y102D02*
X1989Y102D01*
X0Y101D02*
X7Y101D01*
X880Y101D02*
X893Y101D01*
X909Y101D02*
X931Y101D01*
X1080Y101D02*
X1093Y101D01*
X1109Y101D02*
X1131Y101D01*
X1945Y101D02*
X1951Y101D01*
X1982Y101D02*
X1989Y101D01*
X0Y100D02*
X7Y100D01*
X879Y100D02*
X891Y100D01*
X910Y100D02*
X930Y100D01*
X1079Y100D02*
X1091Y100D01*
X1110Y100D02*
X1130Y100D01*
X1946Y100D02*
X1952Y100D01*
X1982Y100D02*
X1989Y100D01*
X0Y99D02*
X7Y99D01*
X879Y99D02*
X889Y99D01*
X911Y99D02*
X930Y99D01*
X1079Y99D02*
X1089Y99D01*
X1111Y99D02*
X1130Y99D01*
X1947Y99D02*
X1953Y99D01*
X1982Y99D02*
X1989Y99D01*
X0Y98D02*
X7Y98D01*
X879Y98D02*
X887Y98D01*
X911Y98D02*
X929Y98D01*
X1079Y98D02*
X1087Y98D01*
X1111Y98D02*
X1129Y98D01*
X1948Y98D02*
X1954Y98D01*
X1982Y98D02*
X1989Y98D01*
X0Y97D02*
X7Y97D01*
X879Y97D02*
X886Y97D01*
X913Y97D02*
X927Y97D01*
X1079Y97D02*
X1086Y97D01*
X1113Y97D02*
X1127Y97D01*
X1949Y97D02*
X1955Y97D01*
X1982Y97D02*
X1989Y97D01*
X0Y96D02*
X7Y96D01*
X880Y96D02*
X884Y96D01*
X914Y96D02*
X926Y96D01*
X1080Y96D02*
X1084Y96D01*
X1114Y96D02*
X1126Y96D01*
X1950Y96D02*
X1956Y96D01*
X1982Y96D02*
X1989Y96D01*
X0Y95D02*
X7Y95D01*
X918Y95D02*
X922Y95D01*
X1118Y95D02*
X1122Y95D01*
X1951Y95D02*
X1957Y95D01*
X1982Y95D02*
X1989Y95D01*
X0Y94D02*
X7Y94D01*
X1952Y94D02*
X1958Y94D01*
X1982Y94D02*
X1989Y94D01*
X0Y93D02*
X7Y93D01*
X1953Y93D02*
X1959Y93D01*
X1982Y93D02*
X1989Y93D01*
X0Y92D02*
X7Y92D01*
X1954Y92D02*
X1960Y92D01*
X1982Y92D02*
X1989Y92D01*
X0Y91D02*
X7Y91D01*
X1955Y91D02*
X1960Y91D01*
X1982Y91D02*
X1989Y91D01*
X0Y90D02*
X7Y90D01*
X1956Y90D02*
X1959Y90D01*
X1982Y90D02*
X1989Y90D01*
X0Y89D02*
X7Y89D01*
X1957Y89D02*
X1958Y89D01*
X1982Y89D02*
X1989Y89D01*
X0Y88D02*
X7Y88D01*
X1982Y88D02*
X1989Y88D01*
X0Y87D02*
X7Y87D01*
X1982Y87D02*
X1989Y87D01*
X0Y86D02*
X7Y86D01*
X1982Y86D02*
X1989Y86D01*
X0Y85D02*
X7Y85D01*
X1982Y85D02*
X1989Y85D01*
X0Y84D02*
X7Y84D01*
X1982Y84D02*
X1989Y84D01*
X0Y83D02*
X7Y83D01*
X1982Y83D02*
X1989Y83D01*
X0Y82D02*
X7Y82D01*
X1982Y82D02*
X1989Y82D01*
X0Y81D02*
X7Y81D01*
X1982Y81D02*
X1989Y81D01*
X0Y80D02*
X7Y80D01*
X1982Y80D02*
X1989Y80D01*
X0Y79D02*
X7Y79D01*
X880Y79D02*
X883Y79D01*
X928Y79D02*
X930Y79D01*
X1079Y79D02*
X1104Y79D01*
X1128Y79D02*
X1130Y79D01*
X1982Y79D02*
X1989Y79D01*
X0Y78D02*
X7Y78D01*
X879Y78D02*
X884Y78D01*
X927Y78D02*
X931Y78D01*
X1079Y78D02*
X1106Y78D01*
X1127Y78D02*
X1131Y78D01*
X1982Y78D02*
X1989Y78D01*
X0Y77D02*
X7Y77D01*
X879Y77D02*
X885Y77D01*
X926Y77D02*
X932Y77D01*
X1079Y77D02*
X1107Y77D01*
X1126Y77D02*
X1132Y77D01*
X1982Y77D02*
X1989Y77D01*
X0Y76D02*
X7Y76D01*
X879Y76D02*
X885Y76D01*
X926Y76D02*
X932Y76D01*
X1079Y76D02*
X1107Y76D01*
X1126Y76D02*
X1132Y76D01*
X1982Y76D02*
X1989Y76D01*
X0Y75D02*
X7Y75D01*
X879Y75D02*
X885Y75D01*
X926Y75D02*
X932Y75D01*
X1079Y75D02*
X1108Y75D01*
X1126Y75D02*
X1132Y75D01*
X1982Y75D02*
X1989Y75D01*
X0Y74D02*
X7Y74D01*
X879Y74D02*
X885Y74D01*
X926Y74D02*
X932Y74D01*
X1079Y74D02*
X1108Y74D01*
X1126Y74D02*
X1132Y74D01*
X1982Y74D02*
X1989Y74D01*
X0Y73D02*
X7Y73D01*
X879Y73D02*
X885Y73D01*
X926Y73D02*
X932Y73D01*
X1079Y73D02*
X1108Y73D01*
X1126Y73D02*
X1132Y73D01*
X1982Y73D02*
X1989Y73D01*
X0Y72D02*
X7Y72D01*
X879Y72D02*
X885Y72D01*
X926Y72D02*
X932Y72D01*
X1079Y72D02*
X1085Y72D01*
X1102Y72D02*
X1108Y72D01*
X1126Y72D02*
X1132Y72D01*
X1982Y72D02*
X1989Y72D01*
X0Y71D02*
X7Y71D01*
X879Y71D02*
X885Y71D01*
X926Y71D02*
X932Y71D01*
X1079Y71D02*
X1085Y71D01*
X1102Y71D02*
X1108Y71D01*
X1126Y71D02*
X1132Y71D01*
X1982Y71D02*
X1989Y71D01*
X0Y70D02*
X7Y70D01*
X879Y70D02*
X885Y70D01*
X926Y70D02*
X932Y70D01*
X1079Y70D02*
X1085Y70D01*
X1102Y70D02*
X1108Y70D01*
X1126Y70D02*
X1132Y70D01*
X1982Y70D02*
X1989Y70D01*
X0Y69D02*
X7Y69D01*
X879Y69D02*
X885Y69D01*
X926Y69D02*
X932Y69D01*
X1079Y69D02*
X1085Y69D01*
X1102Y69D02*
X1108Y69D01*
X1126Y69D02*
X1132Y69D01*
X1982Y69D02*
X1989Y69D01*
X0Y68D02*
X7Y68D01*
X879Y68D02*
X885Y68D01*
X926Y68D02*
X932Y68D01*
X1079Y68D02*
X1085Y68D01*
X1102Y68D02*
X1108Y68D01*
X1126Y68D02*
X1132Y68D01*
X1982Y68D02*
X1989Y68D01*
X0Y67D02*
X7Y67D01*
X879Y67D02*
X885Y67D01*
X926Y67D02*
X932Y67D01*
X1079Y67D02*
X1085Y67D01*
X1102Y67D02*
X1108Y67D01*
X1126Y67D02*
X1132Y67D01*
X1982Y67D02*
X1989Y67D01*
X0Y66D02*
X7Y66D01*
X879Y66D02*
X885Y66D01*
X926Y66D02*
X932Y66D01*
X1079Y66D02*
X1085Y66D01*
X1102Y66D02*
X1108Y66D01*
X1126Y66D02*
X1132Y66D01*
X1982Y66D02*
X1989Y66D01*
X0Y65D02*
X7Y65D01*
X879Y65D02*
X932Y65D01*
X1079Y65D02*
X1085Y65D01*
X1102Y65D02*
X1108Y65D01*
X1126Y65D02*
X1132Y65D01*
X1982Y65D02*
X1989Y65D01*
X0Y64D02*
X7Y64D01*
X879Y64D02*
X932Y64D01*
X1079Y64D02*
X1085Y64D01*
X1102Y64D02*
X1108Y64D01*
X1126Y64D02*
X1132Y64D01*
X1982Y64D02*
X1989Y64D01*
X0Y63D02*
X7Y63D01*
X879Y63D02*
X932Y63D01*
X1079Y63D02*
X1085Y63D01*
X1102Y63D02*
X1108Y63D01*
X1126Y63D02*
X1132Y63D01*
X1982Y63D02*
X1989Y63D01*
X0Y62D02*
X7Y62D01*
X879Y62D02*
X932Y62D01*
X1079Y62D02*
X1085Y62D01*
X1102Y62D02*
X1108Y62D01*
X1126Y62D02*
X1132Y62D01*
X1982Y62D02*
X1989Y62D01*
X0Y61D02*
X7Y61D01*
X879Y61D02*
X932Y61D01*
X1079Y61D02*
X1085Y61D01*
X1102Y61D02*
X1108Y61D01*
X1126Y61D02*
X1132Y61D01*
X1982Y61D02*
X1989Y61D01*
X0Y60D02*
X7Y60D01*
X879Y60D02*
X932Y60D01*
X1079Y60D02*
X1085Y60D01*
X1102Y60D02*
X1108Y60D01*
X1126Y60D02*
X1132Y60D01*
X1982Y60D02*
X1989Y60D01*
X0Y59D02*
X7Y59D01*
X879Y59D02*
X932Y59D01*
X1079Y59D02*
X1085Y59D01*
X1102Y59D02*
X1108Y59D01*
X1126Y59D02*
X1132Y59D01*
X1982Y59D02*
X1989Y59D01*
X0Y58D02*
X7Y58D01*
X879Y58D02*
X885Y58D01*
X1079Y58D02*
X1085Y58D01*
X1102Y58D02*
X1108Y58D01*
X1126Y58D02*
X1132Y58D01*
X1982Y58D02*
X1989Y58D01*
X0Y57D02*
X7Y57D01*
X879Y57D02*
X885Y57D01*
X1079Y57D02*
X1085Y57D01*
X1102Y57D02*
X1108Y57D01*
X1126Y57D02*
X1132Y57D01*
X1982Y57D02*
X1989Y57D01*
X0Y56D02*
X7Y56D01*
X879Y56D02*
X885Y56D01*
X1079Y56D02*
X1085Y56D01*
X1102Y56D02*
X1108Y56D01*
X1126Y56D02*
X1132Y56D01*
X1982Y56D02*
X1989Y56D01*
X0Y55D02*
X7Y55D01*
X879Y55D02*
X885Y55D01*
X1079Y55D02*
X1085Y55D01*
X1102Y55D02*
X1108Y55D01*
X1126Y55D02*
X1132Y55D01*
X1982Y55D02*
X1989Y55D01*
X0Y54D02*
X7Y54D01*
X879Y54D02*
X885Y54D01*
X1079Y54D02*
X1085Y54D01*
X1102Y54D02*
X1108Y54D01*
X1126Y54D02*
X1132Y54D01*
X1982Y54D02*
X1989Y54D01*
X0Y53D02*
X7Y53D01*
X879Y53D02*
X885Y53D01*
X1079Y53D02*
X1085Y53D01*
X1102Y53D02*
X1108Y53D01*
X1126Y53D02*
X1132Y53D01*
X1982Y53D02*
X1989Y53D01*
X0Y52D02*
X7Y52D01*
X879Y52D02*
X899Y52D01*
X1079Y52D02*
X1085Y52D01*
X1102Y52D02*
X1132Y52D01*
X1982Y52D02*
X1989Y52D01*
X0Y51D02*
X7Y51D01*
X879Y51D02*
X901Y51D01*
X1079Y51D02*
X1085Y51D01*
X1102Y51D02*
X1132Y51D01*
X1982Y51D02*
X1989Y51D01*
X0Y50D02*
X7Y50D01*
X879Y50D02*
X902Y50D01*
X1079Y50D02*
X1085Y50D01*
X1103Y50D02*
X1132Y50D01*
X1982Y50D02*
X1989Y50D01*
X0Y49D02*
X7Y49D01*
X879Y49D02*
X902Y49D01*
X1079Y49D02*
X1085Y49D01*
X1103Y49D02*
X1131Y49D01*
X1982Y49D02*
X1989Y49D01*
X0Y48D02*
X7Y48D01*
X879Y48D02*
X902Y48D01*
X1079Y48D02*
X1085Y48D01*
X1104Y48D02*
X1131Y48D01*
X1982Y48D02*
X1989Y48D01*
X0Y47D02*
X7Y47D01*
X879Y47D02*
X902Y47D01*
X1079Y47D02*
X1084Y47D01*
X1105Y47D02*
X1130Y47D01*
X1982Y47D02*
X1989Y47D01*
X0Y46D02*
X7Y46D01*
X880Y46D02*
X901Y46D01*
X1080Y46D02*
X1084Y46D01*
X1106Y46D02*
X1128Y46D01*
X1982Y46D02*
X1989Y46D01*
X0Y45D02*
X7Y45D01*
X1982Y45D02*
X1989Y45D01*
X0Y44D02*
X7Y44D01*
X1982Y44D02*
X1989Y44D01*
X0Y43D02*
X7Y43D01*
X1982Y43D02*
X1989Y43D01*
X0Y42D02*
X7Y42D01*
X1982Y42D02*
X1989Y42D01*
X0Y41D02*
X7Y41D01*
X1982Y41D02*
X1989Y41D01*
X0Y40D02*
X7Y40D01*
X1982Y40D02*
X1989Y40D01*
X0Y39D02*
X7Y39D01*
X1982Y39D02*
X1989Y39D01*
X0Y38D02*
X7Y38D01*
X1982Y38D02*
X1989Y38D01*
X0Y37D02*
X7Y37D01*
X1982Y37D02*
X1989Y37D01*
X0Y36D02*
X7Y36D01*
X1982Y36D02*
X1989Y36D01*
X0Y35D02*
X7Y35D01*
X1982Y35D02*
X1989Y35D01*
X0Y34D02*
X7Y34D01*
X1982Y34D02*
X1989Y34D01*
X0Y33D02*
X7Y33D01*
X1982Y33D02*
X1989Y33D01*
X0Y32D02*
X7Y32D01*
X1982Y32D02*
X1989Y32D01*
X0Y31D02*
X7Y31D01*
X1982Y31D02*
X1989Y31D01*
X0Y30D02*
X7Y30D01*
X1982Y30D02*
X1989Y30D01*
X0Y29D02*
X7Y29D01*
X1982Y29D02*
X1989Y29D01*
X0Y28D02*
X7Y28D01*
X1982Y28D02*
X1989Y28D01*
X0Y27D02*
X7Y27D01*
X1982Y27D02*
X1989Y27D01*
X0Y26D02*
X7Y26D01*
X1982Y26D02*
X1989Y26D01*
X0Y25D02*
X7Y25D01*
X1982Y25D02*
X1989Y25D01*
X0Y24D02*
X7Y24D01*
X1982Y24D02*
X1989Y24D01*
X0Y23D02*
X7Y23D01*
X1982Y23D02*
X1989Y23D01*
X0Y22D02*
X7Y22D01*
X1982Y22D02*
X1989Y22D01*
X0Y21D02*
X7Y21D01*
X1982Y21D02*
X1989Y21D01*
X0Y20D02*
X7Y20D01*
X1982Y20D02*
X1989Y20D01*
X0Y19D02*
X7Y19D01*
X1982Y19D02*
X1989Y19D01*
X0Y18D02*
X7Y18D01*
X1982Y18D02*
X1989Y18D01*
X0Y17D02*
X7Y17D01*
X1982Y17D02*
X1989Y17D01*
X0Y16D02*
X7Y16D01*
X1982Y16D02*
X1989Y16D01*
X0Y15D02*
X7Y15D01*
X1982Y15D02*
X1989Y15D01*
X0Y14D02*
X7Y14D01*
X1982Y14D02*
X1989Y14D01*
X0Y13D02*
X7Y13D01*
X1982Y13D02*
X1989Y13D01*
X0Y12D02*
X7Y12D01*
X1982Y12D02*
X1989Y12D01*
X0Y11D02*
X7Y11D01*
X1982Y11D02*
X1989Y11D01*
X0Y10D02*
X7Y10D01*
X1982Y10D02*
X1989Y10D01*
X0Y9D02*
X1989Y9D01*
X0Y8D02*
X1989Y8D01*
X0Y7D02*
X1989Y7D01*
X0Y6D02*
X1989Y6D01*
X0Y5D02*
X1989Y5D01*
X0Y4D02*
X1989Y4D01*
X0Y3D02*
X1989Y3D01*
X0Y2D02*
X1989Y2D01*
D02*
G04 End of Silk1*
M02*