G04 MADE WITH FRITZING*
G04 WWW.FRITZING.ORG*
G04 DOUBLE SIDED*
G04 HOLES PLATED*
G04 CONTOUR ON CENTER OF CONTOUR VECTOR*
%ASAXBY*%
%FSLAX23Y23*%
%MOIN*%
%OFA0B0*%
%SFA1.0B1.0*%
%ADD10C,0.079370*%
%ADD11C,0.078000*%
%ADD12C,0.083307*%
%ADD13C,0.169291*%
%ADD14C,0.158110*%
%ADD15C,0.075000*%
%ADD16C,0.075667*%
%ADD17C,0.075695*%
%ADD18R,0.075667X0.075667*%
%ADD19C,0.024000*%
%ADD20C,0.048000*%
%ADD21R,0.001000X0.001000*%
%LNCOPPER0*%
G90*
G70*
G54D10*
X710Y3572D03*
X610Y3572D03*
X710Y3672D03*
X610Y3672D03*
G54D11*
X6810Y372D03*
X6710Y372D03*
X6610Y372D03*
X6510Y372D03*
X6410Y372D03*
X5710Y372D03*
X5610Y372D03*
X5510Y372D03*
X5410Y372D03*
G54D12*
X6910Y2572D03*
X4810Y4872D03*
X3110Y5072D03*
X3110Y4972D03*
X2010Y5172D03*
X2010Y4872D03*
X4710Y872D03*
X3810Y5372D03*
X4710Y2872D03*
X6810Y2572D03*
X3810Y5272D03*
G54D13*
X8010Y5372D03*
G54D12*
X7010Y4772D03*
X6910Y4772D03*
X5310Y2972D03*
X5810Y2472D03*
X5610Y2872D03*
X5710Y2572D03*
X6510Y2372D03*
X6410Y272D03*
X5710Y672D03*
X310Y272D03*
X110Y372D03*
X5010Y672D03*
G54D13*
X8010Y4854D03*
G54D10*
X7910Y4972D03*
X7910Y5072D03*
X7910Y5172D03*
X7910Y5272D03*
G54D12*
X7910Y672D03*
X7910Y472D03*
X310Y672D03*
X310Y472D03*
X6910Y937D03*
X6810Y937D03*
X2676Y5191D03*
X2676Y5291D03*
X7329Y937D03*
X7229Y937D03*
X2676Y4772D03*
X2676Y4872D03*
X6910Y1672D03*
X6810Y1672D03*
X3410Y5191D03*
X3410Y5291D03*
X7329Y1672D03*
X7229Y1672D03*
X3410Y4772D03*
X3410Y4872D03*
G54D11*
X5010Y372D03*
X4910Y372D03*
X4810Y372D03*
X4710Y372D03*
X1710Y5172D03*
X1710Y5072D03*
X1710Y4972D03*
X1710Y4872D03*
X310Y3872D03*
X410Y3872D03*
X510Y3872D03*
X610Y3872D03*
X710Y3872D03*
X810Y3872D03*
X910Y3872D03*
X1010Y3872D03*
X310Y4572D03*
X410Y4572D03*
X510Y4572D03*
X610Y4572D03*
X710Y4572D03*
X810Y4572D03*
X910Y4572D03*
X1010Y4572D03*
X5810Y2772D03*
X5710Y2772D03*
X5610Y2772D03*
X5510Y2772D03*
X5410Y2772D03*
X5310Y2772D03*
X6910Y2772D03*
X6810Y2772D03*
X6710Y2772D03*
X6610Y2772D03*
X6510Y2772D03*
X6410Y2772D03*
X7973Y2772D03*
X7873Y2772D03*
X7773Y2772D03*
X7673Y2772D03*
X7573Y2772D03*
X7473Y2772D03*
X7373Y2772D03*
X7273Y2772D03*
X7173Y2772D03*
X7073Y2772D03*
X5810Y4672D03*
X5710Y4672D03*
X5610Y4672D03*
X5510Y4672D03*
X5410Y4672D03*
X5310Y4672D03*
X5210Y4672D03*
X5110Y4672D03*
X6710Y4672D03*
X6610Y4672D03*
X6510Y4672D03*
X6410Y4672D03*
X6310Y4672D03*
X6210Y4672D03*
X6110Y4672D03*
X6010Y4672D03*
X5010Y4472D03*
X5010Y4372D03*
X5010Y4272D03*
X5010Y4172D03*
X5010Y4072D03*
X5010Y3972D03*
X5010Y3872D03*
X5010Y3772D03*
X5010Y3672D03*
X5010Y3572D03*
X5010Y3472D03*
X5010Y3372D03*
X5010Y3272D03*
X5010Y3172D03*
X5010Y3072D03*
X5010Y2972D03*
X5010Y2872D03*
X5010Y2772D03*
X4910Y4472D03*
X4910Y4372D03*
X4910Y4272D03*
X4910Y4172D03*
X4910Y4072D03*
X4910Y3972D03*
X4910Y3872D03*
X4910Y3772D03*
X4910Y3672D03*
X4910Y3572D03*
X4910Y3472D03*
X4910Y3372D03*
X4910Y3272D03*
X4910Y3172D03*
X4910Y3072D03*
X4910Y2972D03*
X4910Y2872D03*
X4910Y2772D03*
X7610Y4672D03*
X7510Y4672D03*
X7410Y4672D03*
X7310Y4672D03*
X7210Y4672D03*
X7110Y4672D03*
X7010Y4672D03*
X6910Y4672D03*
X7910Y4672D03*
X7810Y4672D03*
G54D14*
X6110Y272D03*
X6110Y2112D03*
X7451Y291D03*
G54D11*
X6103Y3772D03*
X6103Y3672D03*
X6103Y3572D03*
X6103Y3772D03*
X6103Y3672D03*
X6103Y3572D03*
X6203Y3572D03*
X6203Y3672D03*
X6203Y3772D03*
G54D14*
X7451Y2112D03*
X3410Y380D03*
X3410Y2272D03*
G54D15*
X4310Y4072D03*
X4310Y4472D03*
X4510Y4072D03*
X4510Y4472D03*
G54D11*
X4310Y4872D03*
X4310Y4772D03*
X4510Y4872D03*
X4510Y4772D03*
G54D12*
X6010Y4472D03*
X7910Y4172D03*
X7810Y4372D03*
X6110Y4472D03*
X510Y4372D03*
X710Y4272D03*
X510Y4172D03*
X6610Y2372D03*
X3510Y3572D03*
X3310Y3572D03*
G54D15*
X5310Y1872D03*
X5210Y1872D03*
X5110Y1872D03*
X3410Y3872D03*
X3410Y3972D03*
X3410Y4072D03*
G54D16*
X4010Y3872D03*
X3711Y3872D03*
G54D17*
X4010Y3972D03*
X3710Y3972D03*
G54D15*
X3710Y4072D03*
X4110Y4072D03*
X3710Y3772D03*
X4110Y3772D03*
X706Y4171D03*
X1106Y4171D03*
G54D14*
X1510Y380D03*
X710Y5372D03*
X7910Y1072D03*
X410Y1072D03*
X7510Y5372D03*
X1510Y2272D03*
G54D12*
X1610Y3572D03*
X1410Y3572D03*
G54D15*
X1510Y3872D03*
X1510Y3972D03*
X1510Y4072D03*
G54D16*
X2110Y3872D03*
X1811Y3872D03*
G54D17*
X2110Y3972D03*
X1810Y3972D03*
G54D15*
X1810Y4072D03*
X2210Y4072D03*
X5010Y1772D03*
X5410Y1772D03*
X1810Y3772D03*
X2210Y3772D03*
G54D12*
X2410Y3972D03*
X410Y4672D03*
X2610Y4472D03*
X4010Y4172D03*
X4310Y3772D03*
X2410Y3772D03*
G54D11*
X6710Y2372D03*
X6810Y2372D03*
X6910Y2372D03*
X7010Y2372D03*
X7110Y2372D03*
G54D18*
X4010Y3872D03*
X2110Y3872D03*
G54D19*
X1010Y3671D02*
X741Y3672D01*
D02*
X413Y3671D02*
X579Y3672D01*
D02*
X610Y3599D02*
X610Y3645D01*
D02*
X710Y3599D02*
X710Y3645D01*
G54D20*
D02*
X7810Y4416D02*
X7810Y4631D01*
G54D19*
D02*
X6910Y4739D02*
X6910Y4702D01*
D02*
X7010Y4739D02*
X7010Y4702D01*
D02*
X5710Y2605D02*
X5710Y2742D01*
D02*
X5810Y2505D02*
X5810Y2742D01*
D02*
X5610Y2839D02*
X5610Y2802D01*
D02*
X5106Y4372D02*
X5110Y1900D01*
D02*
X5031Y4450D02*
X5106Y4372D01*
D02*
X5210Y2876D02*
X5287Y2949D01*
D02*
X5210Y2068D02*
X5210Y2876D01*
D02*
X387Y4649D02*
X331Y4593D01*
G54D20*
D02*
X7910Y4631D02*
X7910Y4216D01*
G54D19*
D02*
X906Y3777D02*
X909Y3842D01*
D02*
X1010Y3671D02*
X906Y3777D01*
G54D20*
D02*
X108Y770D02*
X110Y416D01*
D02*
X310Y316D02*
X310Y428D01*
G54D19*
D02*
X6312Y173D02*
X6387Y248D01*
D02*
X5511Y175D02*
X6312Y173D01*
D02*
X4208Y4074D02*
X4110Y3969D01*
D02*
X4110Y3969D02*
X4038Y3971D01*
D02*
X4208Y4172D02*
X4208Y4074D01*
D02*
X5210Y1900D02*
X5210Y2068D01*
D02*
X5408Y1973D02*
X5410Y1800D01*
D02*
X5210Y2068D02*
X5408Y1973D01*
G54D20*
D02*
X4808Y1773D02*
X4970Y1772D01*
D02*
X4711Y1870D02*
X4808Y1773D01*
G54D19*
D02*
X5208Y1773D02*
X5290Y1852D01*
D02*
X5039Y1772D02*
X5208Y1773D01*
D02*
X7212Y3369D02*
X7111Y3274D01*
D02*
X7111Y3274D02*
X6213Y3270D01*
D02*
X7210Y4642D02*
X7212Y3369D01*
D02*
X6213Y3270D02*
X6113Y3169D01*
D02*
X6614Y2568D02*
X6714Y2468D01*
D02*
X6109Y2671D02*
X6213Y2568D01*
D02*
X6714Y2468D02*
X6711Y2402D01*
D02*
X6213Y2568D02*
X6614Y2568D01*
D02*
X6113Y3169D02*
X6109Y2671D01*
D02*
X4510Y4500D02*
X4510Y4742D01*
D02*
X5511Y175D02*
X5597Y345D01*
D02*
X4812Y169D02*
X4897Y345D01*
D02*
X4409Y4173D02*
X4330Y4092D01*
D02*
X4310Y4500D02*
X4310Y4742D01*
D02*
X4280Y4772D02*
X4210Y4772D01*
G54D20*
D02*
X8210Y4874D02*
X8113Y4970D01*
D02*
X8113Y4970D02*
X7952Y4972D01*
D02*
X8210Y3273D02*
X8210Y4874D01*
D02*
X8214Y572D02*
X8210Y3273D01*
D02*
X8111Y469D02*
X8214Y572D01*
D02*
X7954Y471D02*
X8111Y469D01*
D02*
X7510Y473D02*
X7107Y873D01*
D02*
X7866Y472D02*
X7510Y473D01*
D02*
X7908Y2568D02*
X7107Y2568D01*
D02*
X8109Y2368D02*
X7908Y2568D01*
D02*
X7107Y2568D02*
X7007Y2468D01*
D02*
X7007Y2468D02*
X7009Y2413D01*
D02*
X8109Y2368D02*
X8111Y770D01*
D02*
X8112Y3174D02*
X8109Y2368D01*
D02*
X8111Y770D02*
X8008Y674D01*
D02*
X8008Y674D02*
X7954Y673D01*
D02*
X7813Y3272D02*
X8008Y3272D01*
D02*
X8008Y3272D02*
X8112Y3174D01*
D02*
X7709Y4773D02*
X7709Y3369D01*
D02*
X7709Y3369D02*
X7813Y3272D01*
D02*
X7612Y4874D02*
X7709Y4773D01*
G54D19*
D02*
X5089Y4693D02*
X5010Y4772D01*
D02*
X5410Y672D02*
X6511Y2069D01*
D02*
X910Y4542D02*
X910Y3902D01*
D02*
X6511Y2069D02*
X6510Y2339D01*
G54D20*
D02*
X2608Y5173D02*
X2507Y5175D01*
D02*
X2633Y5180D02*
X2608Y5173D01*
D02*
X2507Y5175D02*
X2410Y5369D01*
D02*
X2410Y5369D02*
X1210Y5369D01*
D02*
X1113Y5175D02*
X207Y5175D01*
D02*
X207Y5175D02*
X112Y5072D01*
D02*
X1210Y5369D02*
X1113Y5175D01*
D02*
X112Y5072D02*
X108Y770D01*
G54D19*
D02*
X6614Y2069D02*
X5513Y672D01*
G54D20*
D02*
X211Y673D02*
X266Y672D01*
D02*
X108Y770D02*
X211Y673D01*
G54D19*
D02*
X6610Y2339D02*
X6614Y2069D01*
G54D20*
D02*
X2514Y4868D02*
X2312Y5272D01*
D02*
X1308Y5272D02*
X1208Y5072D01*
D02*
X2312Y5272D02*
X1308Y5272D01*
D02*
X2632Y4871D02*
X2514Y4868D01*
D02*
X310Y5072D02*
X207Y4969D01*
D02*
X207Y4969D02*
X213Y969D01*
D02*
X1208Y5072D02*
X310Y5072D01*
G54D19*
D02*
X5909Y1871D02*
X5909Y1871D01*
D02*
X6114Y4068D02*
X6110Y4439D01*
D02*
X6010Y3868D02*
X6114Y4068D01*
D02*
X6010Y2276D02*
X6010Y3868D01*
D02*
X5912Y2173D02*
X6010Y2276D01*
D02*
X5909Y1871D02*
X5912Y2173D01*
G54D20*
D02*
X213Y969D02*
X410Y772D01*
G54D19*
D02*
X4814Y672D02*
X5909Y1871D01*
G54D20*
D02*
X410Y572D02*
X341Y503D01*
D02*
X410Y772D02*
X410Y572D01*
G54D19*
D02*
X4710Y402D02*
X4711Y672D01*
D02*
X4777Y4872D02*
X4540Y4872D01*
D02*
X6010Y4068D02*
X6010Y4439D01*
D02*
X5906Y3868D02*
X6010Y4068D01*
D02*
X5906Y2372D02*
X5906Y3868D01*
D02*
X5807Y2271D02*
X5906Y2372D01*
D02*
X5807Y1871D02*
X5807Y2271D01*
G54D20*
D02*
X3512Y4869D02*
X3454Y4871D01*
D02*
X3609Y4869D02*
X3512Y4869D01*
D02*
X3791Y5233D02*
X3609Y4869D01*
D02*
X3512Y5173D02*
X3453Y5183D01*
D02*
X3609Y5173D02*
X3512Y5173D01*
D02*
X3766Y5372D02*
X3712Y5372D01*
D02*
X3712Y5372D02*
X3609Y5173D01*
D02*
X4811Y4474D02*
X4869Y4473D01*
D02*
X4713Y4368D02*
X4811Y4474D01*
D02*
X4709Y4272D02*
X4713Y4368D01*
D02*
X4810Y2772D02*
X4869Y2772D01*
D02*
X4741Y2841D02*
X4810Y2772D01*
G54D19*
D02*
X1309Y4972D02*
X1212Y4869D01*
D02*
X1680Y4972D02*
X1309Y4972D01*
D02*
X1212Y4869D02*
X1212Y3971D01*
D02*
X1212Y3971D02*
X1109Y3874D01*
G54D20*
D02*
X310Y4174D02*
X479Y4341D01*
D02*
X310Y3913D02*
X310Y4174D01*
G54D19*
D02*
X487Y4148D02*
X412Y4071D01*
D02*
X412Y4071D02*
X410Y3902D01*
D02*
X687Y4249D02*
X506Y4071D01*
D02*
X506Y4071D02*
X510Y3902D01*
G54D20*
D02*
X4610Y272D02*
X4610Y4172D01*
D02*
X4710Y172D02*
X4610Y272D01*
D02*
X4812Y169D02*
X4710Y172D01*
D02*
X4812Y169D02*
X5511Y175D01*
D02*
X4711Y1870D02*
X4710Y916D01*
D02*
X4714Y2772D02*
X4711Y1870D01*
D02*
X4712Y2828D02*
X4714Y2772D01*
G54D19*
D02*
X3141Y4961D02*
X3379Y4882D01*
D02*
X3141Y5084D02*
X3380Y5179D01*
D02*
X3312Y3771D02*
X3310Y3605D01*
D02*
X3390Y3851D02*
X3312Y3771D01*
D02*
X3511Y3770D02*
X3510Y3605D01*
D02*
X3612Y3873D02*
X3511Y3770D01*
D02*
X3683Y3872D02*
X3612Y3873D01*
D02*
X3736Y3785D02*
X3911Y3873D01*
D02*
X3911Y3873D02*
X3982Y3872D01*
D02*
X3912Y4074D02*
X3735Y3984D01*
D02*
X4081Y4072D02*
X3912Y4074D01*
D02*
X3609Y4074D02*
X3436Y3985D01*
D02*
X3682Y4072D02*
X3609Y4074D01*
D02*
X308Y3770D02*
X310Y3842D01*
D02*
X413Y3671D02*
X308Y3770D01*
G54D20*
D02*
X7708Y5273D02*
X7868Y5272D01*
D02*
X7208Y4873D02*
X7708Y5273D01*
D02*
X7612Y4874D02*
X7208Y4873D01*
G54D19*
D02*
X6910Y2402D02*
X6910Y2539D01*
D02*
X6810Y2402D02*
X6810Y2539D01*
D02*
X5710Y639D02*
X5710Y402D01*
D02*
X5010Y639D02*
X5010Y402D01*
G54D20*
D02*
X6508Y4873D02*
X6812Y4873D01*
D02*
X6313Y5269D02*
X6508Y4873D01*
D02*
X4113Y5270D02*
X6313Y5269D01*
D02*
X6812Y4873D02*
X7208Y4873D01*
G54D19*
D02*
X1977Y5172D02*
X1740Y5172D01*
D02*
X1977Y4872D02*
X1740Y4872D01*
D02*
X1109Y3874D02*
X1040Y3872D01*
D02*
X1412Y3771D02*
X1410Y3605D01*
D02*
X1490Y3851D02*
X1412Y3771D01*
D02*
X1613Y3770D02*
X1611Y3605D01*
D02*
X1712Y3873D02*
X1613Y3770D01*
D02*
X1783Y3872D02*
X1712Y3873D01*
D02*
X1836Y3785D02*
X2011Y3873D01*
D02*
X2011Y3873D02*
X2082Y3872D01*
D02*
X2011Y4071D02*
X1835Y3984D01*
D02*
X2181Y4072D02*
X2011Y4071D01*
D02*
X1712Y4071D02*
X1536Y3984D01*
D02*
X1781Y4071D02*
X1712Y4071D01*
D02*
X2377Y3772D02*
X2239Y3772D01*
D02*
X4277Y3772D02*
X4139Y3772D01*
G54D20*
D02*
X4208Y4172D02*
X4054Y4172D01*
D02*
X4409Y4173D02*
X4208Y4172D01*
D02*
X4610Y4172D02*
X4409Y4173D01*
D02*
X4610Y4172D02*
X4709Y4272D01*
G54D19*
D02*
X4610Y4172D02*
X4530Y4092D01*
G54D20*
D02*
X3912Y4572D02*
X3912Y5070D01*
D02*
X3912Y5070D02*
X4113Y5270D01*
D02*
X3712Y4372D02*
X3912Y4572D01*
D02*
X3512Y4372D02*
X3712Y4372D01*
D02*
X3512Y4372D02*
X1612Y4372D01*
G54D19*
D02*
X1612Y4372D02*
X1519Y4099D01*
D02*
X3512Y4372D02*
X3419Y4099D01*
G54D20*
D02*
X2511Y4572D02*
X2579Y4503D01*
D02*
X2207Y4572D02*
X2511Y4572D01*
D02*
X1813Y4572D02*
X2207Y4572D01*
D02*
X1612Y4572D02*
X1813Y4572D01*
D02*
X1309Y4274D02*
X1612Y4572D01*
D02*
X1309Y3971D02*
X1309Y4274D01*
D02*
X1010Y3671D02*
X1309Y3971D01*
G54D19*
D02*
X4711Y672D02*
X5807Y1871D01*
D02*
X5513Y672D02*
X5510Y402D01*
D02*
X5410Y672D02*
X5410Y402D01*
D02*
X4814Y672D02*
X4810Y402D01*
G54D20*
D02*
X3609Y3370D02*
X1710Y3370D01*
D02*
X3912Y3273D02*
X3809Y3370D01*
D02*
X3809Y3370D02*
X3609Y3370D01*
D02*
X3908Y670D02*
X3912Y3273D01*
D02*
X4512Y74D02*
X3908Y670D01*
D02*
X6815Y74D02*
X4512Y74D01*
D02*
X7213Y473D02*
X6815Y74D01*
D02*
X7510Y473D02*
X7213Y473D01*
G54D19*
D02*
X2377Y3972D02*
X2138Y3972D01*
D02*
X2110Y4972D02*
X2013Y5070D01*
D02*
X2110Y4669D02*
X2110Y4972D01*
D02*
X2207Y4572D02*
X2110Y4669D01*
D02*
X2013Y5070D02*
X1740Y5072D01*
D02*
X3609Y3370D02*
X3525Y3542D01*
D02*
X1710Y3370D02*
X1625Y3542D01*
D02*
X4480Y4872D02*
X4340Y4872D01*
D02*
X4210Y5068D02*
X5810Y5068D01*
D02*
X4114Y4972D02*
X4210Y5068D01*
D02*
X5810Y5068D02*
X5914Y4972D01*
D02*
X5914Y4068D02*
X5810Y3868D01*
D02*
X5810Y3868D02*
X5810Y3268D01*
D02*
X5914Y4972D02*
X5914Y4068D01*
D02*
X5810Y3268D02*
X5506Y2972D01*
D02*
X5506Y2972D02*
X5510Y2802D01*
D02*
X4113Y4869D02*
X4114Y4972D01*
D02*
X4210Y4772D02*
X4113Y4869D01*
D02*
X5010Y4772D02*
X4540Y4772D01*
G54D20*
D02*
X7107Y873D02*
X7110Y2331D01*
G54D21*
X6803Y1603D02*
X6854Y1603D01*
X6882Y1603D02*
X6884Y1603D01*
X6924Y1603D02*
X6925Y1603D01*
X6977Y1603D02*
X6981Y1603D01*
X6803Y1602D02*
X6854Y1602D01*
X6880Y1602D02*
X6886Y1602D01*
X6922Y1602D02*
X6927Y1602D01*
X6973Y1602D02*
X6984Y1602D01*
X6803Y1601D02*
X6854Y1601D01*
X6879Y1601D02*
X6887Y1601D01*
X6921Y1601D02*
X6928Y1601D01*
X6972Y1601D02*
X6985Y1601D01*
X6803Y1600D02*
X6854Y1600D01*
X6879Y1600D02*
X6887Y1600D01*
X6920Y1600D02*
X6929Y1600D01*
X6971Y1600D02*
X6987Y1600D01*
X6803Y1599D02*
X6854Y1599D01*
X6878Y1599D02*
X6887Y1599D01*
X6920Y1599D02*
X6929Y1599D01*
X6969Y1599D02*
X6988Y1599D01*
X6803Y1598D02*
X6854Y1598D01*
X6878Y1598D02*
X6888Y1598D01*
X6920Y1598D02*
X6929Y1598D01*
X6968Y1598D02*
X6989Y1598D01*
X6803Y1597D02*
X6854Y1597D01*
X6878Y1597D02*
X6888Y1597D01*
X6919Y1597D02*
X6929Y1597D01*
X6968Y1597D02*
X6989Y1597D01*
X6803Y1596D02*
X6854Y1596D01*
X6878Y1596D02*
X6888Y1596D01*
X6919Y1596D02*
X6929Y1596D01*
X6967Y1596D02*
X6990Y1596D01*
X6803Y1595D02*
X6854Y1595D01*
X6878Y1595D02*
X6888Y1595D01*
X6919Y1595D02*
X6929Y1595D01*
X6967Y1595D02*
X6991Y1595D01*
X7247Y1595D02*
X7298Y1595D01*
X7325Y1595D02*
X7329Y1595D01*
X7366Y1595D02*
X7370Y1595D01*
X7418Y1595D02*
X7427Y1595D01*
X6803Y1594D02*
X6854Y1594D01*
X6878Y1594D02*
X6888Y1594D01*
X6919Y1594D02*
X6929Y1594D01*
X6966Y1594D02*
X6991Y1594D01*
X7247Y1594D02*
X7298Y1594D01*
X7323Y1594D02*
X7330Y1594D01*
X7365Y1594D02*
X7372Y1594D01*
X7416Y1594D02*
X7429Y1594D01*
X6803Y1593D02*
X6854Y1593D01*
X6878Y1593D02*
X6888Y1593D01*
X6919Y1593D02*
X6929Y1593D01*
X6966Y1593D02*
X6992Y1593D01*
X7247Y1593D02*
X7298Y1593D01*
X7323Y1593D02*
X7331Y1593D01*
X7364Y1593D02*
X7372Y1593D01*
X7415Y1593D02*
X7430Y1593D01*
X6803Y1592D02*
X6813Y1592D01*
X6824Y1592D02*
X6833Y1592D01*
X6845Y1592D02*
X6854Y1592D01*
X6878Y1592D02*
X6888Y1592D01*
X6919Y1592D02*
X6929Y1592D01*
X6965Y1592D02*
X6976Y1592D01*
X6981Y1592D02*
X6992Y1592D01*
X7247Y1592D02*
X7298Y1592D01*
X7322Y1592D02*
X7331Y1592D01*
X7364Y1592D02*
X7373Y1592D01*
X7414Y1592D02*
X7431Y1592D01*
X6803Y1591D02*
X6813Y1591D01*
X6824Y1591D02*
X6833Y1591D01*
X6845Y1591D02*
X6854Y1591D01*
X6878Y1591D02*
X6888Y1591D01*
X6919Y1591D02*
X6929Y1591D01*
X6965Y1591D02*
X6976Y1591D01*
X6982Y1591D02*
X6993Y1591D01*
X7247Y1591D02*
X7298Y1591D01*
X7322Y1591D02*
X7331Y1591D01*
X7363Y1591D02*
X7373Y1591D01*
X7413Y1591D02*
X7432Y1591D01*
X6803Y1590D02*
X6813Y1590D01*
X6824Y1590D02*
X6833Y1590D01*
X6845Y1590D02*
X6854Y1590D01*
X6878Y1590D02*
X6888Y1590D01*
X6919Y1590D02*
X6929Y1590D01*
X6964Y1590D02*
X6975Y1590D01*
X6982Y1590D02*
X6993Y1590D01*
X7247Y1590D02*
X7298Y1590D01*
X7322Y1590D02*
X7332Y1590D01*
X7363Y1590D02*
X7373Y1590D01*
X7412Y1590D02*
X7433Y1590D01*
X6803Y1589D02*
X6813Y1589D01*
X6824Y1589D02*
X6833Y1589D01*
X6845Y1589D02*
X6854Y1589D01*
X6878Y1589D02*
X6888Y1589D01*
X6919Y1589D02*
X6929Y1589D01*
X6964Y1589D02*
X6974Y1589D01*
X6983Y1589D02*
X6994Y1589D01*
X7247Y1589D02*
X7298Y1589D01*
X7322Y1589D02*
X7332Y1589D01*
X7363Y1589D02*
X7373Y1589D01*
X7411Y1589D02*
X7434Y1589D01*
X6752Y1588D02*
X6755Y1588D01*
X6803Y1588D02*
X6812Y1588D01*
X6824Y1588D02*
X6833Y1588D01*
X6845Y1588D02*
X6854Y1588D01*
X6878Y1588D02*
X6888Y1588D01*
X6919Y1588D02*
X6929Y1588D01*
X6963Y1588D02*
X6974Y1588D01*
X6983Y1588D02*
X6994Y1588D01*
X7247Y1588D02*
X7298Y1588D01*
X7322Y1588D02*
X7332Y1588D01*
X7363Y1588D02*
X7373Y1588D01*
X7411Y1588D02*
X7434Y1588D01*
X6751Y1587D02*
X6757Y1587D01*
X6804Y1587D02*
X6812Y1587D01*
X6824Y1587D02*
X6833Y1587D01*
X6845Y1587D02*
X6854Y1587D01*
X6878Y1587D02*
X6888Y1587D01*
X6919Y1587D02*
X6929Y1587D01*
X6963Y1587D02*
X6973Y1587D01*
X6984Y1587D02*
X6995Y1587D01*
X7247Y1587D02*
X7298Y1587D01*
X7322Y1587D02*
X7332Y1587D01*
X7363Y1587D02*
X7373Y1587D01*
X7410Y1587D02*
X7435Y1587D01*
X6750Y1586D02*
X6758Y1586D01*
X6804Y1586D02*
X6812Y1586D01*
X6824Y1586D02*
X6833Y1586D01*
X6846Y1586D02*
X6853Y1586D01*
X6878Y1586D02*
X6888Y1586D01*
X6919Y1586D02*
X6929Y1586D01*
X6962Y1586D02*
X6973Y1586D01*
X6984Y1586D02*
X6995Y1586D01*
X7247Y1586D02*
X7298Y1586D01*
X7322Y1586D02*
X7332Y1586D01*
X7363Y1586D02*
X7373Y1586D01*
X7410Y1586D02*
X7435Y1586D01*
X6749Y1585D02*
X6758Y1585D01*
X6805Y1585D02*
X6811Y1585D01*
X6824Y1585D02*
X6833Y1585D01*
X6847Y1585D02*
X6852Y1585D01*
X6878Y1585D02*
X6888Y1585D01*
X6919Y1585D02*
X6929Y1585D01*
X6962Y1585D02*
X6972Y1585D01*
X6985Y1585D02*
X6996Y1585D01*
X7247Y1585D02*
X7257Y1585D01*
X7268Y1585D02*
X7277Y1585D01*
X7288Y1585D02*
X7298Y1585D01*
X7322Y1585D02*
X7332Y1585D01*
X7363Y1585D02*
X7373Y1585D01*
X7409Y1585D02*
X7421Y1585D01*
X7424Y1585D02*
X7436Y1585D01*
X6749Y1584D02*
X6758Y1584D01*
X6808Y1584D02*
X6808Y1584D01*
X6824Y1584D02*
X6833Y1584D01*
X6849Y1584D02*
X6850Y1584D01*
X6878Y1584D02*
X6888Y1584D01*
X6919Y1584D02*
X6929Y1584D01*
X6961Y1584D02*
X6972Y1584D01*
X6985Y1584D02*
X6996Y1584D01*
X7247Y1584D02*
X7257Y1584D01*
X7268Y1584D02*
X7277Y1584D01*
X7288Y1584D02*
X7298Y1584D01*
X7322Y1584D02*
X7332Y1584D01*
X7363Y1584D02*
X7373Y1584D01*
X7409Y1584D02*
X7420Y1584D01*
X7425Y1584D02*
X7436Y1584D01*
X6749Y1583D02*
X6758Y1583D01*
X6824Y1583D02*
X6833Y1583D01*
X6878Y1583D02*
X6888Y1583D01*
X6919Y1583D02*
X6929Y1583D01*
X6961Y1583D02*
X6971Y1583D01*
X6986Y1583D02*
X6997Y1583D01*
X7247Y1583D02*
X7257Y1583D01*
X7268Y1583D02*
X7277Y1583D01*
X7288Y1583D02*
X7298Y1583D01*
X7322Y1583D02*
X7332Y1583D01*
X7363Y1583D02*
X7373Y1583D01*
X7408Y1583D02*
X7419Y1583D01*
X7426Y1583D02*
X7437Y1583D01*
X6749Y1582D02*
X6758Y1582D01*
X6824Y1582D02*
X6833Y1582D01*
X6878Y1582D02*
X6888Y1582D01*
X6919Y1582D02*
X6929Y1582D01*
X6960Y1582D02*
X6971Y1582D01*
X6986Y1582D02*
X6997Y1582D01*
X7247Y1582D02*
X7257Y1582D01*
X7268Y1582D02*
X7277Y1582D01*
X7288Y1582D02*
X7298Y1582D01*
X7322Y1582D02*
X7332Y1582D01*
X7363Y1582D02*
X7373Y1582D01*
X7408Y1582D02*
X7418Y1582D01*
X7426Y1582D02*
X7437Y1582D01*
X6749Y1581D02*
X6758Y1581D01*
X6824Y1581D02*
X6833Y1581D01*
X6878Y1581D02*
X6888Y1581D01*
X6919Y1581D02*
X6929Y1581D01*
X6960Y1581D02*
X6970Y1581D01*
X6987Y1581D02*
X6998Y1581D01*
X7247Y1581D02*
X7256Y1581D01*
X7268Y1581D02*
X7277Y1581D01*
X7289Y1581D02*
X7298Y1581D01*
X7322Y1581D02*
X7332Y1581D01*
X7363Y1581D02*
X7373Y1581D01*
X7407Y1581D02*
X7418Y1581D01*
X7427Y1581D02*
X7438Y1581D01*
X6749Y1580D02*
X6758Y1580D01*
X6824Y1580D02*
X6833Y1580D01*
X6878Y1580D02*
X6888Y1580D01*
X6919Y1580D02*
X6929Y1580D01*
X6959Y1580D02*
X6970Y1580D01*
X6987Y1580D02*
X6998Y1580D01*
X7247Y1580D02*
X7256Y1580D01*
X7268Y1580D02*
X7277Y1580D01*
X7289Y1580D02*
X7298Y1580D01*
X7322Y1580D02*
X7332Y1580D01*
X7363Y1580D02*
X7373Y1580D01*
X7407Y1580D02*
X7417Y1580D01*
X7427Y1580D02*
X7438Y1580D01*
X6749Y1579D02*
X6758Y1579D01*
X6824Y1579D02*
X6833Y1579D01*
X6878Y1579D02*
X6888Y1579D01*
X6919Y1579D02*
X6929Y1579D01*
X6959Y1579D02*
X6969Y1579D01*
X6988Y1579D02*
X6999Y1579D01*
X7248Y1579D02*
X7256Y1579D01*
X7268Y1579D02*
X7277Y1579D01*
X7289Y1579D02*
X7297Y1579D01*
X7322Y1579D02*
X7332Y1579D01*
X7363Y1579D02*
X7373Y1579D01*
X7406Y1579D02*
X7417Y1579D01*
X7428Y1579D02*
X7439Y1579D01*
X6749Y1578D02*
X6758Y1578D01*
X6824Y1578D02*
X6833Y1578D01*
X6878Y1578D02*
X6888Y1578D01*
X6919Y1578D02*
X6929Y1578D01*
X6958Y1578D02*
X6969Y1578D01*
X6988Y1578D02*
X6999Y1578D01*
X7249Y1578D02*
X7255Y1578D01*
X7268Y1578D02*
X7277Y1578D01*
X7290Y1578D02*
X7296Y1578D01*
X7322Y1578D02*
X7332Y1578D01*
X7363Y1578D02*
X7373Y1578D01*
X7406Y1578D02*
X7416Y1578D01*
X7429Y1578D02*
X7439Y1578D01*
X6749Y1577D02*
X6758Y1577D01*
X6824Y1577D02*
X6833Y1577D01*
X6878Y1577D02*
X6888Y1577D01*
X6919Y1577D02*
X6929Y1577D01*
X6958Y1577D02*
X6968Y1577D01*
X6989Y1577D02*
X7000Y1577D01*
X7250Y1577D02*
X7254Y1577D01*
X7268Y1577D02*
X7277Y1577D01*
X7292Y1577D02*
X7295Y1577D01*
X7322Y1577D02*
X7332Y1577D01*
X7363Y1577D02*
X7373Y1577D01*
X7405Y1577D02*
X7416Y1577D01*
X7429Y1577D02*
X7440Y1577D01*
X6749Y1576D02*
X6758Y1576D01*
X6824Y1576D02*
X6833Y1576D01*
X6878Y1576D02*
X6888Y1576D01*
X6919Y1576D02*
X6929Y1576D01*
X6957Y1576D02*
X6968Y1576D01*
X6989Y1576D02*
X7000Y1576D01*
X7268Y1576D02*
X7277Y1576D01*
X7322Y1576D02*
X7332Y1576D01*
X7363Y1576D02*
X7373Y1576D01*
X7405Y1576D02*
X7415Y1576D01*
X7430Y1576D02*
X7440Y1576D01*
X6749Y1575D02*
X6758Y1575D01*
X6824Y1575D02*
X6833Y1575D01*
X6878Y1575D02*
X6888Y1575D01*
X6919Y1575D02*
X6929Y1575D01*
X6957Y1575D02*
X6967Y1575D01*
X6990Y1575D02*
X7001Y1575D01*
X7268Y1575D02*
X7277Y1575D01*
X7322Y1575D02*
X7332Y1575D01*
X7363Y1575D02*
X7373Y1575D01*
X7404Y1575D02*
X7415Y1575D01*
X7430Y1575D02*
X7441Y1575D01*
X6749Y1574D02*
X6758Y1574D01*
X6824Y1574D02*
X6833Y1574D01*
X6878Y1574D02*
X6888Y1574D01*
X6919Y1574D02*
X6929Y1574D01*
X6956Y1574D02*
X6967Y1574D01*
X6990Y1574D02*
X7001Y1574D01*
X7268Y1574D02*
X7277Y1574D01*
X7322Y1574D02*
X7332Y1574D01*
X7363Y1574D02*
X7373Y1574D01*
X7404Y1574D02*
X7414Y1574D01*
X7431Y1574D02*
X7441Y1574D01*
X6749Y1573D02*
X6758Y1573D01*
X6824Y1573D02*
X6833Y1573D01*
X6878Y1573D02*
X6888Y1573D01*
X6919Y1573D02*
X6929Y1573D01*
X6956Y1573D02*
X6966Y1573D01*
X6991Y1573D02*
X7002Y1573D01*
X7268Y1573D02*
X7277Y1573D01*
X7322Y1573D02*
X7332Y1573D01*
X7363Y1573D02*
X7373Y1573D01*
X7403Y1573D02*
X7414Y1573D01*
X7431Y1573D02*
X7442Y1573D01*
X6749Y1572D02*
X6758Y1572D01*
X6824Y1572D02*
X6833Y1572D01*
X6878Y1572D02*
X6888Y1572D01*
X6919Y1572D02*
X6929Y1572D01*
X6955Y1572D02*
X6966Y1572D01*
X6991Y1572D02*
X7002Y1572D01*
X7268Y1572D02*
X7277Y1572D01*
X7322Y1572D02*
X7332Y1572D01*
X7363Y1572D02*
X7373Y1572D01*
X7403Y1572D02*
X7413Y1572D01*
X7432Y1572D02*
X7442Y1572D01*
X6749Y1571D02*
X6758Y1571D01*
X6824Y1571D02*
X6833Y1571D01*
X6878Y1571D02*
X6888Y1571D01*
X6919Y1571D02*
X6929Y1571D01*
X6955Y1571D02*
X6965Y1571D01*
X6992Y1571D02*
X7002Y1571D01*
X7268Y1571D02*
X7277Y1571D01*
X7322Y1571D02*
X7332Y1571D01*
X7363Y1571D02*
X7373Y1571D01*
X7402Y1571D02*
X7413Y1571D01*
X7432Y1571D02*
X7443Y1571D01*
X6749Y1570D02*
X6758Y1570D01*
X6824Y1570D02*
X6833Y1570D01*
X6878Y1570D02*
X6888Y1570D01*
X6919Y1570D02*
X6929Y1570D01*
X6954Y1570D02*
X6965Y1570D01*
X6992Y1570D02*
X7003Y1570D01*
X7268Y1570D02*
X7277Y1570D01*
X7322Y1570D02*
X7332Y1570D01*
X7363Y1570D02*
X7373Y1570D01*
X7402Y1570D02*
X7412Y1570D01*
X7433Y1570D02*
X7443Y1570D01*
X6749Y1569D02*
X6758Y1569D01*
X6824Y1569D02*
X6833Y1569D01*
X6878Y1569D02*
X6888Y1569D01*
X6919Y1569D02*
X6929Y1569D01*
X6954Y1569D02*
X6964Y1569D01*
X6993Y1569D02*
X7003Y1569D01*
X7268Y1569D02*
X7277Y1569D01*
X7322Y1569D02*
X7332Y1569D01*
X7363Y1569D02*
X7373Y1569D01*
X7401Y1569D02*
X7412Y1569D01*
X7433Y1569D02*
X7444Y1569D01*
X6749Y1568D02*
X6759Y1568D01*
X6824Y1568D02*
X6833Y1568D01*
X6878Y1568D02*
X6888Y1568D01*
X6919Y1568D02*
X6929Y1568D01*
X6954Y1568D02*
X6964Y1568D01*
X6993Y1568D02*
X7003Y1568D01*
X7268Y1568D02*
X7277Y1568D01*
X7322Y1568D02*
X7332Y1568D01*
X7363Y1568D02*
X7373Y1568D01*
X7401Y1568D02*
X7411Y1568D01*
X7434Y1568D02*
X7444Y1568D01*
X6731Y1567D02*
X6777Y1567D01*
X6824Y1567D02*
X6833Y1567D01*
X6878Y1567D02*
X6888Y1567D01*
X6919Y1567D02*
X6929Y1567D01*
X6954Y1567D02*
X6963Y1567D01*
X6994Y1567D02*
X7004Y1567D01*
X7268Y1567D02*
X7277Y1567D01*
X7322Y1567D02*
X7332Y1567D01*
X7363Y1567D02*
X7373Y1567D01*
X7400Y1567D02*
X7411Y1567D01*
X7434Y1567D02*
X7445Y1567D01*
X6730Y1566D02*
X6778Y1566D01*
X6824Y1566D02*
X6833Y1566D01*
X6878Y1566D02*
X6888Y1566D01*
X6919Y1566D02*
X6929Y1566D01*
X6953Y1566D02*
X6963Y1566D01*
X6994Y1566D02*
X7004Y1566D01*
X7268Y1566D02*
X7277Y1566D01*
X7322Y1566D02*
X7332Y1566D01*
X7363Y1566D02*
X7373Y1566D01*
X7400Y1566D02*
X7410Y1566D01*
X7435Y1566D02*
X7445Y1566D01*
X6729Y1565D02*
X6778Y1565D01*
X6824Y1565D02*
X6833Y1565D01*
X6878Y1565D02*
X6888Y1565D01*
X6919Y1565D02*
X6929Y1565D01*
X6953Y1565D02*
X6963Y1565D01*
X6994Y1565D02*
X7004Y1565D01*
X7268Y1565D02*
X7277Y1565D01*
X7322Y1565D02*
X7332Y1565D01*
X7363Y1565D02*
X7373Y1565D01*
X7399Y1565D02*
X7410Y1565D01*
X7435Y1565D02*
X7446Y1565D01*
X6728Y1564D02*
X6779Y1564D01*
X6824Y1564D02*
X6833Y1564D01*
X6878Y1564D02*
X6888Y1564D01*
X6919Y1564D02*
X6929Y1564D01*
X6953Y1564D02*
X6963Y1564D01*
X6994Y1564D02*
X7004Y1564D01*
X7268Y1564D02*
X7277Y1564D01*
X7322Y1564D02*
X7332Y1564D01*
X7363Y1564D02*
X7373Y1564D01*
X7399Y1564D02*
X7409Y1564D01*
X7436Y1564D02*
X7446Y1564D01*
X6728Y1563D02*
X6779Y1563D01*
X6824Y1563D02*
X6833Y1563D01*
X6878Y1563D02*
X6888Y1563D01*
X6919Y1563D02*
X6929Y1563D01*
X6953Y1563D02*
X6963Y1563D01*
X6994Y1563D02*
X7004Y1563D01*
X7268Y1563D02*
X7277Y1563D01*
X7322Y1563D02*
X7332Y1563D01*
X7363Y1563D02*
X7373Y1563D01*
X7398Y1563D02*
X7409Y1563D01*
X7436Y1563D02*
X7447Y1563D01*
X6728Y1562D02*
X6779Y1562D01*
X6824Y1562D02*
X6833Y1562D01*
X6878Y1562D02*
X6888Y1562D01*
X6919Y1562D02*
X6929Y1562D01*
X6953Y1562D02*
X6963Y1562D01*
X6994Y1562D02*
X7004Y1562D01*
X7268Y1562D02*
X7277Y1562D01*
X7322Y1562D02*
X7332Y1562D01*
X7363Y1562D02*
X7373Y1562D01*
X7398Y1562D02*
X7408Y1562D01*
X7437Y1562D02*
X7447Y1562D01*
X6729Y1561D02*
X6779Y1561D01*
X6824Y1561D02*
X6833Y1561D01*
X6878Y1561D02*
X6888Y1561D01*
X6919Y1561D02*
X6929Y1561D01*
X6953Y1561D02*
X6963Y1561D01*
X6994Y1561D02*
X7004Y1561D01*
X7268Y1561D02*
X7277Y1561D01*
X7322Y1561D02*
X7332Y1561D01*
X7363Y1561D02*
X7373Y1561D01*
X7398Y1561D02*
X7408Y1561D01*
X7437Y1561D02*
X7447Y1561D01*
X6729Y1560D02*
X6778Y1560D01*
X6824Y1560D02*
X6833Y1560D01*
X6878Y1560D02*
X6888Y1560D01*
X6919Y1560D02*
X6929Y1560D01*
X6953Y1560D02*
X6963Y1560D01*
X6994Y1560D02*
X7004Y1560D01*
X7175Y1560D02*
X7220Y1560D01*
X7268Y1560D02*
X7277Y1560D01*
X7322Y1560D02*
X7332Y1560D01*
X7363Y1560D02*
X7373Y1560D01*
X7398Y1560D02*
X7407Y1560D01*
X7437Y1560D02*
X7447Y1560D01*
X6730Y1559D02*
X6778Y1559D01*
X6824Y1559D02*
X6833Y1559D01*
X6878Y1559D02*
X6888Y1559D01*
X6919Y1559D02*
X6929Y1559D01*
X6953Y1559D02*
X6963Y1559D01*
X6994Y1559D02*
X7004Y1559D01*
X7174Y1559D02*
X7221Y1559D01*
X7268Y1559D02*
X7277Y1559D01*
X7322Y1559D02*
X7332Y1559D01*
X7363Y1559D02*
X7373Y1559D01*
X7397Y1559D02*
X7407Y1559D01*
X7438Y1559D02*
X7448Y1559D01*
X6731Y1558D02*
X6776Y1558D01*
X6824Y1558D02*
X6833Y1558D01*
X6878Y1558D02*
X6888Y1558D01*
X6919Y1558D02*
X6929Y1558D01*
X6954Y1558D02*
X6964Y1558D01*
X6994Y1558D02*
X7004Y1558D01*
X7173Y1558D02*
X7222Y1558D01*
X7268Y1558D02*
X7277Y1558D01*
X7322Y1558D02*
X7332Y1558D01*
X7363Y1558D02*
X7373Y1558D01*
X7397Y1558D02*
X7407Y1558D01*
X7438Y1558D02*
X7448Y1558D01*
X6749Y1557D02*
X6759Y1557D01*
X6824Y1557D02*
X6833Y1557D01*
X6878Y1557D02*
X6888Y1557D01*
X6919Y1557D02*
X6929Y1557D01*
X6954Y1557D02*
X6964Y1557D01*
X6993Y1557D02*
X7003Y1557D01*
X7172Y1557D02*
X7223Y1557D01*
X7268Y1557D02*
X7277Y1557D01*
X7322Y1557D02*
X7332Y1557D01*
X7363Y1557D02*
X7373Y1557D01*
X7397Y1557D02*
X7407Y1557D01*
X7438Y1557D02*
X7448Y1557D01*
X6749Y1556D02*
X6758Y1556D01*
X6824Y1556D02*
X6833Y1556D01*
X6878Y1556D02*
X6888Y1556D01*
X6919Y1556D02*
X6929Y1556D01*
X6954Y1556D02*
X6964Y1556D01*
X6993Y1556D02*
X7003Y1556D01*
X7172Y1556D02*
X7223Y1556D01*
X7268Y1556D02*
X7277Y1556D01*
X7322Y1556D02*
X7332Y1556D01*
X7363Y1556D02*
X7373Y1556D01*
X7397Y1556D02*
X7407Y1556D01*
X7438Y1556D02*
X7448Y1556D01*
X6749Y1555D02*
X6758Y1555D01*
X6824Y1555D02*
X6833Y1555D01*
X6878Y1555D02*
X6888Y1555D01*
X6919Y1555D02*
X6929Y1555D01*
X6954Y1555D02*
X6965Y1555D01*
X6992Y1555D02*
X7003Y1555D01*
X7172Y1555D02*
X7223Y1555D01*
X7268Y1555D02*
X7277Y1555D01*
X7322Y1555D02*
X7332Y1555D01*
X7363Y1555D02*
X7373Y1555D01*
X7397Y1555D02*
X7407Y1555D01*
X7438Y1555D02*
X7448Y1555D01*
X6749Y1554D02*
X6758Y1554D01*
X6824Y1554D02*
X6833Y1554D01*
X6878Y1554D02*
X6888Y1554D01*
X6919Y1554D02*
X6929Y1554D01*
X6955Y1554D02*
X6965Y1554D01*
X6992Y1554D02*
X7002Y1554D01*
X7172Y1554D02*
X7223Y1554D01*
X7268Y1554D02*
X7277Y1554D01*
X7322Y1554D02*
X7332Y1554D01*
X7363Y1554D02*
X7373Y1554D01*
X7397Y1554D02*
X7407Y1554D01*
X7438Y1554D02*
X7448Y1554D01*
X6749Y1553D02*
X6758Y1553D01*
X6824Y1553D02*
X6833Y1553D01*
X6878Y1553D02*
X6888Y1553D01*
X6919Y1553D02*
X6929Y1553D01*
X6955Y1553D02*
X6966Y1553D01*
X6991Y1553D02*
X7002Y1553D01*
X7172Y1553D02*
X7223Y1553D01*
X7268Y1553D02*
X7277Y1553D01*
X7322Y1553D02*
X7332Y1553D01*
X7363Y1553D02*
X7373Y1553D01*
X7397Y1553D02*
X7407Y1553D01*
X7438Y1553D02*
X7448Y1553D01*
X6749Y1552D02*
X6758Y1552D01*
X6824Y1552D02*
X6833Y1552D01*
X6878Y1552D02*
X6888Y1552D01*
X6919Y1552D02*
X6929Y1552D01*
X6956Y1552D02*
X6966Y1552D01*
X6991Y1552D02*
X7002Y1552D01*
X7172Y1552D02*
X7223Y1552D01*
X7268Y1552D02*
X7277Y1552D01*
X7322Y1552D02*
X7332Y1552D01*
X7363Y1552D02*
X7373Y1552D01*
X7397Y1552D02*
X7407Y1552D01*
X7438Y1552D02*
X7448Y1552D01*
X6749Y1551D02*
X6758Y1551D01*
X6824Y1551D02*
X6833Y1551D01*
X6878Y1551D02*
X6888Y1551D01*
X6919Y1551D02*
X6929Y1551D01*
X6956Y1551D02*
X6967Y1551D01*
X6990Y1551D02*
X7001Y1551D01*
X7172Y1551D02*
X7223Y1551D01*
X7268Y1551D02*
X7277Y1551D01*
X7322Y1551D02*
X7332Y1551D01*
X7363Y1551D02*
X7373Y1551D01*
X7397Y1551D02*
X7407Y1551D01*
X7438Y1551D02*
X7447Y1551D01*
X6749Y1550D02*
X6758Y1550D01*
X6824Y1550D02*
X6833Y1550D01*
X6878Y1550D02*
X6888Y1550D01*
X6919Y1550D02*
X6929Y1550D01*
X6957Y1550D02*
X6967Y1550D01*
X6990Y1550D02*
X7001Y1550D01*
X7172Y1550D02*
X7223Y1550D01*
X7268Y1550D02*
X7277Y1550D01*
X7322Y1550D02*
X7332Y1550D01*
X7363Y1550D02*
X7373Y1550D01*
X7398Y1550D02*
X7408Y1550D01*
X7437Y1550D02*
X7447Y1550D01*
X6749Y1549D02*
X6758Y1549D01*
X6824Y1549D02*
X6833Y1549D01*
X6878Y1549D02*
X6888Y1549D01*
X6919Y1549D02*
X6929Y1549D01*
X6957Y1549D02*
X6968Y1549D01*
X6989Y1549D02*
X7000Y1549D01*
X7172Y1549D02*
X7223Y1549D01*
X7268Y1549D02*
X7277Y1549D01*
X7322Y1549D02*
X7332Y1549D01*
X7363Y1549D02*
X7373Y1549D01*
X7398Y1549D02*
X7408Y1549D01*
X7437Y1549D02*
X7447Y1549D01*
X6749Y1548D02*
X6758Y1548D01*
X6824Y1548D02*
X6833Y1548D01*
X6878Y1548D02*
X6888Y1548D01*
X6919Y1548D02*
X6929Y1548D01*
X6958Y1548D02*
X6968Y1548D01*
X6989Y1548D02*
X7000Y1548D01*
X7173Y1548D02*
X7222Y1548D01*
X7268Y1548D02*
X7277Y1548D01*
X7322Y1548D02*
X7332Y1548D01*
X7363Y1548D02*
X7373Y1548D01*
X7398Y1548D02*
X7409Y1548D01*
X7436Y1548D02*
X7447Y1548D01*
X6749Y1547D02*
X6758Y1547D01*
X6824Y1547D02*
X6833Y1547D01*
X6878Y1547D02*
X6888Y1547D01*
X6919Y1547D02*
X6929Y1547D01*
X6958Y1547D02*
X6969Y1547D01*
X6988Y1547D02*
X6999Y1547D01*
X7174Y1547D02*
X7221Y1547D01*
X7268Y1547D02*
X7277Y1547D01*
X7322Y1547D02*
X7332Y1547D01*
X7363Y1547D02*
X7373Y1547D01*
X7399Y1547D02*
X7409Y1547D01*
X7436Y1547D02*
X7446Y1547D01*
X6749Y1546D02*
X6758Y1546D01*
X6824Y1546D02*
X6833Y1546D01*
X6878Y1546D02*
X6888Y1546D01*
X6919Y1546D02*
X6929Y1546D01*
X6959Y1546D02*
X6969Y1546D01*
X6988Y1546D02*
X6999Y1546D01*
X7175Y1546D02*
X7220Y1546D01*
X7268Y1546D02*
X7277Y1546D01*
X7322Y1546D02*
X7332Y1546D01*
X7363Y1546D02*
X7373Y1546D01*
X7399Y1546D02*
X7410Y1546D01*
X7435Y1546D02*
X7446Y1546D01*
X6749Y1545D02*
X6758Y1545D01*
X6824Y1545D02*
X6833Y1545D01*
X6878Y1545D02*
X6888Y1545D01*
X6919Y1545D02*
X6929Y1545D01*
X6959Y1545D02*
X6970Y1545D01*
X6987Y1545D02*
X6998Y1545D01*
X7268Y1545D02*
X7277Y1545D01*
X7322Y1545D02*
X7332Y1545D01*
X7363Y1545D02*
X7373Y1545D01*
X7399Y1545D02*
X7410Y1545D01*
X7435Y1545D02*
X7446Y1545D01*
X6749Y1544D02*
X6758Y1544D01*
X6824Y1544D02*
X6833Y1544D01*
X6878Y1544D02*
X6888Y1544D01*
X6919Y1544D02*
X6929Y1544D01*
X6960Y1544D02*
X6970Y1544D01*
X6987Y1544D02*
X6998Y1544D01*
X7268Y1544D02*
X7277Y1544D01*
X7322Y1544D02*
X7332Y1544D01*
X7363Y1544D02*
X7373Y1544D01*
X7400Y1544D02*
X7411Y1544D01*
X7434Y1544D02*
X7445Y1544D01*
X6749Y1543D02*
X6758Y1543D01*
X6824Y1543D02*
X6833Y1543D01*
X6878Y1543D02*
X6888Y1543D01*
X6919Y1543D02*
X6929Y1543D01*
X6960Y1543D02*
X6971Y1543D01*
X6986Y1543D02*
X6997Y1543D01*
X7268Y1543D02*
X7277Y1543D01*
X7322Y1543D02*
X7332Y1543D01*
X7363Y1543D02*
X7373Y1543D01*
X7400Y1543D02*
X7411Y1543D01*
X7434Y1543D02*
X7445Y1543D01*
X6749Y1542D02*
X6758Y1542D01*
X6824Y1542D02*
X6833Y1542D01*
X6878Y1542D02*
X6888Y1542D01*
X6919Y1542D02*
X6929Y1542D01*
X6961Y1542D02*
X6971Y1542D01*
X6986Y1542D02*
X6997Y1542D01*
X7268Y1542D02*
X7277Y1542D01*
X7322Y1542D02*
X7332Y1542D01*
X7363Y1542D02*
X7373Y1542D01*
X7401Y1542D02*
X7412Y1542D01*
X7433Y1542D02*
X7444Y1542D01*
X6749Y1541D02*
X6758Y1541D01*
X6824Y1541D02*
X6833Y1541D01*
X6878Y1541D02*
X6888Y1541D01*
X6919Y1541D02*
X6929Y1541D01*
X6961Y1541D02*
X6972Y1541D01*
X6985Y1541D02*
X6996Y1541D01*
X7268Y1541D02*
X7277Y1541D01*
X7322Y1541D02*
X7332Y1541D01*
X7363Y1541D02*
X7373Y1541D01*
X7401Y1541D02*
X7412Y1541D01*
X7433Y1541D02*
X7444Y1541D01*
X6749Y1540D02*
X6758Y1540D01*
X6824Y1540D02*
X6833Y1540D01*
X6878Y1540D02*
X6888Y1540D01*
X6919Y1540D02*
X6929Y1540D01*
X6962Y1540D02*
X6972Y1540D01*
X6985Y1540D02*
X6996Y1540D01*
X7268Y1540D02*
X7277Y1540D01*
X7322Y1540D02*
X7332Y1540D01*
X7363Y1540D02*
X7373Y1540D01*
X7402Y1540D02*
X7413Y1540D01*
X7432Y1540D02*
X7443Y1540D01*
X6750Y1539D02*
X6757Y1539D01*
X6824Y1539D02*
X6833Y1539D01*
X6878Y1539D02*
X6888Y1539D01*
X6919Y1539D02*
X6929Y1539D01*
X6962Y1539D02*
X6973Y1539D01*
X6984Y1539D02*
X6995Y1539D01*
X7268Y1539D02*
X7277Y1539D01*
X7322Y1539D02*
X7332Y1539D01*
X7363Y1539D02*
X7373Y1539D01*
X7402Y1539D02*
X7413Y1539D01*
X7432Y1539D02*
X7443Y1539D01*
X6751Y1538D02*
X6757Y1538D01*
X6824Y1538D02*
X6833Y1538D01*
X6878Y1538D02*
X6888Y1538D01*
X6919Y1538D02*
X6929Y1538D01*
X6963Y1538D02*
X6973Y1538D01*
X6984Y1538D02*
X6995Y1538D01*
X7268Y1538D02*
X7277Y1538D01*
X7322Y1538D02*
X7332Y1538D01*
X7363Y1538D02*
X7373Y1538D01*
X7403Y1538D02*
X7414Y1538D01*
X7431Y1538D02*
X7442Y1538D01*
X6753Y1537D02*
X6755Y1537D01*
X6824Y1537D02*
X6833Y1537D01*
X6878Y1537D02*
X6888Y1537D01*
X6919Y1537D02*
X6929Y1537D01*
X6963Y1537D02*
X6974Y1537D01*
X6983Y1537D02*
X6994Y1537D01*
X7268Y1537D02*
X7277Y1537D01*
X7322Y1537D02*
X7332Y1537D01*
X7363Y1537D02*
X7373Y1537D01*
X7403Y1537D02*
X7414Y1537D01*
X7431Y1537D02*
X7442Y1537D01*
X6824Y1536D02*
X6833Y1536D01*
X6878Y1536D02*
X6888Y1536D01*
X6919Y1536D02*
X6929Y1536D01*
X6964Y1536D02*
X6974Y1536D01*
X6983Y1536D02*
X6994Y1536D01*
X7268Y1536D02*
X7277Y1536D01*
X7322Y1536D02*
X7332Y1536D01*
X7363Y1536D02*
X7373Y1536D01*
X7404Y1536D02*
X7415Y1536D01*
X7430Y1536D02*
X7441Y1536D01*
X6824Y1535D02*
X6833Y1535D01*
X6878Y1535D02*
X6889Y1535D01*
X6919Y1535D02*
X6929Y1535D01*
X6964Y1535D02*
X6975Y1535D01*
X6982Y1535D02*
X6993Y1535D01*
X7268Y1535D02*
X7277Y1535D01*
X7322Y1535D02*
X7332Y1535D01*
X7363Y1535D02*
X7373Y1535D01*
X7404Y1535D02*
X7415Y1535D01*
X7430Y1535D02*
X7441Y1535D01*
X6824Y1534D02*
X6833Y1534D01*
X6879Y1534D02*
X6889Y1534D01*
X6918Y1534D02*
X6929Y1534D01*
X6965Y1534D02*
X6975Y1534D01*
X6982Y1534D02*
X6993Y1534D01*
X7268Y1534D02*
X7277Y1534D01*
X7322Y1534D02*
X7332Y1534D01*
X7363Y1534D02*
X7373Y1534D01*
X7405Y1534D02*
X7416Y1534D01*
X7429Y1534D02*
X7440Y1534D01*
X6824Y1533D02*
X6833Y1533D01*
X6879Y1533D02*
X6891Y1533D01*
X6916Y1533D02*
X6928Y1533D01*
X6965Y1533D02*
X6976Y1533D01*
X6981Y1533D02*
X6992Y1533D01*
X7268Y1533D02*
X7277Y1533D01*
X7322Y1533D02*
X7332Y1533D01*
X7363Y1533D02*
X7373Y1533D01*
X7405Y1533D02*
X7416Y1533D01*
X7429Y1533D02*
X7440Y1533D01*
X6824Y1532D02*
X6833Y1532D01*
X6879Y1532D02*
X6928Y1532D01*
X6966Y1532D02*
X6992Y1532D01*
X7268Y1532D02*
X7277Y1532D01*
X7322Y1532D02*
X7332Y1532D01*
X7363Y1532D02*
X7373Y1532D01*
X7406Y1532D02*
X7417Y1532D01*
X7428Y1532D02*
X7439Y1532D01*
X6824Y1531D02*
X6833Y1531D01*
X6880Y1531D02*
X6927Y1531D01*
X6966Y1531D02*
X6991Y1531D01*
X7268Y1531D02*
X7277Y1531D01*
X7322Y1531D02*
X7332Y1531D01*
X7363Y1531D02*
X7373Y1531D01*
X7406Y1531D02*
X7417Y1531D01*
X7428Y1531D02*
X7439Y1531D01*
X6824Y1530D02*
X6833Y1530D01*
X6880Y1530D02*
X6927Y1530D01*
X6967Y1530D02*
X6991Y1530D01*
X7268Y1530D02*
X7277Y1530D01*
X7322Y1530D02*
X7332Y1530D01*
X7363Y1530D02*
X7373Y1530D01*
X7407Y1530D02*
X7418Y1530D01*
X7427Y1530D02*
X7438Y1530D01*
X6824Y1529D02*
X6833Y1529D01*
X6881Y1529D02*
X6926Y1529D01*
X6967Y1529D02*
X6990Y1529D01*
X7268Y1529D02*
X7277Y1529D01*
X7322Y1529D02*
X7332Y1529D01*
X7363Y1529D02*
X7373Y1529D01*
X7407Y1529D02*
X7418Y1529D01*
X7427Y1529D02*
X7438Y1529D01*
X6824Y1528D02*
X6833Y1528D01*
X6882Y1528D02*
X6926Y1528D01*
X6968Y1528D02*
X6989Y1528D01*
X7268Y1528D02*
X7277Y1528D01*
X7322Y1528D02*
X7332Y1528D01*
X7363Y1528D02*
X7373Y1528D01*
X7408Y1528D02*
X7419Y1528D01*
X7426Y1528D02*
X7437Y1528D01*
X6824Y1527D02*
X6833Y1527D01*
X6883Y1527D02*
X6925Y1527D01*
X6969Y1527D02*
X6989Y1527D01*
X7268Y1527D02*
X7277Y1527D01*
X7322Y1527D02*
X7333Y1527D01*
X7362Y1527D02*
X7372Y1527D01*
X7408Y1527D02*
X7419Y1527D01*
X7426Y1527D02*
X7437Y1527D01*
X6824Y1526D02*
X6833Y1526D01*
X6884Y1526D02*
X6924Y1526D01*
X6970Y1526D02*
X6988Y1526D01*
X7268Y1526D02*
X7277Y1526D01*
X7323Y1526D02*
X7334Y1526D01*
X7361Y1526D02*
X7372Y1526D01*
X7409Y1526D02*
X7420Y1526D01*
X7425Y1526D02*
X7436Y1526D01*
X6825Y1525D02*
X6833Y1525D01*
X6885Y1525D02*
X6922Y1525D01*
X6971Y1525D02*
X6986Y1525D01*
X7268Y1525D02*
X7277Y1525D01*
X7323Y1525D02*
X7372Y1525D01*
X7409Y1525D02*
X7436Y1525D01*
X6825Y1524D02*
X6832Y1524D01*
X6886Y1524D02*
X6921Y1524D01*
X6972Y1524D02*
X6985Y1524D01*
X7268Y1524D02*
X7277Y1524D01*
X7323Y1524D02*
X7372Y1524D01*
X7410Y1524D02*
X7435Y1524D01*
X6826Y1523D02*
X6831Y1523D01*
X6889Y1523D02*
X6919Y1523D01*
X6974Y1523D02*
X6983Y1523D01*
X7268Y1523D02*
X7277Y1523D01*
X7324Y1523D02*
X7371Y1523D01*
X7410Y1523D02*
X7435Y1523D01*
X7268Y1522D02*
X7277Y1522D01*
X7324Y1522D02*
X7370Y1522D01*
X7411Y1522D02*
X7434Y1522D01*
X7268Y1521D02*
X7277Y1521D01*
X7325Y1521D02*
X7370Y1521D01*
X7412Y1521D02*
X7433Y1521D01*
X7268Y1520D02*
X7277Y1520D01*
X7326Y1520D02*
X7369Y1520D01*
X7412Y1520D02*
X7433Y1520D01*
X7268Y1519D02*
X7277Y1519D01*
X7327Y1519D02*
X7368Y1519D01*
X7413Y1519D02*
X7432Y1519D01*
X7268Y1518D02*
X7277Y1518D01*
X7328Y1518D02*
X7367Y1518D01*
X7414Y1518D02*
X7431Y1518D01*
X7269Y1517D02*
X7276Y1517D01*
X7330Y1517D02*
X7365Y1517D01*
X7415Y1517D02*
X7430Y1517D01*
X7270Y1516D02*
X7275Y1516D01*
X7331Y1516D02*
X7364Y1516D01*
X7417Y1516D02*
X7428Y1516D01*
X7271Y1515D02*
X7274Y1515D01*
X7335Y1515D02*
X7360Y1515D01*
X7420Y1515D02*
X7425Y1515D01*
X6856Y1430D02*
X6890Y1430D01*
X6982Y1430D02*
X7017Y1430D01*
X7156Y1430D02*
X7190Y1430D01*
X7283Y1430D02*
X7317Y1430D01*
X6854Y1429D02*
X6893Y1429D01*
X6980Y1429D02*
X7018Y1429D01*
X7155Y1429D02*
X7193Y1429D01*
X7280Y1429D02*
X7318Y1429D01*
X6853Y1428D02*
X6895Y1428D01*
X6978Y1428D02*
X7019Y1428D01*
X7154Y1428D02*
X7195Y1428D01*
X7278Y1428D02*
X7319Y1428D01*
X6853Y1427D02*
X6896Y1427D01*
X6977Y1427D02*
X7020Y1427D01*
X7153Y1427D02*
X7197Y1427D01*
X7277Y1427D02*
X7320Y1427D01*
X6852Y1426D02*
X6898Y1426D01*
X6975Y1426D02*
X7020Y1426D01*
X7153Y1426D02*
X7198Y1426D01*
X7275Y1426D02*
X7320Y1426D01*
X6852Y1425D02*
X6899Y1425D01*
X6974Y1425D02*
X7020Y1425D01*
X7152Y1425D02*
X7199Y1425D01*
X7274Y1425D02*
X7320Y1425D01*
X6852Y1424D02*
X6900Y1424D01*
X6973Y1424D02*
X7020Y1424D01*
X7152Y1424D02*
X7200Y1424D01*
X7273Y1424D02*
X7321Y1424D01*
X6852Y1423D02*
X6901Y1423D01*
X6972Y1423D02*
X7020Y1423D01*
X7152Y1423D02*
X7201Y1423D01*
X7272Y1423D02*
X7320Y1423D01*
X6852Y1422D02*
X6901Y1422D01*
X6971Y1422D02*
X7020Y1422D01*
X7153Y1422D02*
X7202Y1422D01*
X7272Y1422D02*
X7320Y1422D01*
X6853Y1421D02*
X6902Y1421D01*
X6971Y1421D02*
X7020Y1421D01*
X7153Y1421D02*
X7202Y1421D01*
X7271Y1421D02*
X7320Y1421D01*
X6853Y1420D02*
X6902Y1420D01*
X6970Y1420D02*
X7019Y1420D01*
X7153Y1420D02*
X7203Y1420D01*
X7270Y1420D02*
X7319Y1420D01*
X6854Y1419D02*
X6903Y1419D01*
X6970Y1419D02*
X7018Y1419D01*
X7154Y1419D02*
X7203Y1419D01*
X7270Y1419D02*
X7319Y1419D01*
X6855Y1418D02*
X6904Y1418D01*
X6969Y1418D02*
X7017Y1418D01*
X7156Y1418D02*
X7204Y1418D01*
X7269Y1418D02*
X7317Y1418D01*
X6858Y1417D02*
X6904Y1417D01*
X6969Y1417D02*
X7015Y1417D01*
X7158Y1417D02*
X7204Y1417D01*
X7269Y1417D02*
X7315Y1417D01*
X6888Y1416D02*
X6904Y1416D01*
X6968Y1416D02*
X6984Y1416D01*
X6993Y1416D02*
X7007Y1416D01*
X7189Y1416D02*
X7205Y1416D01*
X7268Y1416D02*
X7284Y1416D01*
X7294Y1416D02*
X7307Y1416D01*
X6890Y1415D02*
X6905Y1415D01*
X6968Y1415D02*
X6983Y1415D01*
X6993Y1415D02*
X7007Y1415D01*
X7190Y1415D02*
X7205Y1415D01*
X7268Y1415D02*
X7283Y1415D01*
X7294Y1415D02*
X7307Y1415D01*
X6890Y1414D02*
X6905Y1414D01*
X6967Y1414D02*
X6982Y1414D01*
X6993Y1414D02*
X7007Y1414D01*
X7191Y1414D02*
X7206Y1414D01*
X7267Y1414D02*
X7282Y1414D01*
X7294Y1414D02*
X7307Y1414D01*
X6891Y1413D02*
X6906Y1413D01*
X6967Y1413D02*
X6981Y1413D01*
X6993Y1413D02*
X7007Y1413D01*
X7191Y1413D02*
X7206Y1413D01*
X7267Y1413D02*
X7282Y1413D01*
X7294Y1413D02*
X7307Y1413D01*
X6892Y1412D02*
X6906Y1412D01*
X6966Y1412D02*
X6981Y1412D01*
X6993Y1412D02*
X7007Y1412D01*
X7192Y1412D02*
X7207Y1412D01*
X7266Y1412D02*
X7281Y1412D01*
X7294Y1412D02*
X7307Y1412D01*
X6892Y1411D02*
X6907Y1411D01*
X6966Y1411D02*
X6980Y1411D01*
X6993Y1411D02*
X7007Y1411D01*
X7192Y1411D02*
X7207Y1411D01*
X7266Y1411D02*
X7281Y1411D01*
X7294Y1411D02*
X7307Y1411D01*
X6893Y1410D02*
X6907Y1410D01*
X6965Y1410D02*
X6980Y1410D01*
X6993Y1410D02*
X7007Y1410D01*
X7193Y1410D02*
X7208Y1410D01*
X7265Y1410D02*
X7280Y1410D01*
X7294Y1410D02*
X7307Y1410D01*
X6893Y1409D02*
X6908Y1409D01*
X6965Y1409D02*
X6979Y1409D01*
X6993Y1409D02*
X7007Y1409D01*
X7193Y1409D02*
X7208Y1409D01*
X7265Y1409D02*
X7280Y1409D01*
X7294Y1409D02*
X7307Y1409D01*
X6894Y1408D02*
X6908Y1408D01*
X6964Y1408D02*
X6979Y1408D01*
X6993Y1408D02*
X7007Y1408D01*
X7194Y1408D02*
X7209Y1408D01*
X7264Y1408D02*
X7279Y1408D01*
X7294Y1408D02*
X7307Y1408D01*
X6894Y1407D02*
X6909Y1407D01*
X6964Y1407D02*
X6978Y1407D01*
X6993Y1407D02*
X7007Y1407D01*
X7194Y1407D02*
X7209Y1407D01*
X7264Y1407D02*
X7279Y1407D01*
X7294Y1407D02*
X7307Y1407D01*
X6895Y1406D02*
X6909Y1406D01*
X6963Y1406D02*
X6978Y1406D01*
X6993Y1406D02*
X7007Y1406D01*
X7195Y1406D02*
X7210Y1406D01*
X7263Y1406D02*
X7278Y1406D01*
X7294Y1406D02*
X7307Y1406D01*
X6895Y1405D02*
X6910Y1405D01*
X6963Y1405D02*
X6977Y1405D01*
X6993Y1405D02*
X7007Y1405D01*
X7195Y1405D02*
X7210Y1405D01*
X7263Y1405D02*
X7278Y1405D01*
X7294Y1405D02*
X7307Y1405D01*
X6896Y1404D02*
X6910Y1404D01*
X6962Y1404D02*
X6977Y1404D01*
X6993Y1404D02*
X7007Y1404D01*
X7196Y1404D02*
X7211Y1404D01*
X7262Y1404D02*
X7277Y1404D01*
X7294Y1404D02*
X7307Y1404D01*
X6896Y1403D02*
X6911Y1403D01*
X6962Y1403D02*
X6976Y1403D01*
X6993Y1403D02*
X7007Y1403D01*
X7196Y1403D02*
X7211Y1403D01*
X7262Y1403D02*
X7277Y1403D01*
X7294Y1403D02*
X7307Y1403D01*
X6897Y1402D02*
X6911Y1402D01*
X6961Y1402D02*
X6976Y1402D01*
X6993Y1402D02*
X7007Y1402D01*
X7197Y1402D02*
X7212Y1402D01*
X7261Y1402D02*
X7276Y1402D01*
X7294Y1402D02*
X7307Y1402D01*
X6897Y1401D02*
X6912Y1401D01*
X6961Y1401D02*
X6975Y1401D01*
X6993Y1401D02*
X7007Y1401D01*
X7197Y1401D02*
X7212Y1401D01*
X7261Y1401D02*
X7276Y1401D01*
X7294Y1401D02*
X7307Y1401D01*
X6898Y1400D02*
X6912Y1400D01*
X6960Y1400D02*
X6975Y1400D01*
X6993Y1400D02*
X7007Y1400D01*
X7198Y1400D02*
X7213Y1400D01*
X7260Y1400D02*
X7275Y1400D01*
X7294Y1400D02*
X7307Y1400D01*
X6898Y1399D02*
X6913Y1399D01*
X6960Y1399D02*
X6974Y1399D01*
X6993Y1399D02*
X7007Y1399D01*
X7198Y1399D02*
X7213Y1399D01*
X7260Y1399D02*
X7275Y1399D01*
X7294Y1399D02*
X7307Y1399D01*
X6899Y1398D02*
X6913Y1398D01*
X6959Y1398D02*
X6974Y1398D01*
X6993Y1398D02*
X7007Y1398D01*
X7199Y1398D02*
X7214Y1398D01*
X7259Y1398D02*
X7274Y1398D01*
X7294Y1398D02*
X7307Y1398D01*
X6899Y1397D02*
X6914Y1397D01*
X6959Y1397D02*
X6973Y1397D01*
X6993Y1397D02*
X7007Y1397D01*
X7199Y1397D02*
X7214Y1397D01*
X7259Y1397D02*
X7274Y1397D01*
X7294Y1397D02*
X7307Y1397D01*
X6900Y1396D02*
X6914Y1396D01*
X6958Y1396D02*
X6973Y1396D01*
X6993Y1396D02*
X7007Y1396D01*
X7200Y1396D02*
X7215Y1396D01*
X7258Y1396D02*
X7273Y1396D01*
X7294Y1396D02*
X7307Y1396D01*
X6900Y1395D02*
X6915Y1395D01*
X6958Y1395D02*
X6972Y1395D01*
X6993Y1395D02*
X7007Y1395D01*
X7200Y1395D02*
X7215Y1395D01*
X7258Y1395D02*
X7273Y1395D01*
X7294Y1395D02*
X7307Y1395D01*
X6901Y1394D02*
X6915Y1394D01*
X6957Y1394D02*
X6972Y1394D01*
X6993Y1394D02*
X7007Y1394D01*
X7201Y1394D02*
X7216Y1394D01*
X7257Y1394D02*
X7272Y1394D01*
X7294Y1394D02*
X7307Y1394D01*
X6901Y1393D02*
X6916Y1393D01*
X6957Y1393D02*
X6971Y1393D01*
X6993Y1393D02*
X7007Y1393D01*
X7201Y1393D02*
X7216Y1393D01*
X7257Y1393D02*
X7272Y1393D01*
X7294Y1393D02*
X7307Y1393D01*
X6902Y1392D02*
X6916Y1392D01*
X6956Y1392D02*
X6971Y1392D01*
X6993Y1392D02*
X7007Y1392D01*
X7202Y1392D02*
X7217Y1392D01*
X7256Y1392D02*
X7271Y1392D01*
X7294Y1392D02*
X7307Y1392D01*
X6902Y1391D02*
X6917Y1391D01*
X6956Y1391D02*
X6970Y1391D01*
X6993Y1391D02*
X7007Y1391D01*
X7202Y1391D02*
X7217Y1391D01*
X7256Y1391D02*
X7270Y1391D01*
X7294Y1391D02*
X7307Y1391D01*
X6903Y1390D02*
X6917Y1390D01*
X6955Y1390D02*
X6970Y1390D01*
X6993Y1390D02*
X7007Y1390D01*
X7203Y1390D02*
X7218Y1390D01*
X7255Y1390D02*
X7270Y1390D01*
X7294Y1390D02*
X7307Y1390D01*
X6903Y1389D02*
X6918Y1389D01*
X6955Y1389D02*
X6969Y1389D01*
X6993Y1389D02*
X7007Y1389D01*
X7203Y1389D02*
X7218Y1389D01*
X7255Y1389D02*
X7269Y1389D01*
X7294Y1389D02*
X7307Y1389D01*
X6904Y1388D02*
X6918Y1388D01*
X6954Y1388D02*
X6969Y1388D01*
X6993Y1388D02*
X7007Y1388D01*
X7204Y1388D02*
X7218Y1388D01*
X7255Y1388D02*
X7269Y1388D01*
X7294Y1388D02*
X7307Y1388D01*
X6904Y1387D02*
X6918Y1387D01*
X6954Y1387D02*
X6968Y1387D01*
X6993Y1387D02*
X7007Y1387D01*
X7205Y1387D02*
X7219Y1387D01*
X7254Y1387D02*
X7268Y1387D01*
X7294Y1387D02*
X7307Y1387D01*
X6905Y1386D02*
X6919Y1386D01*
X6954Y1386D02*
X6968Y1386D01*
X6993Y1386D02*
X7007Y1386D01*
X7205Y1386D02*
X7219Y1386D01*
X7254Y1386D02*
X7268Y1386D01*
X7294Y1386D02*
X7307Y1386D01*
X6905Y1385D02*
X6919Y1385D01*
X6953Y1385D02*
X6967Y1385D01*
X6993Y1385D02*
X7007Y1385D01*
X7206Y1385D02*
X7219Y1385D01*
X7254Y1385D02*
X7267Y1385D01*
X7294Y1385D02*
X7307Y1385D01*
X6906Y1384D02*
X6919Y1384D01*
X6953Y1384D02*
X6967Y1384D01*
X6993Y1384D02*
X7007Y1384D01*
X7206Y1384D02*
X7220Y1384D01*
X7253Y1384D02*
X7267Y1384D01*
X7294Y1384D02*
X7307Y1384D01*
X6906Y1383D02*
X6920Y1383D01*
X6953Y1383D02*
X6966Y1383D01*
X6993Y1383D02*
X7007Y1383D01*
X7206Y1383D02*
X7220Y1383D01*
X7253Y1383D02*
X7267Y1383D01*
X7294Y1383D02*
X7307Y1383D01*
X6906Y1382D02*
X6920Y1382D01*
X6953Y1382D02*
X6966Y1382D01*
X6993Y1382D02*
X7007Y1382D01*
X7207Y1382D02*
X7220Y1382D01*
X7253Y1382D02*
X7266Y1382D01*
X7294Y1382D02*
X7307Y1382D01*
X6907Y1381D02*
X6920Y1381D01*
X6952Y1381D02*
X6966Y1381D01*
X6993Y1381D02*
X7007Y1381D01*
X7207Y1381D02*
X7220Y1381D01*
X7253Y1381D02*
X7266Y1381D01*
X7294Y1381D02*
X7307Y1381D01*
X6907Y1380D02*
X6920Y1380D01*
X6952Y1380D02*
X6965Y1380D01*
X6993Y1380D02*
X7007Y1380D01*
X7207Y1380D02*
X7220Y1380D01*
X7253Y1380D02*
X7266Y1380D01*
X7294Y1380D02*
X7307Y1380D01*
X6907Y1379D02*
X6920Y1379D01*
X6952Y1379D02*
X6965Y1379D01*
X6993Y1379D02*
X7007Y1379D01*
X7207Y1379D02*
X7220Y1379D01*
X7252Y1379D02*
X7266Y1379D01*
X7294Y1379D02*
X7307Y1379D01*
X6907Y1378D02*
X6920Y1378D01*
X6952Y1378D02*
X6965Y1378D01*
X6993Y1378D02*
X7007Y1378D01*
X7207Y1378D02*
X7220Y1378D01*
X7252Y1378D02*
X7265Y1378D01*
X7294Y1378D02*
X7307Y1378D01*
X6907Y1377D02*
X6920Y1377D01*
X6952Y1377D02*
X6965Y1377D01*
X6993Y1377D02*
X7007Y1377D01*
X7207Y1377D02*
X7220Y1377D01*
X7252Y1377D02*
X7265Y1377D01*
X7294Y1377D02*
X7307Y1377D01*
X6907Y1376D02*
X6920Y1376D01*
X6952Y1376D02*
X6965Y1376D01*
X6993Y1376D02*
X7007Y1376D01*
X7207Y1376D02*
X7220Y1376D01*
X7252Y1376D02*
X7265Y1376D01*
X7294Y1376D02*
X7307Y1376D01*
X6907Y1375D02*
X6920Y1375D01*
X6952Y1375D02*
X6965Y1375D01*
X6993Y1375D02*
X7007Y1375D01*
X7207Y1375D02*
X7220Y1375D01*
X7252Y1375D02*
X7266Y1375D01*
X7294Y1375D02*
X7307Y1375D01*
X6907Y1374D02*
X6920Y1374D01*
X6952Y1374D02*
X6965Y1374D01*
X6993Y1374D02*
X7007Y1374D01*
X7207Y1374D02*
X7220Y1374D01*
X7253Y1374D02*
X7266Y1374D01*
X7294Y1374D02*
X7307Y1374D01*
X6907Y1373D02*
X6920Y1373D01*
X6952Y1373D02*
X6966Y1373D01*
X6993Y1373D02*
X7007Y1373D01*
X7207Y1373D02*
X7220Y1373D01*
X7253Y1373D02*
X7266Y1373D01*
X7294Y1373D02*
X7307Y1373D01*
X6907Y1372D02*
X6920Y1372D01*
X6952Y1372D02*
X6966Y1372D01*
X6993Y1372D02*
X7007Y1372D01*
X7207Y1372D02*
X7220Y1372D01*
X7253Y1372D02*
X7266Y1372D01*
X7294Y1372D02*
X7307Y1372D01*
X6906Y1371D02*
X6920Y1371D01*
X6953Y1371D02*
X6966Y1371D01*
X6993Y1371D02*
X7007Y1371D01*
X7206Y1371D02*
X7220Y1371D01*
X7253Y1371D02*
X7267Y1371D01*
X7294Y1371D02*
X7307Y1371D01*
X6906Y1370D02*
X6919Y1370D01*
X6953Y1370D02*
X6967Y1370D01*
X6993Y1370D02*
X7007Y1370D01*
X7206Y1370D02*
X7220Y1370D01*
X7253Y1370D02*
X7267Y1370D01*
X7294Y1370D02*
X7307Y1370D01*
X6905Y1369D02*
X6919Y1369D01*
X6953Y1369D02*
X6967Y1369D01*
X6993Y1369D02*
X7007Y1369D01*
X7206Y1369D02*
X7219Y1369D01*
X7253Y1369D02*
X7267Y1369D01*
X7294Y1369D02*
X7307Y1369D01*
X6905Y1368D02*
X6919Y1368D01*
X6953Y1368D02*
X6967Y1368D01*
X6993Y1368D02*
X7007Y1368D01*
X7205Y1368D02*
X7219Y1368D01*
X7254Y1368D02*
X7268Y1368D01*
X7294Y1368D02*
X7307Y1368D01*
X6905Y1367D02*
X6919Y1367D01*
X6954Y1367D02*
X6968Y1367D01*
X6993Y1367D02*
X7007Y1367D01*
X7205Y1367D02*
X7219Y1367D01*
X7254Y1367D02*
X7268Y1367D01*
X7294Y1367D02*
X7307Y1367D01*
X6904Y1366D02*
X6918Y1366D01*
X6954Y1366D02*
X6968Y1366D01*
X6993Y1366D02*
X7007Y1366D01*
X7204Y1366D02*
X7219Y1366D01*
X7254Y1366D02*
X7269Y1366D01*
X7294Y1366D02*
X7307Y1366D01*
X6904Y1365D02*
X6918Y1365D01*
X6954Y1365D02*
X6969Y1365D01*
X6993Y1365D02*
X7007Y1365D01*
X7204Y1365D02*
X7218Y1365D01*
X7255Y1365D02*
X7269Y1365D01*
X7294Y1365D02*
X7307Y1365D01*
X6903Y1364D02*
X6918Y1364D01*
X6955Y1364D02*
X6969Y1364D01*
X6993Y1364D02*
X7007Y1364D01*
X7203Y1364D02*
X7218Y1364D01*
X7255Y1364D02*
X7270Y1364D01*
X7294Y1364D02*
X7307Y1364D01*
X6902Y1363D02*
X6917Y1363D01*
X6955Y1363D02*
X6970Y1363D01*
X6993Y1363D02*
X7007Y1363D01*
X7203Y1363D02*
X7217Y1363D01*
X7256Y1363D02*
X7270Y1363D01*
X7294Y1363D02*
X7307Y1363D01*
X6902Y1362D02*
X6917Y1362D01*
X6956Y1362D02*
X6970Y1362D01*
X6993Y1362D02*
X7007Y1362D01*
X7202Y1362D02*
X7217Y1362D01*
X7256Y1362D02*
X7271Y1362D01*
X7294Y1362D02*
X7307Y1362D01*
X6901Y1361D02*
X6916Y1361D01*
X6956Y1361D02*
X6971Y1361D01*
X6993Y1361D02*
X7007Y1361D01*
X7202Y1361D02*
X7216Y1361D01*
X7256Y1361D02*
X7271Y1361D01*
X7294Y1361D02*
X7307Y1361D01*
X6901Y1360D02*
X6916Y1360D01*
X6957Y1360D02*
X6971Y1360D01*
X6993Y1360D02*
X7007Y1360D01*
X7201Y1360D02*
X7216Y1360D01*
X7257Y1360D02*
X7272Y1360D01*
X7294Y1360D02*
X7307Y1360D01*
X6900Y1359D02*
X6915Y1359D01*
X6957Y1359D02*
X6972Y1359D01*
X6993Y1359D02*
X7007Y1359D01*
X7201Y1359D02*
X7216Y1359D01*
X7257Y1359D02*
X7272Y1359D01*
X7294Y1359D02*
X7307Y1359D01*
X6900Y1358D02*
X6915Y1358D01*
X6958Y1358D02*
X6972Y1358D01*
X6993Y1358D02*
X7007Y1358D01*
X7200Y1358D02*
X7215Y1358D01*
X7258Y1358D02*
X7273Y1358D01*
X7294Y1358D02*
X7307Y1358D01*
X6899Y1357D02*
X6914Y1357D01*
X6958Y1357D02*
X6973Y1357D01*
X6993Y1357D02*
X7007Y1357D01*
X7200Y1357D02*
X7215Y1357D01*
X7258Y1357D02*
X7273Y1357D01*
X7294Y1357D02*
X7307Y1357D01*
X6899Y1356D02*
X6914Y1356D01*
X6959Y1356D02*
X6973Y1356D01*
X6993Y1356D02*
X7007Y1356D01*
X7199Y1356D02*
X7214Y1356D01*
X7259Y1356D02*
X7274Y1356D01*
X7294Y1356D02*
X7307Y1356D01*
X6898Y1355D02*
X6913Y1355D01*
X6959Y1355D02*
X6974Y1355D01*
X6993Y1355D02*
X7007Y1355D01*
X7199Y1355D02*
X7214Y1355D01*
X7259Y1355D02*
X7274Y1355D01*
X7294Y1355D02*
X7307Y1355D01*
X6898Y1354D02*
X6913Y1354D01*
X6960Y1354D02*
X6974Y1354D01*
X6993Y1354D02*
X7007Y1354D01*
X7198Y1354D02*
X7213Y1354D01*
X7260Y1354D02*
X7275Y1354D01*
X7294Y1354D02*
X7307Y1354D01*
X6897Y1353D02*
X6912Y1353D01*
X6960Y1353D02*
X6975Y1353D01*
X6993Y1353D02*
X7007Y1353D01*
X7198Y1353D02*
X7213Y1353D01*
X7260Y1353D02*
X7275Y1353D01*
X7294Y1353D02*
X7307Y1353D01*
X6897Y1352D02*
X6912Y1352D01*
X6961Y1352D02*
X6976Y1352D01*
X6993Y1352D02*
X7007Y1352D01*
X7197Y1352D02*
X7212Y1352D01*
X7261Y1352D02*
X7276Y1352D01*
X7294Y1352D02*
X7307Y1352D01*
X6896Y1351D02*
X6911Y1351D01*
X6961Y1351D02*
X6976Y1351D01*
X6993Y1351D02*
X7007Y1351D01*
X7197Y1351D02*
X7212Y1351D01*
X7261Y1351D02*
X7276Y1351D01*
X7294Y1351D02*
X7307Y1351D01*
X6896Y1350D02*
X6911Y1350D01*
X6962Y1350D02*
X6977Y1350D01*
X6993Y1350D02*
X7007Y1350D01*
X7196Y1350D02*
X7211Y1350D01*
X7262Y1350D02*
X7277Y1350D01*
X7294Y1350D02*
X7307Y1350D01*
X6895Y1349D02*
X6910Y1349D01*
X6962Y1349D02*
X6977Y1349D01*
X6993Y1349D02*
X7007Y1349D01*
X7196Y1349D02*
X7211Y1349D01*
X7262Y1349D02*
X7277Y1349D01*
X7294Y1349D02*
X7307Y1349D01*
X6895Y1348D02*
X6910Y1348D01*
X6963Y1348D02*
X6978Y1348D01*
X6993Y1348D02*
X7007Y1348D01*
X7195Y1348D02*
X7210Y1348D01*
X7263Y1348D02*
X7278Y1348D01*
X7294Y1348D02*
X7307Y1348D01*
X6894Y1347D02*
X6909Y1347D01*
X6963Y1347D02*
X6978Y1347D01*
X6993Y1347D02*
X7007Y1347D01*
X7195Y1347D02*
X7210Y1347D01*
X7263Y1347D02*
X7278Y1347D01*
X7294Y1347D02*
X7307Y1347D01*
X6894Y1346D02*
X6909Y1346D01*
X6964Y1346D02*
X6979Y1346D01*
X6993Y1346D02*
X7007Y1346D01*
X7194Y1346D02*
X7209Y1346D01*
X7264Y1346D02*
X7279Y1346D01*
X7294Y1346D02*
X7307Y1346D01*
X6893Y1345D02*
X6908Y1345D01*
X6964Y1345D02*
X6979Y1345D01*
X6993Y1345D02*
X7007Y1345D01*
X7194Y1345D02*
X7209Y1345D01*
X7264Y1345D02*
X7279Y1345D01*
X7294Y1345D02*
X7307Y1345D01*
X6893Y1344D02*
X6908Y1344D01*
X6965Y1344D02*
X6980Y1344D01*
X6993Y1344D02*
X7007Y1344D01*
X7193Y1344D02*
X7208Y1344D01*
X7265Y1344D02*
X7280Y1344D01*
X7294Y1344D02*
X7307Y1344D01*
X6892Y1343D02*
X6907Y1343D01*
X6965Y1343D02*
X6980Y1343D01*
X6993Y1343D02*
X7007Y1343D01*
X7193Y1343D02*
X7208Y1343D01*
X7265Y1343D02*
X7280Y1343D01*
X7294Y1343D02*
X7307Y1343D01*
X6892Y1342D02*
X6907Y1342D01*
X6966Y1342D02*
X6981Y1342D01*
X6993Y1342D02*
X7007Y1342D01*
X7192Y1342D02*
X7207Y1342D01*
X7266Y1342D02*
X7281Y1342D01*
X7294Y1342D02*
X7307Y1342D01*
X6891Y1341D02*
X6906Y1341D01*
X6966Y1341D02*
X6981Y1341D01*
X6993Y1341D02*
X7007Y1341D01*
X7192Y1341D02*
X7206Y1341D01*
X7266Y1341D02*
X7281Y1341D01*
X7294Y1341D02*
X7307Y1341D01*
X6891Y1340D02*
X6906Y1340D01*
X6967Y1340D02*
X6982Y1340D01*
X6993Y1340D02*
X7007Y1340D01*
X7191Y1340D02*
X7206Y1340D01*
X7267Y1340D02*
X7282Y1340D01*
X7294Y1340D02*
X7307Y1340D01*
X6890Y1339D02*
X6905Y1339D01*
X6967Y1339D02*
X6982Y1339D01*
X6993Y1339D02*
X7007Y1339D01*
X7190Y1339D02*
X7205Y1339D01*
X7267Y1339D02*
X7283Y1339D01*
X7294Y1339D02*
X7307Y1339D01*
X6889Y1338D02*
X6905Y1338D01*
X6968Y1338D02*
X6983Y1338D01*
X6993Y1338D02*
X7007Y1338D01*
X7189Y1338D02*
X7205Y1338D01*
X7268Y1338D02*
X7284Y1338D01*
X7294Y1338D02*
X7307Y1338D01*
X6887Y1337D02*
X6904Y1337D01*
X6968Y1337D02*
X6985Y1337D01*
X6993Y1337D02*
X7007Y1337D01*
X7188Y1337D02*
X7204Y1337D01*
X7268Y1337D02*
X7285Y1337D01*
X7294Y1337D02*
X7307Y1337D01*
X6856Y1336D02*
X6904Y1336D01*
X6969Y1336D02*
X7016Y1336D01*
X7157Y1336D02*
X7204Y1336D01*
X7269Y1336D02*
X7316Y1336D01*
X6855Y1335D02*
X6903Y1335D01*
X6969Y1335D02*
X7018Y1335D01*
X7155Y1335D02*
X7203Y1335D01*
X7269Y1335D02*
X7318Y1335D01*
X6854Y1334D02*
X6903Y1334D01*
X6970Y1334D02*
X7019Y1334D01*
X7154Y1334D02*
X7203Y1334D01*
X7270Y1334D02*
X7319Y1334D01*
X6853Y1333D02*
X6902Y1333D01*
X6970Y1333D02*
X7019Y1333D01*
X7153Y1333D02*
X7202Y1333D01*
X7270Y1333D02*
X7320Y1333D01*
X6852Y1332D02*
X6901Y1332D01*
X6971Y1332D02*
X7020Y1332D01*
X7153Y1332D02*
X7202Y1332D01*
X7271Y1332D02*
X7320Y1332D01*
X6852Y1331D02*
X6901Y1331D01*
X6971Y1331D02*
X7020Y1331D01*
X7152Y1331D02*
X7201Y1331D01*
X7272Y1331D02*
X7320Y1331D01*
X6852Y1330D02*
X6900Y1330D01*
X6972Y1330D02*
X7020Y1330D01*
X7152Y1330D02*
X7200Y1330D01*
X7272Y1330D02*
X7321Y1330D01*
X6852Y1329D02*
X6899Y1329D01*
X6973Y1329D02*
X7020Y1329D01*
X7152Y1329D02*
X7199Y1329D01*
X7273Y1329D02*
X7321Y1329D01*
X6852Y1328D02*
X6898Y1328D01*
X6974Y1328D02*
X7020Y1328D01*
X7152Y1328D02*
X7198Y1328D01*
X7274Y1328D02*
X7320Y1328D01*
X6852Y1327D02*
X6897Y1327D01*
X6975Y1327D02*
X7020Y1327D01*
X7153Y1327D02*
X7197Y1327D01*
X7276Y1327D02*
X7320Y1327D01*
X6853Y1326D02*
X6895Y1326D01*
X6977Y1326D02*
X7019Y1326D01*
X7153Y1326D02*
X7196Y1326D01*
X7277Y1326D02*
X7320Y1326D01*
X6854Y1325D02*
X6894Y1325D01*
X6978Y1325D02*
X7019Y1325D01*
X7154Y1325D02*
X7194Y1325D01*
X7279Y1325D02*
X7319Y1325D01*
X6855Y1324D02*
X6892Y1324D01*
X6981Y1324D02*
X7018Y1324D01*
X7155Y1324D02*
X7192Y1324D01*
X7281Y1324D02*
X7318Y1324D01*
X6856Y1323D02*
X6888Y1323D01*
X6984Y1323D02*
X7016Y1323D01*
X7157Y1323D02*
X7189Y1323D01*
X7284Y1323D02*
X7316Y1323D01*
X6977Y1282D02*
X6980Y1282D01*
X6975Y1281D02*
X6982Y1281D01*
X6974Y1280D02*
X6983Y1280D01*
X6973Y1279D02*
X6984Y1279D01*
X6972Y1278D02*
X6984Y1278D01*
X6972Y1277D02*
X6985Y1277D01*
X6972Y1276D02*
X6985Y1276D01*
X6972Y1275D02*
X6985Y1275D01*
X6972Y1274D02*
X6985Y1274D01*
X6972Y1273D02*
X6985Y1273D01*
X6972Y1272D02*
X6985Y1272D01*
X6972Y1271D02*
X6985Y1271D01*
X6972Y1270D02*
X6985Y1270D01*
X6972Y1269D02*
X6985Y1269D01*
X6972Y1268D02*
X6985Y1268D01*
X6972Y1267D02*
X6985Y1267D01*
X6972Y1266D02*
X6985Y1266D01*
X6972Y1265D02*
X6985Y1265D01*
X6972Y1264D02*
X6985Y1264D01*
X6972Y1263D02*
X6985Y1263D01*
X6972Y1262D02*
X6985Y1262D01*
X6972Y1261D02*
X6985Y1261D01*
X6972Y1260D02*
X6985Y1260D01*
X6972Y1259D02*
X6985Y1259D01*
X6972Y1258D02*
X6985Y1258D01*
X6972Y1257D02*
X6985Y1257D01*
X6972Y1256D02*
X6985Y1256D01*
X6972Y1255D02*
X6985Y1255D01*
X6972Y1254D02*
X6985Y1254D01*
X6972Y1253D02*
X6985Y1253D01*
X6688Y1252D02*
X6707Y1252D01*
X6730Y1252D02*
X6736Y1252D01*
X6774Y1252D02*
X6780Y1252D01*
X6832Y1252D02*
X6838Y1252D01*
X6892Y1252D02*
X6920Y1252D01*
X6972Y1252D02*
X6985Y1252D01*
X6999Y1252D02*
X7021Y1252D01*
X6685Y1251D02*
X6710Y1251D01*
X6729Y1251D02*
X6738Y1251D01*
X6773Y1251D02*
X6781Y1251D01*
X6831Y1251D02*
X6839Y1251D01*
X6889Y1251D02*
X6923Y1251D01*
X6972Y1251D02*
X6985Y1251D01*
X6996Y1251D02*
X7023Y1251D01*
X6684Y1250D02*
X6712Y1250D01*
X6728Y1250D02*
X6739Y1250D01*
X6772Y1250D02*
X6782Y1250D01*
X6830Y1250D02*
X6840Y1250D01*
X6887Y1250D02*
X6925Y1250D01*
X6972Y1250D02*
X6985Y1250D01*
X6994Y1250D02*
X7025Y1250D01*
X6682Y1249D02*
X6713Y1249D01*
X6728Y1249D02*
X6739Y1249D01*
X6771Y1249D02*
X6783Y1249D01*
X6829Y1249D02*
X6841Y1249D01*
X6886Y1249D02*
X6926Y1249D01*
X6972Y1249D02*
X6985Y1249D01*
X6993Y1249D02*
X7026Y1249D01*
X6681Y1248D02*
X6715Y1248D01*
X6727Y1248D02*
X6740Y1248D01*
X6771Y1248D02*
X6783Y1248D01*
X6829Y1248D02*
X6841Y1248D01*
X6884Y1248D02*
X6928Y1248D01*
X6972Y1248D02*
X6985Y1248D01*
X6991Y1248D02*
X7028Y1248D01*
X6680Y1247D02*
X6717Y1247D01*
X6727Y1247D02*
X6740Y1247D01*
X6770Y1247D02*
X6783Y1247D01*
X6829Y1247D02*
X6841Y1247D01*
X6883Y1247D02*
X6929Y1247D01*
X6972Y1247D02*
X6985Y1247D01*
X6990Y1247D02*
X7029Y1247D01*
X6679Y1246D02*
X6718Y1246D01*
X6727Y1246D02*
X6740Y1246D01*
X6770Y1246D02*
X6783Y1246D01*
X6828Y1246D02*
X6841Y1246D01*
X6882Y1246D02*
X6930Y1246D01*
X6972Y1246D02*
X6985Y1246D01*
X6989Y1246D02*
X7030Y1246D01*
X6678Y1245D02*
X6720Y1245D01*
X6727Y1245D02*
X6740Y1245D01*
X6770Y1245D02*
X6783Y1245D01*
X6828Y1245D02*
X6841Y1245D01*
X6881Y1245D02*
X6931Y1245D01*
X6972Y1245D02*
X6985Y1245D01*
X6988Y1245D02*
X7031Y1245D01*
X6677Y1244D02*
X6721Y1244D01*
X6727Y1244D02*
X6740Y1244D01*
X6770Y1244D02*
X6783Y1244D01*
X6828Y1244D02*
X6841Y1244D01*
X6880Y1244D02*
X6932Y1244D01*
X6972Y1244D02*
X6985Y1244D01*
X6987Y1244D02*
X7032Y1244D01*
X6677Y1243D02*
X6723Y1243D01*
X6727Y1243D02*
X6740Y1243D01*
X6770Y1243D02*
X6783Y1243D01*
X6828Y1243D02*
X6841Y1243D01*
X6879Y1243D02*
X6933Y1243D01*
X6972Y1243D02*
X7033Y1243D01*
X6676Y1242D02*
X6725Y1242D01*
X6727Y1242D02*
X6740Y1242D01*
X6770Y1242D02*
X6784Y1242D01*
X6828Y1242D02*
X6841Y1242D01*
X6878Y1242D02*
X6934Y1242D01*
X6972Y1242D02*
X7034Y1242D01*
X6675Y1241D02*
X6740Y1241D01*
X6771Y1241D02*
X6784Y1241D01*
X6828Y1241D02*
X6841Y1241D01*
X6877Y1241D02*
X6935Y1241D01*
X6972Y1241D02*
X7035Y1241D01*
X6675Y1240D02*
X6740Y1240D01*
X6771Y1240D02*
X6784Y1240D01*
X6828Y1240D02*
X6841Y1240D01*
X6876Y1240D02*
X6936Y1240D01*
X6972Y1240D02*
X7036Y1240D01*
X6675Y1239D02*
X6740Y1239D01*
X6771Y1239D02*
X6784Y1239D01*
X6828Y1239D02*
X6841Y1239D01*
X6875Y1239D02*
X6937Y1239D01*
X6972Y1239D02*
X7037Y1239D01*
X6674Y1238D02*
X6690Y1238D01*
X6706Y1238D02*
X6740Y1238D01*
X6771Y1238D02*
X6784Y1238D01*
X6828Y1238D02*
X6841Y1238D01*
X6875Y1238D02*
X6893Y1238D01*
X6919Y1238D02*
X6937Y1238D01*
X6972Y1238D02*
X7001Y1238D01*
X7019Y1238D02*
X7038Y1238D01*
X6674Y1237D02*
X6689Y1237D01*
X6707Y1237D02*
X6740Y1237D01*
X6771Y1237D02*
X6784Y1237D01*
X6828Y1237D02*
X6841Y1237D01*
X6874Y1237D02*
X6891Y1237D01*
X6920Y1237D02*
X6938Y1237D01*
X6972Y1237D02*
X6999Y1237D01*
X7020Y1237D02*
X7038Y1237D01*
X6674Y1236D02*
X6688Y1236D01*
X6709Y1236D02*
X6740Y1236D01*
X6771Y1236D02*
X6784Y1236D01*
X6828Y1236D02*
X6841Y1236D01*
X6873Y1236D02*
X6890Y1236D01*
X6921Y1236D02*
X6938Y1236D01*
X6972Y1236D02*
X6998Y1236D01*
X7021Y1236D02*
X7039Y1236D01*
X6674Y1235D02*
X6687Y1235D01*
X6710Y1235D02*
X6740Y1235D01*
X6771Y1235D02*
X6784Y1235D01*
X6828Y1235D02*
X6841Y1235D01*
X6873Y1235D02*
X6889Y1235D01*
X6922Y1235D02*
X6939Y1235D01*
X6972Y1235D02*
X6997Y1235D01*
X7023Y1235D02*
X7039Y1235D01*
X6674Y1234D02*
X6687Y1234D01*
X6712Y1234D02*
X6740Y1234D01*
X6771Y1234D02*
X6784Y1234D01*
X6828Y1234D02*
X6841Y1234D01*
X6873Y1234D02*
X6888Y1234D01*
X6924Y1234D02*
X6939Y1234D01*
X6972Y1234D02*
X6996Y1234D01*
X7024Y1234D02*
X7039Y1234D01*
X6673Y1233D02*
X6687Y1233D01*
X6713Y1233D02*
X6740Y1233D01*
X6771Y1233D02*
X6784Y1233D01*
X6828Y1233D02*
X6841Y1233D01*
X6872Y1233D02*
X6887Y1233D01*
X6925Y1233D02*
X6939Y1233D01*
X6972Y1233D02*
X6994Y1233D01*
X7025Y1233D02*
X7040Y1233D01*
X6673Y1232D02*
X6686Y1232D01*
X6715Y1232D02*
X6740Y1232D01*
X6771Y1232D02*
X6784Y1232D01*
X6828Y1232D02*
X6841Y1232D01*
X6872Y1232D02*
X6886Y1232D01*
X6926Y1232D02*
X6940Y1232D01*
X6972Y1232D02*
X6993Y1232D01*
X7026Y1232D02*
X7040Y1232D01*
X6673Y1231D02*
X6686Y1231D01*
X6716Y1231D02*
X6740Y1231D01*
X6771Y1231D02*
X6784Y1231D01*
X6828Y1231D02*
X6841Y1231D01*
X6872Y1231D02*
X6886Y1231D01*
X6926Y1231D02*
X6940Y1231D01*
X6972Y1231D02*
X6992Y1231D01*
X7026Y1231D02*
X7040Y1231D01*
X6673Y1230D02*
X6686Y1230D01*
X6718Y1230D02*
X6740Y1230D01*
X6771Y1230D02*
X6784Y1230D01*
X6828Y1230D02*
X6841Y1230D01*
X6872Y1230D02*
X6885Y1230D01*
X6927Y1230D02*
X6940Y1230D01*
X6972Y1230D02*
X6991Y1230D01*
X7027Y1230D02*
X7040Y1230D01*
X6673Y1229D02*
X6686Y1229D01*
X6720Y1229D02*
X6740Y1229D01*
X6771Y1229D02*
X6784Y1229D01*
X6804Y1229D02*
X6807Y1229D01*
X6828Y1229D02*
X6841Y1229D01*
X6872Y1229D02*
X6885Y1229D01*
X6927Y1229D02*
X6940Y1229D01*
X6972Y1229D02*
X6990Y1229D01*
X7027Y1229D02*
X7040Y1229D01*
X6673Y1228D02*
X6686Y1228D01*
X6721Y1228D02*
X6740Y1228D01*
X6771Y1228D02*
X6784Y1228D01*
X6802Y1228D02*
X6809Y1228D01*
X6828Y1228D02*
X6841Y1228D01*
X6872Y1228D02*
X6885Y1228D01*
X6927Y1228D02*
X6940Y1228D01*
X6972Y1228D02*
X6989Y1228D01*
X7027Y1228D02*
X7040Y1228D01*
X6673Y1227D02*
X6686Y1227D01*
X6723Y1227D02*
X6740Y1227D01*
X6771Y1227D02*
X6784Y1227D01*
X6801Y1227D02*
X6811Y1227D01*
X6828Y1227D02*
X6841Y1227D01*
X6872Y1227D02*
X6885Y1227D01*
X6927Y1227D02*
X6940Y1227D01*
X6972Y1227D02*
X6988Y1227D01*
X7027Y1227D02*
X7040Y1227D01*
X6673Y1226D02*
X6686Y1226D01*
X6724Y1226D02*
X6740Y1226D01*
X6771Y1226D02*
X6784Y1226D01*
X6800Y1226D02*
X6811Y1226D01*
X6828Y1226D02*
X6841Y1226D01*
X6872Y1226D02*
X6885Y1226D01*
X6927Y1226D02*
X6940Y1226D01*
X6972Y1226D02*
X6987Y1226D01*
X7027Y1226D02*
X7040Y1226D01*
X6673Y1225D02*
X6686Y1225D01*
X6726Y1225D02*
X6740Y1225D01*
X6771Y1225D02*
X6784Y1225D01*
X6800Y1225D02*
X6812Y1225D01*
X6828Y1225D02*
X6841Y1225D01*
X6872Y1225D02*
X6885Y1225D01*
X6927Y1225D02*
X6940Y1225D01*
X6972Y1225D02*
X6986Y1225D01*
X7027Y1225D02*
X7040Y1225D01*
X6673Y1224D02*
X6686Y1224D01*
X6727Y1224D02*
X6740Y1224D01*
X6771Y1224D02*
X6784Y1224D01*
X6800Y1224D02*
X6812Y1224D01*
X6828Y1224D02*
X6841Y1224D01*
X6872Y1224D02*
X6885Y1224D01*
X6927Y1224D02*
X6940Y1224D01*
X6972Y1224D02*
X6985Y1224D01*
X7027Y1224D02*
X7040Y1224D01*
X6673Y1223D02*
X6686Y1223D01*
X6727Y1223D02*
X6740Y1223D01*
X6771Y1223D02*
X6784Y1223D01*
X6799Y1223D02*
X6812Y1223D01*
X6828Y1223D02*
X6841Y1223D01*
X6872Y1223D02*
X6885Y1223D01*
X6927Y1223D02*
X6940Y1223D01*
X6972Y1223D02*
X6985Y1223D01*
X7027Y1223D02*
X7040Y1223D01*
X6673Y1222D02*
X6686Y1222D01*
X6727Y1222D02*
X6740Y1222D01*
X6771Y1222D02*
X6784Y1222D01*
X6799Y1222D02*
X6812Y1222D01*
X6828Y1222D02*
X6841Y1222D01*
X6872Y1222D02*
X6885Y1222D01*
X6927Y1222D02*
X6940Y1222D01*
X6972Y1222D02*
X6985Y1222D01*
X7027Y1222D02*
X7040Y1222D01*
X6673Y1221D02*
X6686Y1221D01*
X6727Y1221D02*
X6740Y1221D01*
X6771Y1221D02*
X6784Y1221D01*
X6799Y1221D02*
X6812Y1221D01*
X6828Y1221D02*
X6841Y1221D01*
X6872Y1221D02*
X6885Y1221D01*
X6927Y1221D02*
X6940Y1221D01*
X6972Y1221D02*
X6985Y1221D01*
X7027Y1221D02*
X7040Y1221D01*
X6673Y1220D02*
X6686Y1220D01*
X6727Y1220D02*
X6740Y1220D01*
X6771Y1220D02*
X6784Y1220D01*
X6799Y1220D02*
X6812Y1220D01*
X6828Y1220D02*
X6841Y1220D01*
X6872Y1220D02*
X6885Y1220D01*
X6927Y1220D02*
X6940Y1220D01*
X6972Y1220D02*
X6985Y1220D01*
X7027Y1220D02*
X7040Y1220D01*
X6673Y1219D02*
X6686Y1219D01*
X6727Y1219D02*
X6740Y1219D01*
X6771Y1219D02*
X6784Y1219D01*
X6799Y1219D02*
X6812Y1219D01*
X6828Y1219D02*
X6841Y1219D01*
X6872Y1219D02*
X6885Y1219D01*
X6927Y1219D02*
X6940Y1219D01*
X6972Y1219D02*
X6985Y1219D01*
X7027Y1219D02*
X7040Y1219D01*
X6673Y1218D02*
X6686Y1218D01*
X6727Y1218D02*
X6740Y1218D01*
X6771Y1218D02*
X6784Y1218D01*
X6799Y1218D02*
X6812Y1218D01*
X6827Y1218D02*
X6841Y1218D01*
X6872Y1218D02*
X6885Y1218D01*
X6927Y1218D02*
X6940Y1218D01*
X6972Y1218D02*
X6985Y1218D01*
X7027Y1218D02*
X7040Y1218D01*
X6673Y1217D02*
X6686Y1217D01*
X6727Y1217D02*
X6740Y1217D01*
X6771Y1217D02*
X6784Y1217D01*
X6799Y1217D02*
X6812Y1217D01*
X6827Y1217D02*
X6841Y1217D01*
X6872Y1217D02*
X6885Y1217D01*
X6927Y1217D02*
X6940Y1217D01*
X6972Y1217D02*
X6985Y1217D01*
X7027Y1217D02*
X7040Y1217D01*
X6673Y1216D02*
X6686Y1216D01*
X6727Y1216D02*
X6740Y1216D01*
X6771Y1216D02*
X6784Y1216D01*
X6799Y1216D02*
X6812Y1216D01*
X6827Y1216D02*
X6841Y1216D01*
X6872Y1216D02*
X6885Y1216D01*
X6927Y1216D02*
X6940Y1216D01*
X6972Y1216D02*
X6985Y1216D01*
X7027Y1216D02*
X7040Y1216D01*
X6673Y1215D02*
X6686Y1215D01*
X6727Y1215D02*
X6740Y1215D01*
X6771Y1215D02*
X6784Y1215D01*
X6799Y1215D02*
X6812Y1215D01*
X6827Y1215D02*
X6840Y1215D01*
X6872Y1215D02*
X6885Y1215D01*
X6927Y1215D02*
X6940Y1215D01*
X6972Y1215D02*
X6985Y1215D01*
X7027Y1215D02*
X7040Y1215D01*
X6673Y1214D02*
X6686Y1214D01*
X6727Y1214D02*
X6740Y1214D01*
X6771Y1214D02*
X6784Y1214D01*
X6799Y1214D02*
X6812Y1214D01*
X6827Y1214D02*
X6840Y1214D01*
X6872Y1214D02*
X6885Y1214D01*
X6927Y1214D02*
X6940Y1214D01*
X6972Y1214D02*
X6985Y1214D01*
X7027Y1214D02*
X7040Y1214D01*
X6673Y1213D02*
X6686Y1213D01*
X6727Y1213D02*
X6740Y1213D01*
X6772Y1213D02*
X6785Y1213D01*
X6799Y1213D02*
X6812Y1213D01*
X6827Y1213D02*
X6840Y1213D01*
X6872Y1213D02*
X6885Y1213D01*
X6927Y1213D02*
X6940Y1213D01*
X6972Y1213D02*
X6985Y1213D01*
X7027Y1213D02*
X7040Y1213D01*
X6673Y1212D02*
X6686Y1212D01*
X6727Y1212D02*
X6740Y1212D01*
X6772Y1212D02*
X6785Y1212D01*
X6799Y1212D02*
X6812Y1212D01*
X6827Y1212D02*
X6840Y1212D01*
X6872Y1212D02*
X6885Y1212D01*
X6927Y1212D02*
X6940Y1212D01*
X6972Y1212D02*
X6985Y1212D01*
X7027Y1212D02*
X7040Y1212D01*
X6673Y1211D02*
X6686Y1211D01*
X6727Y1211D02*
X6740Y1211D01*
X6772Y1211D02*
X6785Y1211D01*
X6799Y1211D02*
X6812Y1211D01*
X6827Y1211D02*
X6840Y1211D01*
X6872Y1211D02*
X6885Y1211D01*
X6927Y1211D02*
X6940Y1211D01*
X6972Y1211D02*
X6985Y1211D01*
X7027Y1211D02*
X7040Y1211D01*
X6673Y1210D02*
X6686Y1210D01*
X6727Y1210D02*
X6740Y1210D01*
X6772Y1210D02*
X6785Y1210D01*
X6799Y1210D02*
X6812Y1210D01*
X6827Y1210D02*
X6840Y1210D01*
X6872Y1210D02*
X6885Y1210D01*
X6927Y1210D02*
X6940Y1210D01*
X6972Y1210D02*
X6985Y1210D01*
X7027Y1210D02*
X7040Y1210D01*
X6673Y1209D02*
X6686Y1209D01*
X6727Y1209D02*
X6740Y1209D01*
X6772Y1209D02*
X6785Y1209D01*
X6799Y1209D02*
X6812Y1209D01*
X6827Y1209D02*
X6840Y1209D01*
X6872Y1209D02*
X6885Y1209D01*
X6927Y1209D02*
X6940Y1209D01*
X6972Y1209D02*
X6985Y1209D01*
X7027Y1209D02*
X7040Y1209D01*
X6673Y1208D02*
X6686Y1208D01*
X6727Y1208D02*
X6740Y1208D01*
X6772Y1208D02*
X6785Y1208D01*
X6799Y1208D02*
X6812Y1208D01*
X6827Y1208D02*
X6840Y1208D01*
X6872Y1208D02*
X6885Y1208D01*
X6927Y1208D02*
X6940Y1208D01*
X6972Y1208D02*
X6985Y1208D01*
X7027Y1208D02*
X7040Y1208D01*
X6673Y1207D02*
X6686Y1207D01*
X6727Y1207D02*
X6740Y1207D01*
X6772Y1207D02*
X6785Y1207D01*
X6799Y1207D02*
X6812Y1207D01*
X6827Y1207D02*
X6840Y1207D01*
X6872Y1207D02*
X6885Y1207D01*
X6927Y1207D02*
X6940Y1207D01*
X6972Y1207D02*
X6985Y1207D01*
X7027Y1207D02*
X7040Y1207D01*
X6673Y1206D02*
X6686Y1206D01*
X6727Y1206D02*
X6740Y1206D01*
X6772Y1206D02*
X6785Y1206D01*
X6799Y1206D02*
X6813Y1206D01*
X6827Y1206D02*
X6840Y1206D01*
X6872Y1206D02*
X6885Y1206D01*
X6927Y1206D02*
X6940Y1206D01*
X6972Y1206D02*
X6985Y1206D01*
X7027Y1206D02*
X7040Y1206D01*
X6673Y1205D02*
X6686Y1205D01*
X6727Y1205D02*
X6740Y1205D01*
X6772Y1205D02*
X6785Y1205D01*
X6799Y1205D02*
X6813Y1205D01*
X6827Y1205D02*
X6840Y1205D01*
X6872Y1205D02*
X6885Y1205D01*
X6927Y1205D02*
X6940Y1205D01*
X6972Y1205D02*
X6985Y1205D01*
X7027Y1205D02*
X7040Y1205D01*
X6673Y1204D02*
X6686Y1204D01*
X6727Y1204D02*
X6740Y1204D01*
X6772Y1204D02*
X6785Y1204D01*
X6798Y1204D02*
X6814Y1204D01*
X6827Y1204D02*
X6840Y1204D01*
X6872Y1204D02*
X6885Y1204D01*
X6927Y1204D02*
X6940Y1204D01*
X6972Y1204D02*
X6985Y1204D01*
X7027Y1204D02*
X7040Y1204D01*
X6672Y1203D02*
X6685Y1203D01*
X6727Y1203D02*
X6740Y1203D01*
X6772Y1203D02*
X6786Y1203D01*
X6797Y1203D02*
X6814Y1203D01*
X6826Y1203D02*
X6840Y1203D01*
X6872Y1203D02*
X6885Y1203D01*
X6927Y1203D02*
X6940Y1203D01*
X6972Y1203D02*
X6985Y1203D01*
X7027Y1203D02*
X7040Y1203D01*
X6672Y1202D02*
X6685Y1202D01*
X6727Y1202D02*
X6740Y1202D01*
X6772Y1202D02*
X6786Y1202D01*
X6797Y1202D02*
X6815Y1202D01*
X6826Y1202D02*
X6839Y1202D01*
X6872Y1202D02*
X6885Y1202D01*
X6927Y1202D02*
X6940Y1202D01*
X6972Y1202D02*
X6986Y1202D01*
X7027Y1202D02*
X7040Y1202D01*
X6672Y1201D02*
X6685Y1201D01*
X6727Y1201D02*
X6740Y1201D01*
X6772Y1201D02*
X6786Y1201D01*
X6796Y1201D02*
X6816Y1201D01*
X6826Y1201D02*
X6839Y1201D01*
X6872Y1201D02*
X6885Y1201D01*
X6927Y1201D02*
X6940Y1201D01*
X6972Y1201D02*
X6986Y1201D01*
X7027Y1201D02*
X7040Y1201D01*
X6672Y1200D02*
X6685Y1200D01*
X6727Y1200D02*
X6740Y1200D01*
X6773Y1200D02*
X6786Y1200D01*
X6796Y1200D02*
X6816Y1200D01*
X6825Y1200D02*
X6839Y1200D01*
X6872Y1200D02*
X6885Y1200D01*
X6927Y1200D02*
X6940Y1200D01*
X6972Y1200D02*
X6987Y1200D01*
X7027Y1200D02*
X7040Y1200D01*
X6672Y1199D02*
X6685Y1199D01*
X6727Y1199D02*
X6740Y1199D01*
X6773Y1199D02*
X6787Y1199D01*
X6795Y1199D02*
X6817Y1199D01*
X6825Y1199D02*
X6839Y1199D01*
X6872Y1199D02*
X6885Y1199D01*
X6927Y1199D02*
X6940Y1199D01*
X6972Y1199D02*
X6989Y1199D01*
X7027Y1199D02*
X7040Y1199D01*
X6672Y1198D02*
X6685Y1198D01*
X6727Y1198D02*
X6740Y1198D01*
X6773Y1198D02*
X6787Y1198D01*
X6794Y1198D02*
X6817Y1198D01*
X6825Y1198D02*
X6838Y1198D01*
X6872Y1198D02*
X6885Y1198D01*
X6927Y1198D02*
X6940Y1198D01*
X6972Y1198D02*
X6990Y1198D01*
X7027Y1198D02*
X7040Y1198D01*
X6672Y1197D02*
X6685Y1197D01*
X6727Y1197D02*
X6740Y1197D01*
X6774Y1197D02*
X6787Y1197D01*
X6794Y1197D02*
X6818Y1197D01*
X6824Y1197D02*
X6838Y1197D01*
X6872Y1197D02*
X6885Y1197D01*
X6927Y1197D02*
X6940Y1197D01*
X6972Y1197D02*
X6991Y1197D01*
X7027Y1197D02*
X7040Y1197D01*
X6672Y1196D02*
X6685Y1196D01*
X6727Y1196D02*
X6740Y1196D01*
X6774Y1196D02*
X6788Y1196D01*
X6793Y1196D02*
X6819Y1196D01*
X6824Y1196D02*
X6838Y1196D01*
X6872Y1196D02*
X6886Y1196D01*
X6926Y1196D02*
X6940Y1196D01*
X6972Y1196D02*
X6992Y1196D01*
X7026Y1196D02*
X7040Y1196D01*
X6672Y1195D02*
X6685Y1195D01*
X6727Y1195D02*
X6740Y1195D01*
X6774Y1195D02*
X6788Y1195D01*
X6793Y1195D02*
X6819Y1195D01*
X6824Y1195D02*
X6837Y1195D01*
X6872Y1195D02*
X6886Y1195D01*
X6925Y1195D02*
X6940Y1195D01*
X6972Y1195D02*
X6993Y1195D01*
X7026Y1195D02*
X7040Y1195D01*
X6672Y1194D02*
X6685Y1194D01*
X6727Y1194D02*
X6740Y1194D01*
X6774Y1194D02*
X6788Y1194D01*
X6792Y1194D02*
X6820Y1194D01*
X6824Y1194D02*
X6837Y1194D01*
X6872Y1194D02*
X6887Y1194D01*
X6925Y1194D02*
X6939Y1194D01*
X6972Y1194D02*
X6994Y1194D01*
X7025Y1194D02*
X7040Y1194D01*
X6672Y1193D02*
X6685Y1193D01*
X6727Y1193D02*
X6740Y1193D01*
X6775Y1193D02*
X6789Y1193D01*
X6792Y1193D02*
X6820Y1193D01*
X6823Y1193D02*
X6837Y1193D01*
X6873Y1193D02*
X6888Y1193D01*
X6924Y1193D02*
X6939Y1193D01*
X6972Y1193D02*
X6996Y1193D01*
X7024Y1193D02*
X7039Y1193D01*
X6672Y1192D02*
X6685Y1192D01*
X6727Y1192D02*
X6740Y1192D01*
X6775Y1192D02*
X6789Y1192D01*
X6791Y1192D02*
X6821Y1192D01*
X6823Y1192D02*
X6837Y1192D01*
X6873Y1192D02*
X6890Y1192D01*
X6923Y1192D02*
X6939Y1192D01*
X6972Y1192D02*
X6997Y1192D01*
X7023Y1192D02*
X7039Y1192D01*
X6672Y1191D02*
X6685Y1191D01*
X6727Y1191D02*
X6740Y1191D01*
X6775Y1191D02*
X6836Y1191D01*
X6874Y1191D02*
X6891Y1191D01*
X6921Y1191D02*
X6939Y1191D01*
X6972Y1191D02*
X6998Y1191D01*
X7021Y1191D02*
X7039Y1191D01*
X6672Y1190D02*
X6685Y1190D01*
X6727Y1190D02*
X6740Y1190D01*
X6776Y1190D02*
X6805Y1190D01*
X6807Y1190D02*
X6836Y1190D01*
X6874Y1190D02*
X6892Y1190D01*
X6920Y1190D02*
X6938Y1190D01*
X6972Y1190D02*
X6999Y1190D01*
X7020Y1190D02*
X7038Y1190D01*
X6672Y1189D02*
X6685Y1189D01*
X6727Y1189D02*
X6740Y1189D01*
X6776Y1189D02*
X6804Y1189D01*
X6807Y1189D02*
X6836Y1189D01*
X6875Y1189D02*
X6893Y1189D01*
X6918Y1189D02*
X6937Y1189D01*
X6972Y1189D02*
X7001Y1189D01*
X7018Y1189D02*
X7038Y1189D01*
X6672Y1188D02*
X6685Y1188D01*
X6727Y1188D02*
X6740Y1188D01*
X6776Y1188D02*
X6804Y1188D01*
X6808Y1188D02*
X6835Y1188D01*
X6875Y1188D02*
X6937Y1188D01*
X6972Y1188D02*
X7037Y1188D01*
X6672Y1187D02*
X6685Y1187D01*
X6727Y1187D02*
X6740Y1187D01*
X6777Y1187D02*
X6803Y1187D01*
X6809Y1187D02*
X6835Y1187D01*
X6876Y1187D02*
X6936Y1187D01*
X6972Y1187D02*
X7036Y1187D01*
X6672Y1186D02*
X6685Y1186D01*
X6727Y1186D02*
X6740Y1186D01*
X6777Y1186D02*
X6803Y1186D01*
X6809Y1186D02*
X6835Y1186D01*
X6877Y1186D02*
X6935Y1186D01*
X6972Y1186D02*
X7036Y1186D01*
X6672Y1185D02*
X6685Y1185D01*
X6727Y1185D02*
X6740Y1185D01*
X6777Y1185D02*
X6802Y1185D01*
X6810Y1185D02*
X6835Y1185D01*
X6878Y1185D02*
X6934Y1185D01*
X6972Y1185D02*
X7035Y1185D01*
X6672Y1184D02*
X6685Y1184D01*
X6727Y1184D02*
X6740Y1184D01*
X6777Y1184D02*
X6801Y1184D01*
X6810Y1184D02*
X6834Y1184D01*
X6879Y1184D02*
X6933Y1184D01*
X6972Y1184D02*
X7034Y1184D01*
X6672Y1183D02*
X6685Y1183D01*
X6727Y1183D02*
X6740Y1183D01*
X6778Y1183D02*
X6801Y1183D01*
X6811Y1183D02*
X6834Y1183D01*
X6880Y1183D02*
X6932Y1183D01*
X6972Y1183D02*
X7033Y1183D01*
X6672Y1182D02*
X6685Y1182D01*
X6727Y1182D02*
X6740Y1182D01*
X6778Y1182D02*
X6800Y1182D01*
X6811Y1182D02*
X6834Y1182D01*
X6881Y1182D02*
X6931Y1182D01*
X6972Y1182D02*
X6985Y1182D01*
X6987Y1182D02*
X7031Y1182D01*
X6672Y1181D02*
X6685Y1181D01*
X6727Y1181D02*
X6740Y1181D01*
X6778Y1181D02*
X6800Y1181D01*
X6812Y1181D02*
X6833Y1181D01*
X6882Y1181D02*
X6930Y1181D01*
X6972Y1181D02*
X6985Y1181D01*
X6989Y1181D02*
X7030Y1181D01*
X6672Y1180D02*
X6685Y1180D01*
X6727Y1180D02*
X6740Y1180D01*
X6779Y1180D02*
X6799Y1180D01*
X6813Y1180D02*
X6833Y1180D01*
X6883Y1180D02*
X6929Y1180D01*
X6972Y1180D02*
X6985Y1180D01*
X6990Y1180D02*
X7029Y1180D01*
X6672Y1179D02*
X6684Y1179D01*
X6727Y1179D02*
X6740Y1179D01*
X6779Y1179D02*
X6799Y1179D01*
X6813Y1179D02*
X6833Y1179D01*
X6884Y1179D02*
X6928Y1179D01*
X6972Y1179D02*
X6985Y1179D01*
X6991Y1179D02*
X7028Y1179D01*
X6673Y1178D02*
X6684Y1178D01*
X6728Y1178D02*
X6739Y1178D01*
X6779Y1178D02*
X6798Y1178D01*
X6814Y1178D02*
X6832Y1178D01*
X6886Y1178D02*
X6926Y1178D01*
X6973Y1178D02*
X6984Y1178D01*
X6992Y1178D02*
X7027Y1178D01*
X6673Y1177D02*
X6683Y1177D01*
X6728Y1177D02*
X6739Y1177D01*
X6780Y1177D02*
X6797Y1177D01*
X6815Y1177D02*
X6832Y1177D01*
X6887Y1177D02*
X6925Y1177D01*
X6973Y1177D02*
X6984Y1177D01*
X6994Y1177D02*
X7025Y1177D01*
X6674Y1176D02*
X6683Y1176D01*
X6729Y1176D02*
X6738Y1176D01*
X6781Y1176D02*
X6797Y1176D01*
X6815Y1176D02*
X6831Y1176D01*
X6889Y1176D02*
X6923Y1176D01*
X6974Y1176D02*
X6983Y1176D01*
X6996Y1176D02*
X7023Y1176D01*
X6675Y1175D02*
X6681Y1175D01*
X6730Y1175D02*
X6736Y1175D01*
X6782Y1175D02*
X6795Y1175D01*
X6817Y1175D02*
X6830Y1175D01*
X6892Y1175D02*
X6920Y1175D01*
X6975Y1175D02*
X6982Y1175D01*
X6999Y1175D02*
X7021Y1175D01*
X7267Y1113D02*
X7270Y1113D01*
X7302Y1113D02*
X7315Y1113D01*
X7342Y1113D02*
X7387Y1113D01*
X6841Y1112D02*
X6843Y1112D01*
X6875Y1112D02*
X6888Y1112D01*
X6916Y1112D02*
X6960Y1112D01*
X7266Y1112D02*
X7272Y1112D01*
X7301Y1112D02*
X7315Y1112D01*
X7341Y1112D02*
X7388Y1112D01*
X6839Y1111D02*
X6845Y1111D01*
X6875Y1111D02*
X6888Y1111D01*
X6914Y1111D02*
X6961Y1111D01*
X7265Y1111D02*
X7273Y1111D01*
X7301Y1111D02*
X7315Y1111D01*
X7340Y1111D02*
X7389Y1111D01*
X6838Y1110D02*
X6846Y1110D01*
X6874Y1110D02*
X6888Y1110D01*
X6913Y1110D02*
X6962Y1110D01*
X7264Y1110D02*
X7273Y1110D01*
X7301Y1110D02*
X7315Y1110D01*
X7339Y1110D02*
X7390Y1110D01*
X6838Y1109D02*
X6846Y1109D01*
X6874Y1109D02*
X6888Y1109D01*
X6913Y1109D02*
X6963Y1109D01*
X7264Y1109D02*
X7273Y1109D01*
X7300Y1109D02*
X7315Y1109D01*
X7339Y1109D02*
X7390Y1109D01*
X6837Y1108D02*
X6847Y1108D01*
X6873Y1108D02*
X6888Y1108D01*
X6912Y1108D02*
X6963Y1108D01*
X7264Y1108D02*
X7274Y1108D01*
X7300Y1108D02*
X7315Y1108D01*
X7339Y1108D02*
X7390Y1108D01*
X6837Y1107D02*
X6847Y1107D01*
X6873Y1107D02*
X6888Y1107D01*
X6912Y1107D02*
X6963Y1107D01*
X7264Y1107D02*
X7274Y1107D01*
X7299Y1107D02*
X7315Y1107D01*
X7339Y1107D02*
X7390Y1107D01*
X6837Y1106D02*
X6847Y1106D01*
X6872Y1106D02*
X6888Y1106D01*
X6912Y1106D02*
X6963Y1106D01*
X7264Y1106D02*
X7274Y1106D01*
X7299Y1106D02*
X7315Y1106D01*
X7340Y1106D02*
X7389Y1106D01*
X6837Y1105D02*
X6847Y1105D01*
X6872Y1105D02*
X6888Y1105D01*
X6913Y1105D02*
X6963Y1105D01*
X7264Y1105D02*
X7274Y1105D01*
X7298Y1105D02*
X7315Y1105D01*
X7340Y1105D02*
X7389Y1105D01*
X6837Y1104D02*
X6847Y1104D01*
X6872Y1104D02*
X6888Y1104D01*
X6913Y1104D02*
X6962Y1104D01*
X7264Y1104D02*
X7274Y1104D01*
X7298Y1104D02*
X7315Y1104D01*
X7341Y1104D02*
X7388Y1104D01*
X6837Y1103D02*
X6847Y1103D01*
X6871Y1103D02*
X6888Y1103D01*
X6914Y1103D02*
X6961Y1103D01*
X7264Y1103D02*
X7274Y1103D01*
X7298Y1103D02*
X7315Y1103D01*
X7344Y1103D02*
X7385Y1103D01*
X6837Y1102D02*
X6847Y1102D01*
X6871Y1102D02*
X6888Y1102D01*
X6917Y1102D02*
X6958Y1102D01*
X7264Y1102D02*
X7274Y1102D01*
X7297Y1102D02*
X7315Y1102D01*
X7360Y1102D02*
X7369Y1102D01*
X6837Y1101D02*
X6847Y1101D01*
X6870Y1101D02*
X6888Y1101D01*
X6933Y1101D02*
X6942Y1101D01*
X7264Y1101D02*
X7274Y1101D01*
X7297Y1101D02*
X7315Y1101D01*
X7360Y1101D02*
X7369Y1101D01*
X6837Y1100D02*
X6847Y1100D01*
X6870Y1100D02*
X6888Y1100D01*
X6933Y1100D02*
X6942Y1100D01*
X7264Y1100D02*
X7274Y1100D01*
X7296Y1100D02*
X7315Y1100D01*
X7360Y1100D02*
X7369Y1100D01*
X6837Y1099D02*
X6847Y1099D01*
X6869Y1099D02*
X6888Y1099D01*
X6933Y1099D02*
X6942Y1099D01*
X7264Y1099D02*
X7274Y1099D01*
X7296Y1099D02*
X7315Y1099D01*
X7360Y1099D02*
X7369Y1099D01*
X6837Y1098D02*
X6847Y1098D01*
X6869Y1098D02*
X6888Y1098D01*
X6933Y1098D02*
X6942Y1098D01*
X7264Y1098D02*
X7274Y1098D01*
X7295Y1098D02*
X7315Y1098D01*
X7360Y1098D02*
X7369Y1098D01*
X6786Y1097D02*
X6790Y1097D01*
X6837Y1097D02*
X6847Y1097D01*
X6868Y1097D02*
X6888Y1097D01*
X6933Y1097D02*
X6942Y1097D01*
X7264Y1097D02*
X7274Y1097D01*
X7295Y1097D02*
X7315Y1097D01*
X7360Y1097D02*
X7369Y1097D01*
X6784Y1096D02*
X6791Y1096D01*
X6837Y1096D02*
X6847Y1096D01*
X6868Y1096D02*
X6888Y1096D01*
X6933Y1096D02*
X6942Y1096D01*
X7264Y1096D02*
X7274Y1096D01*
X7294Y1096D02*
X7315Y1096D01*
X7360Y1096D02*
X7369Y1096D01*
X6784Y1095D02*
X6792Y1095D01*
X6837Y1095D02*
X6847Y1095D01*
X6868Y1095D02*
X6888Y1095D01*
X6933Y1095D02*
X6942Y1095D01*
X7264Y1095D02*
X7274Y1095D01*
X7294Y1095D02*
X7315Y1095D01*
X7360Y1095D02*
X7369Y1095D01*
X6783Y1094D02*
X6792Y1094D01*
X6837Y1094D02*
X6847Y1094D01*
X6867Y1094D02*
X6888Y1094D01*
X6933Y1094D02*
X6942Y1094D01*
X7264Y1094D02*
X7274Y1094D01*
X7294Y1094D02*
X7315Y1094D01*
X7360Y1094D02*
X7369Y1094D01*
X6783Y1093D02*
X6792Y1093D01*
X6837Y1093D02*
X6847Y1093D01*
X6867Y1093D02*
X6888Y1093D01*
X6933Y1093D02*
X6942Y1093D01*
X7264Y1093D02*
X7274Y1093D01*
X7293Y1093D02*
X7315Y1093D01*
X7360Y1093D02*
X7369Y1093D01*
X6783Y1092D02*
X6792Y1092D01*
X6837Y1092D02*
X6847Y1092D01*
X6866Y1092D02*
X6877Y1092D01*
X6879Y1092D02*
X6888Y1092D01*
X6933Y1092D02*
X6942Y1092D01*
X7264Y1092D02*
X7274Y1092D01*
X7293Y1092D02*
X7303Y1092D01*
X7305Y1092D02*
X7315Y1092D01*
X7360Y1092D02*
X7369Y1092D01*
X6783Y1091D02*
X6792Y1091D01*
X6837Y1091D02*
X6847Y1091D01*
X6866Y1091D02*
X6876Y1091D01*
X6879Y1091D02*
X6888Y1091D01*
X6933Y1091D02*
X6942Y1091D01*
X7264Y1091D02*
X7274Y1091D01*
X7292Y1091D02*
X7303Y1091D01*
X7305Y1091D02*
X7315Y1091D01*
X7360Y1091D02*
X7369Y1091D01*
X6783Y1090D02*
X6792Y1090D01*
X6837Y1090D02*
X6847Y1090D01*
X6865Y1090D02*
X6876Y1090D01*
X6879Y1090D02*
X6888Y1090D01*
X6933Y1090D02*
X6942Y1090D01*
X7264Y1090D02*
X7274Y1090D01*
X7292Y1090D02*
X7302Y1090D01*
X7305Y1090D02*
X7315Y1090D01*
X7360Y1090D02*
X7369Y1090D01*
X6783Y1089D02*
X6792Y1089D01*
X6837Y1089D02*
X6847Y1089D01*
X6865Y1089D02*
X6875Y1089D01*
X6879Y1089D02*
X6888Y1089D01*
X6933Y1089D02*
X6942Y1089D01*
X7264Y1089D02*
X7274Y1089D01*
X7291Y1089D02*
X7302Y1089D01*
X7305Y1089D02*
X7315Y1089D01*
X7360Y1089D02*
X7369Y1089D01*
X6783Y1088D02*
X6792Y1088D01*
X6837Y1088D02*
X6847Y1088D01*
X6864Y1088D02*
X6875Y1088D01*
X6879Y1088D02*
X6888Y1088D01*
X6933Y1088D02*
X6942Y1088D01*
X7264Y1088D02*
X7274Y1088D01*
X7291Y1088D02*
X7301Y1088D01*
X7305Y1088D02*
X7315Y1088D01*
X7360Y1088D02*
X7369Y1088D01*
X6783Y1087D02*
X6792Y1087D01*
X6837Y1087D02*
X6847Y1087D01*
X6864Y1087D02*
X6875Y1087D01*
X6879Y1087D02*
X6888Y1087D01*
X6933Y1087D02*
X6942Y1087D01*
X7264Y1087D02*
X7274Y1087D01*
X7290Y1087D02*
X7301Y1087D01*
X7305Y1087D02*
X7315Y1087D01*
X7360Y1087D02*
X7369Y1087D01*
X6783Y1086D02*
X6792Y1086D01*
X6837Y1086D02*
X6847Y1086D01*
X6864Y1086D02*
X6874Y1086D01*
X6879Y1086D02*
X6888Y1086D01*
X6933Y1086D02*
X6942Y1086D01*
X7264Y1086D02*
X7274Y1086D01*
X7290Y1086D02*
X7301Y1086D01*
X7305Y1086D02*
X7315Y1086D01*
X7360Y1086D02*
X7369Y1086D01*
X6783Y1085D02*
X6792Y1085D01*
X6837Y1085D02*
X6847Y1085D01*
X6863Y1085D02*
X6874Y1085D01*
X6879Y1085D02*
X6888Y1085D01*
X6933Y1085D02*
X6942Y1085D01*
X7264Y1085D02*
X7274Y1085D01*
X7290Y1085D02*
X7300Y1085D01*
X7305Y1085D02*
X7315Y1085D01*
X7360Y1085D02*
X7369Y1085D01*
X6783Y1084D02*
X6792Y1084D01*
X6837Y1084D02*
X6847Y1084D01*
X6863Y1084D02*
X6873Y1084D01*
X6879Y1084D02*
X6888Y1084D01*
X6933Y1084D02*
X6942Y1084D01*
X7264Y1084D02*
X7274Y1084D01*
X7289Y1084D02*
X7300Y1084D01*
X7305Y1084D02*
X7315Y1084D01*
X7360Y1084D02*
X7369Y1084D01*
X6783Y1083D02*
X6792Y1083D01*
X6837Y1083D02*
X6847Y1083D01*
X6862Y1083D02*
X6873Y1083D01*
X6879Y1083D02*
X6888Y1083D01*
X6933Y1083D02*
X6942Y1083D01*
X7264Y1083D02*
X7274Y1083D01*
X7289Y1083D02*
X7299Y1083D01*
X7305Y1083D02*
X7315Y1083D01*
X7360Y1083D02*
X7369Y1083D01*
X6783Y1082D02*
X6792Y1082D01*
X6837Y1082D02*
X6847Y1082D01*
X6862Y1082D02*
X6872Y1082D01*
X6879Y1082D02*
X6888Y1082D01*
X6933Y1082D02*
X6942Y1082D01*
X7264Y1082D02*
X7274Y1082D01*
X7288Y1082D02*
X7299Y1082D01*
X7305Y1082D02*
X7315Y1082D01*
X7360Y1082D02*
X7369Y1082D01*
X6783Y1081D02*
X6792Y1081D01*
X6837Y1081D02*
X6847Y1081D01*
X6861Y1081D02*
X6872Y1081D01*
X6879Y1081D02*
X6888Y1081D01*
X6933Y1081D02*
X6942Y1081D01*
X7264Y1081D02*
X7274Y1081D01*
X7288Y1081D02*
X7298Y1081D01*
X7305Y1081D02*
X7315Y1081D01*
X7360Y1081D02*
X7369Y1081D01*
X6783Y1080D02*
X6792Y1080D01*
X6837Y1080D02*
X6847Y1080D01*
X6861Y1080D02*
X6872Y1080D01*
X6879Y1080D02*
X6888Y1080D01*
X6933Y1080D02*
X6942Y1080D01*
X7264Y1080D02*
X7274Y1080D01*
X7287Y1080D02*
X7298Y1080D01*
X7305Y1080D02*
X7315Y1080D01*
X7360Y1080D02*
X7369Y1080D01*
X6783Y1079D02*
X6792Y1079D01*
X6837Y1079D02*
X6847Y1079D01*
X6861Y1079D02*
X6871Y1079D01*
X6879Y1079D02*
X6888Y1079D01*
X6933Y1079D02*
X6942Y1079D01*
X7264Y1079D02*
X7274Y1079D01*
X7287Y1079D02*
X7298Y1079D01*
X7305Y1079D02*
X7315Y1079D01*
X7360Y1079D02*
X7369Y1079D01*
X6783Y1078D02*
X6792Y1078D01*
X6837Y1078D02*
X6847Y1078D01*
X6860Y1078D02*
X6871Y1078D01*
X6879Y1078D02*
X6888Y1078D01*
X6933Y1078D02*
X6942Y1078D01*
X7194Y1078D02*
X7236Y1078D01*
X7264Y1078D02*
X7274Y1078D01*
X7287Y1078D02*
X7297Y1078D01*
X7305Y1078D02*
X7315Y1078D01*
X7360Y1078D02*
X7369Y1078D01*
X6767Y1077D02*
X6809Y1077D01*
X6837Y1077D02*
X6847Y1077D01*
X6860Y1077D02*
X6870Y1077D01*
X6879Y1077D02*
X6888Y1077D01*
X6933Y1077D02*
X6942Y1077D01*
X7191Y1077D02*
X7238Y1077D01*
X7264Y1077D02*
X7274Y1077D01*
X7286Y1077D02*
X7297Y1077D01*
X7305Y1077D02*
X7315Y1077D01*
X7360Y1077D02*
X7369Y1077D01*
X6764Y1076D02*
X6811Y1076D01*
X6837Y1076D02*
X6847Y1076D01*
X6859Y1076D02*
X6870Y1076D01*
X6879Y1076D02*
X6888Y1076D01*
X6933Y1076D02*
X6942Y1076D01*
X7190Y1076D02*
X7239Y1076D01*
X7264Y1076D02*
X7274Y1076D01*
X7286Y1076D02*
X7296Y1076D01*
X7305Y1076D02*
X7315Y1076D01*
X7360Y1076D02*
X7369Y1076D01*
X6763Y1075D02*
X6812Y1075D01*
X6837Y1075D02*
X6847Y1075D01*
X6859Y1075D02*
X6869Y1075D01*
X6879Y1075D02*
X6888Y1075D01*
X6933Y1075D02*
X6942Y1075D01*
X7190Y1075D02*
X7240Y1075D01*
X7264Y1075D02*
X7274Y1075D01*
X7285Y1075D02*
X7296Y1075D01*
X7305Y1075D02*
X7315Y1075D01*
X7360Y1075D02*
X7369Y1075D01*
X6763Y1074D02*
X6813Y1074D01*
X6837Y1074D02*
X6847Y1074D01*
X6858Y1074D02*
X6869Y1074D01*
X6879Y1074D02*
X6888Y1074D01*
X6933Y1074D02*
X6942Y1074D01*
X7189Y1074D02*
X7240Y1074D01*
X7264Y1074D02*
X7274Y1074D01*
X7285Y1074D02*
X7295Y1074D01*
X7305Y1074D02*
X7315Y1074D01*
X7360Y1074D02*
X7369Y1074D01*
X6762Y1073D02*
X6813Y1073D01*
X6837Y1073D02*
X6847Y1073D01*
X6858Y1073D02*
X6868Y1073D01*
X6879Y1073D02*
X6888Y1073D01*
X6933Y1073D02*
X6942Y1073D01*
X7189Y1073D02*
X7240Y1073D01*
X7264Y1073D02*
X7274Y1073D01*
X7284Y1073D02*
X7295Y1073D01*
X7305Y1073D02*
X7315Y1073D01*
X7360Y1073D02*
X7369Y1073D01*
X6762Y1072D02*
X6813Y1072D01*
X6837Y1072D02*
X6847Y1072D01*
X6857Y1072D02*
X6868Y1072D01*
X6879Y1072D02*
X6888Y1072D01*
X6933Y1072D02*
X6942Y1072D01*
X7189Y1072D02*
X7240Y1072D01*
X7264Y1072D02*
X7274Y1072D01*
X7284Y1072D02*
X7294Y1072D01*
X7305Y1072D02*
X7315Y1072D01*
X7360Y1072D02*
X7369Y1072D01*
X6762Y1071D02*
X6813Y1071D01*
X6837Y1071D02*
X6847Y1071D01*
X6857Y1071D02*
X6868Y1071D01*
X6879Y1071D02*
X6888Y1071D01*
X6933Y1071D02*
X6942Y1071D01*
X7189Y1071D02*
X7240Y1071D01*
X7264Y1071D02*
X7274Y1071D01*
X7283Y1071D02*
X7294Y1071D01*
X7305Y1071D02*
X7315Y1071D01*
X7360Y1071D02*
X7369Y1071D01*
X6763Y1070D02*
X6813Y1070D01*
X6837Y1070D02*
X6847Y1070D01*
X6857Y1070D02*
X6867Y1070D01*
X6879Y1070D02*
X6888Y1070D01*
X6933Y1070D02*
X6942Y1070D01*
X7189Y1070D02*
X7240Y1070D01*
X7264Y1070D02*
X7274Y1070D01*
X7283Y1070D02*
X7294Y1070D01*
X7305Y1070D02*
X7315Y1070D01*
X7360Y1070D02*
X7369Y1070D01*
X6763Y1069D02*
X6812Y1069D01*
X6837Y1069D02*
X6847Y1069D01*
X6856Y1069D02*
X6867Y1069D01*
X6879Y1069D02*
X6888Y1069D01*
X6933Y1069D02*
X6942Y1069D01*
X7189Y1069D02*
X7240Y1069D01*
X7264Y1069D02*
X7274Y1069D01*
X7283Y1069D02*
X7293Y1069D01*
X7305Y1069D02*
X7315Y1069D01*
X7360Y1069D02*
X7369Y1069D01*
X6764Y1068D02*
X6811Y1068D01*
X6837Y1068D02*
X6847Y1068D01*
X6856Y1068D02*
X6866Y1068D01*
X6879Y1068D02*
X6888Y1068D01*
X6933Y1068D02*
X6942Y1068D01*
X7189Y1068D02*
X7240Y1068D01*
X7264Y1068D02*
X7274Y1068D01*
X7282Y1068D02*
X7293Y1068D01*
X7305Y1068D02*
X7315Y1068D01*
X7360Y1068D02*
X7369Y1068D01*
X6766Y1067D02*
X6810Y1067D01*
X6837Y1067D02*
X6847Y1067D01*
X6855Y1067D02*
X6866Y1067D01*
X6879Y1067D02*
X6888Y1067D01*
X6933Y1067D02*
X6942Y1067D01*
X7189Y1067D02*
X7240Y1067D01*
X7264Y1067D02*
X7274Y1067D01*
X7282Y1067D02*
X7292Y1067D01*
X7305Y1067D02*
X7315Y1067D01*
X7360Y1067D02*
X7369Y1067D01*
X6783Y1066D02*
X6792Y1066D01*
X6837Y1066D02*
X6847Y1066D01*
X6855Y1066D02*
X6865Y1066D01*
X6879Y1066D02*
X6888Y1066D01*
X6933Y1066D02*
X6942Y1066D01*
X7190Y1066D02*
X7239Y1066D01*
X7264Y1066D02*
X7274Y1066D01*
X7281Y1066D02*
X7292Y1066D01*
X7305Y1066D02*
X7315Y1066D01*
X7360Y1066D02*
X7369Y1066D01*
X6783Y1065D02*
X6792Y1065D01*
X6837Y1065D02*
X6847Y1065D01*
X6854Y1065D02*
X6865Y1065D01*
X6879Y1065D02*
X6888Y1065D01*
X6933Y1065D02*
X6942Y1065D01*
X7191Y1065D02*
X7239Y1065D01*
X7264Y1065D02*
X7274Y1065D01*
X7281Y1065D02*
X7291Y1065D01*
X7305Y1065D02*
X7315Y1065D01*
X7360Y1065D02*
X7369Y1065D01*
X6783Y1064D02*
X6792Y1064D01*
X6837Y1064D02*
X6847Y1064D01*
X6854Y1064D02*
X6865Y1064D01*
X6879Y1064D02*
X6888Y1064D01*
X6933Y1064D02*
X6942Y1064D01*
X7192Y1064D02*
X7237Y1064D01*
X7264Y1064D02*
X7274Y1064D01*
X7280Y1064D02*
X7291Y1064D01*
X7305Y1064D02*
X7315Y1064D01*
X7360Y1064D02*
X7369Y1064D01*
X6783Y1063D02*
X6792Y1063D01*
X6837Y1063D02*
X6847Y1063D01*
X6854Y1063D02*
X6864Y1063D01*
X6879Y1063D02*
X6888Y1063D01*
X6933Y1063D02*
X6942Y1063D01*
X7264Y1063D02*
X7274Y1063D01*
X7280Y1063D02*
X7291Y1063D01*
X7305Y1063D02*
X7315Y1063D01*
X7360Y1063D02*
X7369Y1063D01*
X6783Y1062D02*
X6792Y1062D01*
X6837Y1062D02*
X6847Y1062D01*
X6853Y1062D02*
X6864Y1062D01*
X6879Y1062D02*
X6888Y1062D01*
X6933Y1062D02*
X6942Y1062D01*
X7264Y1062D02*
X7274Y1062D01*
X7280Y1062D02*
X7290Y1062D01*
X7305Y1062D02*
X7315Y1062D01*
X7360Y1062D02*
X7369Y1062D01*
X6783Y1061D02*
X6792Y1061D01*
X6837Y1061D02*
X6847Y1061D01*
X6853Y1061D02*
X6863Y1061D01*
X6879Y1061D02*
X6888Y1061D01*
X6933Y1061D02*
X6942Y1061D01*
X7264Y1061D02*
X7274Y1061D01*
X7279Y1061D02*
X7290Y1061D01*
X7305Y1061D02*
X7315Y1061D01*
X7360Y1061D02*
X7369Y1061D01*
X6783Y1060D02*
X6792Y1060D01*
X6837Y1060D02*
X6847Y1060D01*
X6852Y1060D02*
X6863Y1060D01*
X6879Y1060D02*
X6888Y1060D01*
X6933Y1060D02*
X6942Y1060D01*
X7264Y1060D02*
X7274Y1060D01*
X7279Y1060D02*
X7289Y1060D01*
X7305Y1060D02*
X7315Y1060D01*
X7360Y1060D02*
X7369Y1060D01*
X6783Y1059D02*
X6792Y1059D01*
X6837Y1059D02*
X6847Y1059D01*
X6852Y1059D02*
X6862Y1059D01*
X6879Y1059D02*
X6888Y1059D01*
X6933Y1059D02*
X6942Y1059D01*
X7264Y1059D02*
X7274Y1059D01*
X7278Y1059D02*
X7289Y1059D01*
X7305Y1059D02*
X7315Y1059D01*
X7360Y1059D02*
X7369Y1059D01*
X6783Y1058D02*
X6792Y1058D01*
X6837Y1058D02*
X6847Y1058D01*
X6851Y1058D02*
X6862Y1058D01*
X6879Y1058D02*
X6888Y1058D01*
X6933Y1058D02*
X6942Y1058D01*
X7264Y1058D02*
X7274Y1058D01*
X7278Y1058D02*
X7288Y1058D01*
X7305Y1058D02*
X7315Y1058D01*
X7360Y1058D02*
X7369Y1058D01*
X6783Y1057D02*
X6792Y1057D01*
X6837Y1057D02*
X6847Y1057D01*
X6851Y1057D02*
X6861Y1057D01*
X6879Y1057D02*
X6888Y1057D01*
X6933Y1057D02*
X6942Y1057D01*
X7264Y1057D02*
X7274Y1057D01*
X7277Y1057D02*
X7288Y1057D01*
X7305Y1057D02*
X7315Y1057D01*
X7360Y1057D02*
X7369Y1057D01*
X6783Y1056D02*
X6792Y1056D01*
X6837Y1056D02*
X6847Y1056D01*
X6850Y1056D02*
X6861Y1056D01*
X6879Y1056D02*
X6888Y1056D01*
X6933Y1056D02*
X6942Y1056D01*
X7264Y1056D02*
X7274Y1056D01*
X7277Y1056D02*
X7287Y1056D01*
X7305Y1056D02*
X7315Y1056D01*
X7360Y1056D02*
X7369Y1056D01*
X6783Y1055D02*
X6792Y1055D01*
X6837Y1055D02*
X6847Y1055D01*
X6850Y1055D02*
X6861Y1055D01*
X6879Y1055D02*
X6888Y1055D01*
X6933Y1055D02*
X6942Y1055D01*
X7264Y1055D02*
X7274Y1055D01*
X7276Y1055D02*
X7287Y1055D01*
X7305Y1055D02*
X7315Y1055D01*
X7360Y1055D02*
X7369Y1055D01*
X6783Y1054D02*
X6792Y1054D01*
X6837Y1054D02*
X6847Y1054D01*
X6850Y1054D02*
X6860Y1054D01*
X6879Y1054D02*
X6888Y1054D01*
X6933Y1054D02*
X6942Y1054D01*
X7264Y1054D02*
X7274Y1054D01*
X7276Y1054D02*
X7287Y1054D01*
X7305Y1054D02*
X7315Y1054D01*
X7360Y1054D02*
X7369Y1054D01*
X6783Y1053D02*
X6792Y1053D01*
X6837Y1053D02*
X6847Y1053D01*
X6849Y1053D02*
X6860Y1053D01*
X6879Y1053D02*
X6888Y1053D01*
X6933Y1053D02*
X6942Y1053D01*
X7264Y1053D02*
X7274Y1053D01*
X7276Y1053D02*
X7286Y1053D01*
X7305Y1053D02*
X7315Y1053D01*
X7360Y1053D02*
X7369Y1053D01*
X6783Y1052D02*
X6792Y1052D01*
X6837Y1052D02*
X6847Y1052D01*
X6849Y1052D02*
X6859Y1052D01*
X6879Y1052D02*
X6888Y1052D01*
X6933Y1052D02*
X6942Y1052D01*
X7264Y1052D02*
X7286Y1052D01*
X7305Y1052D02*
X7315Y1052D01*
X7360Y1052D02*
X7369Y1052D01*
X6783Y1051D02*
X6792Y1051D01*
X6837Y1051D02*
X6859Y1051D01*
X6879Y1051D02*
X6888Y1051D01*
X6933Y1051D02*
X6942Y1051D01*
X7264Y1051D02*
X7285Y1051D01*
X7305Y1051D02*
X7315Y1051D01*
X7360Y1051D02*
X7369Y1051D01*
X6783Y1050D02*
X6792Y1050D01*
X6837Y1050D02*
X6858Y1050D01*
X6879Y1050D02*
X6888Y1050D01*
X6933Y1050D02*
X6942Y1050D01*
X7264Y1050D02*
X7285Y1050D01*
X7305Y1050D02*
X7315Y1050D01*
X7360Y1050D02*
X7369Y1050D01*
X6783Y1049D02*
X6792Y1049D01*
X6837Y1049D02*
X6858Y1049D01*
X6879Y1049D02*
X6888Y1049D01*
X6933Y1049D02*
X6942Y1049D01*
X7264Y1049D02*
X7284Y1049D01*
X7305Y1049D02*
X7315Y1049D01*
X7360Y1049D02*
X7369Y1049D01*
X6784Y1048D02*
X6791Y1048D01*
X6837Y1048D02*
X6858Y1048D01*
X6879Y1048D02*
X6888Y1048D01*
X6933Y1048D02*
X6942Y1048D01*
X7264Y1048D02*
X7284Y1048D01*
X7305Y1048D02*
X7315Y1048D01*
X7360Y1048D02*
X7369Y1048D01*
X6785Y1047D02*
X6790Y1047D01*
X6837Y1047D02*
X6857Y1047D01*
X6879Y1047D02*
X6888Y1047D01*
X6933Y1047D02*
X6942Y1047D01*
X7264Y1047D02*
X7284Y1047D01*
X7305Y1047D02*
X7315Y1047D01*
X7360Y1047D02*
X7369Y1047D01*
X6788Y1046D02*
X6788Y1046D01*
X6837Y1046D02*
X6857Y1046D01*
X6879Y1046D02*
X6888Y1046D01*
X6933Y1046D02*
X6942Y1046D01*
X7264Y1046D02*
X7283Y1046D01*
X7305Y1046D02*
X7315Y1046D01*
X7360Y1046D02*
X7369Y1046D01*
X6837Y1045D02*
X6856Y1045D01*
X6879Y1045D02*
X6888Y1045D01*
X6933Y1045D02*
X6942Y1045D01*
X7264Y1045D02*
X7283Y1045D01*
X7305Y1045D02*
X7315Y1045D01*
X7360Y1045D02*
X7369Y1045D01*
X6837Y1044D02*
X6856Y1044D01*
X6879Y1044D02*
X6888Y1044D01*
X6933Y1044D02*
X6942Y1044D01*
X7264Y1044D02*
X7282Y1044D01*
X7305Y1044D02*
X7315Y1044D01*
X7360Y1044D02*
X7369Y1044D01*
X6837Y1043D02*
X6855Y1043D01*
X6879Y1043D02*
X6888Y1043D01*
X6933Y1043D02*
X6942Y1043D01*
X7264Y1043D02*
X7282Y1043D01*
X7305Y1043D02*
X7315Y1043D01*
X7360Y1043D02*
X7370Y1043D01*
X6837Y1042D02*
X6855Y1042D01*
X6879Y1042D02*
X6888Y1042D01*
X6933Y1042D02*
X6943Y1042D01*
X7264Y1042D02*
X7281Y1042D01*
X7305Y1042D02*
X7315Y1042D01*
X7342Y1042D02*
X7387Y1042D01*
X6837Y1041D02*
X6854Y1041D01*
X6879Y1041D02*
X6888Y1041D01*
X6915Y1041D02*
X6960Y1041D01*
X7264Y1041D02*
X7281Y1041D01*
X7305Y1041D02*
X7315Y1041D01*
X7341Y1041D02*
X7389Y1041D01*
X6837Y1040D02*
X6854Y1040D01*
X6879Y1040D02*
X6888Y1040D01*
X6914Y1040D02*
X6962Y1040D01*
X7264Y1040D02*
X7280Y1040D01*
X7305Y1040D02*
X7315Y1040D01*
X7340Y1040D02*
X7389Y1040D01*
X6837Y1039D02*
X6854Y1039D01*
X6879Y1039D02*
X6888Y1039D01*
X6913Y1039D02*
X6962Y1039D01*
X7264Y1039D02*
X7280Y1039D01*
X7305Y1039D02*
X7315Y1039D01*
X7339Y1039D02*
X7390Y1039D01*
X6837Y1038D02*
X6853Y1038D01*
X6879Y1038D02*
X6888Y1038D01*
X6912Y1038D02*
X6963Y1038D01*
X7264Y1038D02*
X7280Y1038D01*
X7305Y1038D02*
X7315Y1038D01*
X7339Y1038D02*
X7390Y1038D01*
X6837Y1037D02*
X6853Y1037D01*
X6879Y1037D02*
X6888Y1037D01*
X6912Y1037D02*
X6963Y1037D01*
X7264Y1037D02*
X7279Y1037D01*
X7306Y1037D02*
X7315Y1037D01*
X7339Y1037D02*
X7390Y1037D01*
X6837Y1036D02*
X6852Y1036D01*
X6879Y1036D02*
X6888Y1036D01*
X6912Y1036D02*
X6963Y1036D01*
X7264Y1036D02*
X7279Y1036D01*
X7306Y1036D02*
X7315Y1036D01*
X7339Y1036D02*
X7390Y1036D01*
X6837Y1035D02*
X6852Y1035D01*
X6879Y1035D02*
X6888Y1035D01*
X6912Y1035D02*
X6963Y1035D01*
X7264Y1035D02*
X7278Y1035D01*
X7306Y1035D02*
X7314Y1035D01*
X7340Y1035D02*
X7389Y1035D01*
X6837Y1034D02*
X6851Y1034D01*
X6879Y1034D02*
X6887Y1034D01*
X6913Y1034D02*
X6962Y1034D01*
X7264Y1034D02*
X7278Y1034D01*
X7307Y1034D02*
X7314Y1034D01*
X7341Y1034D02*
X7388Y1034D01*
X6837Y1033D02*
X6851Y1033D01*
X6880Y1033D02*
X6887Y1033D01*
X6914Y1033D02*
X6962Y1033D01*
X7264Y1033D02*
X7277Y1033D01*
X7308Y1033D02*
X7312Y1033D01*
X7342Y1033D02*
X7387Y1033D01*
X6837Y1032D02*
X6851Y1032D01*
X6881Y1032D02*
X6885Y1032D01*
X6915Y1032D02*
X6960Y1032D01*
X6805Y645D02*
X6815Y645D01*
X6802Y644D02*
X6818Y644D01*
X6800Y643D02*
X6821Y643D01*
X6538Y642D02*
X6542Y642D01*
X6798Y642D02*
X6823Y642D01*
X6403Y641D02*
X6441Y641D01*
X6537Y641D02*
X6544Y641D01*
X6796Y641D02*
X6825Y641D01*
X6400Y640D02*
X6443Y640D01*
X6536Y640D02*
X6544Y640D01*
X6794Y640D02*
X6827Y640D01*
X6398Y639D02*
X6445Y639D01*
X6536Y639D02*
X6545Y639D01*
X6792Y639D02*
X6829Y639D01*
X6397Y638D02*
X6446Y638D01*
X6536Y638D02*
X6545Y638D01*
X6789Y638D02*
X6831Y638D01*
X6395Y637D02*
X6447Y637D01*
X6535Y637D02*
X6546Y637D01*
X6787Y637D02*
X6833Y637D01*
X6394Y636D02*
X6448Y636D01*
X6536Y636D02*
X6546Y636D01*
X6785Y636D02*
X6835Y636D01*
X6393Y635D02*
X6449Y635D01*
X6536Y635D02*
X6547Y635D01*
X6783Y635D02*
X6809Y635D01*
X6812Y635D02*
X6837Y635D01*
X6391Y634D02*
X6450Y634D01*
X6536Y634D02*
X6547Y634D01*
X6781Y634D02*
X6804Y634D01*
X6816Y634D02*
X6839Y634D01*
X6390Y633D02*
X6450Y633D01*
X6537Y633D02*
X6548Y633D01*
X6779Y633D02*
X6802Y633D01*
X6818Y633D02*
X6841Y633D01*
X6389Y632D02*
X6451Y632D01*
X6469Y632D02*
X6514Y632D01*
X6537Y632D02*
X6548Y632D01*
X6777Y632D02*
X6800Y632D01*
X6820Y632D02*
X6842Y632D01*
X6387Y631D02*
X6405Y631D01*
X6439Y631D02*
X6451Y631D01*
X6469Y631D02*
X6514Y631D01*
X6538Y631D02*
X6548Y631D01*
X6776Y631D02*
X6798Y631D01*
X6822Y631D02*
X6844Y631D01*
X6386Y630D02*
X6402Y630D01*
X6440Y630D02*
X6451Y630D01*
X6469Y630D02*
X6514Y630D01*
X6538Y630D02*
X6549Y630D01*
X6775Y630D02*
X6796Y630D01*
X6824Y630D02*
X6845Y630D01*
X6385Y629D02*
X6401Y629D01*
X6441Y629D02*
X6451Y629D01*
X6469Y629D02*
X6514Y629D01*
X6539Y629D02*
X6549Y629D01*
X6774Y629D02*
X6794Y629D01*
X6826Y629D02*
X6846Y629D01*
X6384Y628D02*
X6400Y628D01*
X6442Y628D02*
X6452Y628D01*
X6469Y628D02*
X6514Y628D01*
X6539Y628D02*
X6549Y628D01*
X6773Y628D02*
X6792Y628D01*
X6828Y628D02*
X6847Y628D01*
X6382Y627D02*
X6398Y627D01*
X6442Y627D02*
X6452Y627D01*
X6469Y627D02*
X6514Y627D01*
X6539Y627D02*
X6549Y627D01*
X6772Y627D02*
X6790Y627D01*
X6830Y627D02*
X6848Y627D01*
X6381Y626D02*
X6397Y626D01*
X6442Y626D02*
X6452Y626D01*
X6469Y626D02*
X6514Y626D01*
X6540Y626D02*
X6549Y626D01*
X6772Y626D02*
X6788Y626D01*
X6832Y626D02*
X6848Y626D01*
X6380Y625D02*
X6396Y625D01*
X6442Y625D02*
X6452Y625D01*
X6469Y625D02*
X6514Y625D01*
X6540Y625D02*
X6549Y625D01*
X6771Y625D02*
X6786Y625D01*
X6834Y625D02*
X6849Y625D01*
X6378Y624D02*
X6395Y624D01*
X6442Y624D02*
X6452Y624D01*
X6469Y624D02*
X6514Y624D01*
X6540Y624D02*
X6549Y624D01*
X6771Y624D02*
X6784Y624D01*
X6836Y624D02*
X6849Y624D01*
X6377Y623D02*
X6393Y623D01*
X6442Y623D02*
X6452Y623D01*
X6469Y623D02*
X6514Y623D01*
X6540Y623D02*
X6549Y623D01*
X6771Y623D02*
X6782Y623D01*
X6838Y623D02*
X6850Y623D01*
X6376Y622D02*
X6392Y622D01*
X6442Y622D02*
X6452Y622D01*
X6469Y622D02*
X6514Y622D01*
X6540Y622D02*
X6549Y622D01*
X6770Y622D02*
X6781Y622D01*
X6839Y622D02*
X6850Y622D01*
X6375Y621D02*
X6391Y621D01*
X6442Y621D02*
X6452Y621D01*
X6469Y621D02*
X6479Y621D01*
X6504Y621D02*
X6514Y621D01*
X6540Y621D02*
X6549Y621D01*
X6770Y621D02*
X6780Y621D01*
X6840Y621D02*
X6850Y621D01*
X6374Y620D02*
X6389Y620D01*
X6442Y620D02*
X6452Y620D01*
X6469Y620D02*
X6479Y620D01*
X6504Y620D02*
X6514Y620D01*
X6540Y620D02*
X6549Y620D01*
X6770Y620D02*
X6780Y620D01*
X6841Y620D02*
X6850Y620D01*
X6374Y619D02*
X6388Y619D01*
X6442Y619D02*
X6452Y619D01*
X6469Y619D02*
X6479Y619D01*
X6504Y619D02*
X6514Y619D01*
X6540Y619D02*
X6549Y619D01*
X6770Y619D02*
X6780Y619D01*
X6841Y619D02*
X6850Y619D01*
X6373Y618D02*
X6387Y618D01*
X6442Y618D02*
X6452Y618D01*
X6469Y618D02*
X6479Y618D01*
X6504Y618D02*
X6514Y618D01*
X6540Y618D02*
X6549Y618D01*
X6770Y618D02*
X6779Y618D01*
X6841Y618D02*
X6850Y618D01*
X6373Y617D02*
X6386Y617D01*
X6442Y617D02*
X6452Y617D01*
X6469Y617D02*
X6479Y617D01*
X6504Y617D02*
X6514Y617D01*
X6540Y617D02*
X6549Y617D01*
X6770Y617D02*
X6779Y617D01*
X6841Y617D02*
X6850Y617D01*
X6372Y616D02*
X6384Y616D01*
X6420Y616D02*
X6421Y616D01*
X6442Y616D02*
X6452Y616D01*
X6469Y616D02*
X6479Y616D01*
X6504Y616D02*
X6514Y616D01*
X6540Y616D02*
X6549Y616D01*
X6770Y616D02*
X6779Y616D01*
X6841Y616D02*
X6850Y616D01*
X6372Y615D02*
X6383Y615D01*
X6418Y615D02*
X6423Y615D01*
X6442Y615D02*
X6452Y615D01*
X6469Y615D02*
X6479Y615D01*
X6504Y615D02*
X6514Y615D01*
X6540Y615D02*
X6549Y615D01*
X6770Y615D02*
X6779Y615D01*
X6841Y615D02*
X6850Y615D01*
X6372Y614D02*
X6382Y614D01*
X6417Y614D02*
X6424Y614D01*
X6442Y614D02*
X6452Y614D01*
X6469Y614D02*
X6479Y614D01*
X6504Y614D02*
X6514Y614D01*
X6540Y614D02*
X6549Y614D01*
X6770Y614D02*
X6779Y614D01*
X6841Y614D02*
X6850Y614D01*
X6372Y613D02*
X6381Y613D01*
X6416Y613D02*
X6425Y613D01*
X6442Y613D02*
X6452Y613D01*
X6469Y613D02*
X6479Y613D01*
X6504Y613D02*
X6514Y613D01*
X6540Y613D02*
X6549Y613D01*
X6770Y613D02*
X6779Y613D01*
X6841Y613D02*
X6850Y613D01*
X6372Y612D02*
X6381Y612D01*
X6416Y612D02*
X6425Y612D01*
X6442Y612D02*
X6452Y612D01*
X6469Y612D02*
X6479Y612D01*
X6504Y612D02*
X6514Y612D01*
X6540Y612D02*
X6549Y612D01*
X6770Y612D02*
X6779Y612D01*
X6841Y612D02*
X6850Y612D01*
X6372Y611D02*
X6381Y611D01*
X6416Y611D02*
X6425Y611D01*
X6442Y611D02*
X6452Y611D01*
X6469Y611D02*
X6479Y611D01*
X6504Y611D02*
X6514Y611D01*
X6540Y611D02*
X6549Y611D01*
X6770Y611D02*
X6779Y611D01*
X6841Y611D02*
X6850Y611D01*
X6372Y610D02*
X6381Y610D01*
X6416Y610D02*
X6425Y610D01*
X6442Y610D02*
X6452Y610D01*
X6469Y610D02*
X6479Y610D01*
X6504Y610D02*
X6514Y610D01*
X6540Y610D02*
X6549Y610D01*
X6770Y610D02*
X6779Y610D01*
X6841Y610D02*
X6850Y610D01*
X6372Y609D02*
X6381Y609D01*
X6416Y609D02*
X6425Y609D01*
X6442Y609D02*
X6452Y609D01*
X6469Y609D02*
X6479Y609D01*
X6504Y609D02*
X6514Y609D01*
X6540Y609D02*
X6549Y609D01*
X6770Y609D02*
X6779Y609D01*
X6841Y609D02*
X6850Y609D01*
X6372Y608D02*
X6381Y608D01*
X6416Y608D02*
X6425Y608D01*
X6442Y608D02*
X6452Y608D01*
X6469Y608D02*
X6479Y608D01*
X6504Y608D02*
X6514Y608D01*
X6540Y608D02*
X6549Y608D01*
X6770Y608D02*
X6779Y608D01*
X6841Y608D02*
X6850Y608D01*
X6372Y607D02*
X6381Y607D01*
X6416Y607D02*
X6425Y607D01*
X6442Y607D02*
X6452Y607D01*
X6469Y607D02*
X6479Y607D01*
X6504Y607D02*
X6514Y607D01*
X6540Y607D02*
X6549Y607D01*
X6770Y607D02*
X6779Y607D01*
X6841Y607D02*
X6850Y607D01*
X6372Y606D02*
X6381Y606D01*
X6416Y606D02*
X6425Y606D01*
X6442Y606D02*
X6452Y606D01*
X6469Y606D02*
X6479Y606D01*
X6504Y606D02*
X6514Y606D01*
X6540Y606D02*
X6549Y606D01*
X6770Y606D02*
X6779Y606D01*
X6841Y606D02*
X6850Y606D01*
X6372Y605D02*
X6381Y605D01*
X6416Y605D02*
X6425Y605D01*
X6442Y605D02*
X6452Y605D01*
X6469Y605D02*
X6479Y605D01*
X6504Y605D02*
X6514Y605D01*
X6540Y605D02*
X6549Y605D01*
X6770Y605D02*
X6779Y605D01*
X6841Y605D02*
X6850Y605D01*
X6372Y604D02*
X6381Y604D01*
X6416Y604D02*
X6425Y604D01*
X6442Y604D02*
X6452Y604D01*
X6469Y604D02*
X6479Y604D01*
X6504Y604D02*
X6514Y604D01*
X6540Y604D02*
X6549Y604D01*
X6770Y604D02*
X6779Y604D01*
X6841Y604D02*
X6850Y604D01*
X6372Y603D02*
X6381Y603D01*
X6416Y603D02*
X6425Y603D01*
X6441Y603D02*
X6451Y603D01*
X6469Y603D02*
X6479Y603D01*
X6504Y603D02*
X6514Y603D01*
X6540Y603D02*
X6549Y603D01*
X6770Y603D02*
X6779Y603D01*
X6841Y603D02*
X6850Y603D01*
X6372Y602D02*
X6381Y602D01*
X6416Y602D02*
X6425Y602D01*
X6440Y602D02*
X6451Y602D01*
X6469Y602D02*
X6479Y602D01*
X6504Y602D02*
X6514Y602D01*
X6540Y602D02*
X6549Y602D01*
X6770Y602D02*
X6779Y602D01*
X6841Y602D02*
X6850Y602D01*
X6372Y601D02*
X6381Y601D01*
X6416Y601D02*
X6425Y601D01*
X6439Y601D02*
X6451Y601D01*
X6469Y601D02*
X6479Y601D01*
X6504Y601D02*
X6549Y601D01*
X6770Y601D02*
X6779Y601D01*
X6841Y601D02*
X6850Y601D01*
X6372Y600D02*
X6381Y600D01*
X6416Y600D02*
X6451Y600D01*
X6469Y600D02*
X6479Y600D01*
X6505Y600D02*
X6549Y600D01*
X6770Y600D02*
X6779Y600D01*
X6841Y600D02*
X6850Y600D01*
X6372Y599D02*
X6381Y599D01*
X6416Y599D02*
X6450Y599D01*
X6469Y599D02*
X6479Y599D01*
X6505Y599D02*
X6549Y599D01*
X6770Y599D02*
X6779Y599D01*
X6841Y599D02*
X6850Y599D01*
X6372Y598D02*
X6381Y598D01*
X6416Y598D02*
X6450Y598D01*
X6469Y598D02*
X6479Y598D01*
X6505Y598D02*
X6549Y598D01*
X6770Y598D02*
X6779Y598D01*
X6841Y598D02*
X6850Y598D01*
X6372Y597D02*
X6381Y597D01*
X6416Y597D02*
X6449Y597D01*
X6469Y597D02*
X6479Y597D01*
X6505Y597D02*
X6548Y597D01*
X6770Y597D02*
X6779Y597D01*
X6841Y597D02*
X6850Y597D01*
X6372Y596D02*
X6381Y596D01*
X6416Y596D02*
X6448Y596D01*
X6469Y596D02*
X6479Y596D01*
X6506Y596D02*
X6548Y596D01*
X6771Y596D02*
X6778Y596D01*
X6842Y596D02*
X6849Y596D01*
X6372Y595D02*
X6381Y595D01*
X6416Y595D02*
X6447Y595D01*
X6469Y595D02*
X6478Y595D01*
X6507Y595D02*
X6547Y595D01*
X6772Y595D02*
X6778Y595D01*
X6843Y595D02*
X6848Y595D01*
X6372Y594D02*
X6381Y594D01*
X6416Y594D02*
X6446Y594D01*
X6470Y594D02*
X6478Y594D01*
X6508Y594D02*
X6546Y594D01*
X6774Y594D02*
X6776Y594D01*
X6845Y594D02*
X6847Y594D01*
X6372Y593D02*
X6380Y593D01*
X6416Y593D02*
X6445Y593D01*
X6470Y593D02*
X6478Y593D01*
X6509Y593D02*
X6545Y593D01*
X6373Y592D02*
X6380Y592D01*
X6416Y592D02*
X6443Y592D01*
X6471Y592D02*
X6477Y592D01*
X6510Y592D02*
X6544Y592D01*
X6374Y591D02*
X6379Y591D01*
X6416Y591D02*
X6441Y591D01*
X6473Y591D02*
X6475Y591D01*
X6513Y591D02*
X6541Y591D01*
X6580Y572D02*
X6584Y572D01*
X6637Y572D02*
X6640Y572D01*
X6577Y571D02*
X6587Y571D01*
X6635Y571D02*
X6643Y571D01*
X6576Y570D02*
X6589Y570D01*
X6634Y570D02*
X6645Y570D01*
X6674Y570D02*
X6679Y570D01*
X6745Y570D02*
X6750Y570D01*
X6773Y570D02*
X6850Y570D01*
X6575Y569D02*
X6590Y569D01*
X6633Y569D02*
X6646Y569D01*
X6673Y569D02*
X6680Y569D01*
X6744Y569D02*
X6751Y569D01*
X6772Y569D02*
X6850Y569D01*
X6574Y568D02*
X6592Y568D01*
X6633Y568D02*
X6647Y568D01*
X6672Y568D02*
X6681Y568D01*
X6743Y568D02*
X6751Y568D01*
X6771Y568D02*
X6850Y568D01*
X6472Y567D02*
X6494Y567D01*
X6573Y567D02*
X6593Y567D01*
X6633Y567D02*
X6648Y567D01*
X6672Y567D02*
X6681Y567D01*
X6743Y567D02*
X6752Y567D01*
X6770Y567D02*
X6850Y567D01*
X6372Y566D02*
X6449Y566D01*
X6471Y566D02*
X6496Y566D01*
X6572Y566D02*
X6594Y566D01*
X6633Y566D02*
X6649Y566D01*
X6672Y566D02*
X6681Y566D01*
X6743Y566D02*
X6752Y566D01*
X6770Y566D02*
X6850Y566D01*
X6372Y565D02*
X6451Y565D01*
X6470Y565D02*
X6499Y565D01*
X6572Y565D02*
X6595Y565D01*
X6633Y565D02*
X6649Y565D01*
X6672Y565D02*
X6681Y565D01*
X6743Y565D02*
X6752Y565D01*
X6770Y565D02*
X6850Y565D01*
X6372Y564D02*
X6451Y564D01*
X6469Y564D02*
X6501Y564D01*
X6572Y564D02*
X6597Y564D01*
X6634Y564D02*
X6650Y564D01*
X6672Y564D02*
X6681Y564D01*
X6743Y564D02*
X6752Y564D01*
X6770Y564D02*
X6850Y564D01*
X6372Y563D02*
X6452Y563D01*
X6469Y563D02*
X6504Y563D01*
X6571Y563D02*
X6598Y563D01*
X6635Y563D02*
X6650Y563D01*
X6672Y563D02*
X6681Y563D01*
X6743Y563D02*
X6752Y563D01*
X6771Y563D02*
X6850Y563D01*
X6372Y562D02*
X6452Y562D01*
X6469Y562D02*
X6507Y562D01*
X6571Y562D02*
X6599Y562D01*
X6637Y562D02*
X6651Y562D01*
X6672Y562D02*
X6681Y562D01*
X6743Y562D02*
X6752Y562D01*
X6771Y562D02*
X6850Y562D01*
X6372Y561D02*
X6452Y561D01*
X6469Y561D02*
X6509Y561D01*
X6571Y561D02*
X6581Y561D01*
X6584Y561D02*
X6601Y561D01*
X6640Y561D02*
X6651Y561D01*
X6672Y561D02*
X6681Y561D01*
X6743Y561D02*
X6752Y561D01*
X6772Y561D02*
X6850Y561D01*
X6372Y560D02*
X6451Y560D01*
X6470Y560D02*
X6512Y560D01*
X6571Y560D02*
X6581Y560D01*
X6586Y560D02*
X6602Y560D01*
X6641Y560D02*
X6651Y560D01*
X6672Y560D02*
X6752Y560D01*
X6776Y560D02*
X6850Y560D01*
X6372Y559D02*
X6451Y559D01*
X6470Y559D02*
X6514Y559D01*
X6571Y559D02*
X6581Y559D01*
X6587Y559D02*
X6603Y559D01*
X6642Y559D02*
X6651Y559D01*
X6672Y559D02*
X6752Y559D01*
X6841Y559D02*
X6850Y559D01*
X6372Y558D02*
X6450Y558D01*
X6472Y558D02*
X6517Y558D01*
X6571Y558D02*
X6581Y558D01*
X6588Y558D02*
X6604Y558D01*
X6642Y558D02*
X6651Y558D01*
X6672Y558D02*
X6752Y558D01*
X6841Y558D02*
X6850Y558D01*
X6372Y557D02*
X6449Y557D01*
X6491Y557D02*
X6519Y557D01*
X6571Y557D02*
X6581Y557D01*
X6589Y557D02*
X6606Y557D01*
X6642Y557D02*
X6651Y557D01*
X6672Y557D02*
X6752Y557D01*
X6841Y557D02*
X6850Y557D01*
X6372Y556D02*
X6390Y556D01*
X6494Y556D02*
X6522Y556D01*
X6571Y556D02*
X6581Y556D01*
X6591Y556D02*
X6607Y556D01*
X6642Y556D02*
X6651Y556D01*
X6672Y556D02*
X6752Y556D01*
X6841Y556D02*
X6850Y556D01*
X6372Y555D02*
X6393Y555D01*
X6496Y555D02*
X6525Y555D01*
X6571Y555D02*
X6581Y555D01*
X6592Y555D02*
X6608Y555D01*
X6642Y555D02*
X6651Y555D01*
X6672Y555D02*
X6752Y555D01*
X6841Y555D02*
X6850Y555D01*
X6372Y554D02*
X6395Y554D01*
X6499Y554D02*
X6527Y554D01*
X6571Y554D02*
X6581Y554D01*
X6593Y554D02*
X6610Y554D01*
X6642Y554D02*
X6651Y554D01*
X6672Y554D02*
X6752Y554D01*
X6841Y554D02*
X6850Y554D01*
X6372Y553D02*
X6397Y553D01*
X6502Y553D02*
X6530Y553D01*
X6571Y553D02*
X6581Y553D01*
X6595Y553D02*
X6611Y553D01*
X6642Y553D02*
X6651Y553D01*
X6672Y553D02*
X6752Y553D01*
X6841Y553D02*
X6850Y553D01*
X6374Y552D02*
X6399Y552D01*
X6504Y552D02*
X6532Y552D01*
X6571Y552D02*
X6581Y552D01*
X6596Y552D02*
X6612Y552D01*
X6642Y552D02*
X6651Y552D01*
X6672Y552D02*
X6752Y552D01*
X6841Y552D02*
X6850Y552D01*
X6376Y551D02*
X6402Y551D01*
X6507Y551D02*
X6535Y551D01*
X6571Y551D02*
X6581Y551D01*
X6597Y551D02*
X6613Y551D01*
X6642Y551D02*
X6651Y551D01*
X6672Y551D02*
X6752Y551D01*
X6841Y551D02*
X6850Y551D01*
X6379Y550D02*
X6404Y550D01*
X6509Y550D02*
X6538Y550D01*
X6571Y550D02*
X6581Y550D01*
X6598Y550D02*
X6615Y550D01*
X6642Y550D02*
X6651Y550D01*
X6672Y550D02*
X6752Y550D01*
X6841Y550D02*
X6850Y550D01*
X6381Y549D02*
X6406Y549D01*
X6512Y549D02*
X6540Y549D01*
X6571Y549D02*
X6581Y549D01*
X6600Y549D02*
X6616Y549D01*
X6642Y549D02*
X6651Y549D01*
X6672Y549D02*
X6681Y549D01*
X6743Y549D02*
X6752Y549D01*
X6841Y549D02*
X6850Y549D01*
X6383Y548D02*
X6409Y548D01*
X6514Y548D02*
X6543Y548D01*
X6571Y548D02*
X6581Y548D01*
X6601Y548D02*
X6617Y548D01*
X6642Y548D02*
X6651Y548D01*
X6672Y548D02*
X6681Y548D01*
X6743Y548D02*
X6752Y548D01*
X6841Y548D02*
X6850Y548D01*
X6385Y547D02*
X6411Y547D01*
X6517Y547D02*
X6545Y547D01*
X6571Y547D02*
X6581Y547D01*
X6602Y547D02*
X6619Y547D01*
X6642Y547D02*
X6651Y547D01*
X6672Y547D02*
X6681Y547D01*
X6743Y547D02*
X6752Y547D01*
X6841Y547D02*
X6850Y547D01*
X6388Y546D02*
X6413Y546D01*
X6519Y546D02*
X6547Y546D01*
X6571Y546D02*
X6581Y546D01*
X6604Y546D02*
X6620Y546D01*
X6642Y546D02*
X6651Y546D01*
X6672Y546D02*
X6681Y546D01*
X6743Y546D02*
X6752Y546D01*
X6841Y546D02*
X6850Y546D01*
X6390Y545D02*
X6415Y545D01*
X6522Y545D02*
X6548Y545D01*
X6571Y545D02*
X6581Y545D01*
X6605Y545D02*
X6621Y545D01*
X6642Y545D02*
X6651Y545D01*
X6672Y545D02*
X6681Y545D01*
X6742Y545D02*
X6752Y545D01*
X6841Y545D02*
X6850Y545D01*
X6392Y544D02*
X6418Y544D01*
X6525Y544D02*
X6549Y544D01*
X6571Y544D02*
X6581Y544D01*
X6606Y544D02*
X6623Y544D01*
X6642Y544D02*
X6651Y544D01*
X6672Y544D02*
X6682Y544D01*
X6742Y544D02*
X6752Y544D01*
X6841Y544D02*
X6850Y544D01*
X6395Y543D02*
X6420Y543D01*
X6527Y543D02*
X6549Y543D01*
X6571Y543D02*
X6581Y543D01*
X6607Y543D02*
X6624Y543D01*
X6642Y543D02*
X6651Y543D01*
X6672Y543D02*
X6682Y543D01*
X6741Y543D02*
X6752Y543D01*
X6841Y543D02*
X6850Y543D01*
X6397Y542D02*
X6422Y542D01*
X6530Y542D02*
X6549Y542D01*
X6571Y542D02*
X6581Y542D01*
X6609Y542D02*
X6625Y542D01*
X6642Y542D02*
X6651Y542D01*
X6672Y542D02*
X6684Y542D01*
X6740Y542D02*
X6752Y542D01*
X6841Y542D02*
X6850Y542D01*
X6399Y541D02*
X6425Y541D01*
X6529Y541D02*
X6549Y541D01*
X6571Y541D02*
X6581Y541D01*
X6610Y541D02*
X6626Y541D01*
X6642Y541D02*
X6651Y541D01*
X6673Y541D02*
X6685Y541D01*
X6738Y541D02*
X6751Y541D01*
X6841Y541D02*
X6850Y541D01*
X6401Y540D02*
X6427Y540D01*
X6526Y540D02*
X6549Y540D01*
X6571Y540D02*
X6581Y540D01*
X6611Y540D02*
X6628Y540D01*
X6642Y540D02*
X6651Y540D01*
X6673Y540D02*
X6687Y540D01*
X6736Y540D02*
X6751Y540D01*
X6841Y540D02*
X6850Y540D01*
X6404Y539D02*
X6429Y539D01*
X6524Y539D02*
X6549Y539D01*
X6571Y539D02*
X6581Y539D01*
X6613Y539D02*
X6629Y539D01*
X6642Y539D02*
X6651Y539D01*
X6674Y539D02*
X6689Y539D01*
X6734Y539D02*
X6750Y539D01*
X6841Y539D02*
X6850Y539D01*
X6406Y538D02*
X6431Y538D01*
X6521Y538D02*
X6548Y538D01*
X6571Y538D02*
X6581Y538D01*
X6614Y538D02*
X6630Y538D01*
X6642Y538D02*
X6651Y538D01*
X6674Y538D02*
X6691Y538D01*
X6732Y538D02*
X6750Y538D01*
X6841Y538D02*
X6850Y538D01*
X6408Y537D02*
X6434Y537D01*
X6518Y537D02*
X6546Y537D01*
X6571Y537D02*
X6581Y537D01*
X6615Y537D02*
X6632Y537D01*
X6642Y537D02*
X6651Y537D01*
X6675Y537D02*
X6693Y537D01*
X6730Y537D02*
X6749Y537D01*
X6841Y537D02*
X6850Y537D01*
X6411Y536D02*
X6436Y536D01*
X6516Y536D02*
X6544Y536D01*
X6571Y536D02*
X6581Y536D01*
X6616Y536D02*
X6633Y536D01*
X6642Y536D02*
X6651Y536D01*
X6676Y536D02*
X6695Y536D01*
X6728Y536D02*
X6748Y536D01*
X6841Y536D02*
X6850Y536D01*
X6413Y535D02*
X6438Y535D01*
X6513Y535D02*
X6541Y535D01*
X6571Y535D02*
X6581Y535D01*
X6618Y535D02*
X6634Y535D01*
X6642Y535D02*
X6651Y535D01*
X6677Y535D02*
X6697Y535D01*
X6727Y535D02*
X6748Y535D01*
X6841Y535D02*
X6850Y535D01*
X6415Y534D02*
X6441Y534D01*
X6511Y534D02*
X6539Y534D01*
X6571Y534D02*
X6581Y534D01*
X6619Y534D02*
X6635Y534D01*
X6642Y534D02*
X6651Y534D01*
X6678Y534D02*
X6699Y534D01*
X6725Y534D02*
X6746Y534D01*
X6841Y534D02*
X6850Y534D01*
X6417Y533D02*
X6443Y533D01*
X6508Y533D02*
X6536Y533D01*
X6571Y533D02*
X6581Y533D01*
X6620Y533D02*
X6637Y533D01*
X6642Y533D02*
X6651Y533D01*
X6679Y533D02*
X6701Y533D01*
X6723Y533D02*
X6745Y533D01*
X6841Y533D02*
X6850Y533D01*
X6420Y532D02*
X6445Y532D01*
X6506Y532D02*
X6534Y532D01*
X6571Y532D02*
X6582Y532D01*
X6622Y532D02*
X6638Y532D01*
X6642Y532D02*
X6651Y532D01*
X6681Y532D02*
X6703Y532D01*
X6721Y532D02*
X6743Y532D01*
X6841Y532D02*
X6850Y532D01*
X6422Y531D02*
X6447Y531D01*
X6503Y531D02*
X6531Y531D01*
X6572Y531D02*
X6584Y531D01*
X6623Y531D02*
X6651Y531D01*
X6683Y531D02*
X6705Y531D01*
X6719Y531D02*
X6741Y531D01*
X6841Y531D02*
X6850Y531D01*
X6424Y530D02*
X6450Y530D01*
X6501Y530D02*
X6529Y530D01*
X6572Y530D02*
X6587Y530D01*
X6624Y530D02*
X6651Y530D01*
X6685Y530D02*
X6708Y530D01*
X6716Y530D02*
X6739Y530D01*
X6841Y530D02*
X6850Y530D01*
X6427Y529D02*
X6452Y529D01*
X6498Y529D02*
X6526Y529D01*
X6572Y529D02*
X6588Y529D01*
X6625Y529D02*
X6651Y529D01*
X6687Y529D02*
X6737Y529D01*
X6841Y529D02*
X6850Y529D01*
X6429Y528D02*
X6452Y528D01*
X6495Y528D02*
X6523Y528D01*
X6573Y528D02*
X6589Y528D01*
X6627Y528D02*
X6650Y528D01*
X6689Y528D02*
X6735Y528D01*
X6841Y528D02*
X6850Y528D01*
X6431Y527D02*
X6452Y527D01*
X6493Y527D02*
X6521Y527D01*
X6573Y527D02*
X6589Y527D01*
X6628Y527D02*
X6650Y527D01*
X6691Y527D02*
X6733Y527D01*
X6841Y527D02*
X6850Y527D01*
X6433Y526D02*
X6452Y526D01*
X6473Y526D02*
X6518Y526D01*
X6574Y526D02*
X6589Y526D01*
X6629Y526D02*
X6649Y526D01*
X6693Y526D02*
X6731Y526D01*
X6841Y526D02*
X6850Y526D01*
X6374Y525D02*
X6452Y525D01*
X6471Y525D02*
X6516Y525D01*
X6575Y525D02*
X6589Y525D01*
X6630Y525D02*
X6649Y525D01*
X6695Y525D02*
X6729Y525D01*
X6841Y525D02*
X6850Y525D01*
X6373Y524D02*
X6452Y524D01*
X6470Y524D02*
X6513Y524D01*
X6576Y524D02*
X6589Y524D01*
X6632Y524D02*
X6648Y524D01*
X6697Y524D02*
X6727Y524D01*
X6841Y524D02*
X6850Y524D01*
X6372Y523D02*
X6452Y523D01*
X6470Y523D02*
X6511Y523D01*
X6577Y523D02*
X6589Y523D01*
X6633Y523D02*
X6647Y523D01*
X6699Y523D02*
X6725Y523D01*
X6841Y523D02*
X6850Y523D01*
X6372Y522D02*
X6452Y522D01*
X6469Y522D02*
X6508Y522D01*
X6579Y522D02*
X6588Y522D01*
X6635Y522D02*
X6645Y522D01*
X6701Y522D02*
X6723Y522D01*
X6841Y522D02*
X6850Y522D01*
X6372Y521D02*
X6452Y521D01*
X6469Y521D02*
X6505Y521D01*
X6581Y521D02*
X6586Y521D01*
X6637Y521D02*
X6643Y521D01*
X6703Y521D02*
X6721Y521D01*
X6842Y521D02*
X6849Y521D01*
X6372Y520D02*
X6452Y520D01*
X6469Y520D02*
X6503Y520D01*
X6706Y520D02*
X6718Y520D01*
X6843Y520D02*
X6848Y520D01*
X6372Y519D02*
X6452Y519D01*
X6470Y519D02*
X6500Y519D01*
X6711Y519D02*
X6713Y519D01*
X6844Y519D02*
X6847Y519D01*
X6372Y518D02*
X6452Y518D01*
X6470Y518D02*
X6498Y518D01*
X6373Y517D02*
X6452Y517D01*
X6471Y517D02*
X6495Y517D01*
X6374Y516D02*
X6452Y516D01*
X6473Y516D02*
X6493Y516D01*
X6575Y497D02*
X6639Y497D01*
X6573Y496D02*
X6641Y496D01*
X6572Y495D02*
X6642Y495D01*
X6672Y495D02*
X6687Y495D01*
X6773Y495D02*
X6847Y495D01*
X6571Y494D02*
X6644Y494D01*
X6672Y494D02*
X6689Y494D01*
X6772Y494D02*
X6849Y494D01*
X6571Y493D02*
X6646Y493D01*
X6672Y493D02*
X6689Y493D01*
X6771Y493D02*
X6849Y493D01*
X6542Y492D02*
X6547Y492D01*
X6571Y492D02*
X6648Y492D01*
X6672Y492D02*
X6690Y492D01*
X6770Y492D02*
X6850Y492D01*
X6374Y491D02*
X6379Y491D01*
X6445Y491D02*
X6449Y491D01*
X6538Y491D02*
X6548Y491D01*
X6571Y491D02*
X6649Y491D01*
X6672Y491D02*
X6690Y491D01*
X6770Y491D02*
X6850Y491D01*
X6373Y490D02*
X6380Y490D01*
X6443Y490D02*
X6451Y490D01*
X6535Y490D02*
X6549Y490D01*
X6571Y490D02*
X6650Y490D01*
X6672Y490D02*
X6690Y490D01*
X6770Y490D02*
X6850Y490D01*
X6372Y489D02*
X6381Y489D01*
X6443Y489D02*
X6451Y489D01*
X6531Y489D02*
X6549Y489D01*
X6572Y489D02*
X6651Y489D01*
X6672Y489D02*
X6690Y489D01*
X6770Y489D02*
X6850Y489D01*
X6372Y488D02*
X6381Y488D01*
X6442Y488D02*
X6452Y488D01*
X6528Y488D02*
X6549Y488D01*
X6573Y488D02*
X6651Y488D01*
X6672Y488D02*
X6689Y488D01*
X6770Y488D02*
X6850Y488D01*
X6372Y487D02*
X6381Y487D01*
X6442Y487D02*
X6452Y487D01*
X6525Y487D02*
X6549Y487D01*
X6575Y487D02*
X6651Y487D01*
X6672Y487D02*
X6689Y487D01*
X6771Y487D02*
X6849Y487D01*
X6372Y486D02*
X6381Y486D01*
X6442Y486D02*
X6452Y486D01*
X6521Y486D02*
X6549Y486D01*
X6638Y486D02*
X6651Y486D01*
X6672Y486D02*
X6687Y486D01*
X6772Y486D02*
X6848Y486D01*
X6372Y485D02*
X6381Y485D01*
X6442Y485D02*
X6452Y485D01*
X6518Y485D02*
X6549Y485D01*
X6640Y485D02*
X6651Y485D01*
X6672Y485D02*
X6681Y485D01*
X6775Y485D02*
X6846Y485D01*
X6372Y484D02*
X6381Y484D01*
X6442Y484D02*
X6452Y484D01*
X6514Y484D02*
X6548Y484D01*
X6641Y484D02*
X6651Y484D01*
X6672Y484D02*
X6681Y484D01*
X6798Y484D02*
X6822Y484D01*
X6372Y483D02*
X6381Y483D01*
X6442Y483D02*
X6452Y483D01*
X6511Y483D02*
X6547Y483D01*
X6642Y483D02*
X6651Y483D01*
X6672Y483D02*
X6681Y483D01*
X6798Y483D02*
X6823Y483D01*
X6372Y482D02*
X6381Y482D01*
X6442Y482D02*
X6452Y482D01*
X6508Y482D02*
X6544Y482D01*
X6642Y482D02*
X6651Y482D01*
X6672Y482D02*
X6681Y482D01*
X6797Y482D02*
X6824Y482D01*
X6372Y481D02*
X6452Y481D01*
X6504Y481D02*
X6541Y481D01*
X6642Y481D02*
X6651Y481D01*
X6672Y481D02*
X6681Y481D01*
X6796Y481D02*
X6809Y481D01*
X6812Y481D02*
X6824Y481D01*
X6372Y480D02*
X6452Y480D01*
X6501Y480D02*
X6537Y480D01*
X6642Y480D02*
X6651Y480D01*
X6672Y480D02*
X6681Y480D01*
X6795Y480D02*
X6808Y480D01*
X6812Y480D02*
X6825Y480D01*
X6372Y479D02*
X6452Y479D01*
X6497Y479D02*
X6534Y479D01*
X6641Y479D02*
X6651Y479D01*
X6672Y479D02*
X6681Y479D01*
X6794Y479D02*
X6807Y479D01*
X6813Y479D02*
X6826Y479D01*
X6372Y478D02*
X6452Y478D01*
X6494Y478D02*
X6532Y478D01*
X6639Y478D02*
X6651Y478D01*
X6672Y478D02*
X6681Y478D01*
X6793Y478D02*
X6806Y478D01*
X6814Y478D02*
X6827Y478D01*
X6372Y477D02*
X6452Y477D01*
X6490Y477D02*
X6532Y477D01*
X6637Y477D02*
X6651Y477D01*
X6672Y477D02*
X6681Y477D01*
X6792Y477D02*
X6805Y477D01*
X6815Y477D02*
X6828Y477D01*
X6372Y476D02*
X6452Y476D01*
X6487Y476D02*
X6532Y476D01*
X6600Y476D02*
X6651Y476D01*
X6672Y476D02*
X6681Y476D01*
X6792Y476D02*
X6804Y476D01*
X6816Y476D02*
X6829Y476D01*
X6372Y475D02*
X6452Y475D01*
X6484Y475D02*
X6520Y475D01*
X6522Y475D02*
X6532Y475D01*
X6599Y475D02*
X6651Y475D01*
X6672Y475D02*
X6747Y475D01*
X6791Y475D02*
X6804Y475D01*
X6817Y475D02*
X6830Y475D01*
X6372Y474D02*
X6452Y474D01*
X6480Y474D02*
X6517Y474D01*
X6522Y474D02*
X6532Y474D01*
X6598Y474D02*
X6650Y474D01*
X6672Y474D02*
X6750Y474D01*
X6790Y474D02*
X6803Y474D01*
X6818Y474D02*
X6830Y474D01*
X6372Y473D02*
X6452Y473D01*
X6477Y473D02*
X6513Y473D01*
X6522Y473D02*
X6532Y473D01*
X6598Y473D02*
X6650Y473D01*
X6672Y473D02*
X6751Y473D01*
X6789Y473D02*
X6802Y473D01*
X6818Y473D02*
X6831Y473D01*
X6372Y472D02*
X6452Y472D01*
X6473Y472D02*
X6510Y472D01*
X6522Y472D02*
X6532Y472D01*
X6598Y472D02*
X6648Y472D01*
X6672Y472D02*
X6752Y472D01*
X6788Y472D02*
X6801Y472D01*
X6819Y472D02*
X6832Y472D01*
X6372Y471D02*
X6381Y471D01*
X6442Y471D02*
X6452Y471D01*
X6471Y471D02*
X6506Y471D01*
X6522Y471D02*
X6532Y471D01*
X6598Y471D02*
X6648Y471D01*
X6672Y471D02*
X6752Y471D01*
X6787Y471D02*
X6800Y471D01*
X6820Y471D02*
X6833Y471D01*
X6372Y470D02*
X6381Y470D01*
X6442Y470D02*
X6452Y470D01*
X6470Y470D02*
X6503Y470D01*
X6522Y470D02*
X6532Y470D01*
X6598Y470D02*
X6649Y470D01*
X6672Y470D02*
X6752Y470D01*
X6786Y470D02*
X6799Y470D01*
X6821Y470D02*
X6834Y470D01*
X6372Y469D02*
X6381Y469D01*
X6442Y469D02*
X6452Y469D01*
X6470Y469D02*
X6500Y469D01*
X6522Y469D02*
X6532Y469D01*
X6598Y469D02*
X6650Y469D01*
X6672Y469D02*
X6752Y469D01*
X6786Y469D02*
X6798Y469D01*
X6822Y469D02*
X6835Y469D01*
X6372Y468D02*
X6381Y468D01*
X6442Y468D02*
X6452Y468D01*
X6469Y468D02*
X6496Y468D01*
X6522Y468D02*
X6532Y468D01*
X6599Y468D02*
X6651Y468D01*
X6672Y468D02*
X6752Y468D01*
X6785Y468D02*
X6798Y468D01*
X6823Y468D02*
X6836Y468D01*
X6372Y467D02*
X6381Y467D01*
X6442Y467D02*
X6452Y467D01*
X6469Y467D02*
X6493Y467D01*
X6522Y467D02*
X6532Y467D01*
X6600Y467D02*
X6651Y467D01*
X6672Y467D02*
X6751Y467D01*
X6784Y467D02*
X6797Y467D01*
X6824Y467D02*
X6836Y467D01*
X6372Y466D02*
X6381Y466D01*
X6442Y466D02*
X6452Y466D01*
X6469Y466D02*
X6495Y466D01*
X6522Y466D02*
X6532Y466D01*
X6637Y466D02*
X6651Y466D01*
X6672Y466D02*
X6750Y466D01*
X6783Y466D02*
X6796Y466D01*
X6824Y466D02*
X6837Y466D01*
X6372Y465D02*
X6382Y465D01*
X6442Y465D02*
X6452Y465D01*
X6469Y465D02*
X6498Y465D01*
X6522Y465D02*
X6532Y465D01*
X6638Y465D02*
X6651Y465D01*
X6672Y465D02*
X6749Y465D01*
X6782Y465D02*
X6795Y465D01*
X6825Y465D02*
X6838Y465D01*
X6372Y464D02*
X6382Y464D01*
X6441Y464D02*
X6451Y464D01*
X6470Y464D02*
X6502Y464D01*
X6522Y464D02*
X6532Y464D01*
X6640Y464D02*
X6651Y464D01*
X6672Y464D02*
X6681Y464D01*
X6781Y464D02*
X6794Y464D01*
X6826Y464D02*
X6839Y464D01*
X6372Y463D02*
X6384Y463D01*
X6440Y463D02*
X6451Y463D01*
X6471Y463D02*
X6505Y463D01*
X6522Y463D02*
X6532Y463D01*
X6642Y463D02*
X6651Y463D01*
X6672Y463D02*
X6681Y463D01*
X6780Y463D02*
X6793Y463D01*
X6827Y463D02*
X6840Y463D01*
X6373Y462D02*
X6386Y462D01*
X6438Y462D02*
X6451Y462D01*
X6472Y462D02*
X6509Y462D01*
X6522Y462D02*
X6532Y462D01*
X6642Y462D02*
X6651Y462D01*
X6672Y462D02*
X6681Y462D01*
X6780Y462D02*
X6792Y462D01*
X6828Y462D02*
X6841Y462D01*
X6373Y461D02*
X6388Y461D01*
X6436Y461D02*
X6450Y461D01*
X6475Y461D02*
X6512Y461D01*
X6522Y461D02*
X6532Y461D01*
X6642Y461D02*
X6651Y461D01*
X6672Y461D02*
X6681Y461D01*
X6779Y461D02*
X6792Y461D01*
X6829Y461D02*
X6842Y461D01*
X6374Y460D02*
X6390Y460D01*
X6434Y460D02*
X6450Y460D01*
X6479Y460D02*
X6515Y460D01*
X6522Y460D02*
X6532Y460D01*
X6642Y460D02*
X6651Y460D01*
X6672Y460D02*
X6681Y460D01*
X6778Y460D02*
X6791Y460D01*
X6829Y460D02*
X6842Y460D01*
X6374Y459D02*
X6392Y459D01*
X6432Y459D02*
X6449Y459D01*
X6482Y459D02*
X6519Y459D01*
X6522Y459D02*
X6532Y459D01*
X6642Y459D02*
X6651Y459D01*
X6672Y459D02*
X6681Y459D01*
X6777Y459D02*
X6790Y459D01*
X6830Y459D02*
X6843Y459D01*
X6375Y458D02*
X6394Y458D01*
X6430Y458D02*
X6449Y458D01*
X6486Y458D02*
X6532Y458D01*
X6640Y458D02*
X6651Y458D01*
X6672Y458D02*
X6681Y458D01*
X6776Y458D02*
X6789Y458D01*
X6831Y458D02*
X6844Y458D01*
X6376Y457D02*
X6395Y457D01*
X6428Y457D02*
X6448Y457D01*
X6489Y457D02*
X6532Y457D01*
X6638Y457D02*
X6651Y457D01*
X6672Y457D02*
X6681Y457D01*
X6775Y457D02*
X6788Y457D01*
X6832Y457D02*
X6845Y457D01*
X6377Y456D02*
X6397Y456D01*
X6426Y456D02*
X6447Y456D01*
X6493Y456D02*
X6532Y456D01*
X6637Y456D02*
X6651Y456D01*
X6672Y456D02*
X6681Y456D01*
X6774Y456D02*
X6787Y456D01*
X6833Y456D02*
X6846Y456D01*
X6378Y455D02*
X6399Y455D01*
X6424Y455D02*
X6446Y455D01*
X6496Y455D02*
X6532Y455D01*
X6573Y455D02*
X6651Y455D01*
X6672Y455D02*
X6681Y455D01*
X6774Y455D02*
X6786Y455D01*
X6834Y455D02*
X6847Y455D01*
X6379Y454D02*
X6401Y454D01*
X6422Y454D02*
X6444Y454D01*
X6499Y454D02*
X6536Y454D01*
X6572Y454D02*
X6651Y454D01*
X6672Y454D02*
X6687Y454D01*
X6773Y454D02*
X6786Y454D01*
X6835Y454D02*
X6848Y454D01*
X6381Y453D02*
X6403Y453D01*
X6420Y453D02*
X6443Y453D01*
X6503Y453D02*
X6539Y453D01*
X6572Y453D02*
X6650Y453D01*
X6672Y453D02*
X6688Y453D01*
X6772Y453D02*
X6785Y453D01*
X6835Y453D02*
X6848Y453D01*
X6383Y452D02*
X6405Y452D01*
X6418Y452D02*
X6441Y452D01*
X6506Y452D02*
X6543Y452D01*
X6571Y452D02*
X6649Y452D01*
X6672Y452D02*
X6689Y452D01*
X6771Y452D02*
X6784Y452D01*
X6836Y452D02*
X6849Y452D01*
X6385Y451D02*
X6408Y451D01*
X6415Y451D02*
X6439Y451D01*
X6510Y451D02*
X6546Y451D01*
X6571Y451D02*
X6648Y451D01*
X6672Y451D02*
X6690Y451D01*
X6770Y451D02*
X6783Y451D01*
X6837Y451D02*
X6850Y451D01*
X6387Y450D02*
X6437Y450D01*
X6513Y450D02*
X6547Y450D01*
X6571Y450D02*
X6646Y450D01*
X6672Y450D02*
X6690Y450D01*
X6770Y450D02*
X6782Y450D01*
X6838Y450D02*
X6850Y450D01*
X6389Y449D02*
X6434Y449D01*
X6517Y449D02*
X6548Y449D01*
X6571Y449D02*
X6645Y449D01*
X6672Y449D02*
X6690Y449D01*
X6770Y449D02*
X6781Y449D01*
X6839Y449D02*
X6850Y449D01*
X6391Y448D02*
X6432Y448D01*
X6520Y448D02*
X6549Y448D01*
X6572Y448D02*
X6643Y448D01*
X6672Y448D02*
X6690Y448D01*
X6770Y448D02*
X6780Y448D01*
X6840Y448D02*
X6850Y448D01*
X6393Y447D02*
X6430Y447D01*
X6523Y447D02*
X6549Y447D01*
X6573Y447D02*
X6641Y447D01*
X6672Y447D02*
X6690Y447D01*
X6770Y447D02*
X6780Y447D01*
X6841Y447D02*
X6850Y447D01*
X6395Y446D02*
X6428Y446D01*
X6527Y446D02*
X6549Y446D01*
X6574Y446D02*
X6639Y446D01*
X6672Y446D02*
X6689Y446D01*
X6771Y446D02*
X6779Y446D01*
X6841Y446D02*
X6849Y446D01*
X6397Y445D02*
X6426Y445D01*
X6530Y445D02*
X6549Y445D01*
X6672Y445D02*
X6688Y445D01*
X6772Y445D02*
X6778Y445D01*
X6842Y445D02*
X6849Y445D01*
X6399Y444D02*
X6424Y444D01*
X6534Y444D02*
X6549Y444D01*
X6672Y444D02*
X6686Y444D01*
X6773Y444D02*
X6776Y444D01*
X6844Y444D02*
X6847Y444D01*
X6401Y443D02*
X6422Y443D01*
X6537Y443D02*
X6548Y443D01*
X6403Y442D02*
X6420Y442D01*
X6541Y442D02*
X6547Y442D01*
X6406Y441D02*
X6417Y441D01*
X6544Y441D02*
X6545Y441D01*
D02*
G04 End of Copper0*
M02*